<svg width="24" height="24" viewBox="0 0 24 24" fill="none" xmlns="http://www.w3.org/2000/svg">
<path d="M21.1827 12.8629L21.7525 10.8192C22.4181 8.43391 22.7521 7.24178 22.5019 6.20937C22.3036 5.39434 21.8579 4.65405 21.2212 4.08216C20.4156 3.35757 19.1724 3.03812 16.6871 2.39921C14.2018 1.75925 12.9586 1.4398 11.8841 1.67992C11.0349 1.87023 10.2636 2.29798 9.66772 2.90907C9.02077 3.57124 8.68353 4.54124 8.18206 6.30352L7.91314 7.26082L7.34335 9.30447C6.67656 11.6898 6.34372 12.8819 6.59391 13.9143C6.79219 14.7293 7.23787 15.4696 7.87457 16.0415C8.68022 16.7661 9.92341 17.0856 12.4087 17.7255C14.6482 18.301 15.8793 18.6173 16.8877 18.4977C16.9979 18.485 17.1059 18.466 17.2117 18.4427C18.0607 18.253 18.8319 17.826 19.4281 17.2157C20.183 16.4414 20.5159 15.2482 21.1827 12.8629Z" stroke="#4B0082" stroke-width="1.5"/>
<path opacity="0.5" d="M16.8876 18.4978C16.6572 19.1751 16.2523 19.7856 15.7105 20.2727C14.9049 20.9973 13.6617 21.3168 11.1764 21.9557C8.6911 22.5946 7.44791 22.9151 6.37334 22.6739C5.52428 22.4839 4.75299 22.0565 4.15698 21.4458C3.40202 20.6726 3.06808 19.4794 2.4024 17.0941L1.83261 15.0504C1.16582 12.6651 0.832982 11.4719 1.08316 10.4406C1.28145 9.62553 1.72713 8.88525 2.36383 8.31335C3.16948 7.58876 4.41267 7.26931 6.89795 6.62935C7.36745 6.50876 7.79397 6.39875 8.18192 6.30249" stroke="#4B0082" stroke-width="1.5"/>
<path d="M11.7754 10.063L17.0986 11.4318" stroke="#4B0082" stroke-width="1.5" stroke-linecap="round"/>
<path opacity="0.5" d="M10.9189 13.1284L14.1129 13.9493" stroke="#4B0082" stroke-width="1.5" stroke-linecap="round"/>
</svg>
