<svg width="17" height="15" viewBox="0 0 17 15" fill="none" xmlns="http://www.w3.org/2000/svg">
<path d="M3.39901 15C3.02956 15 2.73399 14.9261 2.36453 14.8522C2.14286 14.7783 1.92118 14.6305 1.7734 14.4828L1.69951 14.4089C1.62562 14.335 1.55172 14.1872 1.55172 14.1133C1.55172 13.9655 1.62562 13.8916 1.7734 13.8177C2.36453 13.5222 2.88177 13.0049 3.17734 12.4138C3.25123 12.3399 3.32512 12.266 3.32512 12.1921C1.25616 10.936 0 8.94088 0 6.79803C0 3.10345 3.84236 0 8.49753 0C13.1527 0 16.9951 3.10345 16.9951 6.79803C16.9951 10.4926 13.1527 13.5961 8.49753 13.5961C8.05418 13.5961 7.53694 13.5961 7.09359 13.5222C5.98522 14.4828 4.65517 15 3.39901 15Z" fill="white"/>
</svg>
