<svg width="24" height="24" viewBox="0 0 24 24" fill="none" xmlns="http://www.w3.org/2000/svg">
<path d="M12 0C5.37097 0 0 5.16767 0 11.5458C0 17.9239 5.37097 23.0916 12 23.0916C18.629 23.0916 24 17.9239 24 11.5458C24 5.16767 18.629 0 12 0ZM18.9677 12.8493C18.9677 13.1566 18.7065 13.408 18.3871 13.408H13.9355V17.6911C13.9355 17.9984 13.6742 18.2498 13.3548 18.2498H10.6452C10.3258 18.2498 10.0645 17.9984 10.0645 17.6911V13.408H5.6129C5.29355 13.408 5.03226 13.1566 5.03226 12.8493V10.2422C5.03226 9.93496 5.29355 9.68356 5.6129 9.68356H10.0645V5.40045C10.0645 5.09318 10.3258 4.84178 10.6452 4.84178H13.3548C13.6742 4.84178 13.9355 5.09318 13.9355 5.40045V9.68356H18.3871C18.7065 9.68356 18.9677 9.93496 18.9677 10.2422V12.8493Z" fill="#7166F9"/>
</svg>
