<svg width="26" height="26" viewBox="0 0 26 26" fill="none" xmlns="http://www.w3.org/2000/svg">
<path fill-rule="evenodd" clip-rule="evenodd" d="M11.343 8.54593C11.3613 8.30841 11.5594 8.125 11.7976 8.125H12.0461C12.2804 8.125 12.4765 8.30248 12.4998 8.53554L13.0004 13.5417L16.5624 15.5771C16.7044 15.6582 16.7921 15.8093 16.7921 15.9729V16.1948C16.7921 16.4954 16.5062 16.7137 16.2162 16.6346L11.1972 15.2658C10.9863 15.2083 10.8459 15.009 10.8626 14.791L11.343 8.54593Z" fill="#F23936"/>
<path opacity="0.3" fill-rule="evenodd" clip-rule="evenodd" d="M6.60925 1.40533C6.36843 1.11834 5.90347 1.22819 5.81655 1.5926L4.52772 6.99586C4.4569 7.29279 4.69221 7.57408 4.99698 7.5568L10.5554 7.24182C10.93 7.22059 11.12 6.78108 10.8788 6.4936L9.47894 4.82529C10.4258 4.50155 11.4299 4.33246 12.4609 4.33246C17.5466 4.33246 21.6693 8.45517 21.6693 13.5408C21.6693 18.6264 17.5466 22.7491 12.4609 22.7491C7.37532 22.7491 3.2526 18.6264 3.2526 13.5408C3.2526 12.687 3.36822 11.8509 3.59365 11.0472L1.5075 10.462C1.23283 11.4412 1.08594 12.4739 1.08594 13.5408C1.08594 19.823 6.1787 24.9158 12.4609 24.9158C18.7432 24.9158 23.8359 19.823 23.8359 13.5408C23.8359 7.25855 18.7432 2.16579 12.4609 2.16579C10.8802 2.16579 9.37478 2.48823 8.00684 3.07092L6.60925 1.40533Z" fill="#F23936"/>
</svg>
