<svg width="130" height="29" viewBox="0 0 130 29" fill="none" xmlns="http://www.w3.org/2000/svg">
<g clip-path="url(#clip0_3_627)">
<path fill-rule="evenodd" clip-rule="evenodd" d="M44.0862 19.1744L44.0611 18.8467H43.7261H41.6461H41.2699L41.2854 19.2153C41.457 23.3216 44.2805 26.0414 49.3017 26.0414C54.0907 26.0414 57.3472 23.6017 57.3472 19.9089C57.3472 17.9121 56.6409 16.499 55.2944 15.534C54.2589 14.7917 53.0205 14.3732 50.9669 13.9367C50.8297 13.9075 50.687 13.8777 50.5154 13.8423C50.4139 13.8213 50.0487 13.7464 50.0679 13.7504C46.3389 12.9838 45.1561 12.3179 45.1561 10.3349C45.1561 8.28418 46.8664 6.97827 49.735 6.97827C52.5259 6.97827 54.2898 8.64955 54.3717 11.2804L54.3827 11.6237H54.7328H56.7839H57.1533L57.145 11.2614C57.0484 7.16053 54.242 4.40064 49.7061 4.40064C45.2603 4.40064 42.325 7.02356 42.325 10.4198C42.325 12.411 43.0307 13.7976 44.3792 14.7241C45.4065 15.4299 46.5965 15.804 48.6957 16.2196C48.7941 16.239 48.8966 16.2591 49.0187 16.2829C49.0943 16.2976 49.1796 16.3141 49.3399 16.3452C51.3263 16.7305 52.2026 16.9683 53.0022 17.4242C53.9948 17.9901 54.4873 18.7984 54.4873 20.0505C54.4873 22.2245 52.6232 23.4638 49.3595 23.4638C46.235 23.4638 44.296 21.9274 44.0862 19.1744ZM63.1972 4.04657V3.6925H62.8361H60.785H60.4239V4.04657V25.2908V25.6448H60.785H62.8361H63.1972V25.2908V21.5029L66.1164 18.7152L71.3298 25.5037L71.4381 25.6448H71.6184H74.1606H74.888L74.4481 25.0767L68.0812 16.854L73.9532 11.124L74.5729 10.519H73.6984H70.9539H70.8036L70.6977 10.6236L63.1972 18.0301V4.04657ZM89.1106 19.0166H89.4497L89.471 18.6847C89.4748 18.6263 89.4803 18.5297 89.4858 18.4135C89.4899 18.3214 89.4937 18.2317 89.4961 18.1469C89.4992 18.055 89.5006 17.9714 89.5006 17.8978C89.5006 13.4536 86.4985 10.1791 82.0617 10.1791C77.6331 10.1791 74.4784 13.6647 74.4784 18.0677C74.4784 22.5985 77.4904 25.9847 82.0906 25.9847C85.5689 25.9847 88.2563 23.9611 89.2244 20.8916L89.3692 20.4329H88.8795H86.7417H86.4865L86.4012 20.6686C85.7932 22.3486 84.1472 23.4638 82.1195 23.4638C79.4686 23.4638 77.6204 21.6787 77.2875 19.0166H89.1106ZM77.3714 16.6656C77.8394 14.2821 79.6275 12.7 82.0617 12.7C84.5706 12.7 86.3022 14.2302 86.6808 16.6656H77.3714ZM98.6006 12.9266H98.9617V12.5726V10.873V10.519H98.6006H95.5817V6.76583V6.41176H95.2206H93.1695H92.8084V6.76583V10.519H90.3673H90.0061V10.873V12.5726V12.9266H90.3673H92.8084V21.4102C92.8084 24.1931 94.2807 25.7015 96.9828 25.7015C97.4543 25.7015 97.8612 25.6738 98.2023 25.6273C98.4135 25.5986 98.559 25.5688 98.6394 25.5469L98.9039 25.4749V25.2058V23.3929V22.9536L98.4661 23.047C98.4486 23.0507 98.4131 23.0578 98.3626 23.0671C98.2766 23.0828 98.181 23.0987 98.0785 23.1135C97.8161 23.1513 97.5554 23.1756 97.3157 23.1798C97.2909 23.1803 97.2669 23.1805 97.2428 23.1805C96.0591 23.1805 95.5817 22.6353 95.5817 21.2685V12.9266H98.6006ZM107.224 25.9847C111.063 25.9847 113.773 23.603 114.454 20.2326L114.539 19.8098H114.099H112.019H111.742L111.67 20.0729C111.087 22.2237 109.505 23.4638 107.224 23.4638C104.378 23.4638 102.414 21.2622 102.414 18.0961C102.414 14.9054 104.374 12.7 107.224 12.7C109.505 12.7 111.087 13.9401 111.67 16.0909L111.742 16.354H112.019H114.099H114.539L114.454 15.9312C113.773 12.5608 111.063 10.1791 107.224 10.1791C102.765 10.1791 99.6117 13.6893 99.6117 18.0961C99.6117 22.4785 102.769 25.9847 107.224 25.9847ZM119.646 4.04657V3.6925H119.285H117.234H116.873V4.04657V25.2908V25.6448H117.234H119.285H119.646V25.2908V16.7648C119.646 14.167 121.259 12.6434 123.705 12.6434C126.042 12.6434 127.215 13.9696 127.215 16.4815V25.2908V25.6448H127.576H129.627H129.988V25.2908V16.0849C129.988 12.5367 127.747 10.1791 124.052 10.1791C122.15 10.1791 120.622 10.8621 119.646 11.8424V4.04657Z" fill="black"/>
<path fill-rule="evenodd" clip-rule="evenodd" d="M7.18893 0.954798L16.4746 0L25.7604 0.954798L32.9493 10.341L16.4746 29L0 10.341L7.18893 0.954798Z" fill="#FDB300"/>
<path fill-rule="evenodd" clip-rule="evenodd" d="M6.67299 10.3408L16.4746 29L0 10.3408H6.67299Z" fill="#EA6C00"/>
<path fill-rule="evenodd" clip-rule="evenodd" d="M26.2763 10.3408L16.4747 29L32.9493 10.3408H26.2763Z" fill="#EA6C00"/>
<path fill-rule="evenodd" clip-rule="evenodd" d="M6.6731 10.3408H26.2763L16.4747 29L6.6731 10.3408Z" fill="#FDAD00"/>
<path fill-rule="evenodd" clip-rule="evenodd" d="M16.4747 0L7.18897 0.954639L6.6731 10.3409L16.4747 0Z" fill="#FDD231"/>
<path fill-rule="evenodd" clip-rule="evenodd" d="M16.4747 0L25.7604 0.954639L26.2763 10.3409L16.4747 0Z" fill="#FDD231"/>
<path fill-rule="evenodd" clip-rule="evenodd" d="M32.9494 10.3409L25.7605 0.954712L26.2764 10.3409H32.9494Z" fill="#FDAD00"/>
<path fill-rule="evenodd" clip-rule="evenodd" d="M0 10.3409L7.18886 0.954712L6.67299 10.3409H0Z" fill="#FDAD00"/>
<path fill-rule="evenodd" clip-rule="evenodd" d="M16.4747 0L6.6731 10.3409H26.2763L16.4747 0Z" fill="#FEEEB7"/>
</g>
<defs>
<clipPath id="clip0_3_627">
<rect width="130" height="29" fill="white"/>
</clipPath>
</defs>
</svg>
