<svg width="26" height="26" viewBox="0 0 26 26" fill="none" xmlns="http://www.w3.org/2000/svg">
<g opacity="0.2">
<path fill-rule="evenodd" clip-rule="evenodd" d="M7.58333 17.3332C7.58333 16.7373 8.07083 16.2498 8.66667 16.2498C9.2625 16.2498 9.75 16.7373 9.75 17.3332C9.75 17.929 9.2625 18.4165 8.66667 18.4165C8.07083 18.4165 7.58333 17.929 7.58333 17.3332ZM13 16.2498H17.3333C17.9292 16.2498 18.4167 16.7373 18.4167 17.3332C18.4167 17.929 17.9292 18.4165 17.3333 18.4165H13C12.4042 18.4165 11.9167 17.929 11.9167 17.3332C11.9167 16.7373 12.4042 16.2498 13 16.2498ZM19.5 21.6665H6.5C5.90308 21.6665 5.41667 21.1801 5.41667 20.5832V14.0832H20.5833V20.5832C20.5833 21.1801 20.0969 21.6665 19.5 21.6665ZM6.5 6.49984H7.58333V7.58317C7.58333 8.179 8.07083 8.6665 8.66667 8.6665C9.2625 8.6665 9.75 8.179 9.75 7.58317V6.49984H16.25V7.58317C16.25 8.179 16.7375 8.6665 17.3333 8.6665C17.9292 8.6665 18.4167 8.179 18.4167 7.58317V6.49984H19.5C20.0969 6.49984 20.5833 6.98625 20.5833 7.58317V11.9165H5.41667V7.58317C5.41667 6.98625 5.90308 6.49984 6.5 6.49984ZM19.5 4.33317H18.4167V3.24984C18.4167 2.654 17.9292 2.1665 17.3333 2.1665C16.7375 2.1665 16.25 2.654 16.25 3.24984V4.33317H9.75V3.24984C9.75 2.654 9.2625 2.1665 8.66667 2.1665C8.07083 2.1665 7.58333 2.654 7.58333 3.24984V4.33317H6.5C4.70817 4.33317 3.25 5.79134 3.25 7.58317V20.5832C3.25 22.375 4.70817 23.8332 6.5 23.8332H19.5C21.2918 23.8332 22.75 22.375 22.75 20.5832V7.58317C22.75 5.79134 21.2918 4.33317 19.5 4.33317Z" fill="black"/>
</g>
</svg>
