<svg width="25" height="24" viewBox="0 0 25 24" fill="none" xmlns="http://www.w3.org/2000/svg">
<path d="M15.7979 15.9999H17.6207C17.9246 15.9999 18.2284 15.5999 18.2284 15.1999V6.79997C18.2284 6.39997 17.9246 5.99998 17.6207 5.99998H15.7979C15.4941 5.99998 15.1903 6.39997 15.1903 6.79997V15.1999C15.1903 15.5999 15.4941 15.9999 15.7979 15.9999ZM20.355 15.9999H22.1778C22.4816 15.9999 22.7854 15.5999 22.7854 15.1999V0.799997C22.7854 0.399999 22.4816 0 22.1778 0H20.355C20.0512 0 19.7474 0.399999 19.7474 0.799997V15.1999C19.7474 15.5999 20.0512 15.9999 20.355 15.9999ZM6.68373 15.9999H8.50657C8.81037 15.9999 9.11418 15.5999 9.11418 15.1999V10.8C9.11418 10.4 8.81037 9.99996 8.50657 9.99996H6.68373C6.37993 9.99996 6.07612 10.4 6.07612 10.8V15.1999C6.07612 15.5999 6.37993 15.9999 6.68373 15.9999ZM11.2408 15.9999H13.0637C13.3675 15.9999 13.6713 15.5999 13.6713 15.1999V2.79999C13.6713 2.39999 13.3675 1.99999 13.0637 1.99999H11.2408C10.937 1.99999 10.6332 2.39999 10.6332 2.79999V15.1999C10.6332 15.5999 10.937 15.9999 11.2408 15.9999ZM23.545 19.9999H3.03806V0.999996C3.03806 0.447498 2.69818 0 2.27854 0H0.759515C0.339883 0 0 0.447498 0 0.999996V21.9999C0 23.1043 0.680241 23.9999 1.51903 23.9999H23.545C23.9646 23.9999 24.3045 23.5524 24.3045 22.9999V20.9999C24.3045 20.4474 23.9646 19.9999 23.545 19.9999Z" fill="#FDFDFD"/>
</svg>
