<svg width="21" height="21" viewBox="0 0 21 21" fill="none" xmlns="http://www.w3.org/2000/svg">
<g clip-path="url(#clip0_0_48)">
<path d="M6.56274 15.955C6.35415 15.9552 6.15263 15.8794 5.99591 15.7417L0.745928 11.148C0.653593 11.0671 0.579599 10.9675 0.528904 10.8557C0.478209 10.744 0.451983 10.6227 0.451983 10.4999C0.451983 10.3772 0.478209 10.2559 0.528904 10.1441C0.579599 10.0324 0.653593 9.93274 0.745928 9.85189L5.99591 5.25816C6.16784 5.10772 6.39248 5.03173 6.62043 5.04692C6.84838 5.06212 7.06096 5.16724 7.2114 5.33916C7.36185 5.51109 7.43783 5.73574 7.42264 5.96369C7.40745 6.19164 7.30232 6.40422 7.1304 6.55466L2.62075 10.4999L7.12999 14.4452C7.26196 14.5606 7.35559 14.7135 7.39837 14.8835C7.44114 15.0535 7.43103 15.2325 7.36937 15.3966C7.30772 15.5607 7.19746 15.7021 7.05333 15.8019C6.90919 15.9016 6.73804 15.9551 6.56274 15.955Z" fill="white"/>
<path d="M14.4376 15.955C14.2623 15.9551 14.091 15.9018 13.9468 15.802C13.8027 15.7023 13.6923 15.5609 13.6306 15.3968C13.5689 15.2327 13.5588 15.0536 13.6015 14.8836C13.6443 14.7136 13.7379 14.5606 13.8699 14.4452L18.3796 10.4999L13.8703 6.55466C13.6984 6.40422 13.5933 6.19164 13.5781 5.96369C13.5629 5.73574 13.6389 5.51109 13.7893 5.33916C13.9398 5.16724 14.1524 5.06212 14.3803 5.04692C14.6083 5.03173 14.8329 5.10772 15.0048 5.25816L20.2548 9.85189C20.3472 9.93274 20.4212 10.0324 20.4718 10.1441C20.5225 10.2559 20.5488 10.3772 20.5488 10.4999C20.5488 10.6227 20.5225 10.744 20.4718 10.8557C20.4212 10.9675 20.3472 11.0671 20.2548 11.148L15.0048 15.7417C14.848 15.8795 14.6463 15.9554 14.4376 15.955Z" fill="white"/>
<path d="M8.53134 17.9238C8.39721 17.9237 8.26494 17.8924 8.14506 17.8322C8.02519 17.772 7.92103 17.6847 7.84088 17.5771C7.76073 17.4695 7.70681 17.3448 7.68341 17.2127C7.66001 17.0806 7.66779 16.9449 7.70611 16.8163L11.6436 3.69139C11.6733 3.58001 11.725 3.47572 11.7957 3.38469C11.8664 3.29367 11.9546 3.21775 12.0552 3.16145C12.1558 3.10516 12.2666 3.06961 12.3812 3.05694C12.4957 3.04426 12.6117 3.0547 12.7221 3.08765C12.8326 3.12059 12.9353 3.17537 13.0242 3.24873C13.1131 3.3221 13.1863 3.41256 13.2396 3.51475C13.2929 3.61695 13.3252 3.7288 13.3344 3.84369C13.3437 3.95857 13.3299 4.07415 13.2937 4.18357L9.35616 17.3085C9.3032 17.4862 9.19432 17.642 9.04572 17.7529C8.89712 17.8637 8.71673 17.9236 8.53134 17.9238Z" fill="white"/>
</g>
<defs>
<clipPath id="clip0_0_48">
<rect width="20.1342" height="20.1342" fill="white" transform="scale(1.043)"/>
</clipPath>
</defs>
</svg>
