<svg width="20" height="20" viewBox="0 0 20 20" fill="none" xmlns="http://www.w3.org/2000/svg">
<g clip-path="url(#clip0_1169_1899)">
<path d="M9.16699 19.6584V16.6584C4.99199 16.4417 1.66699 12.975 1.66699 8.75004C1.66699 4.38337 5.21699 0.833374 9.58366 0.833374C13.9503 0.833374 17.5003 4.38337 17.5003 8.75004C17.5003 12.875 14.6337 17.025 10.3587 19.0834L9.16699 19.6584ZM9.58366 2.50004C6.13366 2.50004 3.33366 5.30004 3.33366 8.75004C3.33366 12.2 6.13366 15 9.58366 15H10.8337V16.9167C13.867 15 15.8337 11.85 15.8337 8.75004C15.8337 5.30004 13.0337 2.50004 9.58366 2.50004ZM8.75033 12.0834H10.417V13.75H8.75033V12.0834ZM10.417 10.8334H8.75033C8.75033 8.12504 11.2503 8.33337 11.2503 6.66671C11.2503 5.75004 10.5003 5.00004 9.58366 5.00004C8.66699 5.00004 7.91699 5.75004 7.91699 6.66671H6.25033C6.25033 4.82504 7.74199 3.33337 9.58366 3.33337C11.4253 3.33337 12.917 4.82504 12.917 6.66671C12.917 8.75004 10.417 8.95837 10.417 10.8334Z" fill="black"/>
</g>
<defs>
<clipPath id="clip0_1169_1899">
<rect width="20" height="20" fill="white"/>
</clipPath>
</defs>
</svg>
