<svg width="21" height="18" viewBox="0 0 21 18" fill="none" xmlns="http://www.w3.org/2000/svg">
<path d="M20.2536 8.9999C20.2536 13.9715 15.7193 17.9998 10.1268 17.9998C4.53431 17.9998 0 13.9715 0 8.9999C0 4.03119 4.53431 0 10.1268 0C15.7193 0 20.2536 4.03119 20.2536 8.9999ZM10.3985 2.97577C8.17322 2.97577 6.75392 3.80888 5.6394 5.28955C5.49501 5.48138 5.54332 5.74009 5.75026 5.87955L7.16716 6.83434C7.3797 6.97757 7.68252 6.9435 7.84765 6.75733C8.57711 5.93507 9.07729 5.45826 10.1876 5.45826C11.0218 5.45826 12.0536 5.9354 12.0536 6.6543C12.0536 7.19778 11.5488 7.47689 10.7251 7.88729C9.76452 8.36584 8.49344 8.96147 8.49344 10.4515V10.5967C8.49344 10.8372 8.71284 11.0321 8.98345 11.0321H11.2701C11.5408 11.0321 11.7602 10.8372 11.7602 10.5967V10.5483C11.7602 9.5154 15.157 9.4724 15.157 6.67735C15.157 4.57246 12.7002 2.97577 10.3985 2.97577ZM10.1268 11.9757C9.09105 11.9757 8.24844 12.7245 8.24844 13.645C8.24844 14.5655 9.09105 15.3143 10.1268 15.3143C11.1625 15.3143 12.0052 14.5655 12.0052 13.645C12.0052 12.7245 11.1625 11.9757 10.1268 11.9757Z" fill="#F6F6FB"/>
</svg>
