<svg width="32" height="32" viewBox="0 0 32 32" fill="none" xmlns="http://www.w3.org/2000/svg">
<path d="M29.9033 11.459C29.8453 11.0859 29.7683 10.722 29.6533 10.362C29.5163 9.93495 29.3953 9.50795 29.2203 9.09595C29.0783 8.76695 28.8913 8.45495 28.6873 8.16295C28.4623 7.84395 28.2143 7.54295 27.9653 7.24495C27.7783 7.02195 27.5743 6.80395 27.3533 6.61595C27.0613 6.36595 26.7603 6.11595 26.4433 5.89795C26.1513 5.69795 25.8493 5.53395 25.5273 5.38795C24.8813 5.09195 24.2053 4.93595 23.5133 4.79195C23.2073 4.72795 22.9003 4.65995 22.6013 4.56595C22.3743 4.49495 22.1533 4.40395 21.9333 4.31595C21.7353 4.22295 21.5513 4.10295 21.3703 3.97995C21.3473 3.96095 21.3233 3.93995 21.3003 3.92195C21.0023 3.69295 20.6693 3.50595 20.3383 3.32695C19.6393 2.95595 18.8853 2.69995 18.1233 2.49995C17.6713 2.38095 17.1903 2.31095 16.7263 2.25795C16.3403 2.21095 15.9473 2.17395 15.5573 2.17395C15.5143 2.17395 15.4703 2.17395 15.4273 2.17495C14.9523 2.18495 14.4843 2.23695 14.0153 2.31195C13.8093 2.34495 13.6033 2.37495 13.4033 2.42895C13.1913 2.48695 12.9823 2.55595 12.7723 2.62295C12.3533 2.75795 11.9433 2.92895 11.5333 3.09395C11.0873 3.27495 10.6483 3.46695 10.2113 3.66895C9.80629 3.85595 9.42529 4.09495 9.05029 4.33595C8.67329 4.57595 8.30729 4.82795 7.94429 5.08995C7.18429 5.63995 6.47029 6.27095 5.79329 6.92095C5.47729 7.22095 5.20429 7.55595 4.92929 7.89295C4.62929 8.25995 4.32529 8.63395 4.06129 9.02795C3.82029 9.38795 3.61729 9.76495 3.42229 10.152C3.21829 10.561 3.05729 10.985 2.89229 11.411C2.70429 11.838 2.50329 12.261 2.36429 12.707C2.29929 12.9209 2.26829 13.151 2.22229 13.369C2.16629 13.638 2.12029 13.91 2.09129 14.183C2.03529 14.729 1.95829 15.301 2.02729 15.849C2.06529 16.143 2.11029 16.43 2.19129 16.715C2.26629 16.984 2.39729 17.2339 2.55829 17.4599C2.64029 17.5739 2.73229 17.682 2.82229 17.792C3.03629 18.0789 3.23529 18.378 3.43229 18.677C3.58029 18.906 3.72629 19.131 3.89629 19.347C4.05629 19.551 4.25029 19.724 4.44629 19.891C5.13729 20.478 5.96829 20.893 6.78429 21.274C7.63429 21.67 8.52729 21.97 9.43729 22.186C10.3163 22.392 11.2053 22.4879 12.1063 22.542C12.7563 22.582 13.4033 22.559 14.0513 22.492C14.1913 22.477 14.3293 22.454 14.4683 22.437C14.7313 22.999 15.1323 23.479 15.5663 23.9249C15.1063 24.5319 14.6563 25.1479 14.2063 25.761C13.9623 26.0919 13.7353 26.431 13.5193 26.7789C13.3363 27.073 13.1633 27.372 13.0253 27.691C12.8253 28.153 12.5523 28.759 12.8363 29.246C12.9753 29.485 13.1843 29.592 13.4303 29.69C13.5263 29.73 13.6963 29.736 13.7843 29.746C13.8213 29.75 13.8573 29.756 13.8943 29.76C14.0923 29.783 14.2903 29.791 14.4883 29.798C14.8503 29.811 15.2113 29.8249 15.5733 29.827C15.7873 29.827 15.9913 29.823 16.2003 29.781C16.5483 29.708 16.7503 29.392 16.9063 29.1019C17.2243 28.5129 17.5933 27.952 17.9933 27.413C18.3473 26.9799 18.7243 26.568 19.1073 26.162C19.1473 26.12 19.1703 26.069 19.1983 26.02C19.3753 26.041 19.5533 26.061 19.7313 26.062C20.1253 26.066 20.5203 26.031 20.9123 25.979C21.3293 25.923 21.7353 25.8349 22.1413 25.7269C22.5803 25.6099 22.9953 25.396 23.3903 25.1749C24.1293 24.7589 24.8183 24.28 25.4853 23.759C25.7813 23.526 26.0783 23.2859 26.3183 22.993C26.6123 22.635 26.8783 22.264 27.1203 21.8689C27.5323 21.2029 27.9203 20.5159 28.2743 19.82C28.4513 19.4699 28.6113 19.11 28.7653 18.75C28.9363 18.356 29.1073 17.959 29.2313 17.5459C29.4583 16.778 29.6433 15.997 29.7703 15.208C29.8433 14.758 29.8783 14.304 29.9163 13.85C29.9473 13.482 29.9783 13.115 29.9953 12.748C30.0163 12.317 29.9663 11.8849 29.9033 11.459ZM14.3223 3.88195C14.3823 3.87395 14.4423 3.86595 14.5023 3.85795C14.4403 3.86595 14.3783 3.87495 14.3163 3.88295C14.3183 3.88295 14.3203 3.88295 14.3223 3.88195ZM6.13529 8.97195C6.14029 8.96495 6.14529 8.95895 6.15029 8.95195C6.12629 8.98295 6.10329 9.01395 6.07929 9.04295C6.09829 9.01895 6.11629 8.99595 6.13529 8.97195ZM16.6273 26.8659C16.4293 27.1449 16.2363 27.43 16.0463 27.716C15.9143 27.9139 15.7933 28.1199 15.6633 28.3209C15.4573 28.323 15.2513 28.306 15.0473 28.292C14.8693 28.28 14.6903 28.268 14.5123 28.254C14.7983 27.629 15.1743 27.056 15.5863 26.5079C15.9683 26.0259 16.3563 25.547 16.7403 25.066C16.7663 25.0879 16.7903 25.113 16.8173 25.134C17.0733 25.337 17.3573 25.5009 17.6553 25.636C17.2923 26.028 16.9383 26.4279 16.6273 26.8659ZM18.5673 23.049C18.2193 23.1339 17.8693 23.205 17.5173 23.2759C17.4493 23.2899 17.3953 23.3289 17.3363 23.3619C17.2273 23.254 17.1153 23.1509 17.0053 23.0429C16.7033 22.7459 16.4053 22.4499 16.1363 22.1229L16.1333 22.1189C16.7663 21.937 17.3903 21.68 17.9913 21.417C18.6143 21.1439 19.2183 20.8239 19.7763 20.434C19.8123 20.409 19.8373 20.377 19.8693 20.35L19.8733 20.347C20.0713 20.492 20.2753 20.629 20.4843 20.7579C20.7093 20.893 20.9283 21.0389 21.1553 21.17C21.2843 21.2439 21.4203 21.311 21.5523 21.382C21.4513 21.475 21.3623 21.58 21.2573 21.667C20.6403 22.117 19.9723 22.489 19.2773 22.805C19.0463 22.899 18.8113 22.989 18.5673 23.049ZM24.7953 22.391C24.5843 22.58 24.3583 22.7509 24.1333 22.923C23.5163 23.379 22.8693 23.8069 22.1693 24.1229C21.7503 24.271 21.3203 24.369 20.8813 24.44C20.3903 24.49 19.9023 24.509 19.4103 24.468C19.4083 24.468 19.4053 24.4669 19.4033 24.466C19.4343 24.454 19.4673 24.447 19.4993 24.434C20.0243 24.217 20.5243 23.9529 21.0133 23.6639C21.5023 23.3739 21.9753 23.07 22.4173 22.712C22.6093 22.556 22.7853 22.375 22.9623 22.2C23.0183 22.146 23.0703 22.088 23.1263 22.033C23.5973 22.166 24.0863 22.2619 24.5673 22.306C24.6643 22.315 24.7623 22.3169 24.8603 22.323C24.8363 22.346 24.8183 22.37 24.7953 22.391ZM28.4943 13.493C28.4673 13.946 28.4303 14.3969 28.3753 14.846C28.2313 15.809 28.0123 16.771 27.6563 17.6779C27.6163 17.7689 27.5713 17.857 27.5293 17.948C27.1513 17.833 26.7793 17.695 26.4093 17.558C26.3263 17.521 26.2443 17.484 26.1633 17.444C26.0243 17.374 25.8843 17.333 25.7373 17.333C25.6693 17.333 25.5993 17.3419 25.5283 17.3619C25.3243 17.4179 25.1453 17.554 25.0373 17.739C24.8253 18.103 24.9273 18.67 25.3313 18.864C25.8043 19.091 26.3053 19.243 26.8043 19.402C26.7323 19.535 26.6653 19.6709 26.5903 19.8029C26.3883 20.156 26.1873 20.5089 25.9793 20.858C25.9763 20.8589 25.9733 20.86 25.9703 20.861C25.7793 20.87 25.5853 20.8559 25.3953 20.8449C25.2073 20.8359 25.0203 20.814 24.8333 20.79C24.2013 20.69 23.5683 20.5359 22.9733 20.3029C23.0373 20.33 23.1003 20.357 23.1643 20.384C23.0883 20.353 23.0133 20.3209 22.9383 20.2889C22.1603 19.951 21.3923 19.55 20.7003 19.062C20.5083 18.9069 20.3253 18.746 20.1633 18.558C20.0843 18.44 20.0143 18.3169 19.9463 18.1919C20.0453 18.0549 20.1353 17.91 20.2243 17.774C20.4153 17.483 20.5533 17.181 20.6883 16.8619C20.8003 16.5929 20.8553 16.3 20.9233 16.017C21.0253 15.584 20.7943 15.136 20.3543 15.015C20.2873 14.997 20.2183 14.988 20.1493 14.988C19.7923 14.988 19.4333 15.222 19.3523 15.585C19.2773 15.922 19.2033 16.252 19.0833 16.573C18.9533 16.85 18.7983 17.115 18.6303 17.371C18.6203 17.382 18.6083 17.392 18.5983 17.402C18.5963 17.403 18.5933 17.403 18.5933 17.403C18.2023 17.632 18.1063 18.1109 18.3063 18.4979C18.4153 18.7109 18.5323 18.9179 18.6593 19.1189C18.1923 19.4359 17.7043 19.715 17.1883 19.945C16.9263 20.051 16.6583 20.146 16.3913 20.242C16.3063 20.152 16.2063 20.0779 16.0793 20.0499C15.8643 20.004 15.6523 19.946 15.4383 19.892C15.2253 19.837 15.0103 19.7929 14.8033 19.722C14.6253 19.6329 14.4623 19.522 14.3003 19.405C14.0263 19.183 13.7673 18.941 13.5333 18.674C13.4383 18.542 13.3453 18.406 13.2493 18.273C13.1033 18.073 12.9673 17.8759 12.8583 17.6539C12.7763 17.4269 12.7153 17.193 12.6713 16.955C12.6563 16.746 12.6673 16.542 12.6873 16.336C12.7393 16.045 12.8103 15.766 12.9133 15.49C13.0203 15.26 13.1403 15.037 13.2613 14.813C13.4713 14.419 13.3633 13.922 12.9673 13.691C12.8423 13.618 12.6983 13.583 12.5543 13.583C12.2683 13.583 11.9803 13.722 11.8443 13.986C11.5803 14.494 11.3403 15.008 11.2133 15.569C11.1673 15.781 11.1383 16.0099 11.1193 16.2269C11.1023 16.4249 11.0983 16.6189 11.1043 16.813C10.1643 16.906 9.22629 17.016 8.30029 17.207C7.86129 17.296 7.61329 17.809 7.72529 18.219C7.78329 18.4249 7.91929 18.6019 8.10429 18.7099C8.30629 18.8289 8.51429 18.837 8.73729 18.795C8.91429 18.76 9.09329 18.726 9.27029 18.7029C9.19729 18.7129 9.12429 18.722 9.05129 18.732C9.24029 18.707 9.42829 18.6819 9.61829 18.656C9.58829 18.66 9.55829 18.6649 9.52829 18.6679C10.1973 18.6049 10.8683 18.551 11.5383 18.496C11.5563 18.531 11.5653 18.5709 11.5853 18.6049C11.7293 18.8689 11.9243 19.1049 12.0973 19.35C12.4783 19.8829 12.9553 20.368 13.5033 20.733C13.5243 20.747 13.5473 20.757 13.5683 20.77C13.3663 20.783 13.1663 20.813 12.9633 20.818C12.3673 20.833 11.7643 20.78 11.1713 20.719C10.0933 20.556 9.03129 20.2589 8.02229 19.8479C7.60629 19.6569 7.19729 19.4529 6.78929 19.2479C6.38729 19.0429 6.01829 18.792 5.65629 18.527C5.54929 18.44 5.45429 18.3419 5.35529 18.247C5.39329 18.064 5.42829 17.882 5.49329 17.704C5.60529 17.462 5.73429 17.2329 5.88729 17.0119C6.04129 16.8309 6.20929 16.667 6.39229 16.5149C6.70729 16.2909 7.04029 16.1089 7.38929 15.9469C7.72429 15.8169 8.05729 15.695 8.41129 15.62C8.43229 15.618 8.45329 15.616 8.47429 15.614C8.89029 15.587 9.23829 15.289 9.23829 14.852C9.23829 14.426 8.87729 14.088 8.47129 14.088C8.40529 14.088 8.33929 14.097 8.27229 14.116C8.02629 14.185 7.78529 14.278 7.54529 14.366C7.18729 14.495 6.83129 14.6329 6.48129 14.785C5.81629 15.071 5.19629 15.4999 4.72929 16.0499C4.53229 16.2829 4.37229 16.541 4.22829 16.809C4.14229 16.7 4.06029 16.588 3.97129 16.482C3.91829 16.406 3.87029 16.3289 3.82629 16.2479C3.75529 16.0429 3.70729 15.835 3.66929 15.622C3.62829 15.122 3.67029 14.601 3.73229 14.103C3.77429 13.8809 3.82029 13.66 3.86829 13.438C3.92029 13.1989 4.00129 12.9729 4.08829 12.747C4.26229 12.346 4.43529 11.945 4.60429 11.541C4.80929 11.074 5.04229 10.62 5.29929 10.18C5.56629 9.72395 5.89329 9.30195 6.20829 8.87895C6.24829 8.82795 6.28829 8.77695 6.32729 8.72495C6.48929 8.52495 6.64929 8.32195 6.83229 8.13995C6.89329 8.07895 6.95729 8.01995 7.01929 7.95995C7.16629 8.08495 7.31829 8.20495 7.45729 8.33795C7.71629 8.58495 7.96429 8.83995 8.20129 9.10995C8.48829 9.43495 9.03229 9.39995 9.32529 9.10995C9.47329 8.96195 9.55829 8.75795 9.55829 8.54795C9.55829 8.32295 9.46629 8.15395 9.32529 7.98595C9.09629 7.71095 8.85729 7.44295 8.60729 7.18595C8.49329 7.06995 8.36429 6.96695 8.24229 6.85795C8.40629 6.71995 8.56329 6.57195 8.73029 6.43795C9.16129 6.11795 9.59929 5.80195 10.0583 5.52395C10.5543 5.22495 11.0673 4.97595 11.5973 4.74195C12.0153 4.57095 12.4353 4.40395 12.8563 4.24295C13.3273 4.06295 13.8053 3.95695 14.3023 3.88595C14.5433 3.85395 14.7873 3.84495 15.0303 3.83195C15.0703 5.00895 15.1853 6.18295 15.0563 7.35795C15.0233 7.53695 14.9863 7.70895 14.9223 7.87895C14.9423 7.83095 14.9633 7.78295 14.9833 7.73495C14.9813 7.74095 14.9783 7.74795 14.9763 7.75395C14.8863 7.96395 14.8303 8.14595 14.8933 8.37495C14.9493 8.57695 15.0833 8.75195 15.2643 8.85795C15.4513 8.96595 15.6783 8.99695 15.8853 8.93895C16.1413 8.86795 16.3973 8.64495 16.4493 8.37495C16.5263 7.97095 16.5663 7.55395 16.6033 7.14395C16.6433 6.71495 16.6763 6.28595 16.6883 5.85495C16.7073 5.21495 16.7023 4.57595 16.7013 3.93695C17.4553 4.07595 18.2023 4.27595 18.9093 4.56595C19.3833 4.77695 19.8433 5.02095 20.2643 5.32595C20.3283 5.37995 20.3883 5.43795 20.4493 5.49595C20.4663 5.55395 20.4753 5.61395 20.5073 5.66795C20.6883 5.97195 20.8593 6.28595 21.0003 6.60995C21.0783 6.79895 21.1523 6.98895 21.2123 7.18395C21.2973 7.46595 21.3463 7.75995 21.3913 8.05095C21.4293 8.40195 21.4483 8.75895 21.4193 9.10995C21.3813 9.30595 21.3343 9.49595 21.2673 9.68295C21.1463 9.93295 21.0013 10.1649 20.8433 10.393C20.7173 10.5389 20.5823 10.672 20.4363 10.7959C20.1293 11.007 19.8053 11.174 19.4673 11.328C19.2963 11.394 19.1203 11.445 18.9463 11.501C18.9683 11.457 18.9913 11.413 19.0133 11.369C19.5573 10.27 19.8733 8.99495 19.7333 7.76895C19.7043 7.52695 19.6543 7.32795 19.4773 7.14895C19.3133 6.98495 19.0883 6.89295 18.8573 6.89295C18.6263 6.89295 18.4013 6.98495 18.2373 7.14895C18.0913 7.29495 17.9543 7.55095 17.9813 7.76895C18.0393 8.23295 18.0333 8.69295 17.9813 9.15495C17.8943 9.68395 17.7593 10.192 17.5713 10.694C17.4453 10.981 17.3133 11.262 17.1333 11.518C17.1263 11.5269 17.1193 11.537 17.1113 11.5459C17.0343 11.6419 16.9733 11.738 16.9303 11.84C16.7253 11.837 16.5203 11.828 16.3143 11.806C16.0603 11.764 15.8153 11.713 15.5723 11.628C15.3483 11.522 15.1343 11.4 14.9233 11.265C14.6773 11.109 14.4323 10.955 14.1973 10.784C14.0643 10.676 13.9343 10.565 13.8053 10.449C13.6573 10.316 13.4773 10.246 13.2933 10.217C13.2283 9.92795 13.1733 9.63695 13.1253 9.34495C13.0373 8.55995 13.0273 7.76695 12.8613 6.99195C12.7723 6.58095 12.3613 6.31695 11.9573 6.31695C11.8793 6.31695 11.8013 6.32695 11.7263 6.34695C11.2263 6.48595 10.9703 6.99295 11.0823 7.48195C11.1463 7.75995 11.1943 8.03595 11.2373 8.31695C11.3133 8.91195 11.4113 9.50495 11.5193 10.096C10.6983 10.13 9.87929 10.247 9.09929 10.511C8.66029 10.6569 8.24529 10.865 7.86229 11.125C7.66429 11.258 7.46829 11.391 7.26829 11.521C6.92429 11.746 6.78129 12.1869 6.99729 12.556C7.19329 12.893 7.69329 13.062 8.03229 12.829C8.38729 12.583 8.73629 12.336 9.12729 12.154C9.59229 11.98 10.0793 11.876 10.5703 11.798C11.1973 11.725 11.8273 11.7149 12.4573 11.742C12.4913 11.743 12.5213 11.727 12.5553 11.724C12.6053 11.773 12.6593 11.819 12.7203 11.858C13.0613 12.0809 13.3973 12.312 13.7493 12.516C13.9263 12.62 14.1033 12.724 14.2823 12.824C14.5213 12.959 14.7733 13.061 15.0273 13.161C15.3303 13.278 15.6563 13.325 15.9763 13.362C15.9673 13.548 15.9673 13.7339 15.9463 13.9209C15.8793 14.3099 15.7403 14.686 15.5933 15.055C15.5043 15.249 15.3983 15.429 15.2723 15.603C15.1593 15.7439 15.0413 15.886 14.9053 16.006C14.5823 16.289 14.6183 16.833 14.9053 17.12C15.2113 17.426 15.7153 17.422 16.0213 17.12C16.1883 16.956 16.3253 16.749 16.4673 16.5639C16.6343 16.3449 16.7813 16.118 16.9083 15.873C17.0663 15.571 17.1813 15.242 17.3103 14.926C17.4353 14.62 17.5043 14.305 17.5563 13.979C17.5893 13.769 17.6093 13.558 17.6223 13.346C17.7223 13.33 17.8253 13.32 17.9223 13.299C18.7573 13.12 19.5753 12.893 20.3583 12.547C20.6723 12.409 20.9663 12.249 21.2443 12.054C21.6103 12.476 21.9693 12.904 22.3143 13.344C22.3933 13.457 22.4623 13.5719 22.5233 13.695C22.6413 14.0029 22.7253 14.325 22.7933 14.649C22.6793 15.197 22.5813 15.749 22.4713 16.299C22.4273 16.514 22.4383 16.7179 22.5503 16.9109C22.6543 17.0879 22.8273 17.221 23.0253 17.277C23.4163 17.385 23.9223 17.148 24.0023 16.7229C24.0683 16.3709 24.1103 16.015 24.1593 15.661C24.2493 15.602 24.3333 15.537 24.3953 15.45C24.5743 15.438 24.7543 15.415 24.9263 15.39C25.2133 15.35 25.4903 15.284 25.7693 15.215C26.1173 15.128 26.4603 15.017 26.8083 14.923C27.2253 14.808 27.4783 14.361 27.3623 13.944C27.2673 13.599 26.9393 13.359 26.5913 13.359C26.5223 13.359 26.4533 13.3679 26.3853 13.3879C25.8763 13.535 25.3643 13.6729 24.8423 13.761C24.6463 13.7839 24.4513 13.7769 24.2563 13.775C24.2543 13.768 24.2523 13.761 24.2503 13.755C24.1043 13.314 23.9293 12.88 23.6553 12.503C23.2513 11.947 22.8323 11.4 22.3893 10.874C22.6913 10.4399 22.9003 9.91495 22.9713 9.38895C23.0153 9.07295 23.0293 8.77295 23.0043 8.45595C22.9813 8.14795 22.9423 7.83995 22.8873 7.53595C22.8453 7.29895 22.8023 7.06095 22.7353 6.82995C22.6683 6.60295 22.5623 6.38695 22.4683 6.16795C22.4613 6.15195 22.4543 6.13595 22.4473 6.11895C22.7973 6.22295 23.1583 6.29195 23.5133 6.37595C23.8573 6.45795 24.1983 6.56995 24.5283 6.69895C24.7253 6.78595 24.9203 6.87595 25.1093 6.97995C25.2663 7.06595 25.4093 7.17095 25.5553 7.27095C25.5533 7.29195 25.5423 7.30995 25.5423 7.33195C25.5353 7.71795 25.5293 8.10095 25.4893 8.48495C25.4233 8.92295 25.3293 9.35795 25.1773 9.77295C25.1063 9.92795 25.0263 10.077 24.9313 10.218C24.9053 10.248 24.8793 10.277 24.8533 10.305C24.5613 10.622 24.5373 11.111 24.8533 11.427C25.1403 11.714 25.6943 11.756 25.9733 11.427C26.2653 11.085 26.4793 10.721 26.6543 10.307C26.8443 9.85895 26.9753 9.39695 27.0643 8.91995C27.0753 8.86095 27.0773 8.80195 27.0873 8.74295C27.1093 8.77095 27.1333 8.79695 27.1553 8.82495C27.4203 9.17895 27.6713 9.53895 27.8593 9.93895C27.9933 10.293 28.1283 10.65 28.2423 11.011C28.3513 11.363 28.4223 11.722 28.4843 12.086C28.5313 12.555 28.5213 13.02 28.4943 13.493Z" fill="#4B0082"/>
</svg>
