<svg width="17" height="12" viewBox="0 0 17 12" fill="none" xmlns="http://www.w3.org/2000/svg">
<path d="M8.40278 5.28625L16.0712 0.360017C15.7629 0.128775 15.3885 0.00258076 15.0031 0H1.80247C1.41709 0.00258076 1.04272 0.128775 0.734416 0.360017L8.40278 5.28625Z" fill="white"/>
<path d="M8.72442 6.50367L8.62241 6.55168H8.57441C8.51916 6.57636 8.46049 6.59254 8.4004 6.59968C8.3506 6.60595 8.3002 6.60595 8.2504 6.59968H8.20239L8.10039 6.55168L0.0600028 1.35543C0.0215879 1.50036 0.00143089 1.64952 0 1.79945V10.1999C0 10.6773 0.189651 11.1351 0.527233 11.4727C0.864815 11.8103 1.32267 11.9999 1.80009 11.9999H15.0007C15.4781 11.9999 15.936 11.8103 16.2736 11.4727C16.6112 11.1351 16.8008 10.6773 16.8008 10.1999V1.79945C16.7994 1.64952 16.7792 1.50036 16.7408 1.35543L8.72442 6.50367Z" fill="white"/>
</svg>
