<svg width="113" height="26" viewBox="0 0 113 26" fill="none" xmlns="http://www.w3.org/2000/svg">
<path fill-rule="evenodd" clip-rule="evenodd" d="M3.89118 16.4135C3.89118 17.9799 4.29375 19.2387 5.09888 20.1896C5.90387 21.1407 6.96617 21.6161 8.28564 21.6161C9.56029 21.6161 10.6002 21.1351 11.4053 20.173C12.2104 19.2106 12.613 17.9464 12.613 16.38C12.613 14.8359 12.2216 13.6052 11.4389 12.6878C10.6562 11.7703 9.61631 11.3116 8.31912 11.3116C7.02206 11.3116 5.95989 11.7759 5.13236 12.7046C4.30495 13.6333 3.89118 14.8696 3.89118 16.4135ZM16.37 0.33566V24.6371H14.1714C13.5893 24.6371 13.0563 24.3103 12.792 23.7913C12.6503 23.513 12.5794 23.2424 12.5794 22.9794C12.1278 23.4959 11.7688 23.9296 10.919 24.3996C10.069 24.8695 8.94538 25.0399 7.8496 25.0399C5.52372 25.0399 3.63401 24.2232 2.18036 22.5897C0.726828 20.956 0 18.8974 0 16.4135C0 14.0193 0.732432 11.9941 2.19716 10.3382C3.66203 8.68227 5.52371 7.85433 7.7825 7.85433C9.07956 7.85433 10.1251 8.08929 10.919 8.5592C11.7128 9.02913 12.2663 9.57742 12.5794 10.2039V0.33566H16.37ZM30.2551 8.08929V12.0501H29.7545C26.8249 12.0501 25.3601 13.6499 25.3601 16.8499V24.6371H21.4689V8.29068H23.9924C24.44 8.29068 24.8367 8.57945 24.9744 9.00567L25.3601 10.1988C25.5458 9.81154 26.062 8.9517 26.9651 8.52047C27.8682 8.08929 28.9159 8.08929 29.9893 8.08929H30.2551ZM32.4355 20.2065C32.4355 18.819 32.8884 17.7058 33.7941 16.8667C34.6998 16.0276 35.8907 15.4961 37.3667 15.2724L41.5598 14.6345C42.3649 14.5227 42.7675 14.1311 42.7675 13.4598C42.7675 12.7214 42.5103 12.1228 41.996 11.6641C41.4816 11.2053 40.71 10.9759 39.6813 10.9759C38.6973 10.9759 37.9146 11.25 37.3331 11.7983C36.7517 12.3465 36.4162 13.0569 36.3269 13.9297L32.82 13.8962C32.9766 12.4192 33.632 10.3885 34.8844 9.34799C36.1366 8.30745 37.7245 7.78719 39.6478 7.78719C42.0182 7.78719 43.7682 8.3578 44.8976 9.49907C46.0269 10.6402 46.5916 12.106 46.5916 13.8962V22.019C46.5916 23.0931 46.6587 23.9657 46.7929 24.6371H44.7004C44.4792 24.6371 44.26 24.5964 44.0535 24.5173C43.3596 24.251 43.0125 23.8175 43.0125 23.2171C42.2386 24.508 40.2515 25.1405 37.9705 25.1405C36.3157 25.1405 34.9794 24.6539 33.9619 23.6805C32.9443 22.7071 32.4355 21.549 32.4355 20.2065ZM38.7085 22.0861C39.9162 22.0861 40.8946 21.756 41.6437 21.0959C42.3929 20.4358 42.7675 19.3561 42.7675 17.8569V17.1184L38.5072 17.7562C37.0535 18.0024 36.3269 18.7407 36.3269 19.9715C36.3269 20.5533 36.5392 21.0512 36.9642 21.4652C37.389 21.8791 37.9705 22.0861 38.7085 22.0861ZM58.5336 4.17504C57.8851 4.17504 57.3205 4.35964 56.8396 4.72887C56.3589 5.09808 56.1184 5.74141 56.1184 6.65888V8.29068H59.909V11.6809H56.1184V24.6371H52.1936V11.6809H49.3423V8.29068H50.4622C51.4184 8.29068 52.1936 7.51502 52.1936 6.55819C52.1936 4.74563 52.7191 3.31353 53.7702 2.2618C54.8213 1.21008 56.1967 0.684225 57.8963 0.684225H59.909V4.17504H58.5336ZM69.0643 3.35656V8.35781H72.4523V11.815H69.0643V19.4008C69.0643 20.1169 69.232 20.6372 69.5674 20.9616C69.9029 21.2861 70.4284 21.4484 71.144 21.4484H71.6782V24.9056H70.1041C68.5834 24.9056 67.387 24.4749 66.5148 23.6134C65.6427 22.7518 65.2065 21.5602 65.2065 20.0387V11.815H62.1875V8.35781H63.0262C63.8536 8.35781 64.4797 8.12285 64.9047 7.65294C65.3295 7.18302 65.542 6.56765 65.542 5.80683V3.35656H69.0643ZM75.6056 0.258201H79.3957V10.2608C79.7096 9.63413 80.3597 9.11947 81.1531 8.64957C81.9478 8.17965 83.2103 7.87498 84.5078 7.87498C86.7669 7.87498 88.5713 8.60481 90.0369 10.2608C91.5012 11.9167 91.9911 14.0011 91.9911 16.3954C91.9911 18.8794 91.5064 20.8786 90.0525 22.5121C88.5999 24.1456 86.5754 25.0451 84.2499 25.0451C83.1542 25.0451 82.1641 24.7921 81.3147 24.3221C80.4653 23.8522 79.8477 23.4184 79.3957 22.902C79.3957 23.1649 79.3253 23.4356 79.1833 23.7139C78.9189 24.2328 78.3863 24.5596 77.8042 24.5596H75.6056V0.258201ZM86.8685 20.2065C87.6958 19.2666 88.1101 18.0023 88.1101 16.4135C88.1101 14.8247 87.7075 13.5773 86.9024 12.671C86.0972 11.7647 85.0355 11.3116 83.7157 11.3116C82.4403 11.3116 81.3903 11.7647 80.563 12.671C79.7344 13.5773 79.3214 14.8247 79.3214 16.4135C79.3214 17.9799 79.7344 19.2331 80.563 20.173C81.3903 21.1127 82.4403 21.5826 83.7157 21.5826C85.0133 21.5826 86.0634 21.1239 86.8685 20.2065ZM95.7913 12.1352H94.1837V8.26227H98.0543V8.29068H99.6502V24.6371H95.7913V12.1352ZM95.9255 4.32995C95.4344 3.83766 95.1881 3.24467 95.1881 2.55098C95.1881 1.85729 95.4344 1.25871 95.9255 0.755231C96.418 0.251748 97.0108 0 97.7038 0C98.4191 0 99.0236 0.246143 99.516 0.738441C100.007 1.23074 100.253 1.83491 100.253 2.55098C100.253 3.24467 100.007 3.83766 99.516 4.32995C99.0236 4.82224 98.4191 5.06839 97.7038 5.06839C97.0108 5.06839 96.418 4.82224 95.9255 4.32995ZM109.613 3.28943V8.29068H113V11.7479H109.613V19.3337C109.613 20.0498 109.781 20.57 110.116 20.8945C110.452 21.2191 110.977 21.3812 111.692 21.3812H112.226V24.8385H110.652C109.132 24.8385 107.935 24.4078 107.063 23.5462C106.19 22.6847 105.755 21.4931 105.755 19.9715V11.7479H102.735V8.29068H103.574C104.402 8.29068 105.028 8.05572 105.453 7.5858C105.878 7.11589 106.09 6.50052 106.09 5.73971V3.28943H109.613Z" fill="black"/>
</svg>
