<svg width="25" height="24" viewBox="0 0 25 24" fill="none" xmlns="http://www.w3.org/2000/svg">
<path d="M23.0229 3C23.8706 3 24.5577 2.49633 24.5577 1.875V1.125C24.5577 0.503672 23.8706 0 23.0229 0H1.53486C0.687169 0 0 0.503672 0 1.125V1.875C0 2.49633 0.687169 3 1.53486 3C1.53486 7.26398 4.79746 10.8625 9.263 12C4.79746 13.1375 1.53486 16.736 1.53486 21C0.687169 21 0 21.5037 0 22.125V22.875C0 23.4963 0.687169 24 1.53486 24H23.0229C23.8706 24 24.5577 23.4963 24.5577 22.875V22.125C24.5577 21.5037 23.8706 21 23.0229 21C23.0229 16.736 19.7603 13.1375 15.2947 12C19.7603 10.8625 23.0229 7.26398 23.0229 3Z" fill="#7166F9"/>
</svg>
