<svg width="21" height="21" viewBox="0 0 21 21" fill="none" xmlns="http://www.w3.org/2000/svg">
<g clip-path="url(#clip0_0_14)">
<path d="M19.1542 7.21868C18.9523 7.21212 18.7518 7.25548 18.5707 7.34491C18.3895 7.43434 18.2332 7.56709 18.1157 7.73138C18.1057 7.74568 18.0914 7.75643 18.0749 7.76206C18.0584 7.76769 18.0405 7.76792 18.0239 7.76271C18.0072 7.7575 17.9927 7.74712 17.9824 7.73307C17.972 7.71903 17.9664 7.70206 17.9664 7.68462V6.1814C17.9664 5.33033 17.2962 4.6142 16.4455 4.5941C16.2376 4.58885 16.0307 4.62527 15.8371 4.70121C15.6434 4.77716 15.467 4.89109 15.318 5.0363C15.1691 5.18151 15.0508 5.35506 14.97 5.54673C14.8892 5.73839 14.8475 5.94428 14.8476 6.15228V9.51555C14.8476 9.53731 14.8389 9.55817 14.8235 9.57356C14.8082 9.58894 14.7873 9.59758 14.7655 9.59758L6.23431 9.59758C6.21255 9.59758 6.19169 9.58894 6.1763 9.57356C6.16092 9.55817 6.15228 9.53731 6.15228 9.51555L6.15228 6.1814C6.15228 5.33033 5.48208 4.6142 4.63142 4.5941C4.42363 4.58907 4.21692 4.62565 4.02348 4.7017C3.83003 4.77774 3.65375 4.89171 3.50501 5.0369C3.35626 5.18209 3.23806 5.35557 3.15736 5.54712C3.07666 5.73867 3.03509 5.94443 3.0351 6.15228V7.68544C3.03506 7.70288 3.02946 7.71985 3.01912 7.73389C3.00878 7.74794 2.99423 7.75832 2.97759 7.76353C2.96094 7.76874 2.94307 7.76851 2.92657 7.76288C2.91007 7.75725 2.89579 7.7465 2.8858 7.7322C2.76817 7.56752 2.61165 7.43447 2.43018 7.34488C2.24872 7.25529 2.04792 7.21194 1.84565 7.21868C1.1771 7.2396 0.656202 7.80562 0.656202 8.47458L0.656202 12.5236C0.656202 13.1926 1.17874 13.7586 1.84565 13.7795C2.04757 13.7861 2.24799 13.7427 2.42915 13.6533C2.6103 13.5639 2.76659 13.4311 2.88416 13.2668C2.8939 13.2517 2.90834 13.2402 2.92526 13.2341C2.94218 13.228 2.96064 13.2276 2.97779 13.233C2.99495 13.2384 3.00985 13.2493 3.02021 13.264C3.03056 13.2787 3.03579 13.2964 3.0351 13.3144L3.0351 14.8184C3.0351 15.6679 3.70529 16.3856 4.55595 16.4062C4.76378 16.4112 4.97052 16.3746 5.164 16.2985C5.35747 16.2225 5.53377 16.1084 5.68252 15.9632C5.83127 15.818 5.94946 15.6445 6.03013 15.4529C6.11081 15.2613 6.15234 15.0555 6.15228 14.8476L6.15228 11.4843C6.15228 11.4625 6.16092 11.4417 6.1763 11.4263C6.19169 11.4109 6.21255 11.4023 6.23431 11.4023L14.7655 11.4023C14.7873 11.4023 14.8082 11.4109 14.8235 11.4263C14.8389 11.4417 14.8476 11.4625 14.8476 11.4843V14.8184C14.8476 15.6695 15.5178 16.3856 16.3684 16.4057C16.5762 16.4108 16.7829 16.3742 16.9764 16.2981C17.1698 16.2221 17.3461 16.1081 17.4948 15.9629C17.6436 15.8178 17.7618 15.6443 17.8425 15.4527C17.9232 15.2612 17.9647 15.0554 17.9647 14.8476L17.9647 13.3144C17.9648 13.297 17.9704 13.28 17.9807 13.266C17.9911 13.2519 18.0056 13.2415 18.0223 13.2363C18.0389 13.2311 18.0568 13.2313 18.0733 13.237C18.0898 13.2426 18.1041 13.2533 18.114 13.2676C18.2317 13.4323 18.3882 13.5654 18.5697 13.655C18.7511 13.7446 18.9519 13.7879 19.1542 13.7812C19.8227 13.7602 20.3436 13.1942 20.3436 12.5253V8.4754C20.3436 7.80644 19.8211 7.24042 19.1542 7.21868Z" fill="white"/>
</g>
<defs>
<clipPath id="clip0_0_14">
<rect width="20.1342" height="20.1342" fill="white" transform="scale(1.043)"/>
</clipPath>
</defs>
</svg>
