<svg width="18" height="19" viewBox="0 0 18 19" fill="none" xmlns="http://www.w3.org/2000/svg">
<path d="M8.97648 18.8968C13.883 18.8968 17.8505 14.684 17.8505 9.5C17.8505 4.31601 13.883 0.103211 8.97648 0.103211C4.06994 0.103211 0.102455 4.31601 0.102455 9.5C0.102455 14.684 4.06994 18.8968 8.97648 18.8968Z" stroke="#5C5C5C" stroke-width="0.2"/>
<path d="M8.97608 10.3188L6.76547 7.58599C6.60237 7.38436 6.33792 7.38436 6.17482 7.58599C6.01171 7.78762 6.01171 8.11453 6.17482 8.31616L8.68075 11.414C8.84386 11.6156 9.1083 11.6156 9.27141 11.414L11.7773 8.31616C11.9404 8.11453 11.9404 7.78762 11.7773 7.58599C11.6142 7.38436 11.3498 7.38436 11.1867 7.58599L8.97608 10.3188Z" fill="#565656"/>
<mask id="mask0_1084_2254" style="mask-type:luminance" maskUnits="userSpaceOnUse" x="6" y="7" width="6" height="5">
<path d="M8.97608 10.3188L6.76547 7.58599C6.60237 7.38436 6.33792 7.38436 6.17482 7.58599C6.01171 7.78762 6.01171 8.11453 6.17482 8.31616L8.68075 11.414C8.84386 11.6156 9.1083 11.6156 9.27141 11.414L11.7773 8.31616C11.9404 8.11453 11.9404 7.78762 11.7773 7.58599C11.6142 7.38436 11.3498 7.38436 11.1867 7.58599L8.97608 10.3188Z" fill="white"/>
</mask>
<g mask="url(#mask0_1084_2254)">
</g>
</svg>
