<svg width="130" height="25" viewBox="0 0 130 25" fill="none" xmlns="http://www.w3.org/2000/svg">
<g clip-path="url(#clip0_3_637)">
<path d="M114.324 12.6059C113.652 12.1665 112.919 11.8483 112.223 11.4544C111.77 11.2044 111.286 10.9771 110.893 10.6513C110.228 10.1059 110.364 9.02256 111.059 8.55286C112.065 7.88619 113.72 8.2574 113.901 9.62104C113.901 9.65134 113.931 9.67407 113.962 9.67407H115.473C115.511 9.67407 115.541 9.64377 115.526 9.59831C115.513 9.16937 115.408 8.74831 115.217 8.36399C115.027 7.9796 114.755 7.64096 114.423 7.37101C113.807 6.89552 113.053 6.63716 112.276 6.63617C108.285 6.63617 107.915 10.871 110.069 12.2044C110.319 12.3559 112.427 13.4165 113.168 13.8786C113.924 14.3407 114.151 15.1892 113.833 15.8483C113.531 16.4619 112.775 16.8862 112.004 16.8332C111.173 16.7877 110.523 16.3332 110.296 15.6286C110.258 15.4998 110.235 15.2498 110.235 15.1513C110.234 15.1358 110.227 15.1213 110.216 15.1103C110.205 15.0993 110.191 15.0923 110.175 15.0907H108.535C108.512 15.0907 108.482 15.121 108.482 15.1513C108.482 16.3332 108.777 16.9923 109.578 17.5907C110.334 18.1589 111.165 18.4013 112.012 18.4013C114.256 18.4013 115.413 17.1286 115.64 15.818C115.851 14.5301 115.473 13.371 114.324 12.6059ZM43.1267 6.85587H41.6C41.5887 6.85725 41.578 6.86144 41.5688 6.86806C41.5595 6.87467 41.5521 6.8835 41.5471 6.89374L40.2017 11.3332C40.2017 11.3492 40.1954 11.3646 40.1841 11.376C40.1727 11.3873 40.1573 11.3938 40.1413 11.3938C40.1253 11.3938 40.1099 11.3873 40.0986 11.376C40.0872 11.3646 40.0808 11.3492 40.0808 11.3332L38.7355 6.89374C38.7279 6.86344 38.7052 6.85587 38.675 6.85587H36.1733C36.143 6.85587 36.1128 6.88617 36.1128 6.9089V18.2423C36.1128 18.2726 36.143 18.3029 36.1733 18.3029H37.8134C37.8436 18.3029 37.8738 18.2726 37.8738 18.2423V9.62104C37.8738 9.55286 37.9721 9.54528 37.9872 9.60589L39.3477 14.0756L39.4459 14.3786C39.4459 14.4165 39.4686 14.4241 39.4988 14.4241H40.761C40.7913 14.4241 40.8064 14.4013 40.814 14.3862L40.9122 14.068L42.2727 9.59831C42.2878 9.53771 42.3861 9.55286 42.3861 9.62104V18.2347C42.3861 18.265 42.4163 18.2953 42.4465 18.2953H44.0866C44.1169 18.2953 44.1471 18.265 44.1471 18.2347V6.9089C44.1471 6.88617 44.1169 6.85587 44.0866 6.85587H43.1267ZM89.2163 6.85587C89.2034 6.85595 89.1913 6.85954 89.1808 6.86622C89.1702 6.87291 89.1611 6.88244 89.1558 6.89374L87.8105 11.3332C87.8105 11.3492 87.8044 11.3646 87.7931 11.376C87.7817 11.3873 87.7659 11.3938 87.75 11.3938C87.7341 11.3938 87.7183 11.3873 87.7069 11.376C87.6956 11.3646 87.6895 11.3492 87.6895 11.3332L86.3442 6.89374C86.3442 6.86344 86.3215 6.85587 86.2913 6.85587H83.7971C83.7669 6.85587 83.7366 6.88617 83.7366 6.9089V18.2423C83.7366 18.2726 83.7669 18.3029 83.7971 18.3029H85.4372C85.4599 18.3029 85.4901 18.2726 85.4901 18.2423V9.62104C85.4901 9.55286 85.5884 9.54528 85.611 9.60589L86.9715 14.0756L87.0622 14.3786C87.0773 14.4165 87.0924 14.4241 87.1227 14.4241H88.3773C88.3894 14.4232 88.4015 14.4193 88.4121 14.4127C88.4227 14.4061 88.4317 14.3969 88.4378 14.3862L88.536 14.068L89.8965 9.59831C89.9116 9.53771 90.0099 9.55286 90.0099 9.62104V18.2347C90.0099 18.265 90.0401 18.2953 90.0704 18.2953H91.7105C91.7407 18.2953 91.7709 18.265 91.7709 18.2347V6.9089C91.7709 6.88617 91.7407 6.85587 91.7105 6.85587H89.2163ZM68.0611 6.85587H60.314C60.2913 6.85587 60.2611 6.88617 60.2611 6.9089V8.33316C60.2611 8.36346 60.2913 8.39377 60.314 8.39377H63.3145V18.2423C63.3145 18.2801 63.3448 18.3104 63.3674 18.3104H65.0076C65.0378 18.3104 65.068 18.2801 65.068 18.2498V8.38619H68.0611C68.0913 8.38619 68.1215 8.35589 68.1215 8.32559V6.9089C68.1215 6.88617 68.1064 6.85587 68.0611 6.85587ZM77.7355 18.3029H79.232C79.2698 18.3029 79.3 18.2574 79.2849 18.2271L76.2012 6.85587C76.2012 6.82556 76.1785 6.81041 76.1483 6.81041H73.9942C73.9821 6.8125 73.9708 6.81783 73.9615 6.82583C73.9522 6.83383 73.9452 6.84421 73.9413 6.85587L70.8576 18.2195C70.8424 18.2574 70.8727 18.2953 70.9105 18.2953H72.407C72.4372 18.2953 72.4523 18.2801 72.4674 18.2574L73.3593 14.9544C73.3669 14.9241 73.3895 14.9165 73.4198 14.9165H76.7151C76.7454 14.9165 76.768 14.9316 76.7756 14.9544L77.6674 18.2574C77.6826 18.2801 77.7128 18.3029 77.7279 18.3029H77.7355ZM73.8204 13.2953L75.0145 8.86346C75.0145 8.84733 75.021 8.83195 75.0323 8.82059C75.0436 8.80922 75.059 8.80286 75.075 8.80286C75.091 8.80286 75.1064 8.80922 75.1178 8.82059C75.1291 8.83195 75.1355 8.84733 75.1355 8.86346L76.3297 13.2953C76.3448 13.3332 76.3145 13.371 76.2767 13.371H73.8808C73.8355 13.371 73.8052 13.3332 73.8204 13.2953ZM103.184 18.3029H104.68C104.718 18.3029 104.748 18.2574 104.741 18.2271L101.657 6.84829C101.642 6.81799 101.627 6.80283 101.597 6.80283H99.4576C99.444 6.80356 99.4311 6.80828 99.4205 6.81637C99.4099 6.82446 99.4016 6.83556 99.3971 6.84829L96.3134 18.2119C96.3058 18.2498 96.3361 18.2877 96.3738 18.2877H97.8628C97.893 18.2877 97.9157 18.2726 97.9233 18.2498L98.8151 14.9468C98.8302 14.9165 98.8454 14.9089 98.8756 14.9089H102.178C102.201 14.9089 102.224 14.9241 102.231 14.9468L103.131 18.2498C103.131 18.2726 103.161 18.2953 103.184 18.2953V18.3029ZM99.2686 13.2953L100.47 8.86346C100.475 8.85187 100.482 8.84187 100.492 8.83475C100.503 8.82771 100.515 8.82392 100.527 8.82392C100.539 8.82392 100.551 8.82771 100.562 8.83475C100.572 8.84187 100.579 8.85187 100.584 8.86346L101.785 13.2953C101.785 13.3332 101.763 13.371 101.725 13.371H99.3291C99.2913 13.371 99.2535 13.3332 99.2686 13.2953ZM50.8058 16.621V13.1059C50.8058 13.0756 50.8285 13.0453 50.8587 13.0453H55.2273C55.2576 13.0453 55.2878 13.015 55.2878 12.9923V11.5756C55.2862 11.5601 55.2793 11.5456 55.2683 11.5345C55.2573 11.5235 55.2428 11.5166 55.2273 11.515H50.8663C50.8361 11.515 50.8134 11.4847 50.8134 11.4544V8.45437C50.8134 8.42407 50.8361 8.39377 50.8663 8.39377H55.8395C55.8698 8.39377 55.9 8.36346 55.9 8.33316V6.92405C55.8984 6.90853 55.8915 6.89406 55.8805 6.88303C55.8695 6.87199 55.855 6.86509 55.8395 6.86344H49.1128C49.0974 6.86509 49.0829 6.87199 49.0719 6.88303C49.0609 6.89406 49.054 6.90853 49.0523 6.92405V18.2423C49.0523 18.2726 49.0826 18.3029 49.1128 18.3029H56.0436C56.0738 18.3029 56.1041 18.2726 56.1041 18.2423V16.7423C56.1025 16.7267 56.0955 16.7123 56.0846 16.7012C56.0735 16.6902 56.0591 16.6832 56.0436 16.6816H50.8587C50.8285 16.6741 50.8134 16.6513 50.8134 16.6135L50.8058 16.621ZM129.305 18.2044L123.636 12.3407C123.628 12.33 123.622 12.3166 123.622 12.3029C123.622 12.2891 123.628 12.2757 123.636 12.265L128.738 6.96192C128.751 6.9559 128.761 6.94493 128.766 6.93143C128.771 6.91793 128.77 6.90301 128.764 6.88996C128.758 6.8769 128.748 6.86676 128.734 6.86179C128.72 6.85682 128.705 6.85741 128.692 6.86344H126.606C126.584 6.86344 126.576 6.87102 126.569 6.88617L122.238 11.3786C122.229 11.3854 122.22 11.3899 122.209 11.3916C122.198 11.3934 122.188 11.3923 122.177 11.3884C122.167 11.3845 122.159 11.3781 122.152 11.3697C122.146 11.3613 122.141 11.3513 122.14 11.3407V6.92405C122.138 6.90853 122.131 6.89406 122.12 6.88303C122.109 6.87199 122.095 6.86509 122.079 6.86344H120.439C120.424 6.86509 120.409 6.87199 120.398 6.88303C120.387 6.89406 120.38 6.90853 120.378 6.92405V18.2498C120.378 18.2801 120.409 18.3104 120.439 18.3104H122.079C122.109 18.3104 122.14 18.2801 122.14 18.2498V13.265C122.14 13.2119 122.208 13.1892 122.238 13.2271L127.151 18.2877C127.159 18.2977 127.169 18.3055 127.181 18.3104H129.274C129.312 18.3029 129.35 18.2347 129.305 18.2044Z" fill="black"/>
<path d="M24.9116 0.757568L14.9802 8.1212L16.832 3.7803L24.9116 0.757568Z" fill="#E17726" stroke="#E17726" stroke-width="0.325028" stroke-linecap="round" stroke-linejoin="round"/>
<path d="M2.01054 0.757568L11.8512 8.18181L10.0902 3.78787L2.01054 0.757568ZM21.3367 17.8258L18.6913 21.8712L24.3524 23.4318L25.9698 17.9167L21.3367 17.8258ZM0.959961 17.9167L2.56984 23.4318L8.21576 21.8712L5.58554 17.8258L0.959961 17.9167Z" fill="#E27625" stroke="#E27625" stroke-width="0.325028" stroke-linecap="round" stroke-linejoin="round"/>
<path d="M7.91339 10.9923L6.34131 13.3711L11.9343 13.6287L11.7529 7.59082L7.91339 10.9999V10.9923ZM19.0087 10.9999L15.1087 7.51508L14.9803 13.6287L20.5733 13.3711L19.0087 10.9999ZM8.21572 21.8711L11.6093 20.2348L8.69188 17.962L8.21572 21.8711ZM15.3204 20.2272L18.6913 21.8711L18.2378 17.9545L15.3204 20.2272Z" fill="#E27625" stroke="#E27625" stroke-width="0.325028" stroke-linecap="round" stroke-linejoin="round"/>
<path d="M18.6914 21.8712L15.3205 20.2348L15.5926 22.4318L15.5623 23.3636L18.6914 21.8712ZM8.21582 21.8712L11.36 23.3636L11.3373 22.4318L11.6094 20.2348L8.21582 21.8712Z" fill="#D5BFB2" stroke="#D5BFB2" stroke-width="0.325028" stroke-linecap="round" stroke-linejoin="round"/>
<path d="M11.413 16.5002L8.61646 15.682L10.5967 14.7729L11.4205 16.5002H11.413ZM15.5019 16.5002L16.3333 14.7653L18.3211 15.6744L15.5019 16.5077V16.5002Z" fill="black" stroke="black" stroke-width="0.325028" stroke-linecap="round" stroke-linejoin="round"/>
<path d="M8.21567 21.8712L8.70695 17.8257L5.58545 17.9166L8.21567 21.8712ZM18.2151 17.8257L18.6913 21.8712L21.3366 17.9166L18.2151 17.8257ZM20.5808 13.3712L14.9878 13.6287L15.5017 16.5075L16.3331 14.7651L18.3209 15.6742L20.5808 13.3712ZM8.61626 15.6818L10.5965 14.7727L11.4203 16.4999L11.9418 13.6212L6.34882 13.3712L8.61626 15.6818Z" fill="#CC6228" stroke="#CC6228" stroke-width="0.325028" stroke-linecap="round" stroke-linejoin="round"/>
<path d="M6.34888 13.3712L8.69189 17.9545L8.6163 15.6818L6.34888 13.3712ZM18.321 15.6818L18.2303 17.9545L20.5733 13.3712L18.321 15.6818ZM11.9419 13.6287L11.4128 16.5075L12.0779 19.9015L12.2291 15.4242L11.9419 13.6287ZM14.9803 13.6287L14.7082 15.4166L14.8442 19.9015L15.5018 16.4999L14.9803 13.6212V13.6287Z" fill="#E27525" stroke="#E27525" stroke-width="0.325028" stroke-linecap="round" stroke-linejoin="round"/>
<path d="M15.5019 16.5001L14.8444 19.9016L15.3205 20.235L18.2304 17.9622L18.3211 15.6819L15.5019 16.5001ZM8.61644 15.6819L8.69203 17.9547L11.6095 20.2274L12.0781 19.9016L11.4205 16.5001L8.60889 15.6819H8.61644Z" fill="#F5841F" stroke="#F5841F" stroke-width="0.325028" stroke-linecap="round" stroke-linejoin="round"/>
<path d="M15.5699 23.3638L15.5926 22.4319L15.3356 22.2198H11.5868L11.3373 22.4319L11.36 23.3638L8.21582 21.8713L9.31931 22.7804L11.549 24.3183H15.3658L17.603 22.7729L18.6914 21.8713L15.5623 23.3638H15.5699Z" fill="#C0AC9D" stroke="#C0AC9D" stroke-width="0.325028" stroke-linecap="round" stroke-linejoin="round"/>
<path d="M15.3203 20.2273L14.8441 19.9016H12.0779L11.6093 20.2349L11.3372 22.4319L11.5866 22.2197H15.3354L15.5924 22.4319L15.3203 20.2349V20.2273Z" fill="black" stroke="black" stroke-width="0.325028" stroke-linecap="round" stroke-linejoin="round"/>
<path d="M25.3349 8.59848L26.1663 4.54545L24.9117 0.757568L15.3128 7.87878L19.0088 10.9924L24.2239 12.5151L25.3727 11.1742L24.8739 10.8106L25.6675 10.0833L25.0628 9.61363L25.8564 9.00757L25.3274 8.59848H25.3349ZM0.755859 4.53787L1.60237 8.59848L1.05818 8.99999L1.86691 9.60605L1.26225 10.0833L2.0483 10.8106L1.54946 11.1742L2.6983 12.5151L7.91342 11L11.6093 7.87121L2.01051 0.757568L0.755859 4.53787Z" fill="#763E1A" stroke="#763E1A" stroke-width="0.325028" stroke-linecap="round" stroke-linejoin="round"/>
<path d="M24.2239 12.5153L19.0088 11.0002L20.5809 13.3714L18.2379 17.9547L21.3367 17.9169H25.9698L24.2239 12.5153ZM7.91343 10.9926L2.69833 12.5153L0.959961 17.9169H5.5931L8.69192 17.9547L6.34891 13.3714L7.92099 10.9926H7.91343ZM14.9803 13.629L15.3204 7.8714L16.832 3.78052H10.0902L11.6018 7.8714L11.9419 13.629L12.0704 15.432V19.9017H14.8442L14.8594 15.432L14.9803 13.629Z" fill="#F5841F" stroke="#F5841F" stroke-width="0.325028" stroke-linecap="round" stroke-linejoin="round"/>
</g>
<defs>
<clipPath id="clip0_3_637">
<rect width="130" height="25" fill="white"/>
</clipPath>
</defs>
</svg>
