<svg width="98" height="30" viewBox="0 0 98 30" fill="none" xmlns="http://www.w3.org/2000/svg">
<path fill-rule="evenodd" clip-rule="evenodd" d="M68.9999 20.7938C72.3676 20.7938 75.1067 18.1173 75.1067 14.8275C75.1067 11.5376 72.3676 8.86113 68.9999 8.86113C65.6328 8.86113 62.893 11.5376 62.893 14.8275C62.893 18.1173 65.6328 20.7938 68.9999 20.7938ZM75.1067 0H75.2725H78.0001V23.6406H75.1067V21.2802C73.4371 22.7921 71.2841 23.6204 68.9999 23.6204C64.0376 23.6204 60.0002 19.6759 60.0002 14.8275C60.0002 9.97887 64.0376 6.03451 68.9999 6.03451C71.2841 6.03451 73.4371 6.86265 75.1067 8.37475V0ZM9.00009 20.6897C12.3674 20.6897 15.1069 18.0132 15.1069 14.7233C15.1069 11.4336 12.3674 8.7571 9.00009 8.7571C5.63264 8.7571 2.89312 11.4336 2.89312 14.7233C2.89312 18.0132 5.63264 20.6897 9.00009 20.6897ZM2.89312 8.2709C4.56287 6.7588 6.71633 5.93053 9.00009 5.93053C13.9626 5.93053 18 9.87502 18 14.7233C18 19.5718 13.9626 23.5163 9.00009 23.5163C6.71633 23.5163 4.56287 22.6882 2.89312 21.1759V29.5508H0V5.91015H2.89312V8.2709ZM23.5202 13.3505C24.1713 10.6786 26.5975 8.76011 29.3649 8.76011C32.0962 8.76011 34.3841 10.6377 34.9939 13.3505H23.5202ZM29.3649 5.91015C24.4767 5.91015 20.5 9.88726 20.5 14.7754C20.5 19.6637 24.4767 23.6406 29.3649 23.6406C32.1023 23.6406 34.6146 22.6157 36.2588 20.8288L37.113 19.9L37.2231 19.7801L37.1033 19.6696L35.2461 17.9613L35.1263 17.8508L35.0156 17.9707L34.1615 18.8997C33.072 20.0838 31.2789 20.7908 29.3649 20.7908C26.5975 20.7908 24.1715 18.8723 23.5202 16.2003H37.9998V14.7754C37.9998 9.80422 34.2068 5.91015 29.3649 5.91015ZM95.1066 14.7754C95.1066 18.0923 92.3674 20.7908 88.9997 20.7908C85.6326 20.7908 82.8929 18.0923 82.8929 14.7754C82.8929 11.4585 85.6326 8.75999 88.9997 8.75999C92.3674 8.75999 95.1066 11.4585 95.1066 14.7754ZM88.9997 5.91015C84.0374 5.91015 80.0001 9.88708 80.0001 14.7754C80.0001 19.6637 84.0374 23.6406 88.9997 23.6406C93.9626 23.6406 98 19.6637 98 14.7754C98 9.88708 93.9626 5.91015 88.9997 5.91015ZM48.7496 5.91015C46.7393 5.91015 44.8241 6.67335 43.3166 8.06724V5.91015H40.5V23.6406H43.3166V14.5925C43.3166 11.3643 45.7539 8.73786 48.7496 8.73786C51.7458 8.73786 54.1837 11.3643 54.1837 14.5925V23.6406H56.9997V14.5925C56.9997 9.80507 53.2987 5.91015 48.7496 5.91015Z" fill="black"/>
</svg>
