<svg width="26" height="26" viewBox="0 0 26 26" fill="none" xmlns="http://www.w3.org/2000/svg">
<path fill-rule="evenodd" clip-rule="evenodd" d="M20.5834 22.6295C20.5834 23.2939 20.0645 23.8332 19.4227 23.8332C18.7808 23.8332 18.2619 23.2939 18.2619 22.6295C18.2619 19.3109 15.6585 16.6109 12.4584 16.6109C9.25829 16.6109 6.6548 19.3109 6.6548 22.6295C6.6548 23.2939 6.13596 23.8332 5.49409 23.8332C4.85221 23.8332 4.33337 23.2939 4.33337 22.6295C4.33337 17.9832 7.97918 14.2035 12.4584 14.2035C16.9376 14.2035 20.5834 17.9832 20.5834 22.6295ZM12.4584 4.57391C13.7386 4.57391 14.7798 5.65363 14.7798 6.98132C14.7798 8.309 13.7386 9.38873 12.4584 9.38873C11.1781 9.38873 10.1369 8.309 10.1369 6.98132C10.1369 5.65363 11.1781 4.57391 12.4584 4.57391ZM12.4584 11.7961C15.0189 11.7961 17.1012 9.63669 17.1012 6.98132C17.1012 4.32595 15.0189 2.1665 12.4584 2.1665C9.89784 2.1665 7.81552 4.32595 7.81552 6.98132C7.81552 9.63669 9.89784 11.7961 12.4584 11.7961Z" fill="black"/>
</svg>
