<svg width="35" height="35" viewBox="0 0 35 35" fill="none" xmlns="http://www.w3.org/2000/svg">
<circle cx="17.5" cy="17.5" r="15.5" stroke="#FFFBF6" stroke-width="4"/>
<mask id="path-2-inside-1_3_103" fill="white">
<path d="M30.919 24.4107C31.9092 24.8968 33.118 24.4908 33.4882 23.4516C34.1513 21.5901 34.496 19.625 34.5029 17.6393C34.512 14.986 33.9177 12.3654 32.7649 9.97555C31.6121 7.58574 29.931 5.48936 27.8486 3.84495C26.2903 2.61432 24.5378 1.66093 22.6681 1.02123C21.6243 0.664108 20.5541 1.35737 20.3182 2.43504C20.0823 3.5127 20.7726 4.56383 21.8037 4.95599C23.0859 5.44364 24.29 6.12522 25.3727 6.98022C26.9797 8.24923 28.2771 9.86704 29.1667 11.7113C30.0563 13.5555 30.515 15.5779 30.5079 17.6255C30.5031 19.0051 30.2871 20.3718 29.8706 21.6788C29.5357 22.73 29.9287 23.9245 30.919 24.4107Z"/>
</mask>
<path d="M30.919 24.4107C31.9092 24.8968 33.118 24.4908 33.4882 23.4516C34.1513 21.5901 34.496 19.625 34.5029 17.6393C34.512 14.986 33.9177 12.3654 32.7649 9.97555C31.6121 7.58574 29.931 5.48936 27.8486 3.84495C26.2903 2.61432 24.5378 1.66093 22.6681 1.02123C21.6243 0.664108 20.5541 1.35737 20.3182 2.43504C20.0823 3.5127 20.7726 4.56383 21.8037 4.95599C23.0859 5.44364 24.29 6.12522 25.3727 6.98022C26.9797 8.24923 28.2771 9.86704 29.1667 11.7113C30.0563 13.5555 30.515 15.5779 30.5079 17.6255C30.5031 19.0051 30.2871 20.3718 29.8706 21.6788C29.5357 22.73 29.9287 23.9245 30.919 24.4107Z" stroke="#F7C461" stroke-width="8" mask="url(#path-2-inside-1_3_103)"/>
</svg>
