<svg width="130" height="29" viewBox="0 0 130 29" fill="none" xmlns="http://www.w3.org/2000/svg">
<g clip-path="url(#clip0_3_625)">
<path d="M22.289 4.97879C17.3281 4.62373 11.8024 4.62374 6.8414 4.97879C5.80293 5.05311 5.01609 5.84543 4.93801 6.8139C4.6876 9.91974 4.65428 14.5729 4.8839 17.6756C4.95974 18.7005 5.86277 19.5801 7.08444 19.5801H10.9142V24.2875L7.09225 24.2848C3.58614 24.2848 0.43907 21.6954 0.167224 18.0221C-0.0802659 14.6781 -0.0460831 9.78286 0.223713 6.43653C0.494098 3.08288 3.20056 0.514728 6.50257 0.278402C11.6891 -0.0927997 17.4413 -0.0928012 22.6279 0.278401C25.9299 0.514726 28.6364 3.08288 28.9068 6.43653C29.1766 9.78286 29.1647 14.6781 28.9172 18.0221C28.6454 21.6954 25.5056 24.2953 21.9995 24.2953L18.2171 24.2926L10.9142 29V24.2875L18.2171 19.5801H22.0001C23.2217 19.5801 24.1247 18.7005 24.2006 17.6756C24.4302 14.5729 24.4428 9.91974 24.1924 6.8139C24.1143 5.84543 23.3275 5.05311 22.289 4.97879Z" fill="#FE5000"/>
<path d="M36.3436 20.6909H47.773V17.8315H39.8071V3.43597H36.3436V20.6909Z" fill="black"/>
<path d="M49.4295 20.6912H52.794V7.87318H49.4295V20.6912ZM49.1573 4.52078C49.1573 5.63003 49.9737 6.46813 51.1117 6.46813C52.2497 6.46813 53.0661 5.63003 53.0661 4.52078C53.0661 3.41153 52.2497 2.57343 51.1117 2.57343C49.9737 2.57343 49.1573 3.41153 49.1573 4.52078Z" fill="black"/>
<path d="M65.9861 7.87305H62.6217L59.8509 17.2647L57.0802 7.87305H53.7157L58.0945 20.691H61.6074L65.9861 7.87305Z" fill="black"/>
<path d="M71.9898 20.9868C74.8348 20.9868 77.1355 19.2859 77.5808 16.9442H74.6369C74.3153 17.8316 73.4247 18.5711 71.9898 18.5711C70.0355 18.5711 69.2686 17.2646 69.2686 15.761V15.4405H77.6798V13.1974C77.6798 10.1161 75.7501 7.57715 71.9404 7.57715C68.0811 7.57715 66.0031 10.0422 66.0031 13.5178V15.268C66.0031 18.8669 68.3532 20.9868 71.9898 20.9868ZM69.2686 12.9509C69.2686 11.2254 70.0107 9.94357 71.9404 9.94357C73.7463 9.94357 74.5874 11.1514 74.5874 12.7537V13.0741H69.2686V12.9509Z" fill="black"/>
<path d="M86.6216 21.0361C91.0004 21.0361 93.6969 18.0781 93.8701 14.5532H90.654C90.4314 16.5005 89.1944 18.2014 86.6216 18.2014C83.7271 18.2014 82.4902 16.2294 82.4902 13.4686V10.6585C82.4902 7.89769 83.7271 5.92569 86.6216 5.92569C89.1944 5.92569 90.4314 7.62654 90.654 9.57389H93.8701C93.6969 6.04894 91.0004 3.09094 86.6216 3.09094C81.4017 3.09094 79.0515 6.41869 79.0515 10.831V13.296C79.0515 17.7084 81.4017 21.0361 86.6216 21.0361Z" fill="black"/>
<path d="M95.6992 20.6911H99.0639V13.0989C99.0639 11.3734 100.028 10.486 101.538 10.486C103.171 10.486 103.887 11.5459 103.887 13.0249V20.6911H107.252V12.4826C107.252 9.45063 105.496 7.57723 102.7 7.57723C101.043 7.57723 99.7314 8.29208 99.0639 9.40133V2.69653H95.6992V20.6911Z" fill="black"/>
<path d="M113.674 20.9868C115.159 20.9868 116.791 20.3705 117.385 19.5078V20.691H120.625V12.5072C120.625 9.5245 118.424 7.57715 115.208 7.57715C112.437 7.57715 110.433 8.90825 109.691 11.3979H112.808C113.154 10.7077 113.872 10.1901 115.034 10.1901C116.42 10.1901 117.261 11.0775 117.261 12.2607V14.0108C116.667 13.5178 115.529 12.9262 113.995 12.9262C110.904 12.9262 108.8 14.208 108.8 16.9935C108.8 19.4831 110.779 20.9868 113.674 20.9868ZM114.54 18.7683C113.13 18.7683 112.066 18.0781 112.066 16.8949C112.066 15.7117 113.055 15.0708 114.639 15.0708C116.148 15.0708 117.261 15.7363 117.261 16.8702C117.261 17.9548 116.024 18.7683 114.54 18.7683Z" fill="black"/>
<path d="M126.913 20.6909H129.239V17.9794H127.877C126.987 17.9794 126.666 17.6343 126.666 16.7962V10.5844H129.411V7.87292H126.666V4.37262H123.276V7.87292H121.445V10.5844H123.276V17.0427C123.276 19.3105 124.439 20.6909 126.913 20.6909Z" fill="black"/>
</g>
<defs>
<clipPath id="clip0_3_625">
<rect width="130" height="29" fill="white"/>
</clipPath>
</defs>
</svg>
