<svg width="40" height="39" viewBox="0 0 40 39" fill="none" xmlns="http://www.w3.org/2000/svg">
<path d="M0.0698555 9.0156C0.083861 9.0942 0.0951988 9.1728 0.0998673 9.25205C0.159224 10.2692 0.928191 18.385 10.596 28.2666C10.596 28.2666 18.9473 36.7773 27.7367 38.5667C27.7747 38.5745 27.8121 38.583 27.8501 38.5935C28.3823 38.7383 32.9067 39.8819 35.239 37.5429L38.5616 34.2799C38.5916 34.2504 38.623 34.2216 38.655 34.1941C38.9865 33.9092 41.294 31.7772 38.9858 29.5104C36.6495 27.216 33.7044 24.4186 33.3709 24.1016C33.3549 24.0865 33.3396 24.0715 33.3242 24.0557C33.1435 23.871 31.4268 22.21 29.416 23.7276C29.358 23.7715 29.3033 23.8206 29.2513 23.8717L25.998 27.0752C25.2691 27.7662 24.1113 27.757 23.393 27.0549L12.2786 16.1817C11.5324 15.4514 11.5517 14.2587 12.3213 13.5519L14.9223 11.1652C14.9223 11.1652 17.7721 8.57415 14.7116 5.77545L10.1685 1.31377C10.1405 1.28627 10.1138 1.2581 10.0871 1.22863C9.79367 0.903761 7.61615 -1.32053 5.06115 1.15527C4.98312 1.23059 4.89842 1.29871 4.80838 1.35897C3.94137 1.9432 -0.61508 5.20759 0.0698555 9.0156Z" fill="white"/>
<path d="M30.692 16.964C31.3957 16.9637 31.9751 16.3901 31.8754 15.6936C31.7524 14.8334 31.5051 13.9934 31.1394 13.2003C30.5955 12.0203 29.8025 10.9721 28.8149 10.1277C27.8273 9.28336 26.6687 8.66283 25.4185 8.3088C24.5782 8.07084 23.71 7.95707 22.8412 7.96915C22.1376 7.97894 21.661 8.64039 21.77 9.33557C21.8789 10.0307 22.5342 10.4926 23.2373 10.5222C23.7391 10.5433 24.2382 10.6229 24.7242 10.7606C25.6204 11.0144 26.451 11.4592 27.1589 12.0645C27.8669 12.6698 28.4354 13.4212 28.8253 14.2671C29.0368 14.7259 29.193 15.2065 29.2918 15.6989C29.4303 16.3888 29.9883 16.9644 30.692 16.964Z" fill="#F9A1E5"/>
<path d="M35.9533 17.1085C36.8009 17.1749 37.5511 16.54 37.5194 15.6904C37.4617 14.1452 37.1358 12.6177 36.5522 11.1773C35.7754 9.26002 34.5634 7.54962 33.012 6.18121C31.4605 4.81281 29.6122 3.82389 27.6129 3.29256C26.1109 2.8934 24.5547 2.76072 23.0143 2.8965C22.1675 2.97115 21.6312 3.79474 21.8029 4.6274C21.9745 5.46006 22.79 5.98359 23.639 5.93828C24.7076 5.88126 25.7818 5.99154 26.8222 6.26802C28.3601 6.67674 29.782 7.43748 30.9754 8.49013C32.1689 9.54279 33.1012 10.8585 33.6988 12.3334C34.103 13.3311 34.3465 14.3831 34.4234 15.4505C34.4845 16.2985 35.1057 17.0422 35.9533 17.1085Z" fill="#F9A1E5"/>
</svg>
