<svg width="21" height="21" viewBox="0 0 21 21" fill="none" xmlns="http://www.w3.org/2000/svg">
<path d="M5.45518 18.0468C5.20336 18.0463 4.95599 17.9803 4.73741 17.8552C4.24523 17.5763 3.93925 17.0349 3.93925 16.4472L3.93925 4.55268C3.93925 3.96329 4.24523 3.42353 4.73741 3.14462C4.96119 3.01601 5.21541 2.94987 5.4735 2.95312C5.73158 2.95637 5.98406 3.02888 6.20454 3.16308L16.3702 9.24813C16.5821 9.38098 16.7567 9.56546 16.8778 9.78426C16.9989 10.0031 17.0624 10.249 17.0624 10.4991C17.0624 10.7492 16.9989 10.9951 16.8778 11.214C16.7567 11.4328 16.5821 11.6172 16.3702 11.7501L6.20289 17.8368C5.97727 17.9732 5.71884 18.0458 5.45518 18.0468Z" fill="#828282"/>
</svg>
