<svg width="36" height="36" viewBox="0 0 36 36" fill="none" xmlns="http://www.w3.org/2000/svg">
<circle cx="18.2247" cy="17.7753" r="15.7753" stroke="#EEFBFF" stroke-width="4"/>
<mask id="path-2-inside-1_3_82" fill="white">
<path d="M1.9808 17.3734C0.860783 17.3391 -0.0870329 18.2218 0.00644542 19.3384C0.250401 22.2525 1.21077 25.0726 2.81571 27.542C4.79062 30.5807 7.64716 32.9431 11.0025 34.3127C14.3578 35.6822 18.0516 35.9935 21.5887 35.2046C25.1259 34.4158 28.3375 32.5647 30.793 29.8993C33.2485 27.2339 34.8307 23.8817 35.3274 20.2918C35.8241 16.702 35.2117 13.046 33.5722 9.81404C31.9327 6.58203 29.3445 3.92838 26.1544 2.20873C23.5619 0.811239 20.6727 0.0848469 17.7484 0.0801554C16.6278 0.0783595 15.8257 1.09522 15.9515 2.20868C16.0773 3.32213 17.0851 4.10694 18.205 4.14657C20.3028 4.22081 22.3652 4.77603 24.2289 5.78066C26.6907 7.10774 28.6881 9.1556 29.9533 11.6498C31.2186 14.144 31.6912 16.9653 31.3078 19.7356C30.9245 22.506 29.7035 25.093 27.8086 27.1499C25.9136 29.2068 23.4352 30.6354 20.7055 31.2441C17.9758 31.8528 15.1253 31.6126 12.5359 30.5557C9.9466 29.4988 7.74217 27.6757 6.2181 25.3307C5.06435 23.5555 4.34224 21.5455 4.09658 19.4607C3.96545 18.3479 3.10082 17.4077 1.9808 17.3734Z"/>
</mask>
<path d="M1.9808 17.3734C0.860783 17.3391 -0.0870329 18.2218 0.00644542 19.3384C0.250401 22.2525 1.21077 25.0726 2.81571 27.542C4.79062 30.5807 7.64716 32.9431 11.0025 34.3127C14.3578 35.6822 18.0516 35.9935 21.5887 35.2046C25.1259 34.4158 28.3375 32.5647 30.793 29.8993C33.2485 27.2339 34.8307 23.8817 35.3274 20.2918C35.8241 16.702 35.2117 13.046 33.5722 9.81404C31.9327 6.58203 29.3445 3.92838 26.1544 2.20873C23.5619 0.811239 20.6727 0.0848469 17.7484 0.0801554C16.6278 0.0783595 15.8257 1.09522 15.9515 2.20868C16.0773 3.32213 17.0851 4.10694 18.205 4.14657C20.3028 4.22081 22.3652 4.77603 24.2289 5.78066C26.6907 7.10774 28.6881 9.1556 29.9533 11.6498C31.2186 14.144 31.6912 16.9653 31.3078 19.7356C30.9245 22.506 29.7035 25.093 27.8086 27.1499C25.9136 29.2068 23.4352 30.6354 20.7055 31.2441C17.9758 31.8528 15.1253 31.6126 12.5359 30.5557C9.9466 29.4988 7.74217 27.6757 6.2181 25.3307C5.06435 23.5555 4.34224 21.5455 4.09658 19.4607C3.96545 18.3479 3.10082 17.4077 1.9808 17.3734Z" stroke="#27CCAE" stroke-width="8" mask="url(#path-2-inside-1_3_82)"/>
</svg>
