<svg width="26" height="26" viewBox="0 0 26 26" fill="none" xmlns="http://www.w3.org/2000/svg">
<g opacity="0.2">
<path fill-rule="evenodd" clip-rule="evenodd" d="M22.5564 15.2289C21.9898 15.0274 21.3723 15.3232 21.1741 15.8887C19.9521 19.3445 16.6663 21.6661 13.0003 21.6661C8.22174 21.6661 4.33366 17.7791 4.33366 12.9994C4.33366 9.3334 6.65524 6.04765 10.1111 4.82565C10.6755 4.6274 10.9712 4.00882 10.7719 3.4444C10.5726 2.88107 9.95399 2.58424 9.38958 2.78465C5.06924 4.31107 2.16699 8.41582 2.16699 12.9994C2.16699 18.9729 7.02683 23.8327 13.0003 23.8327C17.5839 23.8327 21.6887 20.9316 23.2162 16.6102C23.4155 16.0468 23.1208 15.4282 22.5564 15.2289ZM15.1667 10.8332V4.41009C18.4827 4.88675 21.1131 7.516 21.5898 10.8332H15.1667ZM14.0833 2.1665C13.4853 2.1665 13 2.65075 13 3.24984V11.9165C13 12.5156 13.4853 12.9998 14.0833 12.9998H22.75C23.348 12.9998 23.8333 12.5156 23.8333 11.9165C23.8333 6.53992 19.4588 2.1665 14.0833 2.1665Z" fill="black"/>
</g>
</svg>
