<svg width="28" height="28" viewBox="0 0 28 28" fill="none" xmlns="http://www.w3.org/2000/svg">
<path d="M4.66663 13.68C4.66663 13.2371 4.99581 12.871 5.42289 12.813L5.54163 12.805L20.923 12.8057L15.3661 7.27162C15.0237 6.93065 15.0225 6.37663 15.3635 6.03419C15.6735 5.72288 16.1595 5.69359 16.5026 5.94702L16.6009 6.03153L23.6592 13.0595C23.7044 13.1045 23.7436 13.1531 23.7769 13.2045C23.7863 13.2199 23.7958 13.2358 23.8049 13.2519C23.8132 13.2657 23.8208 13.2801 23.8279 13.2946C23.8378 13.3157 23.8474 13.3376 23.8562 13.3598C23.8633 13.377 23.8692 13.3937 23.8747 13.4106C23.8811 13.4314 23.8874 13.4537 23.8928 13.4763C23.8968 13.492 23.8999 13.5072 23.9027 13.5224C23.9066 13.5451 23.9099 13.5686 23.9123 13.5923C23.9143 13.6104 23.9156 13.6284 23.9162 13.6463C23.9164 13.6572 23.9166 13.6686 23.9166 13.68L23.9162 13.7139C23.9155 13.7311 23.9143 13.7483 23.9127 13.7654L23.9166 13.68C23.9166 13.7353 23.9115 13.7893 23.9017 13.8417C23.8995 13.8542 23.8968 13.867 23.8938 13.8798C23.8875 13.9061 23.8804 13.9315 23.8721 13.9564C23.868 13.9687 23.8633 13.9819 23.8583 13.995C23.848 14.0214 23.8369 14.0465 23.8247 14.0709C23.819 14.0824 23.8126 14.0944 23.806 14.1064C23.795 14.1258 23.7838 14.1443 23.7719 14.1623C23.7635 14.175 23.7542 14.1883 23.7444 14.2013L23.7369 14.2114C23.7133 14.2422 23.6877 14.2714 23.6603 14.2988L23.6593 14.2996L16.601 21.3287C16.2585 21.6697 15.7045 21.6686 15.3635 21.3262C15.0535 21.0149 15.0263 20.5287 15.2812 20.1867L15.3661 20.0887L20.9206 14.5557L5.54163 14.555C5.05838 14.555 4.66663 14.1633 4.66663 13.68Z" fill="white"/>
</svg>
