<svg width="83" height="34" viewBox="0 0 83 34" fill="none" xmlns="http://www.w3.org/2000/svg">
<path d="M2.94373 7.92885V27.3705C2.94373 28.6224 2.38947 29.2238 0.739031 29.2238C0.505 29.2238 0.295595 29.2115 0 29.187V33.7283C0.468062 33.7774 0.788284 33.7651 1.1085 33.7774C5.93671 33.9246 8.96662 32.1572 8.96662 27.4932V7.92885H2.94373ZM5.94902 5.73187C7.66103 5.73187 9.04059 4.4431 9.04059 2.85978C9.04059 1.27647 7.66103 0 5.94902 0C4.24932 0 2.85754 1.27647 2.85754 2.85978C2.85754 4.4431 4.24932 5.73187 5.94902 5.73187ZM12.8003 26.7813H18.8232V7.92885H12.8003V26.7813ZM15.8179 5.73187C17.5299 5.73187 18.9093 4.4431 18.9093 2.85978C18.9093 1.27647 17.5299 0 15.8179 0C14.1182 0 12.7264 1.27647 12.7264 2.85978C12.7264 4.4431 14.1182 5.73187 15.8179 5.73187ZM33.3354 7.92885H29.9237V3.4121H23.9007V7.92885H21.4004V12.3475H23.9007V21.5158C23.8638 25.3331 26.3518 27.2478 30.6011 27.0513C32.0544 26.9777 33.1014 26.6832 33.6803 26.5113L32.7689 22.1787C32.5102 22.24 31.9067 22.3628 31.4509 22.3628C30.478 22.3628 29.9237 21.97 29.9237 20.8531V12.3475H33.3354V7.92885ZM47.0873 7.92885H43.6753V3.4121H37.6525V7.92885H35.1522V12.3475H37.6525V21.5158C37.6155 25.3331 40.1035 27.2478 44.3525 27.0513C45.8066 26.9777 46.8532 26.6832 47.4324 26.5113L46.5202 22.1787C46.2618 22.24 45.6583 22.3628 45.2031 22.3628C44.2294 22.3628 43.6753 21.97 43.6753 20.8531V12.3475H47.0873V7.92885ZM58.8002 27.1372C63.7643 27.1372 67.0281 24.7438 67.7174 21.0372L62.1879 20.8776C61.7197 22.1296 60.4875 22.8046 58.9111 22.8046C56.596 22.8046 55.167 21.2705 55.167 18.963V18.8034H67.779V17.306C67.779 11.0955 63.9854 7.68337 58.6155 7.68337C52.9004 7.68337 49.2299 11.5865 49.2299 17.4287C49.2299 23.4674 52.8518 27.1372 58.8002 27.1372ZM55.167 15.3177C55.2528 13.4398 56.7434 12.016 58.7386 12.016C60.7216 12.016 62.1506 13.3906 62.1749 15.3177H55.167ZM70.8555 26.7813H76.8784V16.545C76.8784 14.299 78.4799 12.7893 80.6347 12.7893C81.3492 12.7893 82.4209 12.912 83.0001 13.1084V7.89204C82.4946 7.75708 81.8668 7.6711 81.3127 7.6711C79.243 7.6711 77.5929 8.87398 76.9027 11.3655H76.7058V7.92885H70.8555V26.7813Z" fill="black"/>
</svg>
