<svg width="130" height="29" viewBox="0 0 130 29" fill="none" xmlns="http://www.w3.org/2000/svg">
<g clip-path="url(#clip0_3_631)">
<path d="M120.677 6.78725V6.82119C119.377 5.89923 117.848 5.35178 116.256 5.23884C114.664 5.12586 113.073 5.45174 111.654 6.18078C110.236 6.90979 109.047 8.01383 108.217 9.37189C107.387 10.7299 106.947 12.2896 106.947 13.8799C106.947 15.4703 107.387 17.0299 108.217 18.388C109.047 19.746 110.236 20.85 111.654 21.5791C113.073 22.3081 114.664 22.634 116.256 22.521C117.848 22.408 119.377 21.8606 120.677 20.9386V22.5429H124.333V4.13715L120.677 6.78725ZM115.641 18.9055C114.652 18.9071 113.683 18.6186 112.857 18.0761C112.03 17.5335 111.382 16.7607 110.993 15.8538C110.603 14.947 110.49 13.946 110.666 12.9754C110.843 12.0048 111.302 11.1073 111.986 10.3946C112.67 9.68198 113.55 9.18549 114.515 8.96697C115.48 8.74845 116.488 8.8175 117.415 9.16553C118.341 9.51356 119.144 10.1252 119.724 10.9245C120.304 11.7237 120.635 12.6753 120.677 13.6609V14.0774C120.626 15.3747 120.073 16.6019 119.135 17.5019C118.196 18.402 116.944 18.905 115.641 18.9055ZM105.935 22.5398V17.3013L98.6918 22.5398H105.935ZM129.845 0.166626L126.177 2.81365V6.47566L129.842 3.81938L129.845 0.166626ZM126.177 8.75555L126.171 22.5398H129.827L129.842 6.09927L126.177 8.75555Z" fill="#0068E5"/>
<path d="M47.2086 5.21385C45.4898 5.21385 43.8097 5.72178 42.3806 6.67341C40.9512 7.62504 39.8373 8.97765 39.1792 10.5602C38.5212 12.1428 38.3488 13.8844 38.6837 15.5646C39.0186 17.2449 39.8456 18.7885 41.0605 20.0003C42.2754 21.2121 43.8236 22.0376 45.5093 22.3726C47.1946 22.7076 48.9422 22.5369 50.5304 21.8822C52.1185 21.2274 53.4764 20.118 54.4322 18.6942C55.3881 17.2704 55.8988 15.5961 55.9 13.883C55.9009 12.7448 55.6765 11.6177 55.2401 10.5659C54.8037 9.51418 54.1636 8.55844 53.3566 7.75335C52.5494 6.94829 51.5908 6.30962 50.536 5.87388C49.4811 5.43814 48.3504 5.21385 47.2086 5.21385ZM47.2086 18.9056C46.2094 18.9062 45.2329 18.6114 44.4021 18.0584C43.5714 17.5055 42.9238 16.7193 42.5416 15.7993C42.159 14.8794 42.0593 13.8671 42.2543 12.8906C42.4496 11.9141 42.9313 11.0172 43.6379 10.3136C44.3449 9.60991 45.2453 9.1311 46.2252 8.93773C47.2052 8.74438 48.2207 8.84517 49.1431 9.22732C50.0655 9.60951 50.8535 10.2559 51.4073 11.0847C51.961 11.9134 52.2557 12.8873 52.2538 13.883C52.2513 15.2154 51.719 16.4924 50.773 17.434C49.8271 18.3755 48.5454 18.9047 47.2086 18.9056ZM27.9871 5.21385C26.4752 5.21502 24.9898 5.60927 23.6775 6.35765C22.3652 7.10607 21.2715 8.18271 20.5044 9.48126C19.7373 10.7798 19.3232 12.2554 19.3032 13.7622C19.2832 15.269 19.6579 16.755 20.3903 18.0733C21.1227 19.3917 22.1874 20.4968 23.4794 21.2795C24.7713 22.0623 26.2458 22.4956 27.7571 22.5366C29.2685 22.5777 30.7644 22.225 32.0973 21.5136C33.4301 20.8021 34.5537 19.7565 35.3569 18.4798L32.1905 16.6596C31.6798 17.4271 30.9669 18.0399 30.1304 18.4311C29.2939 18.8223 28.3655 18.9768 27.4468 18.8778C26.5281 18.7788 25.6544 18.43 24.9211 17.8696C24.1877 17.3092 23.623 16.5587 23.2886 15.7001H36.4898C36.7637 14.4364 36.7504 13.1276 36.4508 11.8697C36.1511 10.6117 35.5726 9.43668 34.7577 8.43072C33.9427 7.42476 32.9123 6.61341 31.7417 6.05621C30.5713 5.49903 29.2905 5.21015 27.9933 5.21076L27.9871 5.21385ZM27.9871 8.84502C29.0047 8.84582 29.9982 9.15322 30.8372 9.72693C31.6764 10.3006 32.3217 11.1138 32.6888 12.0597H23.2886C23.3381 11.926 23.3938 11.7964 23.4557 11.671C23.8697 10.8242 24.5139 10.1103 25.3151 9.61071C26.1163 9.11108 27.0421 8.84579 27.9871 8.84502ZM8.76571 5.21385C6.93668 5.2111 5.15391 5.78684 3.67405 6.85821L2.2781 5.80002C2.14814 5.70426 1.9909 5.65236 1.82929 5.65193H0.0185714L0 28.8149H3.65548V20.8954C4.76561 21.696 6.04989 22.2236 7.40356 22.4352C8.75723 22.6468 10.1419 22.5364 11.4446 22.113C12.7473 21.6896 13.9311 20.9652 14.8995 19.999C15.8678 19.0327 16.5932 17.8519 17.0164 16.553C17.4397 15.2541 17.5489 13.8738 17.3351 12.5248C17.1212 11.1758 16.5904 9.89636 15.786 8.79078C14.9815 7.6852 13.9262 6.78488 12.7062 6.16326C11.4861 5.54161 10.1359 5.21632 8.76571 5.21385ZM8.76571 18.9056C7.76673 18.9062 6.78999 18.6114 5.9592 18.0584C5.12841 17.5055 4.48088 16.7193 4.09856 15.7993C3.71627 14.8794 3.61641 13.8671 3.8116 12.8906C4.00679 11.9141 4.48828 11.0172 5.19511 10.3136C5.90194 9.60991 6.80231 9.1311 7.7823 8.93773C8.76228 8.74438 9.77779 8.84517 10.7003 9.22732C11.6227 9.60951 12.4107 10.2559 12.9645 11.0847C13.5182 11.9134 13.8128 12.8873 13.811 13.883C13.8093 15.2156 13.277 16.4931 12.3311 17.4349C11.3851 18.3766 10.1027 18.9056 8.76571 18.9056ZM66.4641 5.21385C64.6456 5.21052 62.8723 5.7795 61.3971 6.8397L60.0136 5.80002C59.8839 5.70386 59.7263 5.65193 59.5648 5.65193H57.754L57.7355 28.8149H61.3941V20.9232C62.5071 21.7165 63.7922 22.2368 65.1449 22.4416C66.4975 22.6464 67.8798 22.5299 69.1789 22.1017C70.478 21.6736 71.6572 20.9458 72.6208 19.9775C73.5843 19.0092 74.3049 17.8279 74.724 16.5297C75.1428 15.2314 75.2483 13.8529 75.032 12.5063C74.8156 11.1597 74.2832 9.88303 73.4782 8.78026C72.6731 7.67746 71.6182 6.77966 70.3997 6.15996C69.1807 5.54022 67.8325 5.21607 66.4641 5.21385ZM66.4641 18.9056C65.4646 18.908 64.4871 18.6147 63.6551 18.0629C62.8231 17.5111 62.1741 16.7255 61.7902 15.8058C61.4064 14.886 61.3055 13.8734 61.4996 12.8963C61.6937 11.9191 62.1744 11.0214 62.881 10.3168C63.5873 9.61225 64.4877 9.13252 65.468 8.93843C66.4483 8.74432 67.4641 8.84456 68.3871 9.22646C69.3101 9.60837 70.0988 10.2547 70.6528 11.0837C71.2069 11.9127 71.5019 12.8869 71.5 13.883C71.4985 15.214 70.9673 16.4901 70.0233 17.4316C69.0795 18.3731 67.7993 18.9031 66.4641 18.9056ZM99.6945 15.697C100.157 13.5899 99.8162 11.3866 98.7387 9.51612C97.661 7.64562 95.9233 6.24181 93.8643 5.57795C91.8054 4.9141 89.5722 5.03775 87.5996 5.92478C85.627 6.81184 84.0561 8.39882 83.1929 10.3768C82.3296 12.3547 82.2358 14.5821 82.9295 16.6252C83.6234 18.6683 85.055 20.381 86.9462 21.4298C88.8371 22.4786 91.052 22.7885 93.1599 22.299C95.2674 21.8097 97.1168 20.556 98.3481 18.7821L95.3983 16.6596C94.8876 17.4271 94.1751 18.04 93.3385 18.4311C92.5021 18.8222 91.5735 18.9764 90.6552 18.8771C89.7365 18.7777 88.8631 18.4285 88.1301 17.8677C87.3971 17.3068 86.8332 16.5559 86.4995 15.697H99.6945ZM91.1981 8.84502C92.2155 8.84582 93.2091 9.15322 94.0482 9.72693C94.8873 10.3006 95.5327 11.1138 95.8998 12.0597H86.4995C86.549 11.926 86.6048 11.7964 86.6667 11.671C87.0805 10.8242 87.7249 10.1103 88.526 9.61071C89.3273 9.11108 90.2531 8.84579 91.1981 8.84502ZM77.0033 0.166626H80.6619V22.5398H77.0033V0.166626Z" fill="black"/>
</g>
<defs>
<clipPath id="clip0_3_631">
<rect width="130" height="29" fill="white"/>
</clipPath>
</defs>
</svg>
