<svg width="50" height="54" viewBox="0 0 50 54" fill="none" xmlns="http://www.w3.org/2000/svg">
<path d="M42.9799 37.17L34.2836 45.8397C33.1695 46.9498 31.6685 47.5695 30.0953 47.5695H7.18358C3.90826 47.5695 1.25191 44.9102 1.25191 41.6313V7.19006C1.25191 3.91117 3.90826 1.25191 7.18358 1.25191H38.7917C42.067 1.25191 44.7233 3.91117 44.7233 7.19006V32.9616C44.7285 34.5417 44.0992 36.0546 42.9799 37.17Z" stroke="white" stroke-width="2.5" stroke-miterlimit="10"/>
<path d="M48.2516 42.7104L39.5553 51.3801C38.4411 52.4903 36.9402 53.1099 35.367 53.1099H12.4604C9.1851 53.1099 6.52874 50.4506 6.52874 47.1718V12.7305C6.52874 9.45159 9.1851 6.79233 12.4604 6.79233H44.0685C47.3438 6.79233 50.0002 9.45159 50.0002 12.7305V38.5021C50.0002 40.0821 49.3709 41.5951 48.2516 42.7104Z" fill="#907EFF"/>
<path d="M14.9987 20.8309C14.9987 20.1866 15.521 19.6642 16.1654 19.6642H41.0552C41.6996 19.6642 42.2219 20.1866 42.2219 20.8309C42.2219 21.4753 41.6996 21.9977 41.0552 21.9977H16.1654C15.521 21.9977 14.9987 21.4753 14.9987 20.8309Z" fill="white"/>
<path d="M14.9987 26.276C14.9987 25.6317 15.521 25.1093 16.1654 25.1093H41.0552C41.6996 25.1093 42.2219 25.6317 42.2219 26.276C42.2219 26.9204 41.6996 27.4427 41.0552 27.4427H16.1654C15.521 27.4427 14.9987 26.9204 14.9987 26.276Z" fill="white"/>
<path d="M14.9987 31.7205C14.9987 31.0761 15.521 30.5537 16.1654 30.5537H41.0552C41.6996 30.5537 42.2219 31.0761 42.2219 31.7205C42.2219 32.3648 41.6996 32.8872 41.0552 32.8872H16.1654C15.521 32.8872 14.9987 32.3648 14.9987 31.7205Z" fill="white"/>
<path d="M14.9987 37.165C14.9987 36.5207 15.521 35.9983 16.1654 35.9983H28.6103C29.2547 35.9983 29.777 36.5207 29.777 37.165C29.777 37.8094 29.2547 38.3317 28.6103 38.3317H16.1654C15.521 38.3317 14.9987 37.8094 14.9987 37.165Z" fill="white"/>
</svg>
