<svg width="20" height="24" viewBox="0 0 20 24" fill="none" xmlns="http://www.w3.org/2000/svg">
<path opacity="0.3" fill-rule="evenodd" clip-rule="evenodd" d="M2.02616 0L9.62371 0C9.95115 0 10.268 0.116027 10.518 0.327482L15.8747 4.85836C16.1857 5.12146 16.3652 5.5082 16.3652 5.91562L16.3652 19.7291C16.3652 21.6826 16.3428 21.8202 14.339 21.8202L2.02616 21.8202C0.0223088 21.8202 0 21.6826 0 19.7291L0 2.0911C0 0.137604 0.0223088 0 2.02616 0ZM4.20754 13.3774C4.20754 12.8675 4.62086 12.4542 5.13071 12.4542L13.409 12.4542C13.9189 12.4542 14.3322 12.8675 14.3322 13.3774V13.556C14.3322 14.0658 13.9189 14.4791 13.409 14.4791L5.13071 14.4791C4.62086 14.4791 4.20754 14.0658 4.20754 13.556V13.3774ZM5.13071 16.504C4.62086 16.504 4.20754 16.9174 4.20754 17.4272V17.6058C4.20754 18.1157 4.62086 18.529 5.13071 18.529H8.34669C8.85654 18.529 9.26985 18.1157 9.26985 17.6058V17.4272C9.26985 16.9174 8.85654 16.504 8.34669 16.504H5.13071Z" fill="#FFE484"/>
<path fill-rule="evenodd" clip-rule="evenodd" d="M4.20904 2.17978L12.8976 2.17978C13.225 2.17978 13.5419 2.29581 13.7919 2.50727L19.1486 7.03814C19.4596 7.30125 19.639 7.68799 19.639 8.0954L19.639 21.9089C19.639 23.8624 19.6167 24 17.6129 24L4.20904 24C2.20518 24 2.18287 23.8624 2.18287 21.9089L2.18287 4.27089C2.18287 2.31739 2.20518 2.17978 4.20904 2.17978ZM4.20742 13.3774C4.20742 12.8675 4.62073 12.4542 5.13058 12.4542L13.4089 12.4542C13.9187 12.4542 14.332 12.8675 14.332 13.3774V13.556C14.332 14.0658 13.9187 14.4791 13.4089 14.4791L5.13058 14.4791C4.62073 14.4791 4.20742 14.0658 4.20742 13.556V13.3774ZM5.13058 16.504C4.62073 16.504 4.20742 16.9174 4.20742 17.4272V17.6058C4.20742 18.1157 4.62073 18.529 5.13058 18.529H8.34657C8.85642 18.529 9.26973 18.1157 9.26973 17.6058V17.4272C9.26973 16.9174 8.85642 16.504 8.34657 16.504H5.13058Z" fill="#FFE484"/>
</svg>
