<svg width="78" height="13" viewBox="0 0 78 13" fill="none" xmlns="http://www.w3.org/2000/svg">
<path d="M13.1348 4.76845C13.0481 4.50179 12.8116 4.313 12.5329 4.28778L8.7313 3.94264L7.22889 0.425211C7.11797 0.166789 6.86557 0 6.58464 0C6.30372 0 6.05122 0.166789 5.941 0.425211L4.4386 3.94264L0.636417 4.28778C0.357699 4.3135 0.121683 4.50229 0.0344709 4.76845C-0.0522391 5.03511 0.0278396 5.32759 0.238636 5.51247L3.11233 8.03228L2.26502 11.7641C2.20303 12.0385 2.30953 12.3223 2.53721 12.4868C2.65958 12.5758 2.80336 12.6202 2.94765 12.6202C3.07163 12.6202 3.19572 12.5872 3.30654 12.5209L6.58464 10.5608L9.86214 12.5209C10.1026 12.6646 10.4049 12.6514 10.6321 12.4868C10.8598 12.3223 10.9663 12.0385 10.9043 11.7641L10.057 8.03228L12.9307 5.51247C13.1414 5.32759 13.2215 5.03571 13.1348 4.76845Z" fill="#6640FF"/>
<path d="M29.3425 4.76845C29.2558 4.50179 29.0193 4.313 28.7405 4.28778L24.939 3.94264L23.4366 0.425211C23.3256 0.166789 23.0732 0 22.7923 0C22.5114 0 22.2589 0.166789 22.1487 0.425211L20.6463 3.94264L16.8441 4.28778C16.5654 4.3135 16.3293 4.50229 16.2421 4.76845C16.1554 5.03511 16.2355 5.32759 16.4463 5.51247L19.32 8.03228L18.4727 11.7641C18.4107 12.0385 18.5172 12.3223 18.7449 12.4868C18.8672 12.5758 19.011 12.6202 19.1553 12.6202C19.2793 12.6202 19.4034 12.5872 19.5142 12.5209L22.7923 10.5608L26.0698 12.5209C26.3102 12.6646 26.6126 12.6514 26.8397 12.4868C27.0674 12.3223 27.1739 12.0385 27.1119 11.7641L26.2646 8.03228L29.1383 5.51247C29.349 5.32759 29.4292 5.03571 29.3425 4.76845Z" fill="#6640FF"/>
<path d="M45.5501 4.76845C45.4634 4.50179 45.2269 4.313 44.9482 4.28778L41.1466 3.94264L39.6442 0.425211C39.5333 0.166789 39.2809 0 39 0C38.719 0 38.4666 0.166789 38.3563 0.425211L36.8539 3.94264L33.0517 4.28778C32.773 4.3135 32.537 4.50229 32.4498 4.76845C32.3631 5.03511 32.4432 5.32759 32.654 5.51247L35.5277 8.03228L34.6803 11.7641C34.6184 12.0385 34.7249 12.3223 34.9525 12.4868C35.0749 12.5758 35.2187 12.6202 35.363 12.6202C35.487 12.6202 35.611 12.5872 35.7219 12.5209L39 10.5608L42.2775 12.5209C42.5179 12.6646 42.8202 12.6514 43.0474 12.4868C43.2751 12.3223 43.3816 12.0385 43.3196 11.7641L42.4723 8.03228L45.346 5.51247C45.5567 5.32759 45.6369 5.03571 45.5501 4.76845Z" fill="#6640FF"/>
<path d="M61.7578 4.76845C61.6711 4.50179 61.4346 4.313 61.1559 4.28778L57.3543 3.94264L55.8519 0.425211C55.741 0.166789 55.4886 0 55.2076 0C54.9267 0 54.6742 0.166789 54.564 0.425211L53.0616 3.94264L49.2594 4.28778C48.9807 4.3135 48.7447 4.50229 48.6575 4.76845C48.5708 5.03511 48.6508 5.32759 48.8616 5.51247L51.7353 8.03228L50.888 11.7641C50.826 12.0385 50.9325 12.3223 51.1602 12.4868C51.2826 12.5758 51.4264 12.6202 51.5706 12.6202C51.6946 12.6202 51.8187 12.5872 51.9295 12.5209L55.2076 10.5608L58.4851 12.5209C58.7256 12.6646 59.0279 12.6514 59.2551 12.4868C59.4828 12.3223 59.5893 12.0385 59.5273 11.7641L58.68 8.03228L61.5536 5.51247C61.7643 5.32759 61.8445 5.03571 61.7578 4.76845Z" fill="#6640FF"/>
<path opacity="0.3" d="M77.9655 4.76845C77.8788 4.50179 77.6422 4.313 77.3635 4.28778L73.562 3.94264L72.0595 0.425211C71.9486 0.166789 71.6962 0 71.4153 0C71.1344 0 70.8819 0.166789 70.7717 0.425211L69.2693 3.94264L65.4671 4.28778C65.1884 4.3135 64.9523 4.50229 64.8651 4.76845C64.7784 5.03511 64.8585 5.32759 65.0693 5.51247L67.943 8.03228L67.0957 11.7641C67.0337 12.0385 67.1402 12.3223 67.3679 12.4868C67.4902 12.5758 67.634 12.6202 67.7783 12.6202C67.9023 12.6202 68.0264 12.5872 68.1372 12.5209L71.4153 10.5608L74.6928 12.5209C74.9332 12.6646 75.2356 12.6514 75.4627 12.4868C75.6904 12.3223 75.7969 12.0385 75.7349 11.7641L74.8876 8.03228L77.7613 5.51247C77.972 5.32759 78.0522 5.03571 77.9655 4.76845Z" fill="#5B7486"/>
</svg>
