<svg width="21" height="21" viewBox="0 0 21 21" fill="none" xmlns="http://www.w3.org/2000/svg">
<g clip-path="url(#clip0_0_88)">
<path d="M18.3751 2.62497L2.62515 2.62497C1.90028 2.62497 1.31266 3.21259 1.31266 3.93746L1.31266 14.4374C1.31266 15.1623 1.90028 15.7499 2.62515 15.7499L18.3751 15.7499C19.1 15.7499 19.6876 15.1623 19.6876 14.4374L19.6876 3.93746C19.6876 3.21259 19.1 2.62497 18.3751 2.62497Z" stroke="white" stroke-width="1.67785" stroke-linejoin="round"/>
<path d="M12.4689 18.3749L12.1408 15.7499H8.85952L8.53139 18.3749H12.4689Z" fill="white" stroke="white" stroke-width="1.67785" stroke-linecap="round" stroke-linejoin="round"/>
<path d="M15.0938 18.3749H5.90633" stroke="white" stroke-width="1.67785" stroke-linecap="round" stroke-linejoin="round"/>
<path d="M1.31266 12.4687L1.31266 14.4374C1.31363 14.7852 1.45223 15.1185 1.69816 15.3644C1.94409 15.6104 2.27736 15.749 2.62515 15.7499L18.3751 15.7499C18.7229 15.749 19.0562 15.6104 19.3021 15.3644C19.548 15.1185 19.6866 14.7852 19.6876 14.4374V12.4687L1.31266 12.4687ZM10.5001 15.0937C10.3703 15.0937 10.2435 15.0552 10.1355 14.9831C10.0276 14.911 9.9435 14.8085 9.89383 14.6886C9.84416 14.5687 9.83117 14.4367 9.85649 14.3094C9.88181 14.1821 9.94431 14.0652 10.0361 13.9734C10.1279 13.8816 10.2448 13.8191 10.3721 13.7938C10.4994 13.7685 10.6313 13.7815 10.7513 13.8312C10.8712 13.8808 10.9737 13.9649 11.0458 14.0729C11.1179 14.1808 11.1564 14.3077 11.1564 14.4374C11.1564 14.6115 11.0872 14.7784 10.9642 14.9015C10.8411 15.0246 10.6742 15.0937 10.5001 15.0937Z" fill="white"/>
</g>
<defs>
<clipPath id="clip0_0_88">
<rect width="20.1342" height="20.1342" fill="white" transform="scale(1.043)"/>
</clipPath>
</defs>
</svg>
