<svg width="53" height="74" viewBox="0 0 53 74" fill="none" xmlns="http://www.w3.org/2000/svg">
<path d="M51.6598 26.7263C51.6598 12.0559 39.3873 0.282871 24.6577 1.3209C12.2877 2.18811 2.24474 12.2793 1.3282 24.7816C0.52217 35.7926 6.63893 45.4502 15.7393 49.7797C17.1044 50.4301 17.9754 51.8163 17.9754 53.3405V59.3782V63.9376C17.9754 68.3393 21.167 72.2024 25.4962 72.6886C30.6119 73.2601 34.9476 69.2263 34.9476 64.1675V53.3405C34.9476 51.8163 35.8251 50.4301 37.1902 49.7797C45.7381 45.6998 51.6598 36.916 51.6598 26.7263Z" stroke="white" stroke-width="2.5" stroke-miterlimit="10"/>
<path d="M34.9412 59.03H17.969" stroke="white" stroke-width="2.5" stroke-miterlimit="10"/>
<path d="M26.4581 28.362C21.5244 28.362 17.5072 32.4221 17.5072 37.4086V42.6776C20.1268 44.2543 23.1884 45.1675 26.4581 45.1675C29.7277 45.1675 32.7893 44.2609 35.4089 42.6776V37.4086C35.4089 32.4221 31.3918 28.362 26.4581 28.362Z" fill="#907EFF"/>
<path d="M13.0936 37.4086C13.0936 29.9585 19.0869 23.9011 26.4582 23.9011C33.8295 23.9011 39.8227 29.9585 39.8227 37.4086V38.9C42.4098 35.8122 43.9699 31.8243 43.9699 27.4685C43.9699 17.6927 36.1306 9.76953 26.4582 9.76953C16.7858 9.76953 8.94645 17.6927 8.94645 27.4685C8.94645 31.8309 10.5065 35.8187 13.0936 38.9V37.4086Z" fill="#907EFF"/>
</svg>
