<svg width="64" height="60" viewBox="0 0 64 60" fill="none" xmlns="http://www.w3.org/2000/svg">
<g clip-path="url(#clip0_1143_1288)">
<path d="M40.8982 10.3954H7.69531V13.9599H40.8982V10.3954Z" fill="#4B0082"/>
<path d="M40.8996 16.3362H18.9473V19.9007H40.8996V16.3362Z" fill="#4B0082"/>
<path d="M15.1444 16.3362H7.69531V19.9007H15.1444V16.3362Z" fill="#4B0082"/>
<path d="M40.8982 22.277H7.69531V25.8415H40.8982V22.277Z" fill="#4B0082"/>
<path d="M62.7144 12.4448C61.0015 10.839 58.2146 10.8391 56.502 12.4448L48.5932 19.8593V0H0.000976562V60H48.5932V31.5073L62.7142 18.2688C64.4271 16.6632 64.4271 14.0504 62.7144 12.4448ZM3.80323 56.4355V3.56449H44.7912V23.4238L39.6777 28.2177H7.69573V31.7822H35.8756L29.4141 37.8398V40.0993H7.69573V43.6638H29.4141H31.3152H35.6265L44.7914 35.0718V56.4353H3.80323V56.4355ZM48.5935 26.4664L34.0515 40.0995H33.2161V39.3164L48.5932 24.9004L54.3004 19.5499L55.1357 20.3331L48.5935 26.4664ZM60.0259 15.7484L57.8242 17.8125L56.9889 17.0293L59.1906 14.9652C59.4206 14.7496 59.7955 14.7493 60.026 14.9652C60.2561 15.1813 60.2561 15.5325 60.0259 15.7484Z" fill="#4B0082"/>
<path d="M26.6782 34.1587H7.69531V37.7232H26.6782V34.1587Z" fill="#4B0082"/>
</g>
<defs>
<clipPath id="clip0_1143_1288">
<rect width="64" height="60" fill="white"/>
</clipPath>
</defs>
</svg>
