<svg width="25" height="24" viewBox="0 0 25 24" fill="none" xmlns="http://www.w3.org/2000/svg">
<path d="M12.2789 12C16.1544 12 19.2954 9.31406 19.2954 6C19.2954 2.68594 16.1544 0 12.2789 0C8.40335 0 5.26237 2.68594 5.26237 6C5.26237 9.31406 8.40335 12 12.2789 12ZM17.1904 13.5H16.275C15.0581 13.9781 13.7041 14.25 12.2789 14.25C10.8536 14.25 9.50516 13.9781 8.28276 13.5H7.36732C3.29995 13.5 0 16.3219 0 19.8V21.75C0 22.9922 1.17855 24 2.63119 24H21.9266C23.3792 24 24.5577 22.9922 24.5577 21.75V19.8C24.5577 16.3219 21.2578 13.5 17.1904 13.5Z" fill="#7166F9"/>
</svg>
