<svg width="37" height="39" viewBox="0 0 37 39" fill="none" xmlns="http://www.w3.org/2000/svg">
<path d="M20.8349 0.71576L33.3631 7.75033C35.1113 8.73195 36.1924 10.573 36.1924 12.5687V26.4314C36.1924 28.427 35.1113 30.2681 33.3631 31.2497L20.8349 38.2842C19.1353 39.2386 17.0571 39.2386 15.3573 38.2842L2.82925 31.2497C1.08105 30.2681 0 28.427 0 26.4314V12.5687C0 10.573 1.08105 8.73195 2.82925 7.75033L15.3573 0.71576C17.0571 -0.238587 19.1353 -0.238587 20.8349 0.71576ZM2.08803 12.6248V26.4314C2.08803 27.6703 2.76036 28.8153 3.85109 29.4277L16.2013 36.3623C16.3612 36.4243 16.5317 36.4564 16.7042 36.4564C17.473 36.4564 18.0962 35.8328 18.0962 35.0636V23.9042C18.0962 22.0855 17.0845 20.4179 15.4719 19.5789L14.5526 19.1007C14.3357 19.0082 14.1216 18.9071 13.9109 18.797L2.08803 12.6248ZM15.0404 17.5621C17.2595 18.7205 18.9389 18.7205 21.1579 17.5621L33.152 10.8245C32.8567 10.1479 32.3444 9.57048 31.6743 9.19417L19.8132 2.53777C18.7483 1.9398 17.4441 1.9398 16.3791 2.53777L4.54066 9.19417C3.87046 9.57048 3.35824 10.1479 3.06288 10.8245L15.0404 17.5621ZM18.0962 4.875C20.7062 4.875 22.8369 6.15852 22.9624 7.77133L22.9682 10.5335C22.9682 12.2162 20.787 13.5803 18.0962 13.5803C15.4054 13.5803 13.2241 12.2162 13.2241 10.5335V7.77133C13.3555 6.15852 15.4862 4.875 18.0962 4.875ZM18.0967 9.75001C20.3569 9.75001 22.1892 8.83331 22.1892 7.70251C22.1892 6.5717 20.3569 5.655 18.0967 5.655C15.8365 5.655 14.0042 6.5717 14.0042 7.70251C14.0042 8.83331 15.8365 9.75001 18.0967 9.75001Z" fill="#5A45FF"/>
</svg>
