<svg width="130" height="19" viewBox="0 0 130 19" fill="none" xmlns="http://www.w3.org/2000/svg">
<g clip-path="url(#clip0_3_618)">
<path fill-rule="evenodd" clip-rule="evenodd" d="M3.23159 18.9845V15.8397H17.4134V18.9845H3.23159ZM14.4011 3.26037H6.2426L10.3225 8.89485L14.4011 3.26037ZM20.5649 0.11554L10.3225 14.2673L0.0800781 0.11554H20.5649Z" fill="#00B3E6"/>
<path d="M33.0646 15.8408V10.7933H28.2139V15.8408H25.2896V3.26147H28.2139V8.18444H33.0646V3.25885H35.9889V15.8382L33.0646 15.8408Z" fill="black"/>
<path d="M39.6787 15.8408V3.26147H47.6665V5.93589H42.6031V8.18444H47.2135V10.7252H42.6031V13.1795H47.6665V15.8408H39.6787Z" fill="black"/>
<path d="M51.1504 15.8408V3.26147H54.0734V13.1821H59.1316V15.8434L51.1504 15.8408Z" fill="black"/>
<path d="M61.5859 15.8408V3.26147H64.5142V13.1821H69.5711V15.8434L61.5859 15.8408Z" fill="black"/>
<path d="M77.82 16.0465C73.9148 16.0465 71.4211 13.2489 71.4211 9.55762C71.4211 5.86638 74.0356 3.05176 77.9408 3.05176C81.8461 3.05176 84.3397 5.85065 84.3397 9.55762C84.3397 13.2646 81.7082 16.0465 77.82 16.0465ZM77.8686 5.66196C75.874 5.66196 74.532 7.29203 74.532 9.55762C74.532 11.8232 75.874 13.4546 77.8686 13.4546C79.8633 13.4546 81.2066 11.8062 81.2066 9.55762C81.2066 7.30907 79.8672 5.66196 77.8686 5.66196Z" fill="black"/>
<path d="M90.6584 16.0465C89.231 16.0465 87.5069 15.4804 86.4104 14.7584L87.218 12.1154C88.233 12.8531 89.558 13.3341 90.745 13.3341C91.7772 13.3341 92.1724 12.8531 92.1724 12.236C92.1724 11.5808 91.8455 11.1366 89.9191 10.3648C87.6999 9.47245 86.9291 8.18438 86.9291 6.67355C86.9291 4.83907 88.4247 3.05176 91.3662 3.05176C92.7423 3.05176 94.1539 3.53265 94.8932 4.03059L94.1513 6.63948C93.4278 6.14155 92.2591 5.60955 91.3635 5.60955C90.2973 5.60955 89.8679 6.10748 89.8679 6.62245C89.8679 7.44665 90.5034 7.72183 92.0871 8.3901C94.4428 9.38596 95.148 10.5194 95.148 12.1324C95.148 14.1412 93.6865 16.0465 90.6584 16.0465Z" fill="black"/>
<path d="M98.2839 15.8408V3.26147H101.208V15.8408H98.2839Z" fill="black"/>
<path d="M115.787 8.76879V14.7767C114.341 15.6329 112.686 16.0724 111.004 16.0465C107.307 16.0465 104.382 13.4035 104.382 9.55762C104.382 5.71176 107.341 3.05176 111.159 3.05176C112.811 3.05176 114.135 3.48155 115.39 4.1341L114.169 6.48486C113.301 6.02865 112.335 5.78733 111.354 5.78121C108.842 5.78121 107.501 7.34314 107.501 9.55762C107.501 11.9608 109.117 13.4546 111.178 13.4546C112.106 13.4546 112.571 13.3511 113.036 13.1113V11.2571H110.505V8.76748L115.787 8.76879Z" fill="black"/>
<path d="M129.674 16.0806L122.071 9.26673V15.8408H119.147V3.08715L119.541 3.0177L127.042 9.78039V3.2588H129.966V16.0295L129.674 16.0806Z" fill="black"/>
</g>
<defs>
<clipPath id="clip0_3_618">
<rect width="130" height="19" fill="white"/>
</clipPath>
</defs>
</svg>
