<svg width="37" height="37" viewBox="0 0 37 37" fill="none" xmlns="http://www.w3.org/2000/svg">
<path fill-rule="evenodd" clip-rule="evenodd" d="M7.91128 3.32802C6.58792 4.25336 5.39124 5.3474 4.35242 6.57896C8.59752 6.18485 13.9908 6.82839 20.2523 9.9592C26.9388 13.3023 32.323 13.4154 36.0701 12.6926C35.7301 11.6631 35.302 10.6738 34.795 9.73323C30.5055 10.1856 25.0064 9.58672 18.5976 6.38247C14.528 4.34766 10.9407 3.50945 7.91128 3.32802ZM32.2893 6.16664C28.9018 2.38187 23.9791 0 18.4999 0C16.8909 0 15.3297 0.205449 13.8413 0.591515C15.8571 1.14153 17.9985 1.94618 20.2523 3.07309C24.9444 5.41913 28.9953 6.17452 32.2893 6.16664ZM36.8713 16.306C32.3443 17.1998 26.0931 17.0163 18.5976 13.2686C11.5902 9.76479 6.0129 9.80898 2.25135 10.6449C2.0572 10.688 1.86761 10.7333 1.6826 10.7805C1.19013 11.8515 0.797011 12.9778 0.514949 14.1474C0.816207 14.0669 1.12751 13.9904 1.44869 13.919C6.0121 12.9049 12.4598 12.9489 20.2523 16.8452C27.2598 20.349 32.8371 20.3048 36.5986 19.4689C36.7275 19.4403 36.8546 19.4107 36.9794 19.3802C36.9931 19.0886 37 18.7951 37 18.4999C37 17.7577 36.9563 17.0255 36.8713 16.306ZM36.3754 23.2844C31.8924 24.0681 25.8231 23.7673 18.5976 20.1546C11.5902 16.6509 6.0129 16.695 2.25135 17.5309C1.41641 17.7164 0.665296 17.9424 0.00271023 18.181C0.000903777 18.287 0 18.3934 0 18.4999C0 28.7173 8.28272 37 18.4999 37C27.0627 37 34.2669 31.1825 36.3754 23.2844Z" fill="#4B0082"/>
</svg>
