<svg width="96" height="96" viewBox="0 0 96 96" fill="none" xmlns="http://www.w3.org/2000/svg">
<path d="M54 22C53.1667 22 52.4583 21.7083 51.875 21.125C51.2917 20.5417 51 19.8333 51 19C51 18.8833 51.0083 18.7623 51.025 18.637C51.0417 18.5123 51.0667 18.4 51.1 18.3L44.05 14.2C43.7667 14.45 43.45 14.6457 43.1 14.787C42.75 14.929 42.3833 15 42 15C41.1667 15 40.4583 14.7083 39.875 14.125C39.2917 13.5417 39 12.8333 39 12C39 11.1667 39.2917 10.4583 39.875 9.875C40.4583 9.29167 41.1667 9 42 9C42.3833 9 42.75 9.07067 43.1 9.212C43.45 9.354 43.7667 9.55 44.05 9.8L51.1 5.7C51.0667 5.6 51.0417 5.48767 51.025 5.363C51.0083 5.23767 51 5.11667 51 5C51 4.16667 51.2917 3.45833 51.875 2.875C52.4583 2.29167 53.1667 2 54 2C54.8333 2 55.5417 2.29167 56.125 2.875C56.7083 3.45833 57 4.16667 57 5C57 5.83333 56.7083 6.54167 56.125 7.125C55.5417 7.70833 54.8333 8 54 8C53.6167 8 53.25 7.929 52.9 7.787C52.55 7.64567 52.2333 7.45 51.95 7.2L44.9 11.3C44.9333 11.4 44.9583 11.5123 44.975 11.637C44.9917 11.7623 45 11.8833 45 12C45 12.1167 44.9917 12.2373 44.975 12.362C44.9583 12.4873 44.9333 12.6 44.9 12.7L51.95 16.8C52.2333 16.55 52.55 16.354 52.9 16.212C53.25 16.0707 53.6167 16 54 16C54.8333 16 55.5417 16.2917 56.125 16.875C56.7083 17.4583 57 18.1667 57 19C57 19.8333 56.7083 20.5417 56.125 21.125C55.5417 21.7083 54.8333 22 54 22ZM54 6C54.2833 6 54.5207 5.90433 54.712 5.713C54.904 5.521 55 5.28333 55 5C55 4.71667 54.904 4.479 54.712 4.287C54.5207 4.09567 54.2833 4 54 4C53.7167 4 53.4793 4.09567 53.288 4.287C53.096 4.479 53 4.71667 53 5C53 5.28333 53.096 5.521 53.288 5.713C53.4793 5.90433 53.7167 6 54 6ZM42 13C42.2833 13 42.521 12.904 42.713 12.712C42.9043 12.5207 43 12.2833 43 12C43 11.7167 42.9043 11.479 42.713 11.287C42.521 11.0957 42.2833 11 42 11C41.7167 11 41.479 11.0957 41.287 11.287C41.0957 11.479 41 11.7167 41 12C41 12.2833 41.0957 12.5207 41.287 12.712C41.479 12.904 41.7167 13 42 13ZM54 20C54.2833 20 54.5207 19.904 54.712 19.712C54.904 19.5207 55 19.2833 55 19C55 18.7167 54.904 18.4793 54.712 18.288C54.5207 18.096 54.2833 18 54 18C53.7167 18 53.4793 18.096 53.288 18.288C53.096 18.4793 53 18.7167 53 19C53 19.2833 53.096 19.5207 53.288 19.712C53.4793 19.904 53.7167 20 54 20Z" fill="black"/>
</svg>
