<svg width="25" height="24" viewBox="0 0 25 24" fill="none" xmlns="http://www.w3.org/2000/svg">
<path d="M24.9439 11.9999C24.9439 18.6287 19.3596 23.9998 12.472 23.9998C5.58438 23.9998 0 18.6287 0 11.9999C0 5.37494 5.58438 0 12.472 0C19.3596 0 24.9439 5.37494 24.9439 11.9999ZM12.8067 3.96771C10.066 3.96771 8.318 5.07852 6.94538 7.05275C6.76755 7.30852 6.82705 7.65347 7.08192 7.83942L8.82694 9.11247C9.0887 9.30345 9.46165 9.25802 9.66503 9.00979C10.5634 7.91345 11.1794 7.27769 12.5468 7.27769C13.5742 7.27769 14.845 7.91388 14.845 8.87242C14.845 9.59706 14.2232 9.9692 13.2088 10.5164C12.0258 11.1545 10.4604 11.9487 10.4604 13.9354V14.1289C10.4604 14.4496 10.7306 14.7095 11.0638 14.7095H13.8801C14.2134 14.7095 14.4836 14.4496 14.4836 14.1289V14.0644C14.4836 12.6872 18.667 12.6299 18.667 8.90315C18.667 6.09662 15.6413 3.96771 12.8067 3.96771ZM12.472 15.9676C11.1964 15.9676 10.1586 16.9661 10.1586 18.1934C10.1586 19.4207 11.1964 20.4192 12.472 20.4192C13.7476 20.4192 14.7853 19.4207 14.7853 18.1934C14.7853 16.9661 13.7476 15.9676 12.472 15.9676Z" fill="#7166F9"/>
</svg>
