<svg width="117" height="39" viewBox="0 0 117 39" fill="none" xmlns="http://www.w3.org/2000/svg">
<path fill-rule="evenodd" clip-rule="evenodd" d="M7.78877 3.89801C6.50118 4.82142 5.33684 5.91319 4.3261 7.14219C8.45647 6.7489 13.7039 7.3911 19.7962 10.5154C26.302 13.8516 31.5407 13.9644 35.1866 13.2431C34.8558 12.2158 34.4393 11.2285 33.9459 10.2899C29.7723 10.7413 24.4219 10.1437 18.1863 6.94611C14.2266 4.91553 10.7363 4.07906 7.78877 3.89801ZM31.5079 6.73073C28.212 2.95382 23.4223 0.576904 18.0912 0.576904C16.5257 0.576904 15.0067 0.781926 13.5586 1.16719C15.5199 1.71606 17.6034 2.51904 19.7962 3.64361C24.3616 5.98477 28.303 6.73859 31.5079 6.73073ZM35.9661 16.849C31.5615 17.741 25.4792 17.5578 18.1863 13.8179C11.3682 10.3214 5.9417 10.3655 2.28181 11.1997C2.09291 11.2427 1.90845 11.2879 1.72843 11.335C1.24927 12.4038 0.866779 13.5277 0.592341 14.6949C0.885456 14.6146 1.18834 14.5382 1.50085 14.467C5.94092 13.455 12.2143 13.4989 19.7962 17.3871C26.6144 20.8836 32.041 20.8395 35.7008 20.0053C35.8262 19.9768 35.9498 19.9473 36.0713 19.9168C36.0846 19.6258 36.0913 19.3329 36.0913 19.0384C36.0913 18.2977 36.0488 17.567 35.9661 16.849ZM35.4836 23.8129C31.1217 24.595 25.2165 24.2948 18.1863 20.6896C11.3682 17.1932 5.9417 17.2372 2.28181 18.0714C1.46943 18.2565 0.738624 18.482 0.0939456 18.7201C0.0921879 18.8259 0.0913086 18.9321 0.0913086 19.0384C0.0913086 29.2345 8.15017 37.5 18.0912 37.5C26.4226 37.5 33.4321 31.6946 35.4836 23.8129Z" fill="#4B0082"/>
</svg>
