<svg width="39" height="39" viewBox="0 0 39 39" fill="none" xmlns="http://www.w3.org/2000/svg">
<path fill-rule="evenodd" clip-rule="evenodd" d="M1.625 19.5C1.625 10.5254 8.90037 3.25 17.875 3.25C26.6285 3.25 33.7655 10.1714 34.1118 18.8401L36.226 16.726C36.8605 16.0913 37.8895 16.0913 38.524 16.726C39.1586 17.3605 39.1586 18.3895 38.524 19.024L33.649 23.899C33.3443 24.2037 32.9309 24.375 32.5 24.375C32.069 24.375 31.6556 24.2037 31.351 23.899L26.476 19.024C25.8414 18.3895 25.8414 17.3605 26.476 16.726C27.1105 16.0913 28.1395 16.0913 28.774 16.726L30.857 18.8089C30.4977 11.9505 24.8228 6.5 17.875 6.5C10.6953 6.5 4.875 12.3203 4.875 19.5C4.875 26.6797 10.6953 32.5 17.875 32.5C21.9581 32.5 25.6009 30.6194 27.9867 27.671C28.5513 26.9734 29.5745 26.8655 30.2721 27.43C30.9699 27.9945 31.0778 29.0178 30.5133 29.7154C27.5368 33.3936 22.9804 35.75 17.875 35.75C8.90037 35.75 1.625 28.4745 1.625 19.5ZM19.5 9.75C19.5 8.85254 18.7725 8.125 17.875 8.125C16.9775 8.125 16.25 8.85254 16.25 9.75V19.5C16.25 19.9309 16.4213 20.3443 16.726 20.649L21.601 25.524C22.2355 26.1586 23.2645 26.1586 23.899 25.524C24.5336 24.8895 24.5336 23.8605 23.899 23.226L19.5 18.8269V9.75Z" fill="#4B0082"/>
</svg>
