<svg width="21" height="22" viewBox="0 0 21 22" fill="none" xmlns="http://www.w3.org/2000/svg">
<path d="M13.6085 18.6176C13.4305 18.6176 13.2565 18.6684 13.1085 18.7635C12.9605 18.8587 12.8451 18.9939 12.777 19.1521C12.7089 19.3104 12.6911 19.4845 12.7258 19.6525C12.7605 19.8204 12.8462 19.9747 12.9721 20.0958C13.098 20.2169 13.2583 20.2994 13.4329 20.3328C13.6075 20.3662 13.7885 20.3491 13.9529 20.2835C14.1174 20.218 14.2579 20.107 14.3568 19.9646C14.4557 19.8222 14.5085 19.6548 14.5085 19.4835C14.5085 19.2539 14.4137 19.0336 14.2449 18.8712C14.0761 18.7088 13.8472 18.6176 13.6085 18.6176ZM19.2045 11.5169C18.7295 10.8136 17.236 8.99369 14.8415 7.97092C14.5382 7.84071 14.2318 7.72413 13.9225 7.62118C14.1259 7.14266 14.225 6.62902 14.2135 6.11213C14.2021 5.59524 14.0803 5.08613 13.8558 4.6164C13.6314 4.14667 13.3089 3.72634 12.9086 3.38149C12.5082 3.03665 12.0385 2.77465 11.5285 2.61175C10.908 2.41451 10.362 2.32311 9.908 2.33417C9.878 2.23796 9.8135 1.80499 10.378 0.650413L9.233 0L8.959 0.363692C8.5245 0.943868 8.113 1.49662 7.742 2.04216C7.60578 2.0112 7.46715 1.99109 7.3275 1.98203C5.251 1.86416 5.3775 1.86994 5.2745 1.86994C2.744 1.86994 2.737 4.3773 2.737 4.07711L2.619 5.84169C2.5385 7.14059 3.6065 8.25716 5.0005 8.33606L5.447 8.36204C4.59797 8.82758 3.81923 9.40285 3.1325 10.0718C0 13.117 0 16.4527 0 19.1357V20.754L1.166 19.3204C1.3223 19.9517 1.56722 20.5596 1.894 21.1273C2.183 21.6147 2.6375 21.582 2.876 21.48C3.0865 21.39 3.376 21.1471 3.0635 20.5125C2.66398 19.7053 2.3981 18.8429 2.2755 17.9566L4.6165 15.0783L3.3835 18.6436C6.295 16.6038 11.2525 15.6724 15.196 16.7871C16.906 17.2706 18.5685 16.8203 19.433 15.6402C19.469 15.5921 19.493 15.5363 19.5255 15.4853C19.6155 15.9361 19.6624 16.3939 19.6655 16.853C19.6655 17.9739 19.481 19.3993 18.9215 20.7805C18.7955 21.0913 19.0095 21.4781 19.3515 21.5377C19.7225 21.6132 20.118 21.3886 20.27 21.0013C20.75 19.7722 21 18.377 21 16.853C21 14.997 20.35 13.1266 19.2045 11.5169ZM6.4185 4.64622L5.6335 4.60148L5.564 5.64974L6.2205 5.68726C6.1914 6.00075 6.19676 6.31632 6.2365 6.62872L5.1175 6.56426C5.03689 6.56104 4.95773 6.54257 4.88454 6.5099C4.81135 6.47723 4.74557 6.431 4.69097 6.37386C4.63636 6.31672 4.59399 6.24978 4.56629 6.17687C4.53858 6.10397 4.52608 6.02652 4.5295 5.94897L4.65 4.18535C4.7 3.59988 5.3435 3.64318 5.313 3.64077L6.7685 3.724C6.62937 4.02307 6.51241 4.33125 6.4185 4.64622ZM13.8395 12.9294C13.7336 13.0083 13.6003 13.0454 13.467 13.0329C13.3336 13.0205 13.2102 12.9595 13.122 12.8625L12.638 12.3097L10.917 13.6086C10.8351 13.6706 10.7316 13.6997 10.6279 13.6901C10.5243 13.6804 10.4285 13.6326 10.3605 13.5567L9.5715 12.66C9.51192 12.5854 9.48551 12.4912 9.49808 12.3979C9.51064 12.3046 9.56114 12.22 9.6385 12.1625L11.367 10.855L10.66 10.0496L9.8055 10.6967C9.72752 10.7552 9.62925 10.7828 9.53082 10.7738C9.43238 10.7649 9.34122 10.7201 9.276 10.6486C9.276 10.6486 9.09 10.4359 9.086 10.4307C9.02658 10.3559 9.00043 10.2616 9.01327 10.1683C9.02611 10.075 9.07691 9.99048 9.1545 9.93323L10 9.29388C10 9.29388 9.0745 8.23551 9.07 8.22878C9.0316 8.18091 9.00338 8.12623 8.98697 8.06786C8.97056 8.00949 8.96627 7.94858 8.97435 7.88862C8.98243 7.82865 9.00272 7.77081 9.03406 7.7184C9.0654 7.66599 9.10718 7.62004 9.157 7.58318C9.26202 7.50334 9.39503 7.46562 9.52826 7.4779C9.6615 7.49018 9.78465 7.55151 9.872 7.64908L13.9265 12.2828C13.9649 12.3307 13.9932 12.3855 14.0096 12.4439C14.026 12.5024 14.0303 12.5634 14.0222 12.6234C14.0142 12.6835 13.9939 12.7414 13.9625 12.7939C13.9311 12.8464 13.8894 12.8924 13.8395 12.9294ZM8.672 18.6176C8.494 18.6176 8.31999 18.6684 8.17199 18.7635C8.02398 18.8587 7.90863 18.9939 7.84051 19.1521C7.77239 19.3104 7.75457 19.4845 7.78929 19.6525C7.82402 19.8204 7.90974 19.9747 8.0356 20.0958C8.16147 20.2169 8.32184 20.2994 8.49642 20.3328C8.671 20.3662 8.85196 20.3491 9.01642 20.2835C9.18087 20.218 9.32143 20.107 9.42032 19.9646C9.51922 19.8222 9.572 19.6548 9.572 19.4835C9.572 19.2539 9.47718 19.0336 9.3084 18.8712C9.13961 18.7088 8.9107 18.6176 8.672 18.6176Z" fill="#6640FF"/>
</svg>
