<svg width="21" height="21" viewBox="0 0 21 21" fill="none" xmlns="http://www.w3.org/2000/svg">
<g clip-path="url(#clip0_0_27)">
<path d="M10.4999 6.56249C11.1561 3.97195 13.6347 2.6492 19.0311 2.625C19.1174 2.62468 19.2028 2.64143 19.2826 2.6743C19.3624 2.70716 19.4349 2.75549 19.4959 2.81649C19.5569 2.87749 19.6052 2.94997 19.6381 3.02973C19.6709 3.1095 19.6877 3.19498 19.6873 3.28125L19.6873 15.0937C19.6873 15.2678 19.6182 15.4347 19.4951 15.5577C19.3721 15.6808 19.2051 15.75 19.0311 15.75C13.7811 15.75 11.7529 16.8086 10.4999 18.3749C9.25424 16.8164 7.21864 15.75 1.96866 15.75C1.56342 15.75 1.31241 15.4198 1.31241 15.0146L1.31241 3.28125C1.31208 3.19498 1.32884 3.1095 1.3617 3.02973C1.39456 2.94997 1.44289 2.87749 1.50389 2.81649C1.5649 2.75549 1.63737 2.70716 1.71714 2.6743C1.7969 2.64143 1.88239 2.62468 1.96866 2.625C7.36506 2.6492 9.84363 3.97195 10.4999 6.56249Z" stroke="white" stroke-width="1.67785" stroke-linecap="round" stroke-linejoin="round"/>
<path d="M10.5 6.56247L10.5 18.3749" stroke="white" stroke-width="1.67785" stroke-linecap="round" stroke-linejoin="round"/>
</g>
<defs>
<clipPath id="clip0_0_27">
<rect width="20.1342" height="20.1342" fill="white" transform="scale(1.043)"/>
</clipPath>
</defs>
</svg>
