<svg width="65" height="29" viewBox="0 0 65 29" fill="none" xmlns="http://www.w3.org/2000/svg">
<g clip-path="url(#clip0_3_622)">
<path d="M31.6506 5.9021C33.2244 5.9021 34.5001 4.64602 34.5001 3.09656C34.5001 1.5471 33.2244 0.291016 31.6506 0.291016C30.0768 0.291016 28.801 1.5471 28.801 3.09656C28.801 4.64602 30.0768 5.9021 31.6506 5.9021Z" fill="#FF7E61"/>
<path d="M7.578 14.944L14.8878 7.74707C15.0137 7.62317 14.9243 7.40842 14.7453 7.40842H8.83915C8.78604 7.40842 8.73574 7.43046 8.69659 7.46628L4.89062 11.2134V1.37059C4.89062 1.23018 4.74521 1.13382 4.61377 1.18613L0.435898 2.85183C0.360394 2.88212 0.310059 2.9537 0.310059 3.0363V22.4218C0.310059 22.6035 0.461066 22.7522 0.645631 22.7522H4.55504C4.73961 22.7522 4.89062 22.6035 4.89062 22.4218V18.6746L8.97897 22.6972C9.01539 22.7329 9.0685 22.7549 9.1216 22.7549L15.0305 22.7522C15.2094 22.7522 15.299 22.5374 15.1731 22.4135L7.578 14.944Z" fill="black"/>
<path d="M29.6951 22.7522H33.6044C33.789 22.7522 33.9401 22.6036 33.9401 22.4218V7.74158C33.9401 7.55989 33.789 7.41119 33.6044 7.41119H29.6951C29.5105 7.41119 29.3595 7.55989 29.3595 7.74158V22.4246C29.3623 22.6063 29.5105 22.7522 29.6951 22.7522Z" fill="black"/>
<path fill-rule="evenodd" clip-rule="evenodd" d="M57.3965 7.42783C61.2388 7.68666 64.3513 10.751 64.6197 14.5312C64.9357 19.0189 61.3339 22.7523 56.8485 22.7551C55.702 22.7551 54.6141 22.5073 53.6353 22.0695V27.0391C53.6353 27.174 53.5542 27.2952 53.4256 27.3447L49.3317 28.9774C49.2002 29.0297 49.0548 28.936 49.0548 28.7929V15.0818H49.0576C49.0576 10.6629 52.8439 7.11946 57.3965 7.42783ZM53.6353 15.0818C53.6353 16.8274 55.0727 18.2453 56.8485 18.2453C58.6214 18.2453 60.0588 16.8274 60.0588 15.0818C60.0588 13.3363 58.6214 11.9183 56.8485 11.9183C55.0727 11.9183 53.6353 13.3363 53.6353 15.0818Z" fill="black"/>
<path d="M41.661 11.106C41.6751 11.106 41.6918 11.106 41.7058 11.1088C42.458 11.0785 43.1348 11.552 43.6857 12.2927C43.7752 12.4138 43.9374 12.4551 44.0772 12.4001L47.226 11.1528C47.3994 11.084 47.4833 10.8885 47.4106 10.7178C46.6191 8.8401 44.2114 7.41119 41.6583 7.41119C38.3249 7.41119 35.618 9.49818 35.618 12.0724C35.618 13.4518 36.4345 14.6494 37.5559 15.4314C38.5626 16.1335 39.7651 16.5877 40.9508 16.8906C40.9704 16.8961 40.9899 16.9009 41.0095 16.9057C41.0291 16.9105 41.0486 16.9154 41.0682 16.9209C42.6678 17.2705 42.8971 17.6863 42.8971 18.0965C42.8971 18.6306 42.2399 19.0629 41.4318 19.0629C40.5956 19.1152 39.8546 18.5507 39.2729 17.6918C39.1862 17.5624 39.0156 17.5156 38.8703 17.5734L35.7578 18.8289C35.5872 18.8977 35.5089 19.0849 35.5733 19.2556C36.4653 21.6344 38.8703 22.7577 41.4318 22.7577C44.7651 22.7577 47.472 20.6735 47.472 18.0965C47.472 17.5348 47.3435 16.9979 47.1058 16.4996C46.8792 16.0233 46.2892 15.0101 44.7624 14.308C44.3817 14.1339 43.7069 13.9021 42.9979 13.6587C42.0817 13.344 41.1086 13.0098 40.6404 12.7552C40.3551 12.601 40.1929 12.345 40.1929 12.0724C40.1929 11.5383 40.8529 11.106 41.661 11.106Z" fill="black"/>
<path d="M27.746 7.68379C27.7991 7.55438 27.7012 7.41119 27.5586 7.41119H24.6084C20.3159 7.41119 16.8344 10.839 16.8344 15.0652V22.4218C16.8344 22.6036 16.9853 22.7522 17.1699 22.7522H21.0793C21.2639 22.7522 21.4121 22.6063 21.4121 22.4246V15.0652C21.4121 13.3252 22.8438 11.9155 24.6112 11.9155H25.8472C25.9283 11.9155 26.0011 11.8687 26.0318 11.7943L27.746 7.68379Z" fill="black"/>
</g>
<defs>
<clipPath id="clip0_3_622">
<rect width="65" height="29" fill="white"/>
</clipPath>
</defs>
</svg>
