<svg width="15" height="15" viewBox="0 0 15 15" fill="none" xmlns="http://www.w3.org/2000/svg">
<path d="M7.49959 0.00476607C6.52425 -0.0306489 5.55182 0.131595 4.64081 0.481738C3.7298 0.831881 2.89903 1.36269 2.19848 2.04222C1.49793 2.72176 0.942069 3.53598 0.564348 4.43591C0.186628 5.33584 -0.00515104 6.30287 0.000548618 7.27884C-0.0120197 8.29209 0.191488 9.29638 0.597514 10.2248C1.00354 11.1532 1.60276 11.9845 2.35525 12.6631C2.41499 12.7164 2.46363 12.7809 2.49838 12.8529C2.53312 12.925 2.55329 13.0032 2.55772 13.0831V14.4179C2.56183 14.5163 2.58981 14.6122 2.63924 14.6974C2.68866 14.7826 2.75806 14.8545 2.84146 14.9069C2.92485 14.9593 3.01973 14.9906 3.11792 14.9982C3.21611 15.0058 3.31468 14.9894 3.40511 14.9504L4.90492 14.2979C5.03299 14.2496 5.1743 14.2496 5.30237 14.2979C6.01136 14.4893 6.74273 14.5851 7.47709 14.5829C9.41027 14.5859 11.2655 13.8208 12.6345 12.4559C14.0036 11.0911 14.7744 9.23826 14.7774 7.30508C14.7804 5.3719 14.0153 3.51671 12.6504 2.14764C11.2856 0.778564 9.43277 0.00774938 7.49959 0.00476607ZM11.999 5.59905L9.8018 9.09361C9.71893 9.22517 9.60968 9.33813 9.48096 9.42535C9.35223 9.51257 9.20683 9.57215 9.05391 9.60034C8.901 9.62852 8.7439 9.6247 8.59254 9.58911C8.44118 9.55352 8.29884 9.48694 8.1745 9.39357L6.41973 8.08123C6.34185 8.02282 6.24712 7.99125 6.14976 7.99125C6.05241 7.99125 5.95768 8.02282 5.8798 8.08123L3.5101 9.881C3.4441 9.9319 3.36221 9.95777 3.27895 9.954C3.19569 9.95024 3.11646 9.9171 3.05532 9.86046C2.99418 9.80381 2.95509 9.72734 2.945 9.64461C2.9349 9.56188 2.95445 9.47825 3.00017 9.40856L5.19739 5.91401C5.28025 5.78244 5.3895 5.66948 5.51822 5.58227C5.64695 5.49505 5.79236 5.43547 5.94527 5.40728C6.09818 5.37909 6.25528 5.38291 6.40664 5.4185C6.55801 5.45409 6.70035 5.52068 6.82468 5.61405L8.57945 6.92638C8.65734 6.98479 8.75206 7.01637 8.84942 7.01637C8.94677 7.01637 9.0415 6.98479 9.11938 6.92638L11.4891 5.12661C11.5551 5.07571 11.637 5.04985 11.7202 5.05361C11.8035 5.05737 11.8827 5.09052 11.9439 5.14716C12.005 5.2038 12.0441 5.28028 12.0542 5.36301C12.0643 5.44574 12.0447 5.52937 11.999 5.59905Z" fill="white"/>
</svg>
