<svg width="30" height="30" viewBox="0 0 30 30" fill="none" xmlns="http://www.w3.org/2000/svg">
<path d="M13.8521 15.1644L14.7802 14.2369L13.0971 12.5531L12.1696 13.4819C11.6296 13.1244 11.0271 12.8575 10.3833 12.69V11.3025H7.3952V12.69C6.73707 12.86 6.12082 13.1344 5.57207 13.5037L4.68145 12.6131L2.99832 14.2956L3.90395 15.2012C3.5577 15.7319 3.2977 16.3219 3.1352 16.9512H1.74707V19.9362H3.13332C3.3002 20.5806 3.56707 21.185 3.9252 21.725L2.99707 22.6525L4.6802 24.3344L5.60832 23.4069C6.14957 23.765 6.75457 24.0331 7.4002 24.2V25.585H10.3758V24.2C11.0071 24.0375 11.5989 23.7762 12.1308 23.4306L13.0958 24.395L14.7789 22.7131L13.8283 21.7619C14.1996 21.21 14.4746 20.5894 14.6446 19.9281H16.0289V16.9612H14.6446C14.4789 16.3144 14.2114 15.7069 13.8521 15.1644ZM8.88895 20.8925C7.53707 20.8925 6.44082 19.7962 6.44082 18.4444C6.44082 17.0925 7.53707 15.9962 8.88895 15.9962C10.2408 15.9962 11.3371 17.0925 11.3371 18.4444C11.3371 19.7962 10.2408 20.8925 8.88895 20.8925Z" fill="#4B0082"/>
<path d="M24.007 13.545C23.6714 13.83 23.4651 14.1738 23.3976 14.5825C23.3451 14.9894 23.4426 15.3369 23.682 15.6219C23.9226 15.9082 24.2457 16.0532 24.6526 16.0532C25.0564 16.0532 25.4301 15.9088 25.7657 15.6219C26.0976 15.3369 26.3001 14.9894 26.3739 14.5825C26.442 14.1738 26.3557 13.8294 26.1026 13.545C25.8526 13.255 25.5226 13.1132 25.1189 13.1132C24.7114 13.1125 24.3389 13.255 24.007 13.545Z" fill="#4B0082"/>
<path d="M28.251 26.4731C28.251 26.3513 28.0873 26.2232 27.771 26.0919C27.7341 26.1444 27.6966 26.19 27.661 26.245C27.4398 26.5263 26.6148 27.5163 25.5454 28.1094C25.5366 28.1125 25.5329 28.1156 25.5285 28.1206C25.4348 28.1681 25.3391 28.2081 25.2429 28.2494C24.961 28.3525 24.6985 28.3769 24.6116 28.385C24.371 28.355 24.2404 28.1856 24.2404 27.8681C24.2404 27.6025 24.3185 27.0844 24.4735 26.3031L24.6554 25.5157L25.3879 21.9938C25.5073 21.3944 25.5698 21.0619 25.5854 20.9975L25.7441 20.1732C25.8391 19.6625 25.8873 19.3263 25.8873 19.1625C25.8873 18.8457 25.8091 18.6088 25.6835 18.415C25.6735 18.3863 25.6591 18.3581 25.636 18.3256C25.6204 18.305 25.5991 18.2838 25.5785 18.2638C25.5566 18.2394 25.5454 18.2188 25.516 18.1944C25.2035 17.94 24.9104 17.8675 24.7104 17.8513L24.7166 17.8438C24.7166 17.8438 23.391 17.7425 21.4304 19.0357C21.4035 19.0525 21.3879 19.0675 21.3585 19.085C20.8285 19.4219 20.4029 19.7575 20.1098 20.0288C19.8854 20.2213 19.7091 20.4013 19.5823 20.5688L19.576 20.5763L19.5785 20.5744C19.411 20.795 19.3223 20.9975 19.3223 21.1713C19.3223 21.3113 19.436 21.4525 19.6579 21.5913C19.6579 21.5913 20.5029 20.5056 21.916 19.7969C22.021 19.7506 22.2941 19.6369 22.5335 19.5763C22.6435 19.5513 22.8548 19.5313 22.9898 19.6425C23.086 19.74 23.1498 19.8807 23.1498 20.1C23.1498 20.2957 23.1216 20.5369 23.0616 20.8238L22.9166 21.5019L22.7398 22.3494L22.0404 25.7006C21.6829 27.4313 21.5035 28.4675 21.5035 28.8044C21.5035 29.5988 21.9391 29.9982 22.8123 29.9982C23.2054 29.9982 23.6116 29.9269 24.0266 29.8C24.0279 29.8 24.0304 29.8006 24.0341 29.8025C24.061 29.7925 24.0891 29.7806 24.1148 29.7719C24.1854 29.75 24.2541 29.7232 24.3235 29.695C26.2891 28.965 27.5804 27.4938 27.9698 27.0013C28.0066 26.9588 28.0348 26.92 28.0623 26.8813C28.0854 26.8519 28.0979 26.8313 28.0979 26.8313C28.1973 26.6875 28.251 26.5656 28.251 26.4731Z" fill="#4B0082"/>
<path d="M18.55 3.6425V7.49H20.3419H23.0344H23.5838V8.125V8.80188V11.3025H26.0244V8.80188V8.125V7.49V5.88875L20.1513 0.015625H18.55H3.60254V11.1038H6.04441V3.545V2.99812V2.41188H17.8513H18.5057H18.55V3.00625V3.6425Z" fill="#4B0082"/>
</svg>
