<svg width="23" height="24" viewBox="0 0 23 24" fill="none" xmlns="http://www.w3.org/2000/svg">
<path fill-rule="evenodd" clip-rule="evenodd" d="M17.9755 11H12.299V5C12.299 4.447 11.8752 4 11.3529 4C10.8307 4 10.4069 4.447 10.4069 5V11H4.73038C4.20814 11 3.7843 11.447 3.7843 12C3.7843 12.553 4.20814 13 4.73038 13H10.4069V19C10.4069 19.553 10.8307 20 11.3529 20C11.8752 20 12.299 19.553 12.299 19V13H17.9755C18.4977 13 18.9216 12.553 18.9216 12C18.9216 11.447 18.4977 11 17.9755 11Z" fill="white"/>
</svg>
