<svg width="25" height="25" viewBox="0 0 25 25" fill="none" xmlns="http://www.w3.org/2000/svg">
<path d="M7.40478 0.341002C7.32353 0.427252 7.32353 0.5275 7.37603 1.94875C7.43353 3.37475 7.42878 3.46575 7.35203 3.55175C7.23728 3.681 7.18928 3.67625 6.79703 3.48C6.44778 3.303 6.31378 3.2935 6.23228 3.45125C6.19878 3.50875 6.27528 3.95375 6.50028 4.96825L6.81603 6.399L6.84478 8.05L6.87828 9.701L7.10803 10.347C7.23253 10.701 7.43353 11.1845 7.55778 11.419C7.99328 12.2608 8.69203 13.0503 9.41453 13.5098C9.85003 13.792 9.82603 13.7395 9.74003 14.1703L9.71603 14.3043L8.98878 14.333C8.50553 14.3473 8.17528 14.3857 7.99828 14.4382C7.54378 14.577 7.08428 14.8498 6.74453 15.18C6.33303 15.582 4.00753 18.6588 3.83028 19.032C3.56703 19.5918 3.53828 19.7977 3.55753 21.1517C3.57178 22.3527 3.57678 22.391 3.70103 22.7405C3.86378 23.1855 4.19378 23.6735 4.54803 23.9895C4.80653 24.224 5.50503 24.6068 5.66778 24.6068C5.73953 24.6068 5.74903 24.5062 5.74903 23.5157C5.74903 22.2572 5.76828 22.176 6.13653 21.9845C6.46678 21.8123 6.80178 21.908 6.99303 22.2285C7.07928 22.3672 7.08878 22.4772 7.08878 23.5635V24.75H11.8023H16.5158V23.5632C16.5158 22.477 16.5253 22.367 16.6115 22.2283C16.798 21.9173 17.114 21.8215 17.444 21.9697C17.8413 22.142 17.8555 22.1995 17.8555 23.5632V24.7453L18.0373 24.7165C18.3483 24.6735 18.9225 24.463 19.2048 24.2907C19.5733 24.0657 20.0948 23.4965 20.2815 23.1185C20.5638 22.5347 20.5925 22.372 20.6165 21.281C20.65 19.788 20.5255 19.2713 19.9323 18.5008L19.6738 18.1562L19.0853 18.1803C18.3818 18.2138 17.9465 18.1515 17.3148 17.9363C15.8698 17.4435 14.726 16.1803 14.3528 14.6728C14.2045 14.065 14.2045 13.1223 14.3528 12.529C14.4675 12.0648 14.7835 11.3517 15.037 10.9882C15.4533 10.3805 16.2045 9.744 16.8745 9.433L17.1855 9.28475V7.1745C17.1808 4.79625 17.1568 4.54275 16.8793 3.97325C16.5013 3.19325 15.8313 2.63825 15.0083 2.42775C14.7785 2.37025 14.367 2.356 12.831 2.356H10.9408L10.472 1.7525C10.027 1.19275 9.98878 1.15425 9.85003 1.16875C9.72553 1.17825 9.68253 1.2165 9.61553 1.36025C9.51978 1.566 9.37628 1.62825 9.22803 1.52775C9.17053 1.4895 8.79253 1.188 8.39053 0.853001C7.98378 0.522751 7.62003 0.25 7.57228 0.25C7.52428 0.25 7.44778 0.293001 7.40478 0.341002Z" fill="black"/>
<path d="M18.1859 10.0548C17.7984 10.2988 17.7839 10.3563 17.7697 11.9353L17.7554 13.3133H17.3392C16.8079 13.3133 16.6214 13.3658 16.4204 13.5765C16.2672 13.7345 16.2529 13.7728 16.2529 14.0455V14.3423L17.2532 15.6485C17.7987 16.3663 18.3154 16.998 18.4017 17.06C18.6074 17.2085 19.0812 17.2085 19.2774 17.0648C19.4307 16.95 21.3349 14.495 21.4019 14.3278C21.5217 14.0215 21.3972 13.6625 21.0957 13.4378C20.9857 13.3565 20.8754 13.3373 20.4354 13.323L19.9139 13.3038V12.0263C19.9139 11.2845 19.8947 10.6768 19.8612 10.5715C19.8037 10.3658 19.5789 10.0883 19.3827 9.98302C19.2964 9.94002 19.1004 9.91602 18.8227 9.91602C18.4394 9.91602 18.3819 9.93027 18.1859 10.0548Z" fill="black"/>
</svg>
