<svg width="15" height="15" viewBox="0 0 15 15" fill="none" xmlns="http://www.w3.org/2000/svg">
<path d="M12.1875 15H2.8125C2.06658 15 1.35121 14.7032 0.823762 14.1749C0.296316 13.6466 0 12.9301 0 12.183L0 9.36602L3.22969 6.13118C3.34382 6.32357 3.4804 6.50166 3.63656 6.66172L4.49531 7.52184L1.875 10.305H4.6875V11.244C4.6875 11.4931 4.78627 11.7319 4.96209 11.908C5.1379 12.0841 5.37636 12.183 5.625 12.183H9.375C9.89344 12.183 10.3125 11.7633 10.3125 11.244V10.305H13.125L10.5047 7.52184L11.3634 6.66172C11.5197 6.50183 11.6565 6.32407 11.7712 6.13212L15 9.36602V12.183C15 12.9301 14.7037 13.6466 14.1762 14.1749C13.6488 14.7032 12.9334 15 12.1875 15ZM8.16281 7.21197C7.98 7.39507 7.74 7.48709 7.5 7.48709C7.26 7.48709 7.02 7.39507 6.83719 7.21197L4.96219 5.33398C4.83136 5.20244 4.74225 5.03511 4.70605 4.85301C4.66986 4.67092 4.68819 4.48217 4.75875 4.31047C4.82987 4.13908 4.95012 3.99265 5.10431 3.8897C5.25849 3.78675 5.43969 3.73188 5.625 3.73205H6.5625V0.915062C6.56881 0.670222 6.67035 0.437535 6.84548 0.266599C7.02061 0.0956635 7.25547 0 7.5 0C7.74453 0 7.97939 0.0956635 8.15452 0.266599C8.32964 0.437535 8.43119 0.670222 8.4375 0.915062V3.73205H9.375C9.75375 3.73205 10.0969 3.96116 10.2412 4.31141C10.312 4.48291 10.3305 4.67158 10.2943 4.85357C10.258 5.03557 10.1688 5.20274 10.0378 5.33398L8.16281 7.21197Z" fill="white"/>
</svg>
