<svg width="22" height="25" viewBox="0 0 22 25" fill="none" xmlns="http://www.w3.org/2000/svg">
<path d="M0 22.2682C0 23.54 1.0558 24.5718 2.35714 24.5718H19.6429C20.9442 24.5718 22 23.54 22 22.2682V9.21443H0V22.2682ZM15.7143 12.8618C15.7143 12.5451 15.9795 12.2859 16.3036 12.2859H18.2679C18.592 12.2859 18.8571 12.5451 18.8571 12.8618V14.7815C18.8571 15.0982 18.592 15.3574 18.2679 15.3574H16.3036C15.9795 15.3574 15.7143 15.0982 15.7143 14.7815V12.8618ZM15.7143 19.0048C15.7143 18.688 15.9795 18.4289 16.3036 18.4289H18.2679C18.592 18.4289 18.8571 18.688 18.8571 19.0048V20.9244C18.8571 21.2412 18.592 21.5003 18.2679 21.5003H16.3036C15.9795 21.5003 15.7143 21.2412 15.7143 20.9244V19.0048ZM9.42857 12.8618C9.42857 12.5451 9.69375 12.2859 10.0179 12.2859H11.9821C12.3063 12.2859 12.5714 12.5451 12.5714 12.8618V14.7815C12.5714 15.0982 12.3063 15.3574 11.9821 15.3574H10.0179C9.69375 15.3574 9.42857 15.0982 9.42857 14.7815V12.8618ZM9.42857 19.0048C9.42857 18.688 9.69375 18.4289 10.0179 18.4289H11.9821C12.3063 18.4289 12.5714 18.688 12.5714 19.0048V20.9244C12.5714 21.2412 12.3063 21.5003 11.9821 21.5003H10.0179C9.69375 21.5003 9.42857 21.2412 9.42857 20.9244V19.0048ZM3.14286 12.8618C3.14286 12.5451 3.40804 12.2859 3.73214 12.2859H5.69643C6.02054 12.2859 6.28571 12.5451 6.28571 12.8618V14.7815C6.28571 15.0982 6.02054 15.3574 5.69643 15.3574H3.73214C3.40804 15.3574 3.14286 15.0982 3.14286 14.7815V12.8618ZM3.14286 19.0048C3.14286 18.688 3.40804 18.4289 3.73214 18.4289H5.69643C6.02054 18.4289 6.28571 18.688 6.28571 19.0048V20.9244C6.28571 21.2412 6.02054 21.5003 5.69643 21.5003H3.73214C3.40804 21.5003 3.14286 21.2412 3.14286 20.9244V19.0048ZM19.6429 3.07148H17.2857V0.767869C17.2857 0.345541 16.9321 0 16.5 0H14.9286C14.4964 0 14.1429 0.345541 14.1429 0.767869V3.07148H7.85714V0.767869C7.85714 0.345541 7.50357 0 7.07143 0H5.5C5.06786 0 4.71429 0.345541 4.71429 0.767869V3.07148H2.35714C1.0558 3.07148 0 4.1033 0 5.37509V7.67869H22V5.37509C22 4.1033 20.9442 3.07148 19.6429 3.07148Z" fill="#7166F9"/>
</svg>
