<svg width="61" height="67" viewBox="0 0 61 67" fill="none" xmlns="http://www.w3.org/2000/svg">
<path d="M54.8016 65.7353C57.9206 65.7353 60.1947 62.812 59.454 59.7907C56.7806 48.905 46.9202 40.8214 35.1675 40.8214C23.4148 40.8214 13.5486 48.905 10.8809 59.7965C10.1403 62.8178 12.4144 65.7353 15.5334 65.7353H54.8016Z" stroke="white" stroke-width="2.5" stroke-miterlimit="10"/>
<path d="M35.1674 35.3784C42.6489 35.3784 48.7139 29.3353 48.7139 21.8807C48.7139 14.4262 42.6489 8.38304 35.1674 8.38304C27.6858 8.38304 21.6209 14.4262 21.6209 21.8807C21.6209 29.3353 27.6858 35.3784 35.1674 35.3784Z" stroke="white" stroke-width="2.5" stroke-miterlimit="10"/>
<path d="M6.48875 57.8941C8.72239 48.7957 14.4743 41.6519 24.572 38.3308C13.1955 38.7114 2.75057 45.9474 0.140796 56.5738C-0.599895 59.595 1.67426 62.5125 4.79326 62.5125H7.32781C6.44824 61.221 6.07789 59.572 6.48875 57.8941Z" fill="#907EFF"/>
<path d="M17.5642 19.1943C17.5642 10.8454 24.3578 4.0764 32.7368 4.0764C35.6996 4.0764 38.4656 4.92397 40.7976 6.38848C38.2226 2.54271 33.8247 0 28.8308 0C20.9031 0 14.4742 6.40577 14.4742 14.3106C14.4742 18.1103 15.9671 21.564 18.3917 24.1298C17.8594 22.5788 17.5642 20.924 17.5642 19.1943Z" fill="#907EFF"/>
</svg>
