<svg width="130" height="38" viewBox="0 0 130 38" fill="none" xmlns="http://www.w3.org/2000/svg">
<g clip-path="url(#clip0_3_614)">
<path fill-rule="evenodd" clip-rule="evenodd" d="M16.6748 1.2951C18.3621 -0.431701 21.1218 -0.431701 22.8082 1.2951L38.2273 17.0727C39.9128 18.7976 39.9128 21.6237 38.2273 23.3505L27.443 34.385C26.6543 35.1922 25.5641 35.6909 24.3613 35.6909H15.1236C14.0277 35.6909 13.0277 35.2776 12.2605 34.5954L1.26411 23.3419C-0.42137 21.616 -0.42137 18.7918 1.26411 17.065L16.6748 1.2951ZM22.3791 30.0982L20.841 31.6722C20.7283 31.7875 20.5725 31.8587 20.4006 31.8587H19.0832C18.9264 31.8587 18.7846 31.8 18.6738 31.702L17.1057 30.0963C16.8663 29.8512 16.8663 29.4486 17.1057 29.2017L19.3039 26.9521C19.5452 26.7052 19.9396 26.7052 20.1791 26.9521L22.3791 29.2026C22.6204 29.4486 22.6204 29.8512 22.3791 30.0982ZM22.3791 20.659L16.2287 26.9531C16.1151 27.0684 15.9602 27.1395 15.7893 27.1395H14.471C14.3151 27.1395 14.1714 27.0809 14.0625 26.9829L12.4935 25.3781C12.2531 25.1311 12.2531 24.7276 12.4935 24.4825L19.3039 17.5128C19.5452 17.2668 19.9396 17.2668 20.18 17.5128L22.3791 19.7633C22.6204 20.0093 22.6204 20.413 22.3791 20.659ZM22.3791 11.2197L11.6173 22.2329C11.5028 22.3483 11.3479 22.4194 11.177 22.4194H9.85956C9.7037 22.4194 9.56006 22.3608 9.45114 22.2627L7.88115 20.657C7.64076 20.412 7.64076 20.0084 7.88115 19.7614L19.3039 8.07257C19.5452 7.82562 19.9377 7.82562 20.1791 8.07257L22.3791 10.324C22.6204 10.57 22.6204 10.9737 22.3791 11.2197Z" fill="#26A943"/>
<path d="M112.812 14.4974V7.87274H108.145V31.8808H112.812V15.1999L118.533 30.8045C118.665 31.1399 118.729 31.5098 118.729 31.8808C118.729 32.957 118.139 33.9304 116.923 34.065C116.003 34.0996 115.084 33.9977 114.197 33.8968V37.8328C115.149 37.9337 116.101 38 117.055 38C120.24 38 121.884 36.8565 122.903 34.065L130 14.4974H125.17L121.457 26.4005H121.392L117.547 14.4974H112.812Z" fill="black"/>
<path d="M58.131 8.00725C57.3433 7.97365 56.4889 7.87274 55.6679 7.87274C51.8559 7.87274 49.9835 10.0588 49.9835 13.1512V14.4974H47.1901V17.6906H49.9835V31.8808H54.6484V17.6906H57.8692V14.4974H54.6484V13.4538C54.6484 12.0086 55.1415 11.4695 56.4219 11.4695C56.9816 11.4695 57.5723 11.5051 58.131 11.5723V8.00725Z" fill="black"/>
<path fill-rule="evenodd" clip-rule="evenodd" d="M107.125 7.87274V31.8808H102.689V29.6601H102.624C101.539 31.5445 99.6662 32.3507 97.4648 32.3507C92.8067 32.3507 90.3194 28.6568 89.9052 24.3489H77.6852C77.8175 27.4086 79.2288 28.7529 81.8589 28.7529C83.7295 28.7529 85.243 27.5748 85.5381 26.5014H89.6461C88.3297 30.6373 85.5381 32.3507 81.6938 32.3507C76.7273 32.3507 73.5133 29.1123 73.0732 24.3489H61.0584C61.1903 27.4086 62.6025 28.7529 65.2307 28.7529C67.1027 28.7529 68.6149 27.5748 68.9095 26.5014H73.0166C71.7038 30.6373 68.9095 32.3507 65.067 32.3507C59.7092 32.3507 56.3907 28.5848 56.3907 23.2045C56.3907 17.9933 59.9067 14.0266 65.067 14.0266C69.747 14.0266 72.4898 17.2861 73.1735 21.3633C73.9002 17.0871 77.1643 14.0266 81.6938 14.0266C86.6055 14.0266 89.3834 17.6157 89.8865 21.9726C90.2441 17.7252 92.7552 14.0266 97.3672 14.0266C99.3701 14.0266 101.342 14.9 102.393 16.6144H102.46V7.87274H107.125ZM64.9356 17.6234C61.9114 17.6234 61.1574 19.9777 61.0584 21.323H68.6477C68.2203 18.9004 67.2026 17.6234 64.9356 17.6234ZM77.6852 21.323C77.7846 19.9777 78.5396 17.6234 81.5624 17.6234C83.829 17.6234 84.8489 18.9004 85.2749 21.323H77.6852ZM102.624 23.1382C102.624 20.314 101.638 17.6234 98.6143 17.6234C95.5609 17.6234 94.5081 20.3476 94.5081 23.1718C94.5081 25.896 95.7233 28.7529 98.6143 28.7529C101.672 28.7529 102.624 25.996 102.624 23.1382Z" fill="black"/>
</g>
<defs>
<clipPath id="clip0_3_614">
<rect width="130" height="38" fill="white"/>
</clipPath>
</defs>
</svg>
