<svg width="60" height="60" viewBox="0 0 60 60" fill="none" xmlns="http://www.w3.org/2000/svg">
<path opacity="0.21" fill-rule="evenodd" clip-rule="evenodd" d="M0 30V37C0 49.7025 10.2975 60 23 60H30H37C49.7025 60 60 49.7025 60 37V30V23C60 10.2975 49.7025 0 37 0H30H23C10.2975 0 0 10.2975 0 23V30Z" fill="#4B0082"/>
<path opacity="0.587821" fill-rule="evenodd" clip-rule="evenodd" d="M20.667 23.3333C20.667 26.2789 23.0548 28.6667 26.0003 28.6667C28.9458 28.6667 31.3337 26.2789 31.3337 23.3333C31.3337 20.3878 28.9458 18 26.0003 18C23.0548 18 20.667 20.3878 20.667 23.3333ZM34.0003 28.6667C34.0003 30.8758 35.7912 32.6667 38.0003 32.6667C40.2095 32.6667 42.0003 30.8758 42.0003 28.6667C42.0003 26.4575 40.2095 24.6667 38.0003 24.6667C35.7912 24.6667 34.0003 26.4575 34.0003 28.6667Z" fill="#4B0082"/>
<path fill-rule="evenodd" clip-rule="evenodd" d="M25.9778 31.3334C19.6826 31.3334 14.5177 34.5687 14.0009 40.9323C13.9727 41.2789 14.6356 42 14.97 42H36.9956C37.9972 42 38.0128 41.194 37.9972 40.9334C37.6065 34.391 32.3616 31.3334 25.9778 31.3334ZM45.2746 42L40.1333 42C40.1333 38.9988 39.1417 36.2292 37.4683 34.0009C42.0103 34.0505 45.7189 36.3469 45.998 41.2C46.0092 41.3955 45.998 42 45.2746 42Z" fill="#4B0082"/>
</svg>
