<svg width="17" height="17" viewBox="0 0 17 17" fill="none" xmlns="http://www.w3.org/2000/svg">
<path d="M7.79167 0H9.20833V8.5H7.79167V0ZM5.66667 0.486979V2.03646C4.39757 2.56771 3.36458 3.42361 2.56771 4.60417C1.80035 5.78472 1.41667 7.08333 1.41667 8.5C1.41667 10.4479 2.11024 12.1155 3.4974 13.5026C4.88455 14.8898 6.55208 15.5833 8.5 15.5833C10.4479 15.5833 12.1155 14.8898 13.5026 13.5026C14.8898 12.1155 15.5833 10.4479 15.5833 8.5C15.5833 7.08333 15.1849 5.78472 14.388 4.60417C13.6207 3.42361 12.6024 2.56771 11.3333 2.03646V0.486979C13.0156 1.07726 14.3733 2.11024 15.4062 3.58594C16.4687 5.03212 17 6.67014 17 8.5C17 10.8316 16.1589 12.8385 14.4766 14.5208C12.8238 16.1736 10.8316 17 8.5 17C6.1684 17 4.16146 16.1736 2.47917 14.5208C0.826389 12.8385 0 10.8316 0 8.5C0 6.67014 0.516493 5.03212 1.54948 3.58594C2.61198 2.11024 3.98437 1.07726 5.66667 0.486979Z" fill="#202224"/>
</svg>
