<svg width="40" height="40" viewBox="0 0 40 40" fill="none" xmlns="http://www.w3.org/2000/svg">
<path d="M15.1996 9.99998C15.8623 9.99998 16.3996 9.46271 16.3996 8.79998C16.3996 8.13724 15.8623 7.59998 15.1996 7.59998V9.99998ZM7.59961 18.4C7.59961 19.0627 8.13687 19.6 8.79961 19.6C9.46235 19.6 9.99961 19.0627 9.99961 18.4H7.59961ZM15.1996 7.59998C14.5369 7.59998 13.9996 8.13724 13.9996 8.79998C13.9996 9.46271 14.5369 9.99998 15.1996 9.99998V7.59998ZM29.9996 18.4C29.9996 19.0627 30.5369 19.6 31.1996 19.6C31.8623 19.6 32.3996 19.0627 32.3996 18.4H29.9996ZM16.3996 8.79998C16.3996 8.13724 15.8623 7.59998 15.1996 7.59998C14.5369 7.59998 13.9996 8.13724 13.9996 8.79998H16.3996ZM13.9996 18.4C13.9996 19.0627 14.5369 19.6 15.1996 19.6C15.8623 19.6 16.3996 19.0627 16.3996 18.4H13.9996ZM15.1996 19.6C15.8623 19.6 16.3996 19.0627 16.3996 18.4C16.3996 17.7373 15.8623 17.2 15.1996 17.2V19.6ZM8.79961 17.2C8.13687 17.2 7.59961 17.7373 7.59961 18.4C7.59961 19.0627 8.13687 19.6 8.79961 19.6V17.2ZM15.1996 17.2C14.5369 17.2 13.9996 17.7373 13.9996 18.4C13.9996 19.0627 14.5369 19.6 15.1996 19.6V17.2ZM31.1996 19.6C31.8623 19.6 32.3996 19.0627 32.3996 18.4C32.3996 17.7373 31.8623 17.2 31.1996 17.2V19.6ZM9.99961 18.4C9.99961 17.7373 9.46235 17.2 8.79961 17.2C8.13687 17.2 7.59961 17.7373 7.59961 18.4H9.99961ZM32.3996 18.4C32.3996 17.7373 31.8623 17.2 31.1996 17.2C30.5369 17.2 29.9996 17.7373 29.9996 18.4H32.3996ZM15.1996 7.59998C11.0022 7.59998 7.59961 11.0026 7.59961 15.2H9.99961C9.99961 12.3281 12.3277 9.99998 15.1996 9.99998V7.59998ZM7.59961 15.2V18.4H9.99961V15.2H7.59961ZM15.1996 9.99998H24.7996V7.59998H15.1996V9.99998ZM24.7996 9.99998C27.6714 9.99998 29.9996 12.3281 29.9996 15.2H32.3996C32.3996 11.0026 28.997 7.59998 24.7996 7.59998V9.99998ZM29.9996 15.2V18.4H32.3996V15.2H29.9996ZM13.9996 8.79998V18.4H16.3996V8.79998H13.9996ZM15.1996 17.2H8.79961V19.6H15.1996V17.2ZM15.1996 19.6H31.1996V17.2H15.1996V19.6ZM7.59961 18.4V24.8H9.99961V18.4H7.59961ZM7.59961 24.8C7.59961 28.9974 11.0022 32.4 15.1996 32.4V30C12.3277 30 9.99961 27.6718 9.99961 24.8H7.59961ZM15.1996 32.4H24.7996V30H15.1996V32.4ZM24.7996 32.4C28.997 32.4 32.3996 28.9974 32.3996 24.8H29.9996C29.9996 27.6718 27.6714 30 24.7996 30V32.4ZM32.3996 24.8V18.4H29.9996V24.8H32.3996Z" fill="white"/>
</svg>
