<svg width="20" height="20" viewBox="0 0 20 20" fill="none" xmlns="http://www.w3.org/2000/svg">
<path d="M0.428573 9.9876C0.428573 9.67092 0.444002 9.35796 0.474126 9.04941L0.0475814 9.00776C0.112174 8.34617 0.241481 7.70349 0.42908 7.08609L0.83914 7.21069C1.02278 6.60634 1.26482 6.02724 1.55874 5.4799L1.18116 5.27715C1.49196 4.69838 1.8582 4.15373 2.27275 3.65027L2.6036 3.9227C3.00186 3.43902 3.44673 2.99503 3.93127 2.5976L3.65948 2.26624C4.16366 1.8527 4.70896 1.48744 5.28828 1.17751L5.49045 1.5554C6.03827 1.26232 6.61778 1.021 7.22241 0.837919L7.09821 0.427739C7.71584 0.240719 8.35862 0.111829 9.02014 0.0474415L9.06166 0.473998C9.3703 0.443957 9.6833 0.428573 9.99998 0.428573C10.3167 0.428573 10.6297 0.443957 10.9383 0.473998L10.9798 0.0474415C11.6413 0.111829 12.2841 0.240719 12.9018 0.427739L12.7776 0.837919C13.3822 1.021 13.9617 1.26232 14.5095 1.5554L14.7117 1.17751C15.291 1.48744 15.8363 1.8527 16.3405 2.26624L16.0687 2.5976C16.5532 2.99503 16.9981 3.43902 17.3964 3.9227L17.7272 3.65027C18.1418 4.15373 18.508 4.69838 18.8188 5.27715L18.4412 5.4799C18.7351 6.02724 18.9772 6.60634 19.1608 7.21069L19.5709 7.08609C19.7585 7.70349 19.8878 8.34617 19.9524 9.00776L19.5258 9.04941C19.556 9.35796 19.5714 9.67092 19.5714 9.9876C19.5714 10.3043 19.556 10.6172 19.5258 10.9258L19.9524 10.9674C19.8878 11.629 19.7585 12.2717 19.5709 12.8891L19.1608 12.7645C18.9772 13.3689 18.7351 13.948 18.4412 14.4953L18.8188 14.6981C18.508 15.2768 18.1418 15.8215 17.7272 16.3249L17.3964 16.0525C16.9981 16.5362 16.5532 16.9802 16.0687 17.3776L16.3405 17.709C15.8363 18.1225 15.291 18.4878 14.7117 18.7977L14.5095 18.4198C13.9617 18.7129 13.3822 18.9542 12.7776 19.1373L12.9018 19.5475C12.2841 19.7345 11.6413 19.8634 10.9798 19.9278L10.9383 19.5012C10.6297 19.5312 10.3167 19.5466 9.99998 19.5466C9.6833 19.5466 9.3703 19.5312 9.06166 19.5012L9.02014 19.9278C8.35862 19.8634 7.71584 19.7345 7.09821 19.5475L7.22241 19.1373C6.61778 18.9542 6.03827 18.7129 5.49045 18.4198L5.28828 18.7977C4.70896 18.4878 4.16366 18.1225 3.65948 17.709L3.93127 17.3776C3.44673 16.9802 3.00186 16.5362 2.6036 16.0525L2.27275 16.3249C1.8582 15.8215 1.49196 15.2768 1.18116 14.6981L1.55874 14.4953C1.26482 13.948 1.02278 13.3689 0.83914 12.7645L0.42908 12.8891C0.241481 12.2717 0.112174 11.629 0.0475814 10.9674L0.474126 10.9258C0.444002 10.6172 0.428573 10.3043 0.428573 9.9876Z" fill="white" stroke="#D0D0D0" stroke-width="0.850538" stroke-dasharray="2.13 2.13"/>
</svg>
