<svg width="130" height="32" viewBox="0 0 130 32" fill="none" xmlns="http://www.w3.org/2000/svg">
<g clip-path="url(#clip0_3_616)">
<path fill-rule="evenodd" clip-rule="evenodd" d="M39.5336 23.2213C39.0554 23.0384 38.7427 22.6529 38.7427 22.1387C38.7427 21.5153 39.2574 21.002 39.883 21.002C40.067 21.002 40.2137 21.0383 40.3425 21.0934C41.1521 21.4603 42.016 21.6803 43.0647 21.6803C44.9771 21.6803 45.8784 20.7634 45.8784 19.0018V18.5248C45.0502 19.5159 44.1497 20.1207 42.6602 20.1207C40.3611 20.1207 38.2825 18.4513 38.2825 15.5343V15.4979C38.2825 12.5623 40.3976 10.9114 42.6602 10.9114C44.1863 10.9114 45.0873 11.5534 45.8412 12.3789V12.3602C45.8412 11.6083 46.4667 10.9849 47.239 10.9849C48.0115 10.9849 48.6363 11.6083 48.6363 12.3789V18.7083C48.6363 20.4698 48.214 21.7539 47.3858 22.5793C46.4667 23.4968 45.0502 23.9003 43.1383 23.9003C41.832 23.9003 40.6918 23.6804 39.5336 23.2213ZM45.8784 15.5343V15.4979C45.8784 14.1583 44.8297 13.2228 43.469 13.2228C42.1083 13.2228 41.0783 14.1583 41.0783 15.4979V15.5343C41.0783 16.8918 42.1083 17.8094 43.469 17.8094C44.8297 17.8094 45.8784 16.8738 45.8784 15.5343Z" fill="black"/>
<path fill-rule="evenodd" clip-rule="evenodd" d="M39.5336 23.2212C39.0554 23.0384 38.7427 22.6528 38.7427 22.1386C38.7427 21.5153 39.2574 21.0019 39.883 21.0019C40.067 21.0019 40.2137 21.0383 40.3425 21.0933C41.1521 21.4602 42.016 21.6802 43.0647 21.6802C44.9772 21.6802 45.8784 20.7633 45.8784 19.0018V18.5248C45.0502 19.5159 44.1497 20.1206 42.6602 20.1206C40.3611 20.1206 38.2825 18.4512 38.2825 15.5343V15.4978C38.2825 12.5622 40.3976 10.9113 42.6602 10.9113C44.1863 10.9113 45.0873 11.5533 45.8412 12.3787V12.3602C45.8412 11.6082 46.4667 10.9848 47.239 10.9848C48.0115 10.9848 48.6363 11.6082 48.6363 12.3787V18.7082C48.6363 20.4698 48.214 21.7538 47.3858 22.5792C46.4667 23.4967 45.0502 23.9003 43.1383 23.9003C41.832 23.9003 40.6918 23.6804 39.5336 23.2212ZM45.8784 15.5343V15.4978C45.8784 14.1582 44.8297 13.2227 43.469 13.2227C42.1083 13.2227 41.0783 14.1582 41.0783 15.4978V15.5343C41.0783 16.8917 42.1083 17.8093 43.469 17.8093C44.8297 17.8093 45.8784 16.8738 45.8784 15.5343ZM50.2189 12.3787C50.2189 11.6082 50.8438 10.9848 51.6167 10.9848C52.3891 10.9848 53.0139 11.6082 53.0139 12.3787V12.8186C53.4192 11.8653 54.0806 10.9848 54.9086 10.9848C55.7733 10.9848 56.2694 11.5533 56.2694 12.3416C56.2694 13.0757 55.7912 13.5162 55.2215 13.6448C53.805 13.9753 53.0139 15.0573 53.0139 17.0387V19.6437C53.0139 20.4142 52.3891 21.0383 51.6167 21.0383C50.8438 21.0383 50.2189 20.4142 50.2189 19.6437V12.3787ZM55.9387 18.1027V18.0663C55.9387 15.9199 57.575 14.9287 59.9113 14.9287C60.9041 14.9287 61.6213 15.0937 62.3205 15.3321V15.1671C62.3205 14.0118 61.6028 13.3691 60.2054 13.3691C59.433 13.3691 58.8076 13.4798 58.2743 13.6448C58.109 13.6997 57.9987 13.7184 57.8698 13.7184C57.2263 13.7184 56.711 13.2227 56.711 12.5801C56.711 12.0852 57.0231 11.6633 57.4654 11.4977C58.348 11.1677 59.3042 10.9848 60.6099 10.9848C62.136 10.9848 63.2396 11.3882 63.9383 12.0852C64.6741 12.8186 65.0055 13.9018 65.0055 15.2229V19.6987C65.0055 20.4513 64.3985 21.0383 63.6442 21.0383C62.8352 21.0383 62.302 20.4698 62.302 19.8822V19.8637C61.6213 20.6163 60.6836 21.1111 59.3222 21.1111C57.4654 21.1111 55.9387 20.0479 55.9387 18.1027ZM62.3571 17.4608V16.9652C61.879 16.7453 61.254 16.5982 60.5727 16.5982C59.3773 16.5982 58.6422 17.0752 58.6422 17.9563V17.9927C58.6422 18.7454 59.2678 19.1853 60.1682 19.1853C61.4746 19.1853 62.3571 18.4697 62.3571 17.4608ZM66.4957 12.3787C66.4957 11.6082 67.1206 10.9848 67.8937 10.9848C68.666 10.9848 69.2915 11.6082 69.2915 12.3787V12.4895C69.9344 11.6633 70.7811 10.9113 72.1969 10.9113C73.4839 10.9113 74.4588 11.4797 74.9735 12.4708C75.8381 11.4618 76.8682 10.9113 78.2103 10.9113C80.2889 10.9113 81.5394 12.1588 81.5394 14.5259V19.6437C81.5394 20.4142 80.9137 21.0383 80.1414 21.0383C79.3692 21.0383 78.7435 20.4142 78.7435 19.6437V15.4429C78.7435 14.1218 78.1551 13.4427 77.1072 13.4427C76.0586 13.4427 75.4151 14.1218 75.4151 15.4429V19.6437C75.4151 20.4142 74.7902 21.0383 74.0172 21.0383C73.2448 21.0383 72.6193 20.4142 72.6193 19.6437V15.4429C72.6193 14.1218 72.0315 13.4427 70.983 13.4427C69.9344 13.4427 69.2915 14.1218 69.2915 15.4429V19.6437C69.2915 20.4142 68.666 21.0383 67.8937 21.0383C67.1206 21.0383 66.4957 20.4142 66.4957 19.6437V12.3787ZM83.0481 12.3787C83.0481 11.6082 83.673 10.9848 84.4461 10.9848C85.2183 10.9848 85.844 11.6082 85.844 12.3787V12.4895C86.4868 11.6633 87.3335 10.9113 88.7493 10.9113C90.0364 10.9113 91.0112 11.4797 91.5259 12.4708C92.3906 11.4618 93.4206 10.9113 94.7628 10.9113C96.8413 10.9113 98.0918 12.1588 98.0918 14.5259V19.6437C98.0918 20.4142 97.4669 21.0383 96.6938 21.0383C95.9216 21.0383 95.296 20.4142 95.296 19.6437V15.4429C95.296 14.1218 94.7076 13.4427 93.6596 13.4427C92.6111 13.4427 91.9676 14.1218 91.9676 15.4429V19.6437C91.9676 20.4142 91.3427 21.0383 90.5696 21.0383C89.7973 21.0383 89.1725 20.4142 89.1725 19.6437V15.4429C89.1725 14.1218 88.5839 13.4427 87.5354 13.4427C86.4868 13.4427 85.844 14.1218 85.844 15.4429V19.6437C85.844 20.4142 85.2183 21.0383 84.4461 21.0383C83.673 21.0383 83.0481 20.4142 83.0481 19.6437V12.3787ZM99.0123 18.1027V18.0663C99.0123 15.9199 100.649 14.9287 102.984 14.9287C103.978 14.9287 104.695 15.0937 105.393 15.3321V15.1671C105.393 14.0118 104.677 13.3691 103.278 13.3691C102.506 13.3691 101.881 13.4798 101.348 13.6448C101.182 13.6997 101.072 13.7184 100.943 13.7184C100.299 13.7184 99.7846 13.2227 99.7846 12.5801C99.7846 12.0852 100.097 11.6633 100.538 11.4977C101.422 11.1677 102.378 10.9848 103.683 10.9848C105.21 10.9848 106.313 11.3882 107.012 12.0852C107.748 12.8186 108.078 13.9018 108.078 15.2229V19.6987C108.078 20.4513 107.472 21.0383 106.718 21.0383C105.909 21.0383 105.376 20.4698 105.376 19.8822V19.8637C104.695 20.6163 103.756 21.1111 102.396 21.1111C100.538 21.1111 99.0123 20.0479 99.0123 18.1027ZM105.431 17.4608V16.9652C104.953 16.7453 104.327 16.5982 103.647 16.5982C102.451 16.5982 101.716 17.0752 101.716 17.9563V17.9927C101.716 18.7454 102.341 19.1853 103.242 19.1853C104.547 19.1853 105.431 18.4697 105.431 17.4608ZM109.569 12.3787C109.569 11.6082 110.194 10.9848 110.967 10.9848C111.739 10.9848 112.364 11.6082 112.364 12.3787V12.8186C112.769 11.8653 113.431 10.9848 114.259 10.9848C115.124 10.9848 115.619 11.5533 115.619 12.3416C115.619 13.0757 115.142 13.5162 114.571 13.6448C113.155 13.9753 112.364 15.0573 112.364 17.0387V19.6437C112.364 20.4142 111.739 21.0383 110.967 21.0383C110.194 21.0383 109.569 20.4142 109.569 19.6437V12.3787ZM116.466 8.81917C116.466 8.04863 117.091 7.42523 117.863 7.42523C118.637 7.42523 119.261 8.04863 119.261 8.81917V19.6437C119.261 20.4142 118.637 21.0383 117.863 21.0383C117.091 21.0383 116.466 20.4142 116.466 19.6437V8.81917ZM121.487 23.6617C121.081 23.5154 120.604 23.1847 120.604 22.5064C120.604 21.8273 121.138 21.3682 121.708 21.3682C121.927 21.3682 122.057 21.4053 122.167 21.4417C122.406 21.5153 122.554 21.5523 122.756 21.5523C123.252 21.5523 123.492 21.4602 123.749 20.9648L123.841 20.7448L120.476 12.9657C120.402 12.7822 120.329 12.5073 120.329 12.3238C120.329 11.5348 120.935 10.9848 121.708 10.9848C122.406 10.9848 122.811 11.3698 123.049 12.0296L125.184 17.7542L127.243 12.0481C127.464 11.4618 127.868 10.9848 128.586 10.9848C129.302 10.9848 129.909 11.5348 129.909 12.2687C129.909 12.4895 129.836 12.8008 129.781 12.9294L126.342 21.1668C125.514 23.1663 124.687 23.9188 123.013 23.9188C122.388 23.9188 121.946 23.8274 121.487 23.6617Z" fill="black"/>
<path d="M15.2218 0.762512C6.81534 0.762512 0 7.5843 0 16H30.4438C30.4438 7.5843 23.6289 0.762512 15.2218 0.762512Z" fill="#4CA385"/>
<path d="M15.2218 31.2374C23.6289 31.2374 30.4438 24.4151 30.4438 16H0C0 24.4151 6.81534 31.2374 15.2218 31.2374Z" fill="#4CA385"/>
<g filter="url(#filter0_d_3_616)">
<path fill-rule="evenodd" clip-rule="evenodd" d="M18.2252 18.0654C18.0735 18.0654 17.9237 18.099 17.7863 18.1638C17.5794 18.2613 17.4107 18.4248 17.3066 18.6287C17.2026 18.8326 17.1691 19.0653 17.2114 19.2904C17.3012 19.7891 17.7698 20.1308 18.2764 20.1308H19.8711L20.7957 20.001C19.3164 22.1736 16.7481 23.1729 13.9399 22.7319C11.6542 22.3724 9.69206 20.8248 8.85951 18.6624C6.98065 13.7536 10.562 9.06701 15.2284 9.06701C17.661 9.06701 19.7932 10.4925 21.0163 12.2133V12.2507C21.1704 12.4776 21.408 12.6342 21.677 12.6862C21.9462 12.7382 22.2248 12.6813 22.4522 12.5281C22.6639 12.3816 22.8122 12.1602 22.8674 11.9087C22.9226 11.6571 22.8804 11.394 22.7495 11.1722H22.7573C21.8932 9.81749 20.6802 8.72102 19.2459 7.99826C17.8118 7.27551 16.2094 6.9532 14.6076 7.06528C10.16 7.36523 6.55849 11.011 6.30277 15.4679C6.00549 20.6552 10.116 24.8907 15.2284 24.8907C16.5043 24.8957 17.7662 24.6243 18.9274 24.0954C20.0888 23.5664 21.1221 22.7922 21.9564 21.8259L21.7625 22.9134V23.8955C21.7625 24.4014 22.1032 24.8711 22.6022 24.9609C22.7512 24.9892 22.9048 24.984 23.0517 24.9461C23.1988 24.9081 23.3355 24.8381 23.4524 24.7411C23.5693 24.6442 23.6633 24.5226 23.7278 24.3851C23.7923 24.2475 23.8258 24.0974 23.8258 23.9455V18.0654H18.2252Z" fill="white"/>
</g>
</g>
<defs>
<filter id="filter0_d_3_616" x="5.76627" y="7.04352" width="18.5807" height="19.369" filterUnits="userSpaceOnUse" color-interpolation-filters="sRGB">
<feFlood flood-opacity="0" result="BackgroundImageFix"/>
<feColorMatrix in="SourceAlpha" type="matrix" values="0 0 0 0 0 0 0 0 0 0 0 0 0 0 0 0 0 0 127 0" result="hardAlpha"/>
<feOffset dy="0.912323"/>
<feGaussianBlur stdDeviation="0.260663"/>
<feColorMatrix type="matrix" values="0 0 0 0 0 0 0 0 0 0 0 0 0 0 0 0 0 0 0.15 0"/>
<feBlend mode="normal" in2="BackgroundImageFix" result="effect1_dropShadow_3_616"/>
<feBlend mode="normal" in="SourceGraphic" in2="effect1_dropShadow_3_616" result="shape"/>
</filter>
<clipPath id="clip0_3_616">
<rect width="130" height="32" fill="white"/>
</clipPath>
</defs>
</svg>
