<svg width="130" height="32" viewBox="0 0 130 32" fill="none" xmlns="http://www.w3.org/2000/svg">
<g clip-path="url(#clip0_3_633)">
<path d="M27.2857 0H5.67117C2.67479 0 0.246338 2.39108 0.246338 5.34137V26.6233C0.246338 29.5735 2.67479 31.9647 5.67117 31.9647H27.2857C30.282 31.9647 32.7104 29.5735 32.7104 26.6233V5.34137C32.7104 2.39108 30.282 0 27.2857 0ZM26.8091 24.4668C26.8091 25.3988 26.042 26.154 25.0955 26.154H7.86133C6.91476 26.154 6.14772 25.3988 6.14772 24.4668V7.49785C6.14772 6.56583 6.91476 5.81059 7.86133 5.81059H25.0955C26.042 5.81059 26.8091 6.56583 26.8091 7.49785V24.4668ZM13.0348 20.321C12.4897 20.321 12.0524 19.8871 12.0524 19.3504V12.5757C12.0524 12.039 12.4897 11.6019 13.0348 11.6019H19.9252C20.467 11.6019 20.9077 12.0358 20.9077 12.5757V19.3472C20.9077 19.8839 20.467 20.3178 19.9252 20.3178H13.0348V20.321ZM41.3177 19.8582H44.8624C45.0387 21.8346 46.3998 23.3773 49.1449 23.3773C51.5961 23.3773 53.1041 22.185 53.1041 20.3821C53.1041 18.6948 51.9226 17.9395 49.7944 17.4447L47.0461 16.863C44.0628 16.2234 41.817 14.3336 41.817 11.2484C41.817 7.84493 44.8886 5.51812 48.8772 5.51812C53.1009 5.51812 55.8198 7.70031 56.0548 10.927H52.6276C52.2195 9.41649 50.9466 8.51663 48.8805 8.51663C46.6935 8.51663 45.1889 9.68003 45.1889 11.1648C45.1889 12.6496 46.4879 13.5495 48.7336 14.0444L51.4525 14.626C54.4359 15.2656 56.4726 17.0397 56.4726 20.1507C56.4726 24.1069 53.4599 26.4625 49.1481 26.4625C44.3011 26.4593 41.6148 23.8723 41.3177 19.8582ZM69.1534 31.9647V26.1766L69.3851 23.6377H69.1534C68.3407 25.4631 66.6336 26.4625 64.316 26.4625C60.5788 26.4625 57.7979 23.4673 57.7979 18.8748C57.7979 14.2822 60.5788 11.2869 64.316 11.2869C66.6042 11.2869 68.2264 12.3411 69.1534 13.9962H69.3851V11.5697H72.4566V31.9647H69.1534ZM69.2677 18.8716C69.2677 15.9341 67.443 14.2211 65.2104 14.2211C62.9778 14.2211 61.1532 15.9341 61.1532 18.8716C61.1532 21.809 62.9778 23.5219 65.2104 23.5219C67.443 23.5219 69.2677 21.8122 69.2677 18.8716ZM74.9079 20.3853V11.5697H78.2111V20.0992C78.2111 22.4099 79.3405 23.5219 81.2239 23.5219C83.5413 23.5219 85.0493 21.8957 85.0493 19.3568V11.5697H88.3524V26.1734H85.281V23.1491H85.0493C84.3247 25.0903 82.7317 26.4593 80.2707 26.4593C76.7325 26.4593 74.9079 24.2353 74.9079 20.3853ZM90.3632 22.095C90.3632 19.3568 92.3052 17.7596 95.752 17.5603L99.8353 17.3033V16.1623C99.8353 14.7932 98.8203 13.9673 97.0249 13.9673C95.3733 13.9673 94.3877 14.7932 94.1265 15.9631H90.8233C91.1726 12.9967 93.6631 11.2837 97.0217 11.2837C100.818 11.2837 103.135 12.881 103.135 15.9631V26.1734H100.064V23.4641H99.832C99.1368 25.2607 97.6876 26.4593 94.9067 26.4593C92.2464 26.4593 90.3632 24.6918 90.3632 22.095ZM99.8385 20.2985V19.5271L96.506 19.7553C94.7108 19.8678 93.898 20.5267 93.898 21.838C93.898 22.9498 94.825 23.7501 96.1273 23.7501C98.4775 23.7501 99.8385 22.2685 99.8385 20.2985ZM105.6 26.1766V11.5697H108.671V14.3658H108.903C109.337 12.4536 110.816 11.5697 113.016 11.5697H114.524V14.5072H112.64C110.496 14.5072 108.903 15.8762 108.903 18.473V26.1734H105.6V26.1766ZM129.636 19.4726H118.365C118.538 22.1529 120.451 23.6666 122.566 23.6666C124.361 23.6666 125.491 22.9532 126.13 21.7543H129.404C128.507 24.7207 125.869 26.4593 122.537 26.4593C118.163 26.4593 115.091 23.2359 115.091 18.8716C115.091 14.5072 118.248 11.2837 122.566 11.2837C126.91 11.2837 129.75 14.2211 129.75 17.872C129.753 18.5888 129.695 18.9583 129.636 19.4726ZM126.48 17.2196C126.365 15.1949 124.655 13.8258 122.569 13.8258C120.598 13.8258 118.95 15.0535 118.542 17.2196H126.48Z" fill="black"/>
</g>
<defs>
<clipPath id="clip0_3_633">
<rect width="130" height="32" fill="white"/>
</clipPath>
</defs>
</svg>
