<svg width="130" height="31" viewBox="0 0 130 31" fill="none" xmlns="http://www.w3.org/2000/svg">
<g clip-path="url(#clip0_3_629)">
<path d="M96.8397 9.00988C96.0333 9.01136 95.2355 9.17364 94.4935 9.48707C93.7514 9.80051 93.0803 10.2587 92.5198 10.8346V4.68382C92.5187 4.58937 92.4802 4.49916 92.4126 4.43276C92.345 4.36635 92.2537 4.32911 92.1587 4.32911H89.9579C89.8629 4.32911 89.7716 4.36635 89.704 4.43276C89.6364 4.49916 89.5979 4.58937 89.5968 4.68382V21.3124C89.5979 21.4069 89.6364 21.4972 89.704 21.5635C89.7716 21.6299 89.8629 21.6671 89.9579 21.6671H92.1587C92.2537 21.6671 92.345 21.6299 92.4126 21.5635C92.4802 21.4972 92.5187 21.4069 92.5198 21.3124V20.1664C93.0793 20.7435 93.7503 21.2024 94.4926 21.5158C95.2349 21.8291 96.0332 21.9904 96.8397 21.9901C100.272 21.9901 103.048 19.0838 103.048 15.4999C103.048 11.9161 100.272 9.00988 96.8397 9.00988ZM96.331 19.3903C94.2448 19.3903 92.5528 17.6794 92.5372 15.5481V15.4507C92.5703 13.3195 94.2458 11.6086 96.331 11.6086C98.4338 11.6086 100.125 13.3523 100.125 15.4989C100.125 17.6455 98.4162 19.3893 96.331 19.3893V19.3903ZM111.146 9.00988C107.434 9.00988 104.428 11.9161 104.428 15.4999C104.428 19.0838 107.434 21.9901 111.146 21.9901C114.858 21.9901 117.864 19.0838 117.864 15.4999C117.864 11.9161 114.858 9.00988 111.146 9.00988ZM111.129 19.3903C109.027 19.3903 107.336 17.6466 107.336 15.4999C107.336 13.3533 109.043 11.6096 111.129 11.6096C113.216 11.6096 114.923 13.3533 114.923 15.4999C114.923 17.6466 113.216 19.3903 111.129 19.3903ZM70.0679 9.3328H67.8673C67.7721 9.33278 67.681 9.37002 67.6134 9.43643C67.5458 9.50283 67.5072 9.59304 67.5061 9.68749V10.8336C66.9466 10.2563 66.2757 9.79715 65.5334 9.48361C64.7911 9.17006 63.9928 9.00859 63.1862 9.00885C59.7536 9.00885 56.9782 11.9151 56.9782 15.4989C56.9782 19.0828 59.7536 21.989 63.1862 21.989C63.9925 21.9876 64.7903 21.8254 65.5323 21.5119C66.2744 21.1984 66.9456 20.7402 67.5061 20.1643V21.3104C67.5072 21.4049 67.5458 21.4951 67.6134 21.5615C67.681 21.6279 67.7721 21.6652 67.8673 21.6651H70.0679C70.1629 21.6652 70.2542 21.6279 70.3218 21.5615C70.3894 21.4951 70.428 21.4049 70.4291 21.3104V9.68851C70.428 9.59406 70.3894 9.50385 70.3218 9.43745C70.2542 9.37104 70.1629 9.3338 70.0679 9.33382V9.3328ZM63.6948 19.3903C61.5922 19.3903 59.9011 17.6466 59.9011 15.4999C59.9011 13.3533 61.6097 11.6096 63.6948 11.6096C65.78 11.6096 67.4721 13.3205 67.4886 15.4518V15.5492C67.4721 17.6804 65.78 19.3914 63.6948 19.3914V19.3903ZM81.056 9.00988C80.2498 9.01136 79.452 9.17364 78.7099 9.48707C77.9679 9.80051 77.2967 10.2587 76.7361 10.8346V9.68851C76.735 9.59406 76.6965 9.50385 76.6289 9.43745C76.5613 9.37104 76.47 9.3338 76.375 9.33382H74.1742C74.0792 9.3338 73.9879 9.37104 73.9203 9.43745C73.8527 9.50385 73.8143 9.59406 73.8132 9.68851V26.3161C73.8143 26.4107 73.8527 26.5008 73.9203 26.5672C73.9879 26.6336 74.0792 26.6708 74.1742 26.6708H76.375C76.47 26.6708 76.5613 26.6336 76.6289 26.5672C76.6965 26.5008 76.735 26.4107 76.7361 26.3161V20.1653C77.2955 20.7427 77.9666 21.2018 78.7089 21.5154C79.4512 21.8289 80.2495 21.9903 81.056 21.9901C84.4887 21.9901 87.2641 19.0838 87.2641 15.4999C87.2641 11.9161 84.4887 9.00988 81.056 9.00988ZM80.5473 19.3903C78.4612 19.3903 76.7692 17.6794 76.7537 15.5481V15.4507C76.7867 13.3195 78.4623 11.6086 80.5473 11.6086C82.6501 11.6086 84.3411 13.3523 84.3411 15.4989C84.3411 17.6455 82.6491 19.3893 80.5473 19.3893V19.3903ZM50.3915 9.00988C49.5872 9.01614 48.8007 9.24634 48.1213 9.67435C47.4419 10.1024 46.897 10.711 46.5483 11.4312C45.7435 9.92942 44.134 8.99347 42.4089 9.00988C41.747 9.01093 41.0947 9.16627 40.5042 9.46344C39.9138 9.76058 39.4017 10.1913 39.0092 10.7208V9.68851C39.0082 9.59406 38.9697 9.50385 38.9021 9.43745C38.8345 9.37104 38.7432 9.3338 38.6482 9.33382H36.4474C36.3524 9.3338 36.2612 9.37104 36.1936 9.43745C36.126 9.50385 36.0875 9.59406 36.0863 9.68851V21.3124C36.0875 21.4069 36.126 21.4972 36.1936 21.5635C36.2612 21.6299 36.3524 21.6671 36.4474 21.6671H38.6482C38.7432 21.6671 38.8345 21.6299 38.9021 21.5635C38.9697 21.4972 39.0082 21.4069 39.0092 21.3124V14.3549C39.0918 12.8049 40.1917 11.5625 41.5392 11.5625C42.9351 11.5625 44.1009 12.7086 44.1009 14.2103V21.3135C44.102 21.4079 44.1406 21.4982 44.2082 21.5646C44.2758 21.631 44.367 21.6682 44.4621 21.6682H46.6792C46.7744 21.6682 46.8655 21.631 46.9331 21.5646C47.0009 21.4982 47.0393 21.4079 47.0404 21.3135L47.0239 14.0812C47.2209 12.6604 48.2557 11.5625 49.5208 11.5625C50.9167 11.5625 52.0825 12.7086 52.0825 14.2103V21.3135C52.0836 21.4079 52.1222 21.4982 52.1898 21.5646C52.2574 21.631 52.3487 21.6682 52.4437 21.6682H54.6608C54.756 21.6682 54.8471 21.631 54.9147 21.5646C54.9823 21.4982 55.0209 21.4079 55.022 21.3135L55.0055 13.3226C55.0055 10.933 52.9357 9.01192 50.3905 9.01192L50.3915 9.00988ZM129.705 21.1658L125.895 15.4671L129.672 9.81665C129.771 9.67108 129.721 9.46196 129.574 9.36457C129.524 9.33176 129.459 9.31639 129.393 9.31639H126.847C126.65 9.31639 126.469 9.41275 126.371 9.57473L124.154 13.2395L121.936 9.59113C121.838 9.43017 121.657 9.3328 121.46 9.3328H118.914C118.733 9.3328 118.586 9.47835 118.586 9.6557C118.586 9.72028 118.602 9.78488 118.635 9.83306L122.413 15.4835L118.602 21.1822C118.503 21.3278 118.553 21.5369 118.7 21.6343C118.755 21.6669 118.817 21.6835 118.881 21.6825H121.427C121.624 21.6825 121.805 21.5851 121.904 21.4242L124.17 17.7112L126.436 21.4242C126.535 21.5862 126.716 21.6825 126.913 21.6825H129.426C129.607 21.6825 129.754 21.5369 129.754 21.3596C129.754 21.295 129.738 21.2304 129.705 21.1658ZM14.6012 1.14813C6.53714 1.14813 0 7.57366 0 15.4999C0 23.4263 6.53714 29.8518 14.6012 29.8518C22.6654 29.8518 29.2025 23.4263 29.2025 15.4999C29.2025 7.57366 22.6664 1.14813 14.6012 1.14813ZM21.5325 19.0192C16.5389 23.9265 7.62048 22.3612 7.62048 22.3612C7.62048 22.3612 6.01095 13.6117 11.0201 8.68695C13.7955 5.95908 18.395 6.07184 21.3024 8.91249C24.2099 11.7531 24.3079 16.2903 21.5325 19.0182V19.0192ZM16.2768 9.55934L14.8478 12.4492L11.9084 13.8536L14.8478 15.258L16.2768 18.1479L17.7057 15.258L20.6462 13.8536L17.7057 12.4492L16.2768 9.55934Z" fill="black"/>
</g>
<defs>
<clipPath id="clip0_3_629">
<rect width="130" height="31" fill="white"/>
</clipPath>
</defs>
</svg>
