<svg width="47" height="66" viewBox="0 0 47 66" fill="none" xmlns="http://www.w3.org/2000/svg">
<path d="M23.8993 33.948C30.7802 33.948 36.3583 28.3699 36.3583 21.4889C36.3583 14.608 30.7802 9.02989 23.8993 9.02989C17.0183 9.02989 11.4402 14.608 11.4402 21.4889C11.4402 28.3699 17.0183 33.948 23.8993 33.948Z" fill="#907EFF"/>
<path d="M45.1192 21.5812C45.1192 23.6719 41.0138 25.0816 40.4017 26.9664C39.7685 28.9199 42.2381 32.4731 41.0561 34.0992C39.8635 35.7412 35.7106 34.4846 34.0695 35.6778C32.4443 36.8605 32.3651 41.2056 30.4127 41.8392C28.5288 42.4516 25.9221 39.004 23.8324 39.004C21.7428 39.004 19.1361 42.4516 17.2522 41.8392C15.2998 41.2056 15.2206 36.8605 13.5954 35.6778C11.9543 34.4846 7.8014 35.7412 6.60884 34.0992C5.42682 32.4731 7.89639 28.9199 7.26316 26.9664C6.65105 25.0816 2.54567 23.6666 2.54567 21.5812C2.54567 19.4957 6.65105 18.0808 7.26316 16.196C7.89639 14.2425 5.42682 10.6893 6.60884 9.06316C7.8014 7.4212 11.9543 8.67775 13.5954 7.48455C15.2206 6.30191 15.2998 1.95677 17.2522 1.32321C19.1361 0.710776 21.7428 4.15838 23.8324 4.15838C25.9221 4.15838 28.5288 0.710776 30.4127 1.32321C32.3651 1.95677 32.4443 6.30191 34.0695 7.48455C35.7106 8.67775 39.8635 7.4212 41.0561 9.06316C42.2381 10.6893 39.7685 14.2425 40.4017 16.196C41.0086 18.0755 45.1192 19.4904 45.1192 21.5812Z" stroke="white" stroke-width="2.5" stroke-miterlimit="10"/>
<path d="M23.4999 42.7314L32.423 63.1266C33.0193 64.4888 34.8662 64.6419 35.3253 63.3695L36.7975 58.4753C37.0825 57.678 38.0006 57.3665 38.8238 57.7889L43.631 60.5079C44.945 61.1784 46.1903 59.9905 45.5993 58.6336L35.2303 34.9333" stroke="white" stroke-width="2.5" stroke-miterlimit="10"/>
<path d="M24.988 39.3313L14.5768 63.1266C13.9806 64.4888 12.1337 64.6419 11.6746 63.3695L10.2023 58.4753C9.91738 57.678 8.99921 57.3665 8.17602 57.7889L3.36882 60.5079C2.05489 61.1784 0.809553 59.9905 1.40056 58.6336L11.7748 34.9333" stroke="white" stroke-width="2.5" stroke-miterlimit="10"/>
</svg>
