<svg width="19" height="23" viewBox="0 0 19 23" fill="none" xmlns="http://www.w3.org/2000/svg">
<path fill-rule="evenodd" clip-rule="evenodd" d="M6.03738 16.4727H12.0345C12.4865 16.4727 12.8613 16.0971 12.8613 15.6441C12.8613 15.1912 12.4865 14.8266 12.0345 14.8266H6.03738C5.58539 14.8266 5.21057 15.1912 5.21057 15.6441C5.21057 16.0971 5.58539 16.4727 6.03738 16.4727ZM9.76353 9.30263H6.03738C5.58539 9.30263 5.21057 9.67825 5.21057 10.1312C5.21057 10.5842 5.58539 10.9487 6.03738 10.9487H9.76353C10.2155 10.9487 10.5903 10.5842 10.5903 10.1312C10.5903 9.67825 10.2155 9.30263 9.76353 9.30263ZM17.6308 8.33668C17.8899 8.33371 18.1721 8.33048 18.4284 8.33048C18.704 8.33048 18.9245 8.55143 18.9245 8.82763V17.71C18.9245 20.4499 16.7087 22.6705 13.9747 22.6705H5.19948C2.33321 22.6705 -0.00390625 20.3394 -0.00390625 17.467V5.55749C-0.00390625 2.81765 2.22297 0.574951 4.96797 0.574951H10.8549C11.1415 0.574951 11.362 0.806954 11.362 1.08315V4.64053C11.362 6.66227 13.0266 8.31943 15.044 8.33048C15.5153 8.33048 15.9307 8.33397 16.2942 8.33703C16.5771 8.33941 16.8285 8.34153 17.0504 8.34153C17.2073 8.34153 17.4108 8.3392 17.6308 8.33668ZM17.9344 6.72395C17.0283 6.72727 15.96 6.72395 15.1916 6.71622C13.9724 6.71622 12.9681 5.70977 12.9681 4.48788V1.57569C12.9681 1.09954 13.5446 0.863114 13.8743 1.2067C14.4714 1.82891 15.2921 2.68439 16.109 3.53576C16.9223 4.3835 17.7317 5.22717 18.3126 5.8324C18.6345 6.16714 18.3986 6.72285 17.9344 6.72395Z" fill="#FF6A00"/>
</svg>
