<svg width="23" height="20" viewBox="0 0 23 20" fill="none" xmlns="http://www.w3.org/2000/svg">
<path fill-rule="evenodd" clip-rule="evenodd" d="M6.74172 0.348799C6.92676 0.48133 7.22517 0.785756 7.22517 0.785756C8.38361 1.86306 10.1284 4.54254 10.6888 5.90196C10.7005 5.90196 11.0328 6.71027 11.0458 7.09474V7.14591C11.0458 7.73508 10.7135 8.2862 10.1793 8.56832C9.95901 8.68463 9.42332 8.7928 9.16486 8.84499C9.07925 8.86227 9.02406 8.87342 9.02082 8.87668C8.25721 8.99215 7.08574 9.06826 5.79959 9.06826C4.4496 9.06826 3.2273 8.99215 2.47542 8.85044C2.46239 8.85044 1.77567 8.71003 1.54633 8.61949C1.21534 8.47909 0.935179 8.2219 0.756657 7.90173C0.628954 7.64585 0.566406 7.37554 0.566406 7.09474C0.578134 6.7995 0.769687 6.24838 0.858297 6.03056C1.41862 4.59371 3.25206 1.84994 4.37272 0.798878C4.48913 0.681653 4.62161 0.558848 4.71379 0.473397C4.76298 0.427806 4.80069 0.392847 4.81837 0.375043C5.09853 0.15722 5.44255 0.041748 5.81262 0.041748C6.1423 0.041748 6.47329 0.144098 6.74172 0.348799ZM18.636 7.95396C18.636 8.53264 18.1708 9.0011 17.5962 9.0011C17.0215 9.0011 16.5563 8.53264 16.5563 7.95396L16.2696 2.89538C16.2696 2.15792 16.8638 1.56086 17.5962 1.56086C18.3285 1.56086 18.9214 2.15792 18.9214 2.89538L18.636 7.95396ZM21.8552 11.3498C22.1861 11.4915 22.4663 11.7474 22.6448 12.0676C22.7725 12.3234 22.8351 12.5938 22.8351 12.8759C22.8234 13.1698 22.6318 13.7223 22.5419 13.9401C21.9829 15.3756 20.1481 18.1195 19.0288 19.1719C18.9144 19.2862 18.7845 19.4065 18.6925 19.4916L18.6924 19.4917L18.6923 19.4918C18.6409 19.5394 18.6014 19.576 18.5831 19.5944C18.3017 19.8122 17.9589 19.9277 17.5902 19.9277C17.2579 19.9277 16.9269 19.8254 16.6598 19.6193C16.4747 19.4881 16.1763 19.1837 16.1763 19.1837C15.0166 18.1077 13.2731 15.4268 12.7127 14.0674C12.6997 14.0674 12.3687 13.2604 12.3557 12.8759V12.8247C12.3557 12.2342 12.6867 11.6831 13.2222 11.401C13.442 11.2859 13.9759 11.1774 14.235 11.1248L14.2351 11.1248L14.2351 11.1248L14.2351 11.1248L14.2352 11.1247C14.3216 11.1072 14.3774 11.0959 14.3807 11.0926C15.1443 10.9771 16.3158 10.901 17.6019 10.901C18.9519 10.901 20.1742 10.9771 20.9261 11.1188C20.9378 11.1188 21.6258 11.2592 21.8552 11.3498ZM5.80552 10.9685C5.23086 10.9685 4.76566 11.437 4.76566 12.0157L4.47898 17.0741C4.47898 17.8116 5.07319 18.4086 5.80552 18.4086C6.53785 18.4086 7.13076 17.8116 7.13076 17.0741L6.84538 12.0157C6.84538 11.437 6.38018 10.9685 5.80552 10.9685Z" fill="#551FFF"/>
</svg>
