<svg width="131" height="33" viewBox="0 0 131 33" fill="none" xmlns="http://www.w3.org/2000/svg">
<g clip-path="url(#clip0_3_633)">
<path d="M27.8893 0.202698H6.27481C3.27842 0.202698 0.849976 2.59378 0.849976 5.54406V26.826C0.849976 29.7762 3.27842 32.1674 6.27481 32.1674H27.8893C30.8857 32.1674 33.314 29.7762 33.314 26.826V5.54406C33.314 2.59378 30.8857 0.202698 27.8893 0.202698ZM27.4127 24.6695C27.4127 25.6015 26.6456 26.3567 25.6991 26.3567H8.46497C7.5184 26.3567 6.75136 25.6015 6.75136 24.6695V7.70055C6.75136 6.76853 7.5184 6.01329 8.46497 6.01329H25.6991C26.6456 6.01329 27.4127 6.76853 27.4127 7.70055V24.6695ZM13.6385 20.5237C13.0934 20.5237 12.656 20.0898 12.656 19.5531V12.7784C12.656 12.2417 13.0934 11.8046 13.6385 11.8046H20.5288C21.0707 11.8046 21.5113 12.2385 21.5113 12.7784V19.5499C21.5113 20.0866 21.0707 20.5205 20.5288 20.5205H13.6385V20.5237ZM41.9213 20.0609H45.4661C45.6423 22.0373 47.0035 23.58 49.7485 23.58C52.1998 23.58 53.7078 22.3877 53.7078 20.5848C53.7078 18.8975 52.5262 18.1422 50.3981 17.6474L47.6498 17.0657C44.6664 16.4261 42.4207 14.5363 42.4207 11.4511C42.4207 8.04763 45.4922 5.72082 49.4808 5.72082C53.7045 5.72082 56.4234 7.903 56.6585 11.1297H53.2312C52.8232 9.61919 51.5502 8.71932 49.4841 8.71932C47.2971 8.71932 45.7925 9.88273 45.7925 11.3675C45.7925 12.8523 47.0915 13.7522 49.3372 14.2471L52.0562 14.8287C55.0395 15.4683 57.0762 17.2424 57.0762 20.3534C57.0762 24.3096 54.0635 26.6652 49.7518 26.6652C44.9047 26.662 42.2184 24.075 41.9213 20.0609ZM69.757 32.1674V26.3793L69.9888 23.8404H69.757C68.9444 25.6658 67.2372 26.6652 64.9197 26.6652C61.1825 26.6652 58.4015 23.67 58.4015 19.0775C58.4015 14.4849 61.1825 11.4896 64.9197 11.4896C67.2078 11.4896 68.83 12.5438 69.757 14.1989H69.9888V11.7724H73.0602V32.1674H69.757ZM69.8713 19.0743C69.8713 16.1368 68.0466 14.4238 65.814 14.4238C63.5814 14.4238 61.7568 16.1368 61.7568 19.0743C61.7568 22.0117 63.5814 23.7246 65.814 23.7246C68.0466 23.7246 69.8713 22.0149 69.8713 19.0743ZM75.5116 20.588V11.7724H78.8148V20.3019C78.8148 22.6126 79.9441 23.7246 81.8275 23.7246C84.1449 23.7246 85.6529 22.0984 85.6529 19.5595V11.7724H88.9561V26.3761H85.8847V23.3518H85.6529C84.9283 25.293 83.3354 26.662 80.8744 26.662C77.3362 26.662 75.5116 24.438 75.5116 20.588ZM90.9668 22.2977C90.9668 19.5595 92.9088 17.9623 96.3556 17.763L100.439 17.506V16.365C100.439 14.9959 99.4239 14.17 97.6286 14.17C95.977 14.17 94.9913 14.9959 94.7302 16.1658H91.427C91.7762 13.1994 94.2667 11.4864 97.6253 11.4864C101.421 11.4864 103.739 13.0837 103.739 16.1658V26.3761H100.667V23.6668H100.436C99.7405 25.4634 98.2913 26.662 95.5103 26.662C92.85 26.662 90.9668 24.8945 90.9668 22.2977ZM100.442 20.5012V19.7298L97.1096 19.958C95.3144 20.0705 94.5016 20.7294 94.5016 22.0407C94.5016 23.1525 95.4286 23.9528 96.731 23.9528C99.0812 23.9528 100.442 22.4712 100.442 20.5012ZM106.203 26.3793V11.7724H109.275V14.5685H109.506C109.941 12.6563 111.419 11.7724 113.619 11.7724H115.127V14.7099H113.244C111.099 14.7099 109.506 16.0789 109.506 18.6757V26.3761H106.203V26.3793ZM130.24 19.6753H118.969C119.142 22.3556 121.055 23.8693 123.17 23.8693C124.965 23.8693 126.094 23.1559 126.734 21.957H130.008C129.11 24.9234 126.473 26.662 123.14 26.662C118.767 26.662 115.695 23.4386 115.695 19.0743C115.695 14.7099 118.851 11.4864 123.17 11.4864C127.514 11.4864 130.354 14.4238 130.354 18.0747C130.357 18.7915 130.298 19.161 130.24 19.6753ZM127.083 17.4223C126.969 15.3976 125.259 14.0285 123.173 14.0285C121.202 14.0285 119.553 15.2562 119.145 17.4223H127.083Z" fill="black"/>
</g>
<defs>
<clipPath id="clip0_3_633">
<rect width="130" height="32" fill="white" transform="translate(0.603638 0.202698)"/>
</clipPath>
</defs>
</svg>
