<svg width="131" height="30" viewBox="0 0 131 30" fill="none" xmlns="http://www.w3.org/2000/svg">
<g clip-path="url(#clip0_3_631)">
<path d="M121.281 6.98995V7.02389C119.981 6.10193 118.451 5.55448 116.86 5.44153C115.268 5.32856 113.676 5.65444 112.258 6.38348C110.84 7.11249 109.651 8.21653 108.82 9.57459C107.99 10.9326 107.551 12.4923 107.551 14.0826C107.551 15.6729 107.99 17.2326 108.82 18.5907C109.651 19.9487 110.84 21.0527 112.258 21.7818C113.676 22.5108 115.268 22.8367 116.86 22.7237C118.451 22.6107 119.981 22.0633 121.281 21.1413V22.7456H124.936V4.33984L121.281 6.98995ZM116.245 19.1082C115.255 19.1098 114.287 18.8213 113.46 18.2788C112.634 17.7362 111.986 16.9634 111.596 16.0565C111.207 15.1497 111.093 14.1487 111.27 13.1781C111.447 12.2074 111.906 11.31 112.59 10.5973C113.274 9.88467 114.153 9.38819 115.119 9.16967C116.084 8.95115 117.092 9.0202 118.018 9.36823C118.944 9.71626 119.747 10.3279 120.327 11.1272C120.907 11.9264 121.239 12.878 121.281 13.8636V14.2801C121.23 15.5774 120.677 16.8046 119.738 17.7046C118.799 18.6047 117.547 19.1077 116.245 19.1082ZM106.538 22.7425V17.504L99.2954 22.7425H106.538ZM130.449 0.369324L126.781 3.01635V6.67835L130.446 4.02208L130.449 0.369324ZM126.781 8.95825L126.775 22.7425H130.43L130.446 6.30197L126.781 8.95825Z" fill="#0068E5"/>
<path d="M47.8122 5.41655C46.0934 5.41655 44.4133 5.92448 42.9843 6.87611C41.5549 7.82774 40.4409 9.18034 39.7829 10.7629C39.1248 12.3455 38.9524 14.0871 39.2873 15.7673C39.6222 17.4476 40.4493 18.9912 41.6641 20.203C42.879 21.4148 44.4273 22.2403 46.1129 22.5753C47.7983 22.9103 49.5459 22.7396 51.134 22.0849C52.7222 21.4301 54.0801 20.3207 55.0359 18.8969C55.9917 17.4731 56.5024 15.7988 56.5036 14.0857C56.5046 12.9475 56.2802 11.8204 55.8437 10.7686C55.4073 9.71688 54.7672 8.76114 53.9603 7.95605C53.153 7.15099 52.1945 6.51231 51.1396 6.07657C50.0847 5.64083 48.954 5.41655 47.8122 5.41655ZM47.8122 19.1082C46.8131 19.1089 45.8365 18.8141 45.0058 18.2611C44.175 17.7082 43.5275 16.922 43.1452 16.002C42.7626 15.0821 42.663 14.0698 42.858 13.0933C43.0533 12.1167 43.5349 11.2199 44.2415 10.5163C44.9485 9.81261 45.8489 9.3338 46.8289 9.14042C47.8088 8.94708 48.8244 9.04787 49.7467 9.43002C50.6691 9.81221 51.4572 10.4586 52.0109 11.2873C52.5646 12.1161 52.8593 13.09 52.8575 14.0857C52.855 15.4181 52.3226 16.6951 51.3767 17.6367C50.4308 18.5782 49.149 19.1074 47.8122 19.1082ZM28.5908 5.41655C27.0789 5.41772 25.5934 5.81196 24.2812 6.56035C22.9689 7.30876 21.8752 8.38541 21.108 9.68396C20.3409 10.9825 19.9269 12.4581 19.9068 13.9649C19.8868 15.4717 20.2615 16.9577 20.9939 18.276C21.7263 19.5944 22.7911 20.6995 24.083 21.4822C25.375 22.265 26.8494 22.6983 28.3608 22.7393C29.8721 22.7804 31.368 22.4277 32.7009 21.7163C34.0338 21.0048 35.1573 19.9592 35.9605 18.6825L32.7941 16.8623C32.2834 17.6298 31.5706 18.2426 30.7341 18.6338C29.8975 19.025 28.9692 19.1795 28.0505 19.0805C27.1317 18.9814 26.258 18.6327 25.5247 18.0723C24.7914 17.5119 24.2267 16.7614 23.8922 15.9028H37.0934C37.3673 14.6391 37.354 13.3303 37.0544 12.0724C36.7548 10.8144 36.1763 9.63938 35.3613 8.63342C34.5463 7.62746 33.5159 6.8161 32.3453 6.2589C31.1749 5.70173 29.8941 5.41284 28.597 5.41346L28.5908 5.41655ZM28.5908 9.04772C29.6083 9.04852 30.6018 9.35592 31.4409 9.92962C32.28 10.5033 32.9254 11.3165 33.2924 12.2624H23.8922C23.9417 12.1287 23.9974 11.9991 24.0594 11.8737C24.4733 11.0269 25.1176 10.313 25.9187 9.81341C26.7199 9.31378 27.6457 9.04849 28.5908 9.04772ZM9.36935 5.41655C7.54031 5.4138 5.75755 5.98954 4.27769 7.06091L2.88173 6.00272C2.75178 5.90695 2.59454 5.85506 2.43292 5.85463H0.622209L0.603638 29.0176H4.25911V21.0981C5.36925 21.8987 6.65353 22.4263 8.0072 22.6379C9.36087 22.8495 10.7455 22.7391 12.0483 22.3157C13.3509 21.8923 14.5347 21.1679 15.5031 20.2017C16.4714 19.2354 17.1968 18.0546 17.6201 16.7557C18.0434 15.4568 18.1526 14.0765 17.9387 12.7275C17.7249 11.3785 17.1941 10.0991 16.3896 8.99348C15.5851 7.8879 14.5299 6.98757 13.3098 6.36596C12.0898 5.74431 10.7396 5.41901 9.36935 5.41655ZM9.36935 19.1082C8.37036 19.1089 7.39363 18.8141 6.56284 18.2611C5.73205 17.7082 5.08452 16.922 4.7022 16.002C4.3199 15.0821 4.22005 14.0698 4.41524 13.0933C4.61042 12.1167 5.09192 11.2199 5.79875 10.5163C6.50558 9.81261 7.40595 9.3338 8.38593 9.14042C9.36592 8.94708 10.3814 9.04787 11.3039 9.43002C12.2264 9.81221 13.0144 10.4586 13.5681 11.2873C14.1218 12.1161 14.4164 13.09 14.4146 14.0857C14.4129 15.4183 13.8807 16.6958 12.9347 17.6376C11.9887 18.5793 10.7064 19.1082 9.36935 19.1082ZM67.0677 5.41655C65.2492 5.41321 63.476 5.9822 62.0008 7.0424L60.6172 6.00272C60.4875 5.90655 60.33 5.85463 60.1684 5.85463H58.3577L58.3391 29.0176H61.9977V21.1259C63.1107 21.9192 64.3959 22.4395 65.7485 22.6443C67.1011 22.8491 68.4835 22.7326 69.7825 22.3044C71.0816 21.8763 72.2609 21.1485 73.2244 20.1802C74.188 19.2119 74.9085 18.0306 75.3276 16.7324C75.7464 15.4341 75.852 14.0556 75.6356 12.709C75.4193 11.3624 74.8869 10.0857 74.0818 8.98296C73.2767 7.88016 72.2219 6.98236 71.0033 6.36266C69.7844 5.74292 68.4361 5.41877 67.0677 5.41655ZM67.0677 19.1082C66.0682 19.1107 65.0908 18.8174 64.2588 18.2656C63.4268 17.7138 62.7777 16.9282 62.3939 16.0085C62.0101 15.0887 61.9092 14.0761 62.1032 13.099C62.2973 12.1218 62.778 11.2241 63.4846 10.5195C64.191 9.81495 65.0914 9.33522 66.0716 9.14113C67.0519 8.94702 68.0678 9.04725 68.9908 9.42916C69.9138 9.81106 70.7024 10.4574 71.2565 11.2864C71.8105 12.1154 72.1055 13.0896 72.1036 14.0857C72.1021 15.4167 71.571 16.6928 70.6269 17.6343C69.6832 18.5758 68.403 19.1058 67.0677 19.1082ZM100.298 15.8997C100.761 13.7926 100.42 11.5893 99.3424 9.71882C98.2646 7.84832 96.5269 6.4445 94.468 5.78065C92.409 5.1168 90.1758 5.24045 88.2032 6.12748C86.2306 7.01454 84.6598 8.60152 83.7965 10.5795C82.9333 12.5574 82.8395 14.7848 83.5331 16.8279C84.2271 18.871 85.6586 20.5837 87.5498 21.6325C89.4407 22.6813 91.6556 22.9912 93.7635 22.5017C95.871 22.0124 97.7205 20.7587 98.9517 18.9848L96.002 16.8623C95.4913 17.6298 94.7787 18.2427 93.9421 18.6338C93.1058 19.0249 92.1772 19.1791 91.2588 19.0798C90.3402 18.9804 89.4667 18.6312 88.7337 18.0704C88.0008 17.5095 87.4368 16.7586 87.1032 15.8997H100.298ZM91.8017 9.04772C92.8191 9.04852 93.8127 9.35592 94.6518 9.92962C95.491 10.5033 96.1363 11.3165 96.5034 12.2624H87.1032C87.1527 12.1287 87.2084 11.9991 87.2703 11.8737C87.6841 11.0269 88.3286 10.313 89.1296 9.81341C89.931 9.31378 90.8568 9.04849 91.8017 9.04772ZM77.607 0.369324H81.2655V22.7425H77.607V0.369324Z" fill="black"/>
</g>
<defs>
<clipPath id="clip0_3_631">
<rect width="130" height="29" fill="white" transform="translate(0.603638 0.202698)"/>
</clipPath>
</defs>
</svg>
