<svg width="131" height="39" viewBox="0 0 131 39" fill="none" xmlns="http://www.w3.org/2000/svg">
<g clip-path="url(#clip0_700_5154)">
<path d="M49.3119 11.5871V31.0189C49.3119 32.2702 48.7579 32.8713 47.1083 32.8713C46.8744 32.8713 46.6651 32.8591 46.3696 32.8345V37.3736C46.8375 37.4226 47.1575 37.4103 47.4776 37.4226C52.3033 37.5698 55.3317 35.8033 55.3317 31.1416V11.5871H49.3119ZM52.3157 9.39122C54.0268 9.39122 55.4057 8.10309 55.4057 6.52057C55.4057 4.93806 54.0268 3.66223 52.3157 3.66223C50.6168 3.66223 49.2257 4.93806 49.2257 6.52057C49.2257 8.10309 50.6168 9.39122 52.3157 9.39122ZM59.1634 30.4301H65.1833V11.5871H59.1634V30.4301ZM62.1795 9.39122C63.8907 9.39122 65.2695 8.10309 65.2695 6.52057C65.2695 4.93806 63.8907 3.66223 62.1795 3.66223C60.4807 3.66223 59.0896 4.93806 59.0896 6.52057C59.0896 8.10309 60.4807 9.39122 62.1795 9.39122ZM79.6883 11.5871H76.2783V7.07262H70.2583V11.5871H67.7593V16.0035H70.2583V25.1673C70.2214 28.9825 72.7081 30.8963 76.9553 30.7C78.408 30.6264 79.4544 30.332 80.033 30.1602L79.122 25.8298C78.8635 25.8911 78.2603 26.0138 77.8048 26.0138C76.8323 26.0138 76.2783 25.6212 76.2783 24.5049V16.0035H79.6883V11.5871ZM93.4333 11.5871H90.0229V7.07262H84.0032V11.5871H81.5041V16.0035H84.0032V25.1673C83.9662 28.9825 86.453 30.8963 90.6998 30.7C92.1532 30.6264 93.1993 30.332 93.7782 30.1602L92.8665 25.8298C92.6082 25.8911 92.005 26.0138 91.55 26.0138C90.5767 26.0138 90.0229 25.6212 90.0229 24.5049V16.0035H93.4333V11.5871ZM105.14 30.7858C110.102 30.7858 113.364 28.3936 114.053 24.6889L108.526 24.5294C108.058 25.7807 106.827 26.4554 105.251 26.4554C102.937 26.4554 101.509 24.922 101.509 22.6156V22.4561H114.115V20.9595C114.115 14.7522 110.323 11.3417 104.956 11.3417C99.2434 11.3417 95.5748 15.2429 95.5748 21.0822C95.5748 27.1179 99.1949 30.7858 105.14 30.7858ZM101.509 18.9722C101.595 17.0953 103.084 15.6722 105.079 15.6722C107.061 15.6722 108.489 17.0461 108.513 18.9722H101.509ZM117.189 30.4301H123.209V20.1989C123.209 17.954 124.81 16.4451 126.964 16.4451C127.678 16.4451 128.749 16.5678 129.328 16.764V11.5503C128.823 11.4154 128.195 11.3295 127.641 11.3295C125.573 11.3295 123.923 12.5317 123.234 15.022H123.037V11.5871H117.189V30.4301Z" fill="black"/>
<path d="M19.6703 38.2027C30.2006 38.2027 38.737 29.6961 38.737 19.2027C38.737 8.70929 30.2006 0.202698 19.6703 0.202698C9.14008 0.202698 0.603638 8.70929 0.603638 19.2027C0.603638 29.6961 9.14008 38.2027 19.6703 38.2027Z" fill="black"/>
</g>
<defs>
<clipPath id="clip0_700_5154">
<rect width="130" height="38" fill="white" transform="translate(0.603638 0.202698)"/>
</clipPath>
</defs>
</svg>
