<svg width="131" height="30" viewBox="0 0 131 30" fill="none" xmlns="http://www.w3.org/2000/svg">
<g clip-path="url(#clip0_3_625)">
<path d="M22.8926 5.18148C17.9318 4.82643 12.406 4.82644 7.44504 5.18148C6.40657 5.25581 5.61973 6.04813 5.54165 7.0166C5.29123 10.1224 5.25792 14.7756 5.48753 17.8783C5.56338 18.9032 6.4664 19.7828 7.68808 19.7828H11.5178V24.4902L7.69588 24.4875C4.18977 24.4875 1.04271 21.8981 0.770861 18.2248C0.523372 14.8808 0.557555 9.98556 0.82735 6.63923C1.09774 3.28558 3.8042 0.717425 7.10621 0.4811C12.2928 0.109898 18.045 0.109897 23.2315 0.481099C26.5335 0.717424 29.24 3.28558 29.5104 6.63923C29.7802 9.98556 29.7684 14.8808 29.5209 18.2248C29.249 21.8981 26.1092 24.498 22.6031 24.498L18.8207 24.4953L11.5178 29.2027V24.4902L18.8207 19.7828H22.6037C23.8253 19.7828 24.7283 18.9032 24.8042 17.8783C25.0338 14.7756 25.0464 10.1224 24.7961 7.0166C24.718 6.04813 23.9312 5.25581 22.8926 5.18148Z" fill="#FE5000"/>
<path d="M36.9473 20.8936H48.3766V18.0342H40.4107V3.63867H36.9473V20.8936Z" fill="black"/>
<path d="M50.0331 20.8939H53.3976V8.07587H50.0331V20.8939ZM49.761 4.72347C49.761 5.83272 50.5774 6.67082 51.7154 6.67082C52.8533 6.67082 53.6697 5.83272 53.6697 4.72347C53.6697 3.61422 52.8533 2.77612 51.7154 2.77612C50.5774 2.77612 49.761 3.61422 49.761 4.72347Z" fill="black"/>
<path d="M66.5898 8.07574H63.2253L60.4546 17.4674L57.6838 8.07574H54.3193L58.6981 20.8937H62.211L66.5898 8.07574Z" fill="black"/>
<path d="M72.5935 21.1895C75.4384 21.1895 77.7392 19.4886 78.1845 17.1469H75.2405C74.9189 18.0343 74.0283 18.7738 72.5935 18.7738C70.6391 18.7738 69.8722 17.4673 69.8722 15.9637V15.6432H78.2834V13.4001C78.2834 10.3188 76.3538 7.77985 72.544 7.77985C68.6848 7.77985 66.6067 10.2449 66.6067 13.7205V15.4707C66.6067 19.0696 68.9569 21.1895 72.5935 21.1895ZM69.8722 13.1536C69.8722 11.4281 70.6144 10.1463 72.544 10.1463C74.3499 10.1463 75.1911 11.3541 75.1911 12.9564V13.2768H69.8722V13.1536Z" fill="black"/>
<path d="M87.2252 21.2388C91.604 21.2388 94.3005 18.2808 94.4737 14.7559H91.2576C91.035 16.7032 89.7981 18.4041 87.2252 18.4041C84.3308 18.4041 83.0938 16.4321 83.0938 13.6713V10.8612C83.0938 8.10039 84.3308 6.12839 87.2252 6.12839C89.7981 6.12839 91.035 7.82924 91.2576 9.77659H94.4737C94.3005 6.25164 91.604 3.29364 87.2252 3.29364C82.0053 3.29364 79.6552 6.62139 79.6552 11.0337V13.4987C79.6552 17.9111 82.0053 21.2388 87.2252 21.2388Z" fill="black"/>
<path d="M96.3029 20.8938H99.6675V13.3016C99.6675 11.5761 100.632 10.6887 102.141 10.6887C103.774 10.6887 104.491 11.7486 104.491 13.2276V20.8938H107.856V12.6853C107.856 9.65333 106.1 7.77993 103.304 7.77993C101.647 7.77993 100.335 8.49478 99.6675 9.60403V2.89923H96.3029V20.8938Z" fill="black"/>
<path d="M114.278 21.1895C115.762 21.1895 117.395 20.5732 117.989 19.7105V20.8937H121.229V12.7099C121.229 9.7272 119.028 7.77985 115.812 7.77985C113.041 7.77985 111.037 9.11095 110.295 11.6006H113.412C113.758 10.9104 114.476 10.3928 115.638 10.3928C117.023 10.3928 117.865 11.2802 117.865 12.4634V14.2135C117.271 13.7205 116.133 13.1289 114.599 13.1289C111.507 13.1289 109.404 14.4107 109.404 17.1962C109.404 19.6858 111.383 21.1895 114.278 21.1895ZM115.143 18.971C113.734 18.971 112.669 18.2808 112.669 17.0976C112.669 15.9144 113.659 15.2735 115.242 15.2735C116.752 15.2735 117.865 15.939 117.865 17.0729C117.865 18.1575 116.628 18.971 115.143 18.971Z" fill="black"/>
<path d="M127.517 20.8936H129.842V18.1821H128.481C127.59 18.1821 127.269 17.837 127.269 16.9989V10.7871H130.015V8.07562H127.269V4.57532H123.88V8.07562H122.049V10.7871H123.88V17.2454C123.88 19.5132 125.043 20.8936 127.517 20.8936Z" fill="black"/>
</g>
<defs>
<clipPath id="clip0_3_625">
<rect width="130" height="29" fill="white" transform="translate(0.603638 0.202698)"/>
</clipPath>
</defs>
</svg>
