<svg width="66" height="30" viewBox="0 0 66 30" fill="none" xmlns="http://www.w3.org/2000/svg">
<g clip-path="url(#clip0_3_622)">
<path d="M32.2543 6.10479C33.828 6.10479 35.1038 4.84872 35.1038 3.29926C35.1038 1.7498 33.828 0.493713 32.2543 0.493713C30.6804 0.493713 29.4047 1.7498 29.4047 3.29926C29.4047 4.84872 30.6804 6.10479 32.2543 6.10479Z" fill="#FF7E61"/>
<path d="M8.18164 15.1467L15.4915 7.94977C15.6173 7.82587 15.5279 7.61112 15.3489 7.61112H9.44279C9.38968 7.61112 9.33938 7.63316 9.30023 7.66898L5.49426 11.4161V1.57329C5.49426 1.43287 5.34884 1.33651 5.21741 1.38882L1.03954 3.05453C0.964032 3.08482 0.913696 3.1564 0.913696 3.23899V22.6245C0.913696 22.8062 1.0647 22.9549 1.24927 22.9549H5.15868C5.34325 22.9549 5.49426 22.8062 5.49426 22.6245V18.8773L9.58261 22.8998C9.61903 22.9356 9.67213 22.9576 9.72524 22.9576L15.6341 22.9549C15.8131 22.9549 15.9026 22.7401 15.7767 22.6162L8.18164 15.1467Z" fill="black"/>
<path d="M30.2987 22.9549H34.2081C34.3927 22.9549 34.5437 22.8063 34.5437 22.6245V7.94427C34.5437 7.76259 34.3927 7.61389 34.2081 7.61389H30.2987C30.1141 7.61389 29.9631 7.76259 29.9631 7.94427V22.6273C29.9659 22.809 30.1141 22.9549 30.2987 22.9549Z" fill="black"/>
<path fill-rule="evenodd" clip-rule="evenodd" d="M58.0002 7.63053C61.8425 7.88935 64.9549 10.9537 65.2234 14.7339C65.5394 19.2216 61.9375 22.955 57.4521 22.9578C56.3056 22.9578 55.2177 22.7099 54.239 22.2722V27.2418C54.239 27.3767 54.1579 27.4978 54.0293 27.5474L49.9353 29.1801C49.8038 29.2324 49.6584 29.1387 49.6584 28.9956V15.2845H49.6613C49.6613 10.8656 53.4476 7.32216 58.0002 7.63053ZM54.239 15.2845C54.239 17.0301 55.6763 18.448 57.4521 18.448C59.225 18.448 60.6624 17.0301 60.6624 15.2845C60.6624 13.539 59.225 12.121 57.4521 12.121C55.6763 12.121 54.239 13.539 54.239 15.2845Z" fill="black"/>
<path d="M42.2647 11.3087C42.2787 11.3087 42.2955 11.3087 42.3094 11.3115C43.0617 11.2812 43.7384 11.7547 44.2894 12.4954C44.3788 12.6165 44.541 12.6578 44.6808 12.6028L47.8296 11.3555C48.003 11.2867 48.0869 11.0912 48.0142 10.9205C47.2228 9.04279 44.815 7.61389 42.262 7.61389C38.9286 7.61389 36.2216 9.70088 36.2216 12.2751C36.2216 13.6545 37.0382 14.8521 38.1596 15.6341C39.1663 16.3362 40.3688 16.7904 41.5544 17.0933C41.574 17.0988 41.5936 17.1036 41.6131 17.1084C41.6327 17.1132 41.6523 17.1181 41.6719 17.1236C43.2714 17.4732 43.5007 17.889 43.5007 18.2992C43.5007 18.8333 42.8436 19.2656 42.0354 19.2656C41.1993 19.3179 40.4582 18.7534 39.8765 17.8945C39.7899 17.7651 39.6193 17.7183 39.4739 17.7761L36.3614 19.0316C36.1909 19.1004 36.1126 19.2876 36.1769 19.4583C37.069 21.8371 39.4739 22.9604 42.0354 22.9604C45.3687 22.9604 48.0757 20.8762 48.0757 18.2992C48.0757 17.7375 47.9471 17.2006 47.7094 16.7023C47.4829 16.226 46.8928 15.2128 45.366 14.5107C44.9854 14.3366 44.3105 14.1048 43.6015 13.8614C42.6853 13.5467 41.7123 13.2125 41.244 12.9579C40.9588 12.8037 40.7966 12.5477 40.7966 12.2751C40.7966 11.741 41.4565 11.3087 42.2647 11.3087Z" fill="black"/>
<path d="M28.3496 7.88649C28.4028 7.75708 28.3049 7.61389 28.1623 7.61389H25.2121C20.9196 7.61389 17.438 11.0417 17.438 15.2679V22.6245C17.438 22.8063 17.589 22.9549 17.7736 22.9549H21.6829C21.8675 22.9549 22.0157 22.809 22.0157 22.6273V15.2679C22.0157 13.5279 23.4475 12.1182 25.2149 12.1182H26.4508C26.5319 12.1182 26.6047 12.0714 26.6354 11.997L28.3496 7.88649Z" fill="black"/>
</g>
<defs>
<clipPath id="clip0_3_622">
<rect width="65" height="29" fill="white" transform="translate(0.603638 0.202698)"/>
</clipPath>
</defs>
</svg>
