<svg width="131" height="33" viewBox="0 0 131 33" fill="none" xmlns="http://www.w3.org/2000/svg">
<g clip-path="url(#clip0_3_616)">
<path fill-rule="evenodd" clip-rule="evenodd" d="M40.1371 23.424C39.659 23.2411 39.3462 22.8556 39.3462 22.3414C39.3462 21.718 39.8609 21.2047 40.4865 21.2047C40.6705 21.2047 40.8172 21.241 40.9461 21.2961C41.7556 21.663 42.6195 21.883 43.6682 21.883C45.5807 21.883 46.4819 20.9661 46.4819 19.2045V18.7275C45.6538 19.7186 44.7532 20.3234 43.2637 20.3234C40.9646 20.3234 38.886 18.654 38.886 15.737V15.7006C38.886 12.765 41.0011 11.1141 43.2637 11.1141C44.7898 11.1141 45.6908 11.7561 46.4447 12.5815V12.5629C46.4447 11.811 47.0702 11.1876 47.8426 11.1876C48.615 11.1876 49.2398 11.811 49.2398 12.5815V18.911C49.2398 20.6725 48.8176 21.9566 47.9893 22.782C47.0702 23.6995 45.6538 24.103 43.7418 24.103C42.4355 24.103 41.2954 23.8831 40.1371 23.424ZM46.4819 15.737V15.7006C46.4819 14.361 45.4332 13.4255 44.0726 13.4255C42.7118 13.4255 41.6818 14.361 41.6818 15.7006V15.737C41.6818 17.0945 42.7118 18.0121 44.0726 18.0121C45.4332 18.0121 46.4819 17.0765 46.4819 15.737Z" fill="black"/>
<path fill-rule="evenodd" clip-rule="evenodd" d="M40.1371 23.4239C39.659 23.2411 39.3462 22.8555 39.3462 22.3413C39.3462 21.718 39.8609 21.2046 40.4865 21.2046C40.6705 21.2046 40.8172 21.241 40.9461 21.296C41.7556 21.6629 42.6195 21.8829 43.6682 21.8829C45.5807 21.8829 46.4819 20.966 46.4819 19.2045V18.7275C45.6538 19.7186 44.7532 20.3233 43.2637 20.3233C40.9646 20.3233 38.886 18.6539 38.886 15.737V15.7005C38.886 12.7649 41.0011 11.114 43.2637 11.114C44.7898 11.114 45.6908 11.756 46.4447 12.5814V12.5629C46.4447 11.8109 47.0702 11.1875 47.8426 11.1875C48.615 11.1875 49.2398 11.8109 49.2398 12.5814V18.9109C49.2398 20.6725 48.8176 21.9565 47.9893 22.7819C47.0702 23.6994 45.6538 24.103 43.7418 24.103C42.4355 24.103 41.2954 23.8831 40.1371 23.4239ZM46.4819 15.737V15.7005C46.4819 14.3609 45.4332 13.4254 44.0726 13.4254C42.7118 13.4254 41.6818 14.3609 41.6818 15.7005V15.737C41.6818 17.0944 42.7118 18.012 44.0726 18.012C45.4332 18.012 46.4819 17.0765 46.4819 15.737ZM50.8224 12.5814C50.8224 11.8109 51.4473 11.1875 52.2203 11.1875C52.9926 11.1875 53.6174 11.8109 53.6174 12.5814V13.0213C54.0227 12.068 54.6841 11.1875 55.5121 11.1875C56.3768 11.1875 56.8729 11.756 56.8729 12.5443C56.8729 13.2784 56.3947 13.7189 55.825 13.8475C54.4085 14.178 53.6174 15.26 53.6174 17.2414V19.8464C53.6174 20.6169 52.9926 21.241 52.2203 21.241C51.4473 21.241 50.8224 20.6169 50.8224 19.8464V12.5814ZM56.5422 18.3054V18.269C56.5422 16.1226 58.1785 15.1314 60.5148 15.1314C61.5076 15.1314 62.2248 15.2964 62.9241 15.5348V15.3698C62.9241 14.2145 62.2063 13.5718 60.8089 13.5718C60.0366 13.5718 59.4111 13.6825 58.8779 13.8475C58.7125 13.9024 58.6022 13.9211 58.4734 13.9211C57.8299 13.9211 57.3146 13.4254 57.3146 12.7828C57.3146 12.2879 57.6267 11.866 58.0689 11.7004C58.9515 11.3704 59.9077 11.1875 61.2134 11.1875C62.7395 11.1875 63.8431 11.5909 64.5418 12.2879C65.2776 13.0213 65.609 14.1045 65.609 15.4256V19.9014C65.609 20.654 65.002 21.241 64.2477 21.241C63.4387 21.241 62.9055 20.6725 62.9055 20.0849V20.0664C62.2248 20.819 61.2871 21.3138 59.9257 21.3138C58.0689 21.3138 56.5422 20.2506 56.5422 18.3054ZM62.9606 17.6635V17.1679C62.4825 16.948 61.8575 16.8009 61.1762 16.8009C59.9808 16.8009 59.2457 17.2779 59.2457 18.159V18.1954C59.2457 18.9481 59.8713 19.388 60.7717 19.388C62.0781 19.388 62.9606 18.6724 62.9606 17.6635ZM67.0992 12.5814C67.0992 11.8109 67.7241 11.1875 68.4972 11.1875C69.2695 11.1875 69.895 11.8109 69.895 12.5814V12.6922C70.5379 11.866 71.3846 11.114 72.8004 11.114C74.0874 11.114 75.0623 11.6824 75.577 12.6735C76.4416 11.6645 77.4717 11.114 78.8138 11.114C80.8924 11.114 82.143 12.3615 82.143 14.7286V19.8464C82.143 20.6169 81.5173 21.241 80.7449 21.241C79.9727 21.241 79.347 20.6169 79.347 19.8464V15.6456C79.347 14.3245 78.7586 13.6454 77.7107 13.6454C76.6621 13.6454 76.0186 14.3245 76.0186 15.6456V19.8464C76.0186 20.6169 75.3937 21.241 74.6208 21.241C73.8483 21.241 73.2228 20.6169 73.2228 19.8464V15.6456C73.2228 14.3245 72.6351 13.6454 71.5865 13.6454C70.5379 13.6454 69.895 14.3245 69.895 15.6456V19.8464C69.895 20.6169 69.2695 21.241 68.4972 21.241C67.7241 21.241 67.0992 20.6169 67.0992 19.8464V12.5814ZM83.6516 12.5814C83.6516 11.8109 84.2766 11.1875 85.0496 11.1875C85.8218 11.1875 86.4476 11.8109 86.4476 12.5814V12.6922C87.0903 11.866 87.937 11.114 89.3528 11.114C90.6399 11.114 91.6147 11.6824 92.1294 12.6735C92.9941 11.6645 94.0241 11.114 95.3663 11.114C97.4448 11.114 98.6954 12.3615 98.6954 14.7286V19.8464C98.6954 20.6169 98.0704 21.241 97.2973 21.241C96.5251 21.241 95.8995 20.6169 95.8995 19.8464V15.6456C95.8995 14.3245 95.3111 13.6454 94.2631 13.6454C93.2146 13.6454 92.5711 14.3245 92.5711 15.6456V19.8464C92.5711 20.6169 91.9462 21.241 91.1732 21.241C90.4008 21.241 89.776 20.6169 89.776 19.8464V15.6456C89.776 14.3245 89.1875 13.6454 88.1389 13.6454C87.0903 13.6454 86.4476 14.3245 86.4476 15.6456V19.8464C86.4476 20.6169 85.8218 21.241 85.0496 21.241C84.2766 21.241 83.6516 20.6169 83.6516 19.8464V12.5814ZM99.6158 18.3054V18.269C99.6158 16.1226 101.253 15.1314 103.588 15.1314C104.581 15.1314 105.298 15.2964 105.997 15.5348V15.3698C105.997 14.2145 105.281 13.5718 103.882 13.5718C103.11 13.5718 102.485 13.6825 101.951 13.8475C101.786 13.9024 101.676 13.9211 101.547 13.9211C100.903 13.9211 100.388 13.4254 100.388 12.7828C100.388 12.2879 100.701 11.866 101.142 11.7004C102.025 11.3704 102.981 11.1875 104.287 11.1875C105.814 11.1875 106.917 11.5909 107.616 12.2879C108.351 13.0213 108.681 14.1045 108.681 15.4256V19.9014C108.681 20.654 108.075 21.241 107.322 21.241C106.512 21.241 105.979 20.6725 105.979 20.0849V20.0664C105.298 20.819 104.36 21.3138 103 21.3138C101.142 21.3138 99.6158 20.2506 99.6158 18.3054ZM106.034 17.6635V17.1679C105.556 16.948 104.93 16.8009 104.25 16.8009C103.054 16.8009 102.319 17.2779 102.319 18.159V18.1954C102.319 18.9481 102.944 19.388 103.845 19.388C105.151 19.388 106.034 18.6724 106.034 17.6635ZM110.172 12.5814C110.172 11.8109 110.798 11.1875 111.57 11.1875C112.343 11.1875 112.967 11.8109 112.967 12.5814V13.0213C113.372 12.068 114.035 11.1875 114.863 11.1875C115.727 11.1875 116.223 11.756 116.223 12.5443C116.223 13.2784 115.745 13.7189 115.174 13.8475C113.759 14.178 112.967 15.26 112.967 17.2414V19.8464C112.967 20.6169 112.343 21.241 111.57 21.241C110.798 21.241 110.172 20.6169 110.172 19.8464V12.5814ZM117.07 9.02187C117.07 8.25133 117.694 7.62793 118.467 7.62793C119.24 7.62793 119.865 8.25133 119.865 9.02187V19.8464C119.865 20.6169 119.24 21.241 118.467 21.241C117.694 21.241 117.07 20.6169 117.07 19.8464V9.02187ZM122.091 23.8644C121.685 23.7181 121.207 23.3874 121.207 22.7091C121.207 22.03 121.741 21.5709 122.311 21.5709C122.531 21.5709 122.661 21.608 122.771 21.6444C123.009 21.718 123.157 21.755 123.36 21.755C123.855 21.755 124.095 21.6629 124.353 21.1675L124.445 20.9475L121.079 13.1684C121.006 12.9849 120.932 12.71 120.932 12.5265C120.932 11.7375 121.539 11.1875 122.311 11.1875C123.009 11.1875 123.414 11.5725 123.653 12.2323L125.787 17.9569L127.847 12.2508C128.067 11.6645 128.471 11.1875 129.19 11.1875C129.906 11.1875 130.513 11.7375 130.513 12.4714C130.513 12.6922 130.439 13.0035 130.384 13.1321L126.945 21.3695C126.117 23.369 125.291 24.1215 123.617 24.1215C122.991 24.1215 122.55 24.0301 122.091 23.8644Z" fill="black"/>
<path d="M15.8253 0.96521C7.41885 0.96521 0.603516 7.787 0.603516 16.2027H31.0473C31.0473 7.787 24.2324 0.96521 15.8253 0.96521Z" fill="#4CA385"/>
<path d="M15.8253 31.4401C24.2324 31.4401 31.0473 24.6178 31.0473 16.2027H0.603516C0.603516 24.6178 7.41885 31.4401 15.8253 31.4401Z" fill="#4CA385"/>
<g filter="url(#filter0_d_3_616)">
<path fill-rule="evenodd" clip-rule="evenodd" d="M18.8287 18.2681C18.677 18.2681 18.5272 18.3017 18.3898 18.3665C18.1829 18.464 18.0142 18.6275 17.9101 18.8314C17.8061 19.0353 17.7726 19.268 17.8149 19.4931C17.9047 19.9918 18.3733 20.3335 18.8799 20.3335H20.4746L21.3992 20.2037C19.9199 22.3763 17.3516 23.3756 14.5434 22.9346C12.2578 22.5751 10.2956 21.0275 9.46302 18.8651C7.58417 13.9563 11.1655 9.2697 15.8319 9.2697C18.2645 9.2697 20.3967 10.6952 21.6198 12.416V12.4534C21.7739 12.6803 22.0115 12.8369 22.2806 12.8889C22.5497 12.9409 22.8284 12.884 23.0558 12.7308C23.2674 12.5843 23.4157 12.3629 23.4709 12.1114C23.5261 11.8598 23.4839 11.5966 23.3531 11.3749H23.3608C22.4968 10.0202 21.2837 8.92372 19.8494 8.20096C18.4153 7.47821 16.8129 7.1559 15.2111 7.26798C10.7636 7.56792 7.16201 11.2137 6.90628 15.6706C6.60901 20.8579 10.7195 25.0934 15.8319 25.0934C17.1078 25.0984 18.3697 24.827 19.5309 24.2981C20.6923 23.7691 21.7256 22.9949 22.5599 22.0286L22.366 23.1161V24.0982C22.366 24.6041 22.7067 25.0738 23.2057 25.1636C23.3548 25.1918 23.5083 25.1867 23.6552 25.1488C23.8023 25.1108 23.939 25.0408 24.0559 24.9438C24.1728 24.8469 24.2668 24.7253 24.3314 24.5878C24.3958 24.4502 24.4293 24.3001 24.4293 24.1482V18.2681H18.8287Z" fill="white"/>
</g>
</g>
<defs>
<filter id="filter0_d_3_616" x="6.36979" y="7.24622" width="18.5807" height="19.369" filterUnits="userSpaceOnUse" color-interpolation-filters="sRGB">
<feFlood flood-opacity="0" result="BackgroundImageFix"/>
<feColorMatrix in="SourceAlpha" type="matrix" values="0 0 0 0 0 0 0 0 0 0 0 0 0 0 0 0 0 0 127 0" result="hardAlpha"/>
<feOffset dy="0.912323"/>
<feGaussianBlur stdDeviation="0.260663"/>
<feColorMatrix type="matrix" values="0 0 0 0 0 0 0 0 0 0 0 0 0 0 0 0 0 0 0.15 0"/>
<feBlend mode="normal" in2="BackgroundImageFix" result="effect1_dropShadow_3_616"/>
<feBlend mode="normal" in="SourceGraphic" in2="effect1_dropShadow_3_616" result="shape"/>
</filter>
<clipPath id="clip0_3_616">
<rect width="130" height="32" fill="white" transform="translate(0.603516 0.202698)"/>
</clipPath>
</defs>
</svg>
