<svg width="166" height="40" viewBox="0 0 166 40" fill="none" xmlns="http://www.w3.org/2000/svg">
<g clip-path="url(#clip0_3_612)">
<path d="M21.5316 0.918457L34.0597 7.95302C35.808 8.93464 36.889 10.7757 36.889 12.7714V26.634C36.889 28.6297 35.808 30.4707 34.0597 31.4524L21.5316 38.4869C19.8319 39.4412 17.7537 39.4412 16.054 38.4869L3.52591 31.4524C1.77771 30.4707 0.696655 28.6297 0.696655 26.634V12.7714C0.696655 10.7757 1.77771 8.93464 3.52591 7.95302L16.054 0.918457C17.7537 -0.0358886 19.8319 -0.0358886 21.5316 0.918457ZM2.78468 12.8275V26.634C2.78468 27.8729 3.45701 29.018 4.54774 29.6304L16.8979 36.565C17.0579 36.627 17.2283 36.6591 17.4009 36.6591C18.1696 36.6591 18.7928 36.0355 18.7928 35.2663V24.1068C18.7928 22.2881 17.7811 20.6206 16.1685 19.7816L15.2492 19.3033C15.0324 19.2109 14.8183 19.1098 14.6075 18.9997L2.78468 12.8275ZM15.7371 17.7648C17.9561 18.9232 19.6355 18.9232 21.8546 17.7648L33.8486 11.0272C33.5533 10.3505 33.041 9.77317 32.3709 9.39686L20.5099 2.74047C19.4449 2.14249 18.1408 2.14249 17.0758 2.74047L5.23731 9.39686C4.56711 9.77317 4.05489 10.3505 3.75953 11.0272L15.7371 17.7648ZM18.7928 5.0777C21.4028 5.0777 23.5335 6.36121 23.659 7.97402L23.6649 10.7362C23.6649 12.4189 21.4836 13.783 18.7928 13.783C16.102 13.783 13.9208 12.4189 13.9208 10.7362V7.97402C14.0521 6.36121 16.1828 5.0777 18.7928 5.0777ZM18.7933 9.9527C21.0536 9.9527 22.8859 9.036 22.8859 7.9052C22.8859 6.77439 21.0536 5.8577 18.7933 5.8577C16.5331 5.8577 14.7008 6.77439 14.7008 7.9052C14.7008 9.036 16.5331 9.9527 18.7933 9.9527Z" fill="#5A45FF"/>
<path fill-rule="evenodd" clip-rule="evenodd" d="M56.0815 20.7494C56.0815 22.3115 56.483 23.5668 57.2859 24.5151C58.0887 25.4636 59.1481 25.9377 60.4639 25.9377C61.7351 25.9377 62.7721 25.458 63.575 24.4985C64.3779 23.5388 64.7794 22.2781 64.7794 20.716C64.7794 19.1761 64.3891 17.9488 63.6085 17.0339C62.828 16.1189 61.7909 15.6615 60.4973 15.6615C59.2038 15.6615 58.1446 16.1245 57.3193 17.0506C56.4942 17.9768 56.0815 19.2097 56.0815 20.7494ZM68.526 4.71572V28.9503H66.3335C65.753 28.9503 65.2215 28.6244 64.9579 28.1069C64.8165 27.8293 64.7459 27.5595 64.7459 27.2972C64.2955 27.8123 63.9375 28.2448 63.09 28.7135C62.2424 29.1821 61.1218 29.352 60.0291 29.352C57.7096 29.352 55.8251 28.5376 54.3754 26.9085C52.9259 25.2794 52.201 23.2264 52.201 20.7494C52.201 18.3617 52.9315 16.3421 54.3922 14.6907C55.853 13.0394 57.7096 12.2137 59.9622 12.2137C61.2556 12.2137 62.2983 12.448 63.09 12.9167C63.8816 13.3853 64.4337 13.9321 64.7459 14.5568V4.71572H68.526ZM82.3729 12.448V16.3979H81.8738C78.9522 16.3979 77.4914 17.9934 77.4914 21.1845V28.9503H73.6109V12.6489H76.1275C76.5739 12.6489 76.9695 12.9368 77.1068 13.3619L77.4914 14.5518C77.6767 14.1655 78.1914 13.3081 79.092 12.878C79.9926 12.448 81.0375 12.448 82.1079 12.448H82.3729ZM84.5474 24.5319C84.5474 23.1483 84.999 22.0381 85.9022 21.2013C86.8054 20.3645 87.9931 19.8345 89.4651 19.6114L93.6466 18.9753C94.4495 18.8638 94.8509 18.4732 94.8509 17.8037C94.8509 17.0674 94.5945 16.4705 94.0816 16.013C93.5686 15.5555 92.7991 15.3267 91.7732 15.3267C90.7919 15.3267 90.0114 15.6001 89.4315 16.1469C88.8517 16.6935 88.5172 17.402 88.428 18.2724L84.9308 18.239C85.087 16.7661 85.7406 14.7409 86.9895 13.7033C88.2383 12.6656 89.8218 12.1468 91.7399 12.1468C94.1038 12.1468 95.8489 12.7158 96.9752 13.8539C98.1015 14.992 98.6645 16.4537 98.6645 18.239V26.3394C98.6645 27.4106 98.7314 28.2808 98.8653 28.9503H96.7786C96.558 28.9503 96.3393 28.9098 96.1334 28.8309C95.4414 28.5653 95.0953 28.133 95.0953 27.5342C94.3235 28.8216 92.3419 29.4524 90.0671 29.4524C88.4169 29.4524 87.0843 28.9671 86.0696 27.9964C85.0548 27.0257 84.5474 25.8708 84.5474 24.5319ZM90.8031 26.4064C92.0075 26.4064 92.9832 26.0772 93.7302 25.4189C94.4774 24.7606 94.8509 23.6839 94.8509 22.1888V21.4523L90.6024 22.0884C89.1527 22.3338 88.428 23.0702 88.428 24.2976C88.428 24.8778 88.6398 25.3743 89.0636 25.7872C89.4873 26.1999 90.0671 26.4064 90.8031 26.4064ZM110.574 8.54454C109.927 8.54454 109.364 8.72864 108.884 9.09685C108.405 9.46505 108.165 10.1066 108.165 11.0216V12.6489H111.945V16.0297H108.165V28.9503H104.251V16.0297H101.408V12.6489H102.524C103.478 12.6489 104.251 11.8753 104.251 10.9211C104.251 9.11357 104.775 7.6854 105.823 6.63656C106.872 5.58773 108.243 5.06333 109.938 5.06333H111.945V8.54454H110.574ZM121.075 7.72831V12.7158H124.454V16.1635H121.075V23.7285C121.075 24.4426 121.243 24.9614 121.577 25.285C121.912 25.6085 122.436 25.7704 123.149 25.7704H123.682V29.2181H122.112C120.596 29.2181 119.403 28.7886 118.533 27.9294C117.663 27.0703 117.228 25.8819 117.228 24.3646V16.1635H114.218V12.7158H115.054C115.879 12.7158 116.503 12.4815 116.927 12.0129C117.351 11.5443 117.563 10.9306 117.563 10.1718V7.72831H121.075ZM127.599 4.63847H131.378V14.6135C131.692 13.9886 132.34 13.4754 133.131 13.0068C133.924 12.5381 135.183 12.2343 136.477 12.2343C138.729 12.2343 140.529 12.9621 141.99 14.6135C143.451 16.2649 143.939 18.3436 143.939 20.7313C143.939 23.2085 143.456 25.2022 142.006 26.8312C140.557 28.4602 138.538 29.3572 136.219 29.3572C135.127 29.3572 134.139 29.1049 133.292 28.6362C132.445 28.1676 131.829 27.735 131.378 27.22C131.378 27.4822 131.308 27.7521 131.167 28.0297C130.903 28.5472 130.372 28.8731 129.791 28.8731H127.599V4.63847ZM138.831 24.5319C139.656 23.5946 140.069 22.3338 140.069 20.7494C140.069 19.165 139.667 17.921 138.865 17.0171C138.062 16.1133 137.003 15.6615 135.687 15.6615C134.415 15.6615 133.368 16.1133 132.543 17.0171C131.716 17.921 131.304 19.165 131.304 20.7494C131.304 22.3115 131.716 23.5612 132.543 24.4985C133.368 25.4356 134.415 25.9043 135.687 25.9043C136.981 25.9043 138.028 25.4468 138.831 24.5319ZM147.729 16.4828H146.126V12.6205H149.986V12.6489H151.577V28.9503H147.729V16.4828ZM147.863 8.69902C147.373 8.20809 147.127 7.61673 147.127 6.92495C147.127 6.23317 147.373 5.63624 147.863 5.13414C148.354 4.63204 148.945 4.38098 149.636 4.38098C150.35 4.38098 150.952 4.62645 151.443 5.11739C151.933 5.60834 152.179 6.21085 152.179 6.92495C152.179 7.61673 151.933 8.20809 151.443 8.69902C150.952 9.18997 150.35 9.43543 149.636 9.43543C148.945 9.43543 148.354 9.18997 147.863 8.69902ZM161.512 7.66136V12.6489H164.89V16.0966H161.512V23.6615C161.512 24.3756 161.68 24.8944 162.014 25.218C162.349 25.5417 162.873 25.7034 163.586 25.7034H164.119V29.1512H162.549C161.033 29.1512 159.839 28.7217 158.97 27.8625C158.099 27.0033 157.665 25.815 157.665 24.2976V16.0966H154.654V12.6489H155.491C156.316 12.6489 156.94 12.4146 157.364 11.9459C157.788 11.4773 157.999 10.8636 157.999 10.1049V7.66136H161.512Z" fill="black"/>
</g>
<defs>
<clipPath id="clip0_3_612">
<rect width="165" height="39" fill="white" transform="translate(0.603638 0.202698)"/>
</clipPath>
</defs>
</svg>
