<svg width="131" height="26" viewBox="0 0 131 26" fill="none" xmlns="http://www.w3.org/2000/svg">
<g clip-path="url(#clip0_3_637)">
<path d="M114.928 12.8086C114.255 12.3692 113.522 12.051 112.827 11.6571C112.373 11.4071 111.89 11.1798 111.497 10.854C110.831 10.3086 110.967 9.22525 111.663 8.75556C112.668 8.08889 114.323 8.4601 114.505 9.82374C114.505 9.85404 114.535 9.87677 114.565 9.87677H116.077C116.115 9.87677 116.145 9.84647 116.13 9.80101C116.116 9.37207 116.011 8.95101 115.821 8.56669C115.63 8.1823 115.359 7.84366 115.026 7.57371C114.411 7.09822 113.657 6.83986 112.88 6.83887C108.889 6.83887 108.519 11.0737 110.673 12.4071C110.922 12.5586 113.031 13.6192 113.772 14.0813C114.527 14.5434 114.754 15.3919 114.437 16.051C114.134 16.6646 113.379 17.0889 112.608 17.0359C111.776 16.9904 111.126 16.5359 110.899 15.8313C110.862 15.7025 110.839 15.4525 110.839 15.354C110.837 15.3385 110.831 15.324 110.819 15.313C110.809 15.302 110.794 15.295 110.779 15.2934H109.138C109.116 15.2934 109.085 15.3237 109.085 15.354C109.085 16.5359 109.38 17.195 110.181 17.7934C110.937 18.3616 111.769 18.604 112.615 18.604C114.86 18.604 116.016 17.3313 116.243 16.0207C116.455 14.7328 116.077 13.5737 114.928 12.8086ZM43.7303 7.05856H42.2035C42.1923 7.05994 42.1815 7.06414 42.1723 7.07075C42.163 7.07737 42.1556 7.0862 42.1506 7.09644L40.8053 11.5359C40.8053 11.5519 40.7989 11.5673 40.7876 11.5787C40.7762 11.59 40.7608 11.5965 40.7448 11.5965C40.7288 11.5965 40.7134 11.59 40.7021 11.5787C40.6908 11.5673 40.6843 11.5519 40.6843 11.5359L39.339 7.09644C39.3314 7.06614 39.3087 7.05856 39.2785 7.05856H36.7768C36.7465 7.05856 36.7163 7.08887 36.7163 7.11159V18.445C36.7163 18.4753 36.7465 18.5056 36.7768 18.5056H38.4169C38.4471 18.5056 38.4774 18.4753 38.4774 18.445V9.82374C38.4774 9.75556 38.5756 9.74798 38.5907 9.80859L39.9512 14.2783L40.0494 14.5813C40.0494 14.6192 40.0721 14.6268 40.1024 14.6268H41.3646C41.3948 14.6268 41.4099 14.604 41.4175 14.5889L41.5157 14.2707L42.8762 9.80101C42.8913 9.7404 42.9896 9.75556 42.9896 9.82374V18.4374C42.9896 18.4677 43.0198 18.498 43.05 18.498H44.6901C44.7204 18.498 44.7506 18.4677 44.7506 18.4374V7.11159C44.7506 7.08887 44.7204 7.05856 44.6901 7.05856H43.7303ZM89.8198 7.05856C89.8069 7.05865 89.7949 7.06224 89.7843 7.06892C89.7737 7.07561 89.7646 7.08514 89.7593 7.09644L88.414 11.5359C88.414 11.5519 88.4079 11.5673 88.3966 11.5787C88.3853 11.59 88.3694 11.5965 88.3535 11.5965C88.3376 11.5965 88.3218 11.59 88.3104 11.5787C88.2991 11.5673 88.2931 11.5519 88.2931 11.5359L86.9477 7.09644C86.9477 7.06614 86.925 7.05856 86.8948 7.05856H84.4006C84.3704 7.05856 84.3401 7.08887 84.3401 7.11159V18.445C84.3401 18.4753 84.3704 18.5056 84.4006 18.5056H86.0407C86.0634 18.5056 86.0936 18.4753 86.0936 18.445V9.82374C86.0936 9.75556 86.1919 9.74798 86.2146 9.80859L87.575 14.2783L87.6657 14.5813C87.6808 14.6192 87.696 14.6268 87.7262 14.6268H88.9808C88.9929 14.6259 89.005 14.622 89.0156 14.6154C89.0262 14.6088 89.0353 14.5996 89.0413 14.5889L89.1396 14.2707L90.5 9.80101C90.5151 9.7404 90.6134 9.75556 90.6134 9.82374V18.4374C90.6134 18.4677 90.6436 18.498 90.6739 18.498H92.314C92.3442 18.498 92.3744 18.4677 92.3744 18.4374V7.11159C92.3744 7.08887 92.3442 7.05856 92.314 7.05856H89.8198ZM68.6646 7.05856H60.9175C60.8948 7.05856 60.8646 7.08887 60.8646 7.11159V8.53586C60.8646 8.56616 60.8948 8.59647 60.9175 8.59647H63.9181V18.445C63.9181 18.4828 63.9483 18.5131 63.971 18.5131H65.6111C65.6413 18.5131 65.6715 18.4828 65.6715 18.4525V8.58889H68.6646C68.6948 8.58889 68.725 8.55859 68.725 8.52828V7.11159C68.725 7.08887 68.7099 7.05856 68.6646 7.05856ZM78.339 18.5056H79.8355C79.8733 18.5056 79.9035 18.4601 79.8884 18.4298L76.8047 7.05856C76.8047 7.02826 76.782 7.01311 76.7518 7.01311H74.5977C74.5856 7.0152 74.5743 7.02053 74.5651 7.02853C74.5557 7.03653 74.5487 7.04691 74.5448 7.05856L71.4611 18.4222C71.446 18.4601 71.4762 18.498 71.514 18.498H73.0105C73.0407 18.498 73.0558 18.4828 73.071 18.4601L73.9628 15.1571C73.9704 15.1268 73.9931 15.1192 74.0233 15.1192H77.3186C77.3489 15.1192 77.3715 15.1343 77.3791 15.1571L78.271 18.4601C78.2861 18.4828 78.3163 18.5056 78.3314 18.5056H78.339ZM74.4239 13.498L75.6181 9.06616C75.6181 9.05003 75.6245 9.03465 75.6358 9.02328C75.6472 9.01192 75.6625 9.00556 75.6785 9.00556C75.6945 9.00556 75.71 9.01192 75.7213 9.02328C75.7326 9.03465 75.739 9.05003 75.739 9.06616L76.9332 13.498C76.9483 13.5359 76.9181 13.5737 76.8803 13.5737H74.4843C74.439 13.5737 74.4087 13.5359 74.4239 13.498ZM103.787 18.5056H105.284C105.322 18.5056 105.352 18.4601 105.344 18.4298L102.26 7.05099C102.245 7.02069 102.23 7.00553 102.2 7.00553H100.061C100.047 7.00626 100.035 7.01097 100.024 7.01906C100.013 7.02715 100.005 7.03826 100.001 7.05099L96.9169 18.4146C96.9093 18.4525 96.9396 18.4904 96.9774 18.4904H98.4663C98.4965 18.4904 98.5192 18.4753 98.5268 18.4525L99.4186 15.1495C99.4338 15.1192 99.4489 15.1116 99.4791 15.1116H102.782C102.805 15.1116 102.827 15.1268 102.835 15.1495L103.734 18.4525C103.734 18.4753 103.765 18.498 103.787 18.498V18.5056ZM99.8721 13.498L101.074 9.06616C101.078 9.05457 101.086 9.04457 101.096 9.03745C101.106 9.0304 101.118 9.02662 101.131 9.02662C101.143 9.02662 101.155 9.0304 101.165 9.03745C101.175 9.04457 101.183 9.05457 101.187 9.06616L102.389 13.498C102.389 13.5359 102.366 13.5737 102.329 13.5737H99.9326C99.8948 13.5737 99.857 13.5359 99.8721 13.498ZM51.4093 16.8237V13.3086C51.4093 13.2783 51.432 13.248 51.4622 13.248H55.8308C55.8611 13.248 55.8913 13.2177 55.8913 13.1949V11.7783C55.8897 11.7628 55.8828 11.7483 55.8718 11.7372C55.8608 11.7262 55.8463 11.7193 55.8308 11.7177H51.4698C51.4396 11.7177 51.4169 11.6874 51.4169 11.6571V8.65707C51.4169 8.62677 51.4396 8.59647 51.4698 8.59647H56.4431C56.4733 8.59647 56.5035 8.56616 56.5035 8.53586V7.12675C56.5019 7.11123 56.495 7.09675 56.484 7.08572C56.473 7.07469 56.4585 7.06778 56.4431 7.06614H49.7163C49.7009 7.06778 49.6864 7.07469 49.6754 7.08572C49.6644 7.09675 49.6575 7.11123 49.6558 7.12675V18.445C49.6558 18.4753 49.6861 18.5056 49.7163 18.5056H56.6471C56.6774 18.5056 56.7076 18.4753 56.7076 18.445V16.945C56.706 16.9294 56.699 16.915 56.6881 16.9039C56.6771 16.8929 56.6626 16.8859 56.6471 16.8843H51.4622C51.432 16.8768 51.4169 16.854 51.4169 16.8162L51.4093 16.8237ZM129.908 18.4071L124.24 12.5434C124.231 12.5327 124.226 12.5193 124.226 12.5056C124.226 12.4918 124.231 12.4784 124.24 12.4677L129.341 7.16462C129.354 7.15859 129.365 7.14762 129.369 7.13412C129.375 7.12063 129.374 7.10571 129.368 7.09266C129.362 7.07959 129.351 7.06946 129.338 7.06449C129.324 7.05952 129.309 7.06011 129.296 7.06614H127.21C127.187 7.06614 127.18 7.07372 127.172 7.08887L122.841 11.5813C122.833 11.5881 122.823 11.5926 122.813 11.5943C122.802 11.5961 122.791 11.5949 122.781 11.5911C122.771 11.5872 122.763 11.5808 122.756 11.5724C122.749 11.564 122.745 11.554 122.743 11.5434V7.12675C122.742 7.11123 122.735 7.09675 122.723 7.08572C122.713 7.07469 122.698 7.06778 122.683 7.06614H121.042C121.027 7.06778 121.012 7.07469 121.002 7.08572C120.99 7.09675 120.984 7.11123 120.982 7.12675V18.4525C120.982 18.4828 121.012 18.5131 121.042 18.5131H122.683C122.713 18.5131 122.743 18.4828 122.743 18.4525V13.4677C122.743 13.4146 122.811 13.3919 122.841 13.4298L127.754 18.4904C127.762 18.5004 127.772 18.5082 127.784 18.5131H129.878C129.916 18.5056 129.954 18.4374 129.908 18.4071Z" fill="black"/>
<path d="M25.5151 0.960266L15.5837 8.3239L17.4355 3.98299L25.5151 0.960266Z" fill="#E17726" stroke="#E17726" stroke-width="0.325028" stroke-linecap="round" stroke-linejoin="round"/>
<path d="M2.61406 0.960266L12.4547 8.38451L10.6937 3.99057L2.61406 0.960266ZM21.9402 18.0284L19.2949 22.0739L24.9559 23.6345L26.5733 18.1194L21.9402 18.0284ZM1.56348 18.1194L3.17336 23.6345L8.81928 22.0739L6.18906 18.0284L1.56348 18.1194Z" fill="#E27625" stroke="#E27625" stroke-width="0.325028" stroke-linecap="round" stroke-linejoin="round"/>
<path d="M8.51691 11.195L6.94482 13.5738L12.5378 13.8314L12.3564 7.79352L8.51691 11.2026V11.195ZM19.6123 11.2026L15.7123 7.71777L15.5838 13.8314L21.1768 13.5738L19.6123 11.2026ZM8.81924 22.0738L12.2128 20.4375L9.2954 18.1647L8.81924 22.0738ZM15.9239 20.4299L19.2948 22.0738L18.8413 18.1572L15.9239 20.4299Z" fill="#E27625" stroke="#E27625" stroke-width="0.325028" stroke-linecap="round" stroke-linejoin="round"/>
<path d="M19.2949 22.0739L15.924 20.4375L16.1961 22.6345L16.1658 23.5663L19.2949 22.0739ZM8.81934 22.0739L11.9635 23.5663L11.9408 22.6345L12.2129 20.4375L8.81934 22.0739Z" fill="#D5BFB2" stroke="#D5BFB2" stroke-width="0.325028" stroke-linecap="round" stroke-linejoin="round"/>
<path d="M12.0165 16.7029L9.21997 15.8847L11.2002 14.9756L12.024 16.7029H12.0165ZM16.1054 16.7029L16.9368 14.968L18.9246 15.8771L16.1054 16.7104V16.7029Z" fill="black" stroke="black" stroke-width="0.325028" stroke-linecap="round" stroke-linejoin="round"/>
<path d="M8.81919 22.0739L9.31047 18.0284L6.18896 18.1193L8.81919 22.0739ZM18.8186 18.0284L19.2948 22.0739L21.9401 18.1193L18.8186 18.0284ZM21.1843 13.5739L15.5913 13.8314L16.1052 16.7102L16.9366 14.9678L18.9244 15.8769L21.1843 13.5739ZM9.21977 15.8845L11.2 14.9754L12.0238 16.7026L12.5454 13.8239L6.95234 13.5739L9.21977 15.8845Z" fill="#CC6228" stroke="#CC6228" stroke-width="0.325028" stroke-linecap="round" stroke-linejoin="round"/>
<path d="M6.95239 13.5739L9.2954 18.1572L9.21982 15.8845L6.95239 13.5739ZM18.9245 15.8845L18.8338 18.1572L21.1768 13.5739L18.9245 15.8845ZM12.5454 13.8314L12.0163 16.7102L12.6814 20.1042L12.8326 15.6269L12.5454 13.8314ZM15.5838 13.8314L15.3117 15.6193L15.4477 20.1042L16.1053 16.7026L15.5838 13.8239V13.8314Z" fill="#E27525" stroke="#E27525" stroke-width="0.325028" stroke-linecap="round" stroke-linejoin="round"/>
<path d="M16.1054 16.7028L15.4479 20.1043L15.924 20.4377L18.8339 18.1649L18.9246 15.8846L16.1054 16.7028ZM9.21996 15.8846L9.29554 18.1574L12.213 20.4301L12.6816 20.1043L12.024 16.7028L9.2124 15.8846H9.21996Z" fill="#F5841F" stroke="#F5841F" stroke-width="0.325028" stroke-linecap="round" stroke-linejoin="round"/>
<path d="M16.1734 23.5665L16.1961 22.6346L15.9391 22.4225H12.1903L11.9408 22.6346L11.9635 23.5665L8.81934 22.074L9.92282 22.9831L12.1525 24.521H15.9693L18.2065 22.9756L19.2949 22.074L16.1658 23.5665H16.1734Z" fill="#C0AC9D" stroke="#C0AC9D" stroke-width="0.325028" stroke-linecap="round" stroke-linejoin="round"/>
<path d="M15.9238 20.43L15.4477 20.1042H12.6814L12.2128 20.4376L11.9407 22.6346L12.1901 22.4224H15.9389L16.1959 22.6346L15.9238 20.4376V20.43Z" fill="black" stroke="black" stroke-width="0.325028" stroke-linecap="round" stroke-linejoin="round"/>
<path d="M25.9384 8.80118L26.7698 4.74815L25.5152 0.960266L15.9164 8.08148L19.6123 11.1951L24.8274 12.7178L25.9762 11.3769L25.4774 11.0133L26.271 10.286L25.6664 9.81633L26.46 9.21027L25.9309 8.80118H25.9384ZM1.35938 4.74057L2.20589 8.80118L1.6617 9.20269L2.47042 9.80875L1.86577 10.286L2.65182 11.0133L2.15298 11.3769L3.30182 12.7178L8.51693 11.2027L12.2129 8.0739L2.61403 0.960266L1.35938 4.74057Z" fill="#763E1A" stroke="#763E1A" stroke-width="0.325028" stroke-linecap="round" stroke-linejoin="round"/>
<path d="M24.8274 12.718L19.6123 11.2029L21.1844 13.5741L18.8414 18.1574L21.9402 18.1196H26.5733L24.8274 12.718ZM8.51695 11.1953L3.30185 12.718L1.56348 18.1196H6.19662L9.29544 18.1574L6.95243 13.5741L8.52451 11.1953H8.51695ZM15.5838 13.8317L15.9239 8.0741L17.4356 3.98322H10.6937L12.2053 8.0741L12.5454 13.8317L12.6739 15.6347V20.1044H15.4478L15.4629 15.6347L15.5838 13.8317Z" fill="#F5841F" stroke="#F5841F" stroke-width="0.325028" stroke-linecap="round" stroke-linejoin="round"/>
</g>
<defs>
<clipPath id="clip0_3_637">
<rect width="130" height="25" fill="white" transform="translate(0.603516 0.202698)"/>
</clipPath>
</defs>
</svg>
