<svg width="131" height="39" viewBox="0 0 131 39" fill="none" xmlns="http://www.w3.org/2000/svg">
<g clip-path="url(#clip0_3_614)">
<path fill-rule="evenodd" clip-rule="evenodd" d="M17.2784 1.4978C18.9657 -0.229003 21.7254 -0.229003 23.4118 1.4978L38.8309 17.2754C40.5164 19.0003 40.5164 21.8264 38.8309 23.5532L28.0467 34.5877C27.2579 35.3949 26.1677 35.8936 24.9649 35.8936H15.7272C14.6314 35.8936 13.6314 35.4803 12.8642 34.7981L1.86775 23.5446C0.182268 21.8187 0.182268 18.9945 1.86775 17.2677L17.2784 1.4978ZM22.9827 30.3009L21.4446 31.8749C21.332 31.9902 21.1761 32.0613 21.0043 32.0613H19.6869C19.5301 32.0613 19.3883 32.0027 19.2775 31.9047L17.7094 30.299C17.4699 30.0539 17.4699 29.6513 17.7094 29.4044L19.9075 27.1548C20.1488 26.9079 20.5432 26.9079 20.7827 27.1548L22.9827 29.4053C23.224 29.6513 23.224 30.0539 22.9827 30.3009ZM22.9827 20.8617L16.8324 27.1558C16.7188 27.2711 16.5638 27.3422 16.3929 27.3422H15.0746C14.9187 27.3422 14.7751 27.2836 14.6661 27.1856L13.0971 25.5808C12.8567 25.3338 12.8567 24.9303 13.0971 24.6852L19.9075 17.7155C20.1488 17.4695 20.5432 17.4695 20.7836 17.7155L22.9827 19.966C23.224 20.212 23.224 20.6157 22.9827 20.8617ZM22.9827 11.4224L12.221 22.4356C12.1064 22.551 11.9515 22.6221 11.7806 22.6221H10.4632C10.3073 22.6221 10.1637 22.5635 10.0548 22.4654L8.48478 20.8597C8.2444 20.6147 8.2444 20.2111 8.48478 19.9641L19.9075 8.27527C20.1488 8.02832 20.5413 8.02832 20.7827 8.27527L22.9827 10.5267C23.224 10.7727 23.224 11.1764 22.9827 11.4224Z" fill="#26A943"/>
<path d="M113.415 14.7001V8.07544H108.749V32.0835H113.415V15.4026L119.137 31.0072C119.269 31.3426 119.333 31.7125 119.333 32.0835C119.333 33.1597 118.742 34.1331 117.527 34.2677C116.607 34.3023 115.688 34.2004 114.801 34.0995V38.0355C115.753 38.1364 116.705 38.2027 117.659 38.2027C120.844 38.2027 122.487 37.0592 123.507 34.2677L130.604 14.7001H125.774L122.061 26.6032H121.996L118.15 14.7001H113.415Z" fill="black"/>
<path d="M58.7347 8.20995C57.9469 8.17635 57.0926 8.07544 56.2715 8.07544C52.4596 8.07544 50.5871 10.2615 50.5871 13.3539V14.7001H47.7937V17.8933H50.5871V32.0835H55.2521V17.8933H58.4729V14.7001H55.2521V13.6565C55.2521 12.2113 55.7451 11.6722 57.0255 11.6722C57.5852 11.6722 58.1759 11.7078 58.7347 11.775V8.20995Z" fill="black"/>
<path fill-rule="evenodd" clip-rule="evenodd" d="M107.729 8.07544V32.0835H103.292V29.8628H103.227C102.143 31.7472 100.27 32.5534 98.0685 32.5534C93.4104 32.5534 90.923 28.8595 90.5089 24.5516H78.2888C78.4211 27.6113 79.8324 28.9556 82.4625 28.9556C84.3332 28.9556 85.8466 27.7775 86.1418 26.7041H90.2498C88.9333 30.84 86.1418 32.5534 82.2974 32.5534C77.331 32.5534 74.117 29.315 73.6768 24.5516H61.6621C61.7939 27.6113 63.2061 28.9556 65.8344 28.9556C67.7064 28.9556 69.2185 27.7775 69.5132 26.7041H73.6202C72.3075 30.84 69.5132 32.5534 65.6706 32.5534C60.3128 32.5534 56.9944 28.7875 56.9944 23.4072C56.9944 18.196 60.5103 14.2293 65.6706 14.2293C70.3506 14.2293 73.0934 17.4888 73.7772 21.566C74.5038 17.2898 77.7679 14.2293 82.2974 14.2293C87.2091 14.2293 89.987 17.8184 90.4901 22.1753C90.8478 17.9279 93.3588 14.2293 97.9708 14.2293C99.9738 14.2293 101.946 15.1027 102.997 16.8171H103.064V8.07544H107.729ZM65.5393 17.8261C62.515 17.8261 61.761 20.1804 61.6621 21.5257H69.2513C68.8239 19.1031 67.8063 17.8261 65.5393 17.8261ZM78.2888 21.5257C78.3883 20.1804 79.1432 17.8261 82.166 17.8261C84.4326 17.8261 85.4525 19.1031 85.8786 21.5257H78.2888ZM103.227 23.3409C103.227 20.5167 102.242 17.8261 99.2179 17.8261C96.1645 17.8261 95.1118 20.5503 95.1118 23.3745C95.1118 26.0987 96.3269 28.9556 99.2179 28.9556C102.275 28.9556 103.227 26.1987 103.227 23.3409Z" fill="black"/>
</g>
<defs>
<clipPath id="clip0_3_614">
<rect width="130" height="38" fill="white" transform="translate(0.603638 0.202698)"/>
</clipPath>
</defs>
</svg>
