<svg width="131" height="20" viewBox="0 0 131 20" fill="none" xmlns="http://www.w3.org/2000/svg">
<g clip-path="url(#clip0_3_618)">
<path fill-rule="evenodd" clip-rule="evenodd" d="M3.83511 19.1872V16.0424H18.0169V19.1872H3.83511ZM15.0046 3.46307H6.84612L10.926 9.09755L15.0046 3.46307ZM21.1684 0.318237L10.926 14.47L0.683594 0.318237H21.1684Z" fill="#00B3E6"/>
<path d="M33.6681 16.0435V10.996H28.8174V16.0435H25.8931V3.46417H28.8174V8.38713H33.6681V3.46155H36.5925V16.0409L33.6681 16.0435Z" fill="black"/>
<path d="M40.2822 16.0435V3.46417H48.27V6.13859H43.2066V8.38714H47.817V10.9279H43.2066V13.3822H48.27V16.0435H40.2822Z" fill="black"/>
<path d="M51.7539 16.0435V3.46417H54.6769V13.3848H59.7351V16.0461L51.7539 16.0435Z" fill="black"/>
<path d="M62.1895 16.0435V3.46417H65.1177V13.3848H70.1746V16.0461L62.1895 16.0435Z" fill="black"/>
<path d="M78.4235 16.2492C74.5183 16.2492 72.0247 13.4516 72.0247 9.76032C72.0247 6.06908 74.6391 3.25446 78.5443 3.25446C82.4496 3.25446 84.9432 6.05335 84.9432 9.76032C84.9432 13.4673 82.3117 16.2492 78.4235 16.2492ZM78.4721 5.86466C76.4775 5.86466 75.1355 7.49473 75.1355 9.76032C75.1355 12.0259 76.4775 13.6573 78.4721 13.6573C80.4668 13.6573 81.8101 12.0089 81.8101 9.76032C81.8101 7.51177 80.4707 5.86466 78.4721 5.86466Z" fill="black"/>
<path d="M91.2619 16.2492C89.8345 16.2492 88.1104 15.6831 87.0139 14.9611L87.8215 12.3181C88.8365 13.0558 90.1615 13.5368 91.3486 13.5368C92.3807 13.5368 92.7759 13.0558 92.7759 12.4387C92.7759 11.7835 92.449 11.3393 90.5226 10.5675C88.3034 9.67514 87.5326 8.38708 87.5326 6.87625C87.5326 5.04177 89.0283 3.25446 91.9697 3.25446C93.3458 3.25446 94.7575 3.73535 95.4967 4.23328L94.7548 6.84218C94.0313 6.34425 92.8626 5.81225 91.9671 5.81225C90.9008 5.81225 90.4714 6.31018 90.4714 6.82514C90.4714 7.64935 91.107 7.92452 92.6906 8.5928C95.0463 9.58866 95.7515 10.7221 95.7515 12.3351C95.7515 14.3439 94.29 16.2492 91.2619 16.2492Z" fill="black"/>
<path d="M98.8875 16.0435V3.46417H101.812V16.0435H98.8875Z" fill="black"/>
<path d="M116.39 8.97149V14.9794C114.945 15.8356 113.289 16.2751 111.608 16.2492C107.91 16.2492 104.986 13.6062 104.986 9.76032C104.986 5.91445 107.944 3.25446 111.763 3.25446C113.415 3.25446 114.738 3.68425 115.994 4.3368L114.773 6.68756C113.904 6.23135 112.939 5.99002 111.957 5.9839C109.445 5.9839 108.105 7.54583 108.105 9.76032C108.105 12.1635 109.721 13.6573 111.781 13.6573C112.71 13.6573 113.175 13.5538 113.639 13.314V11.4598H111.109V8.97018L116.39 8.97149Z" fill="black"/>
<path d="M130.278 16.2833L122.675 9.46943V16.0435H119.75V3.28985L120.144 3.2204L127.645 9.98309V3.4615H130.569V16.2321L130.278 16.2833Z" fill="black"/>
</g>
<defs>
<clipPath id="clip0_3_618">
<rect width="130" height="19" fill="white" transform="translate(0.603516 0.202698)"/>
</clipPath>
</defs>
</svg>
