<svg width="131" height="31" viewBox="0 0 131 31" fill="none" xmlns="http://www.w3.org/2000/svg">
<g clip-path="url(#clip0_700_5141)">
<path fill-rule="evenodd" clip-rule="evenodd" d="M101.751 20.8905C105.102 20.8905 107.827 18.2276 107.827 14.9546C107.827 11.6814 105.102 9.01862 101.751 9.01862C98.4014 9.01862 95.6757 11.6814 95.6757 14.9546C95.6757 18.2276 98.4014 20.8905 101.751 20.8905ZM107.827 0.202698H107.992H110.706V23.7227H107.827V21.3743C106.166 22.8786 104.024 23.7026 101.751 23.7026C96.8144 23.7026 92.7976 19.7782 92.7976 14.9546C92.7976 10.1307 96.8144 6.20642 101.751 6.20642C104.024 6.20642 106.166 7.03034 107.827 8.53472V0.202698ZM42.0577 20.7868C45.4078 20.7868 48.1333 18.124 48.1333 14.8509C48.1333 11.5779 45.4078 8.91512 42.0577 8.91512C38.7074 8.91512 35.9819 11.5779 35.9819 14.8509C35.9819 18.124 38.7074 20.7868 42.0577 20.7868ZM35.9819 8.4314C37.6431 6.92702 39.7856 6.10297 42.0577 6.10297C46.9949 6.10297 51.0117 10.0273 51.0117 14.8509C51.0117 19.6746 46.9949 23.599 42.0577 23.599C39.7856 23.599 37.6431 22.7751 35.9819 21.2706V29.6027H33.1035V6.0827H35.9819V8.4314ZM56.5037 13.4851C57.1515 10.8268 59.5653 8.91812 62.3186 8.91812C65.036 8.91812 67.3122 10.7861 67.9188 13.4851H56.5037ZM62.3186 6.0827C57.4553 6.0827 53.499 10.0395 53.499 14.9027C53.499 19.7661 57.4553 23.7227 62.3186 23.7227C65.042 23.7227 67.5415 22.7031 69.1773 20.9253L70.0271 20.0011L70.1367 19.8819L70.0175 19.7719L68.1698 18.0723L68.0506 17.9625L67.9405 18.0817L67.0907 19.006C66.0068 20.184 64.2229 20.8875 62.3186 20.8875C59.5653 20.8875 57.1517 18.9787 56.5037 16.3203H70.9094V14.9027C70.9094 9.9569 67.1358 6.0827 62.3186 6.0827ZM127.725 14.9028C127.725 18.2027 125 20.8874 121.649 20.8874C118.299 20.8874 115.573 18.2027 115.573 14.9028C115.573 11.6027 118.299 8.918 121.649 8.918C125 8.918 127.725 11.6027 127.725 14.9028ZM121.649 6.0827C116.712 6.0827 112.695 10.0393 112.695 14.9028C112.695 19.7661 116.712 23.7227 121.649 23.7227C126.587 23.7227 130.604 19.7661 130.604 14.9028C130.604 10.0393 126.587 6.0827 121.649 6.0827ZM81.6044 6.0827C79.6044 6.0827 77.6989 6.842 76.1991 8.22878V6.0827H73.3969V23.7227H76.1991V14.7207C76.1991 11.509 78.624 8.89598 81.6044 8.89598C84.5853 8.89598 87.0108 11.509 87.0108 14.7207V23.7227H89.8124V14.7207C89.8124 9.95774 86.1303 6.0827 81.6044 6.0827Z" fill="black"/>
<path fill-rule="evenodd" clip-rule="evenodd" d="M0.603516 17.0026H14.1451V30.2027L27.6868 17.0026V3.80267H14.1451L0.603516 17.0026Z" fill="#FF4876"/>
</g>
<defs>
<clipPath id="clip0_700_5141">
<rect width="130" height="30" fill="white" transform="translate(0.603516 0.202698)"/>
</clipPath>
</defs>
</svg>
