<svg width="21" height="22" viewBox="0 0 21 22" fill="none" xmlns="http://www.w3.org/2000/svg">
<path d="M5.42463 18.2155C5.18318 18.2151 4.94601 18.1518 4.73645 18.0319C4.26455 17.7645 3.97119 17.2454 3.97119 16.6819L3.97119 5.27772C3.97119 4.71262 4.26455 4.19511 4.73645 3.9277C4.951 3.8044 5.19474 3.74098 5.44219 3.7441C5.68964 3.74721 5.9317 3.81673 6.14309 3.9454L15.8897 9.7796C16.0928 9.90697 16.2603 10.0838 16.3764 10.2936C16.4924 10.5034 16.5533 10.7392 16.5533 10.979C16.5533 11.2188 16.4924 11.4546 16.3764 11.6644C16.2603 11.8742 16.0928 12.051 15.8897 12.1784L6.14152 18.0142C5.92519 18.145 5.67741 18.2145 5.42463 18.2155Z" fill="#828282"/>
</svg>
