<svg width="1813" height="1639" viewBox="0 0 1813 1639" fill="none" xmlns="http://www.w3.org/2000/svg">
<path d="M616.408 43.6518C674.206 -14.1458 767.914 -14.1458 825.712 43.6518L1335.22 553.164C1412.67 630.612 1382.08 762.433 1278.44 797.861L424.784 1089.66C371.358 1107.93 312.197 1094.2 272.27 1054.28L43.6676 825.712C-14.1374 767.916 -14.141 674.201 43.6597 616.4L616.408 43.6518Z" fill="#4B0082"/>
<path d="M1630.15 555.413C1698.24 594.721 1723.71 680.403 1688.15 750.52L1397.31 1324.06C1334.45 1448.02 1119.63 1433.62 1054.44 1310.88C1015.03 1236.66 966.401 1154.37 906.724 1066.5C766.512 860.055 657.305 723.999 589.651 645.493C545.408 594.152 535.739 519.422 569.622 460.724L719.728 200.687C760.594 129.893 851.114 105.635 921.906 146.506L1630.15 555.413Z" fill="#4B0082"/>
</svg>
