<svg width="21" height="21" viewBox="0 0 21 21" fill="none" xmlns="http://www.w3.org/2000/svg">
<path d="M5.42463 17.7323C5.18318 17.7318 4.94601 17.6685 4.73645 17.5486C4.26455 17.2812 3.97119 16.7621 3.97119 16.1986L3.97119 4.79447C3.97119 4.22938 4.26455 3.71187 4.73645 3.44446C4.951 3.32115 5.19474 3.25774 5.44219 3.26085C5.68964 3.26396 5.9317 3.33349 6.14309 3.46215L15.8897 9.29636C16.0928 9.42372 16.2603 9.60059 16.3764 9.81038C16.4924 10.0202 16.5533 10.256 16.5533 10.4958C16.5533 10.7355 16.4924 10.9713 16.3764 11.1811C16.2603 11.3909 16.0928 11.5678 15.8897 11.6952L6.14152 17.5309C5.92519 17.6617 5.67741 17.7313 5.42463 17.7323Z" fill="#828282"/>
</svg>
