<svg width="120" height="39" viewBox="0 0 120 39" fill="none" xmlns="http://www.w3.org/2000/svg">
<path fill-rule="evenodd" clip-rule="evenodd" d="M7.98846 3.89777C6.66785 4.82118 5.47366 5.91295 4.437 7.14195C8.67328 6.74866 14.0553 7.39086 20.3038 10.5152C26.9764 13.8514 32.3494 13.9642 36.0888 13.2429C35.7495 12.2156 35.3223 11.2283 34.8163 10.2897C30.5357 10.7411 25.0481 10.1435 18.6526 6.94587C14.5914 4.91529 11.0116 4.07882 7.98846 3.89777ZM32.3158 6.73049C28.9354 2.95358 24.0229 0.57666 18.5551 0.57666C16.9494 0.57666 15.3915 0.781682 13.9062 1.16695C15.9178 1.71582 18.0547 2.5188 20.3038 3.64337C24.9862 5.98453 29.0287 6.73835 32.3158 6.73049ZM36.8883 16.8488C32.3707 17.7408 26.1325 17.5576 18.6526 13.8177C11.6597 10.3212 6.09403 10.3653 2.3403 11.1995C2.14655 11.2425 1.95736 11.2877 1.77273 11.3348C1.28128 12.4036 0.888982 13.5275 0.607507 14.6947C0.908138 14.6144 1.21879 14.538 1.53931 14.4668C6.09323 13.4548 12.5275 13.4987 20.3038 17.3869C27.2968 20.8834 32.8625 20.8393 36.6162 20.0051C36.7448 19.9766 36.8716 19.9471 36.9962 19.9166C37.0098 19.6256 37.0167 19.3327 37.0167 19.0382C37.0167 18.2975 36.9731 17.5668 36.8883 16.8488ZM36.3934 23.8127C31.9197 24.5948 25.8631 24.2946 18.6526 20.6894C11.6597 17.193 6.09403 17.237 2.3403 18.0712C1.50709 18.2563 0.757541 18.4818 0.0963325 18.7199C0.0945298 18.8257 0.0936279 18.9319 0.0936279 19.0382C0.0936279 29.2343 8.35913 37.4998 18.5551 37.4998C27.1001 37.4998 34.2893 31.6944 36.3934 23.8127Z" fill="#4B0082"/>
</svg>
