<svg width="1731" height="1353" viewBox="0 0 1731 1353" fill="none" xmlns="http://www.w3.org/2000/svg">
<path d="M396.348 193.652C454.146 135.854 547.854 135.854 605.652 193.652L946.244 534.244C1025.56 613.558 991.255 748.833 883.731 780.77L339.9 942.297C287.85 957.757 231.513 943.473 193.116 905.082L43.6662 755.652C-14.1382 697.855 -14.1414 604.141 43.659 546.341L396.348 193.652Z" fill="#4B0082"/>
<path d="M1542 428.912C1610.09 468.221 1635.56 553.902 1600 624.02L1309.16 1197.56C1246.3 1321.52 1031.48 1307.12 966.29 1184.38C926.876 1110.17 878.25 1027.87 818.572 940C678.362 733.555 569.154 597.499 501.501 518.993C457.256 467.652 447.587 392.921 481.471 334.223L631.576 74.187C672.442 3.39289 762.963 -20.8657 833.754 20.0056L1542 428.912Z" fill="#4B0082"/>
</svg>
