<svg width="1515" height="1566" viewBox="0 0 1515 1566" fill="none" xmlns="http://www.w3.org/2000/svg">
<rect x="721" y="45" width="1106" height="1106" rx="148" transform="rotate(45 721 45)" fill="#FFC961"/>
<path d="M616.408 149.652C674.206 91.8542 767.914 91.8542 825.712 149.652L1335.22 659.164C1412.67 736.612 1382.08 868.433 1278.44 903.861L424.784 1195.66C371.358 1213.93 312.197 1200.2 272.27 1160.28L43.6676 931.712C-14.1374 873.916 -14.141 780.201 43.6597 722.4L616.408 149.652Z" fill="#4B0082"/>
<path d="M1397.43 428.912C1465.51 468.221 1490.98 553.902 1455.43 624.02L1164.59 1197.56C1101.73 1321.52 886.908 1307.12 821.718 1184.38C782.304 1110.17 733.677 1027.87 674 940C533.789 733.555 424.582 597.499 356.928 518.993C312.684 467.652 303.015 392.921 336.898 334.223L487.004 74.187C527.87 3.39289 618.391 -20.8657 689.182 20.0056L1397.43 428.912Z" fill="#4B0082"/>
</svg>
