<svg width="1731" height="1347" viewBox="0 0 1731 1347" fill="none" xmlns="http://www.w3.org/2000/svg">
<path d="M396.348 183.652C454.146 125.854 547.854 125.854 605.652 183.652L946.244 524.244C1025.56 603.558 991.255 738.833 883.731 770.77L339.9 932.297C287.85 947.757 231.513 933.473 193.116 895.082L43.6662 745.652C-14.1382 687.855 -14.1414 594.141 43.659 536.341L396.348 183.652Z" fill="#4B0082"/>
<path d="M1575 491.912C1643.09 531.221 1668.56 616.902 1633 687.02L1342.16 1260.56C1279.3 1384.52 1064.48 1370.12 999.29 1247.38C959.875 1173.17 911.249 1090.87 851.572 1003C711.361 796.555 602.154 660.499 534.5 581.993C490.256 530.652 480.587 455.921 514.47 397.223L664.576 137.187C705.442 66.3929 795.962 42.1343 866.753 83.0056L1575 491.912Z" fill="#4B0082"/>
</svg>
