<svg width="30" height="30" viewBox="0 0 30 30" fill="none" xmlns="http://www.w3.org/2000/svg">
<circle cx="15" cy="15" r="15" fill="#77F393"/>
<path d="M10.2964 23.1367C9.93217 23.1367 9.64074 23.0639 9.27646 22.991C9.0579 22.9181 8.83933 22.7724 8.69361 22.6267L8.62076 22.5539C8.5479 22.481 8.47505 22.3353 8.47505 22.2624C8.47505 22.1167 8.5479 22.0439 8.69361 21.971C9.27646 21.6796 9.78646 21.1696 10.0779 20.5868C10.1507 20.5139 10.2236 20.441 10.2236 20.3682C8.18362 19.1296 6.94507 17.1625 6.94507 15.0497C6.94507 11.4069 10.7336 8.34692 15.3235 8.34692C19.9135 8.34692 23.702 11.4069 23.702 15.0497C23.702 18.6925 19.9135 21.7524 15.3235 21.7524C14.8864 21.7524 14.3764 21.7524 13.9393 21.6796C12.8464 22.6267 11.535 23.1367 10.2964 23.1367Z" fill="white"/>
</svg>
