<svg width="30" height="30" viewBox="0 0 30 30" fill="none" xmlns="http://www.w3.org/2000/svg">
<circle cx="15" cy="15" r="15" fill="#FFAF63"/>
<path d="M19.2298 21.4526H9.98622C9.25075 21.4526 8.54541 21.16 8.02535 20.6391C7.5053 20.1182 7.21313 19.4118 7.21313 18.6751V15.8976L10.3976 12.7081C10.5101 12.8978 10.6448 13.0734 10.7987 13.2312L11.6455 14.0793L9.06186 16.8234H11.8349V17.7493C11.8349 17.9948 11.9323 18.2303 12.1057 18.404C12.279 18.5776 12.5142 18.6751 12.7593 18.6751H16.4568C16.9679 18.6751 17.3811 18.2613 17.3811 17.7493V16.8234H20.1542L17.5706 14.0793L18.4173 13.2312C18.5714 13.0736 18.7063 12.8983 18.8194 12.709L22.0029 15.8976V18.6751C22.0029 19.4118 21.7108 20.1182 21.1907 20.6391C20.6707 21.16 19.9653 21.4526 19.2298 21.4526ZM15.2616 13.7737C15.0813 13.9543 14.8447 14.045 14.608 14.045C14.3714 14.045 14.1348 13.9543 13.9545 13.7737L12.1058 11.9221C11.9768 11.7924 11.8889 11.6274 11.8532 11.4478C11.8176 11.2683 11.8356 11.0822 11.9052 10.9129C11.9753 10.7439 12.0939 10.5995 12.2459 10.498C12.3979 10.3965 12.5766 10.3424 12.7593 10.3426H13.6837V7.56508C13.6899 7.32367 13.79 7.09425 13.9627 6.9257C14.1354 6.75716 14.3669 6.66284 14.608 6.66284C14.8491 6.66284 15.0807 6.75716 15.2534 6.9257C15.4261 7.09425 15.5262 7.32367 15.5324 7.56508V10.3426H16.4568C16.8302 10.3426 17.1685 10.5685 17.3109 10.9138C17.3806 11.0829 17.3988 11.269 17.3631 11.4484C17.3274 11.6278 17.2394 11.7927 17.1103 11.9221L15.2616 13.7737Z" fill="white"/>
</svg>
