<svg width="30" height="30" viewBox="0 0 30 30" fill="none" xmlns="http://www.w3.org/2000/svg">
<circle cx="15" cy="15" r="15" fill="#77F393"/>
<path d="M10.2964 23.1161C9.93217 23.1161 9.64074 23.0432 9.27646 22.9704C9.0579 22.8975 8.83933 22.7518 8.69361 22.6061L8.62076 22.5332C8.5479 22.4604 8.47505 22.3147 8.47505 22.2418C8.47505 22.0961 8.5479 22.0232 8.69361 21.9504C9.27646 21.659 9.78646 21.149 10.0779 20.5661C10.1507 20.4933 10.2236 20.4204 10.2236 20.3476C8.18362 19.109 6.94507 17.1419 6.94507 15.0291C6.94507 11.3863 10.7336 8.32629 15.3235 8.32629C19.9135 8.32629 23.702 11.3863 23.702 15.0291C23.702 18.6719 19.9135 21.7318 15.3235 21.7318C14.8864 21.7318 14.3764 21.7318 13.9393 21.659C12.8464 22.6061 11.535 23.1161 10.2964 23.1161Z" fill="white"/>
</svg>
