<svg width="30" height="30" viewBox="0 0 30 30" fill="none" xmlns="http://www.w3.org/2000/svg">
<circle cx="15" cy="15" r="15" fill="#ED4546"/>
<path d="M15.2308 13.6614L22.7917 8.80419C22.4877 8.57619 22.1186 8.45176 21.7386 8.44922H8.723C8.34303 8.45176 7.9739 8.57619 7.66992 8.80419L15.2308 13.6614Z" fill="white"/>
<path d="M15.5479 14.8617L15.4473 14.9091H15.4C15.3455 14.9334 15.2877 14.9493 15.2284 14.9564C15.1793 14.9626 15.1297 14.9626 15.0805 14.9564H15.0332L14.9326 14.9091L7.00496 9.78564C6.96709 9.92854 6.94721 10.0756 6.9458 10.2234V18.5061C6.9458 18.9768 7.13279 19.4283 7.46564 19.7611C7.79849 20.094 8.24993 20.2809 8.72065 20.2809H21.7362C22.207 20.2809 22.6584 20.094 22.9913 19.7611C23.3241 19.4283 23.5111 18.9768 23.5111 18.5061V10.2234C23.5097 10.0756 23.4898 9.92854 23.4519 9.78564L15.5479 14.8617Z" fill="white"/>
</svg>
