<svg width="935" height="934" viewBox="0 0 935 934" fill="none" xmlns="http://www.w3.org/2000/svg">
<path d="M641.32 577.632C663.398 543.155 674.758 502.905 673.961 461.972C673.164 421.039 660.247 381.261 636.844 347.669C613.44 314.077 580.601 288.18 542.479 273.252C504.357 258.323 462.664 255.035 422.673 263.802C382.682 272.569 346.189 292.998 317.808 322.505C289.427 352.013 270.434 389.273 263.23 429.575C256.026 469.877 260.934 511.41 277.335 548.922C293.735 586.435 320.891 618.241 355.368 640.32" stroke="#4057BF" stroke-opacity="0.06" stroke-width="1.80361" stroke-linecap="round"/>
<path d="M145.034 129.398C72.8525 198.445 24.7401 288.838 7.77638 387.276C-9.18732 485.713 5.89356 586.997 50.7999 676.222C95.7062 765.447 168.066 837.902 257.233 882.925C346.399 927.948 447.662 943.162 546.122 926.327C644.582 909.492 735.038 861.498 804.18 789.407C873.322 717.316 917.498 624.936 930.208 525.859C942.918 426.783 923.491 326.243 874.785 239.033C826.079 151.824 750.667 82.5515 659.645 41.4088" stroke="#4057BF" stroke-opacity="0.03" stroke-width="1.80361" stroke-linecap="round"/>
<path d="M753.835 297.477C716.039 233.449 657.873 183.936 588.63 156.849C519.388 129.763 443.065 126.666 371.855 148.053C300.646 169.441 238.66 214.078 195.801 274.834C152.941 335.59 131.683 408.958 135.42 483.216C139.158 557.474 167.678 628.336 216.421 684.481C265.165 740.626 331.32 778.813 404.317 792.942C477.315 807.07 552.941 796.325 619.113 762.422C685.286 728.519 738.185 673.415 769.361 605.915" stroke="#4057BF" stroke-opacity="0.03" stroke-width="1.80361" stroke-linecap="round"/>
</svg>
