<svg width="30" height="30" viewBox="0 0 30 30" fill="none" xmlns="http://www.w3.org/2000/svg">
<circle cx="15" cy="15" r="15" fill="#008EFF"/>
<path d="M15.3256 7.40997C14.364 7.37505 13.4052 7.53502 12.5069 7.88026C11.6087 8.2255 10.7896 8.74886 10.0988 9.41888C9.40809 10.0889 8.86002 10.8917 8.48759 11.779C8.11516 12.6663 7.92607 13.6198 7.93169 14.5821C7.9193 15.5812 8.11996 16.5714 8.52029 17.4868C8.92063 18.4022 9.51145 19.2218 10.2534 19.891C10.3123 19.9434 10.3603 20.007 10.3945 20.0781C10.4288 20.1491 10.4487 20.2263 10.453 20.305V21.6212C10.4571 21.7182 10.4847 21.8128 10.5334 21.8967C10.5821 21.9807 10.6506 22.0516 10.7328 22.1033C10.815 22.1549 10.9086 22.1858 11.0054 22.1933C11.1022 22.2008 11.1994 22.1846 11.2885 22.1461L12.7673 21.5028C12.8936 21.4552 13.0329 21.4552 13.1592 21.5028C13.8583 21.6915 14.5794 21.786 15.3035 21.7838C17.2096 21.7868 19.0387 21.0324 20.3886 19.6867C21.7385 18.3409 22.4985 16.5141 22.5015 14.608C22.5044 12.7019 21.75 10.8727 20.4043 9.52282C19.0586 8.17293 17.2317 7.41291 15.3256 7.40997ZM19.762 12.9259L17.5956 16.3714C17.5139 16.5012 17.4062 16.6125 17.2792 16.6985C17.1523 16.7845 17.009 16.8433 16.8582 16.8711C16.7074 16.8989 16.5525 16.8951 16.4033 16.86C16.254 16.8249 16.1137 16.7593 15.9911 16.6672L14.2609 15.3733C14.1841 15.3157 14.0907 15.2845 13.9947 15.2845C13.8987 15.2845 13.8053 15.3157 13.7286 15.3733L11.3921 17.1478C11.327 17.198 11.2462 17.2235 11.1641 17.2198C11.0821 17.2161 11.0039 17.1834 10.9437 17.1275C10.8834 17.0717 10.8448 16.9963 10.8349 16.9147C10.8249 16.8332 10.8442 16.7507 10.8893 16.682L13.0557 13.2364C13.1374 13.1067 13.2451 12.9953 13.372 12.9093C13.499 12.8233 13.6423 12.7646 13.7931 12.7368C13.9439 12.709 14.0988 12.7128 14.248 12.7478C14.3973 12.7829 14.5376 12.8486 14.6602 12.9406L16.3904 14.2346C16.4672 14.2922 16.5606 14.3233 16.6566 14.3233C16.7525 14.3233 16.8459 14.2922 16.9227 14.2346L19.2592 12.46C19.3243 12.4099 19.4051 12.3844 19.4871 12.3881C19.5692 12.3918 19.6474 12.4245 19.7076 12.4803C19.7679 12.5362 19.8065 12.6116 19.8164 12.6931C19.8264 12.7747 19.8071 12.8572 19.762 12.9259Z" fill="white"/>
</svg>
