<svg width="103" height="103" viewBox="0 0 103 103" fill="none" xmlns="http://www.w3.org/2000/svg">
<circle cx="51.5" cy="51.5" r="40.5" stroke="#FFD02A" stroke-opacity="0.58" stroke-width="18"/>
<path d="M82.415 92.6887C75.8946 97.5827 68.3056 100.859 60.272 102.247C52.2385 103.636 43.99 103.098 36.2052 100.676C28.4204 98.2552 21.3216 94.0203 15.4928 88.3202C9.66398 82.6201 5.27172 75.6177 2.6773 67.8888C0.0828745 60.16 -0.639571 51.9256 0.569386 43.8631C1.77834 35.8005 4.88416 28.1402 9.63135 21.5122C14.3785 14.8842 20.6315 9.47799 27.8758 5.73817C35.1201 1.99835 43.1487 0.0318329 51.3013 0.000383187L51.3964 24.6448C47.1451 24.6612 42.9585 25.6867 39.1808 27.6369C35.4032 29.5871 32.1425 32.4062 29.667 35.8625C27.1915 39.3187 25.572 43.3133 24.9415 47.5176C24.3111 51.7219 24.6878 56.0159 26.0407 60.0462C27.3936 64.0765 29.684 67.728 32.7235 70.7004C35.7631 73.6728 39.4648 75.8811 43.5243 77.1437C47.5838 78.4063 51.8851 78.6871 56.0743 77.9629C60.2635 77.2388 64.2209 75.5305 67.621 72.9784L82.415 92.6887Z" fill="#6640FF"/>
</svg>
