<svg width="38" height="38" viewBox="0 0 38 38" fill="none" xmlns="http://www.w3.org/2000/svg">
<circle cx="18.8792" cy="18.8791" r="18.4564" fill="#FFA656"/>
<g clip-path="url(#clip0_2678_45)">
<path d="M27.1766 15.7332C26.983 15.7269 26.7908 15.7684 26.6171 15.8542C26.4434 15.9399 26.2936 16.0672 26.1809 16.2247C26.1713 16.2384 26.1576 16.2487 26.1418 16.2541C26.126 16.2595 26.1088 16.2598 26.0929 16.2548C26.0769 16.2498 26.063 16.2398 26.053 16.2264C26.0431 16.2129 26.0378 16.1966 26.0377 16.1799V14.7386C26.0377 13.9227 25.3952 13.2361 24.5796 13.2168C24.3802 13.2117 24.1819 13.2467 23.9962 13.3195C23.8105 13.3923 23.6413 13.5015 23.4986 13.6408C23.3558 13.78 23.2423 13.9464 23.1648 14.1301C23.0874 14.3139 23.0475 14.5113 23.0475 14.7107V17.9353C23.0475 17.9562 23.0392 17.9762 23.0244 17.991C23.0097 18.0057 22.9897 18.014 22.9688 18.014H14.7893C14.7685 18.014 14.7484 18.0057 14.7337 17.991C14.7189 17.9762 14.7107 17.9562 14.7107 17.9353V14.7386C14.7107 13.9227 14.0681 13.2361 13.2525 13.2168C13.0533 13.212 12.8551 13.247 12.6696 13.3199C12.4842 13.3929 12.3151 13.5021 12.1725 13.6413C12.0299 13.7805 11.9166 13.9469 11.8392 14.1305C11.7618 14.3142 11.722 14.5114 11.722 14.7107V16.1807C11.722 16.1974 11.7166 16.2137 11.7067 16.2271C11.6968 16.2406 11.6828 16.2506 11.6668 16.2556C11.6509 16.2605 11.6338 16.2603 11.6179 16.2549C11.6021 16.2495 11.5884 16.2392 11.5788 16.2255C11.4661 16.0676 11.316 15.9401 11.142 15.8542C10.968 15.7683 10.7755 15.7267 10.5816 15.7332C9.94058 15.7532 9.44116 16.2959 9.44116 16.9373L9.44116 20.8194C9.44116 21.4608 9.94216 22.0035 10.5816 22.0235C10.7752 22.0298 10.9673 21.9883 11.141 21.9025C11.3147 21.8168 11.4645 21.6895 11.5773 21.532C11.5866 21.5175 11.6005 21.5064 11.6167 21.5006C11.6329 21.4947 11.6506 21.4944 11.667 21.4995C11.6835 21.5047 11.6978 21.5152 11.7077 21.5293C11.7176 21.5434 11.7227 21.5604 11.722 21.5776V23.0196C11.722 23.834 12.3646 24.5222 13.1801 24.5419C13.3794 24.5467 13.5776 24.5116 13.7631 24.4387C13.9486 24.3658 14.1177 24.2564 14.2603 24.1172C14.4029 23.978 14.5162 23.8116 14.5936 23.6279C14.6709 23.4442 14.7107 23.2469 14.7107 23.0475L14.7107 19.8229C14.7107 19.8021 14.7189 19.7821 14.7337 19.7673C14.7484 19.7526 14.7685 19.7443 14.7893 19.7443H22.9688C22.9897 19.7443 23.0097 19.7526 23.0244 19.7673C23.0392 19.7821 23.0475 19.8021 23.0475 19.8229V23.0196C23.0475 23.8356 23.69 24.5222 24.5056 24.5415C24.7049 24.5463 24.9031 24.5112 25.0885 24.4383C25.274 24.3654 25.443 24.2562 25.5856 24.1169C25.7282 23.9777 25.8416 23.8114 25.9189 23.6278C25.9963 23.4441 26.0362 23.2468 26.0362 23.0475V21.5776C26.0362 21.5609 26.0416 21.5446 26.0515 21.5311C26.0614 21.5177 26.0753 21.5077 26.0913 21.5027C26.1073 21.4977 26.1244 21.4979 26.1402 21.5033C26.156 21.5087 26.1697 21.5191 26.1793 21.5328C26.2921 21.6907 26.4421 21.8182 26.6161 21.9041C26.7901 21.99 26.9826 22.0316 27.1766 22.0251C27.8176 22.0051 28.317 21.4624 28.317 20.821V16.9381C28.317 16.2967 27.816 15.754 27.1766 15.7332Z" fill="white"/>
</g>
<defs>
<clipPath id="clip0_2678_45">
<rect width="20.1342" height="20.1342" fill="white" transform="translate(8.81201 8.81207)"/>
</clipPath>
</defs>
</svg>
