<svg width="50" height="50" viewBox="0 0 50 50" fill="none" xmlns="http://www.w3.org/2000/svg">
<circle opacity="0.2" cx="25" cy="25" r="25" fill="#45C646"/>
<path d="M33.2701 16.7683L26.7697 15.0095C24.4119 14.3715 22.6691 15.3942 22.0353 17.783L19.8885 25.8738C19.2442 28.3018 20.2554 30.0361 22.6133 30.6741L29.1136 32.433C31.5095 33.0812 33.2051 32.0794 33.8494 29.6514L35.9962 21.5606C36.6301 19.1717 35.6659 17.4166 33.2701 16.7683Z" fill="url(#paint0_linear_3_827)"/>
<g opacity="0.5" filter="url(#filter0_f_3_827)">
<path d="M31.5717 18.9839L27.1429 17.7856C25.5365 17.3509 24.3492 18.0477 23.9173 19.6752L22.4547 25.1876C22.0157 26.8418 22.7047 28.0234 24.3111 28.458L28.7399 29.6564C30.3722 30.0981 31.5274 29.4155 31.9664 27.7613L33.429 22.2489C33.8609 20.6214 33.204 19.4256 31.5717 18.9839Z" fill="#39B93A"/>
</g>
<g filter="url(#filter1_b_3_827)">
<mask id="path-4-outside-1_3_827" maskUnits="userSpaceOnUse" x="12" y="17.3411" width="21" height="21" fill="black">
<rect fill="white" x="12" y="17.3411" width="21" height="21"/>
<path d="M26.2482 18.3411H18.2383C15.1064 18.3411 13 20.5615 13 23.8641V31.4863C13 34.7796 15.1064 37 18.2383 37H26.2482C29.3801 37 31.4773 34.7796 31.4773 31.4863V23.8641C31.4773 20.5615 29.3801 18.3411 26.2482 18.3411Z"/>
</mask>
<path d="M26.2482 18.3411H18.2383C15.1064 18.3411 13 20.5615 13 23.8641V31.4863C13 34.7796 15.1064 37 18.2383 37H26.2482C29.3801 37 31.4773 34.7796 31.4773 31.4863V23.8641C31.4773 20.5615 29.3801 18.3411 26.2482 18.3411Z" fill="#72DC60" fill-opacity="0.35"/>
<path d="M26.2482 19.3411C26.8005 19.3411 27.2482 18.8933 27.2482 18.3411C27.2482 17.7888 26.8005 17.3411 26.2482 17.3411V19.3411ZM26.2482 17.3411C25.6959 17.3411 25.2482 17.7888 25.2482 18.3411C25.2482 18.8933 25.6959 19.3411 26.2482 19.3411V17.3411ZM26.2482 17.3411H18.2383V19.3411H26.2482V17.3411ZM18.2383 17.3411C16.4265 17.3411 14.8448 17.9892 13.7192 19.1759C12.5979 20.3581 12 21.9988 12 23.8641H14C14 22.4268 14.4553 21.306 15.1702 20.5523C15.8808 19.8032 16.9183 19.3411 18.2383 19.3411V17.3411ZM12 23.8641V31.4863H14V23.8641H12ZM12 31.4863C12 33.3476 12.5983 34.986 13.7196 36.1668C14.8451 37.352 16.4265 38 18.2383 38V36C16.9182 36 15.8805 35.5378 15.1698 34.7895C14.4549 34.0367 14 32.9182 14 31.4863H12ZM18.2383 38H26.2482V36H18.2383V38ZM26.2482 38C28.0602 38 29.6398 37.3518 30.7632 36.1658C31.8821 34.9847 32.4773 33.3464 32.4773 31.4863H30.4773C30.4773 32.9194 30.024 34.038 29.3112 34.7904C28.6031 35.538 27.5681 36 26.2482 36V38ZM32.4773 31.4863V23.8641H30.4773V31.4863H32.4773ZM32.4773 23.8641C32.4773 22 31.8825 20.3594 30.7636 19.1768C29.6401 17.9893 28.0603 17.3411 26.2482 17.3411V19.3411C27.5681 19.3411 28.6028 19.803 29.3108 20.5514C30.0235 21.3046 30.4773 22.4256 30.4773 23.8641H32.4773Z" fill="url(#paint1_linear_3_827)" mask="url(#path-4-outside-1_3_827)"/>
</g>
<g filter="url(#filter2_bd_3_827)">
<mask id="path-6-inside-2_3_827" fill="white">
<path d="M21.142 30.7007C20.9351 30.7007 20.7282 30.6214 20.5702 30.4619L18.3778 28.248C18.0619 27.9289 18.0619 27.4121 18.3778 27.0939C18.6938 26.7749 19.2047 26.7739 19.5207 27.093L21.142 28.7303L24.9558 24.8791C25.2717 24.56 25.7826 24.56 26.0986 24.8791C26.4145 25.1982 26.4145 25.715 26.0986 26.0341L21.7139 30.4619C21.5559 30.6214 21.349 30.7007 21.142 30.7007Z"/>
</mask>
<path d="M21.142 30.7007C20.9351 30.7007 20.7282 30.6214 20.5702 30.4619L18.3778 28.248C18.0619 27.9289 18.0619 27.4121 18.3778 27.0939C18.6938 26.7749 19.2047 26.7739 19.5207 27.093L21.142 28.7303L24.9558 24.8791C25.2717 24.56 25.7826 24.56 26.0986 24.8791C26.4145 25.1982 26.4145 25.715 26.0986 26.0341L21.7139 30.4619C21.5559 30.6214 21.349 30.7007 21.142 30.7007Z" fill="url(#paint2_linear_3_827)"/>
<path d="M20.5702 30.4619L20.4281 30.6026L20.5702 30.4619ZM18.3778 27.0939L18.5197 27.2349L18.52 27.2346L18.3778 27.0939ZM21.142 28.7303L20.9999 28.871L21.142 29.0145L21.2842 28.871L21.142 28.7303ZM24.9558 24.8791L24.8137 24.7384L24.9558 24.8791ZM26.0986 26.0341L25.9565 25.8934L26.0986 26.0341ZM21.7139 30.4619L21.856 30.6026L21.7139 30.4619ZM21.142 30.5007C20.9863 30.5007 20.8312 30.4412 20.7123 30.3211L20.4281 30.6026C20.6251 30.8015 20.8839 30.9007 21.142 30.9007V30.5007ZM20.7123 30.3211L18.52 28.1072L18.2357 28.3887L20.4281 30.6026L20.7123 30.3211ZM18.52 28.1072C18.2811 27.866 18.2814 27.4749 18.5197 27.2349L18.2359 26.953C17.8424 27.3492 17.8427 27.9918 18.2357 28.3887L18.52 28.1072ZM18.52 27.2346C18.758 26.9943 19.1411 26.994 19.3786 27.2337L19.6628 26.9523C19.2683 26.5539 18.6297 26.5554 18.2357 26.9532L18.52 27.2346ZM19.3786 27.2337L20.9999 28.871L21.2842 28.5896L19.6628 26.9523L19.3786 27.2337ZM21.2842 28.871L25.0979 25.0198L24.8137 24.7384L20.9999 28.5896L21.2842 28.871ZM25.0979 25.0198C25.3356 24.7798 25.7188 24.7798 25.9565 25.0198L26.2407 24.7384C25.8465 24.3403 25.2079 24.3403 24.8137 24.7384L25.0979 25.0198ZM25.9565 25.0198C26.1953 25.261 26.1953 25.6522 25.9565 25.8934L26.2407 26.1748C26.6338 25.7778 26.6338 25.1354 26.2407 24.7384L25.9565 25.0198ZM25.9565 25.8934L21.5718 30.3211L21.856 30.6026L26.2407 26.1748L25.9565 25.8934ZM21.5718 30.3211C21.4529 30.4412 21.2978 30.5007 21.142 30.5007V30.9007C21.4002 30.9007 21.659 30.8015 21.856 30.6026L21.5718 30.3211Z" fill="url(#paint3_linear_3_827)" fill-opacity="0.5" mask="url(#path-6-inside-2_3_827)"/>
</g>
<defs>
<filter id="filter0_f_3_827" x="8.32495" y="3.65887" width="39.2334" height="40.1288" filterUnits="userSpaceOnUse" color-interpolation-filters="sRGB">
<feFlood flood-opacity="0" result="BackgroundImageFix"/>
<feBlend mode="normal" in="SourceGraphic" in2="BackgroundImageFix" result="shape"/>
<feGaussianBlur stdDeviation="7" result="effect1_foregroundBlur_3_827"/>
</filter>
<filter id="filter1_b_3_827" x="-12" y="-6.65894" width="68.4773" height="68.6589" filterUnits="userSpaceOnUse" color-interpolation-filters="sRGB">
<feFlood flood-opacity="0" result="BackgroundImageFix"/>
<feGaussianBlur in="BackgroundImageFix" stdDeviation="12"/>
<feComposite in2="SourceAlpha" operator="in" result="effect1_backgroundBlur_3_827"/>
<feBlend mode="normal" in="SourceGraphic" in2="effect1_backgroundBlur_3_827" result="shape"/>
</filter>
<filter id="filter2_bd_3_827" x="3.14087" y="9.6398" width="38.1947" height="36.0609" filterUnits="userSpaceOnUse" color-interpolation-filters="sRGB">
<feFlood flood-opacity="0" result="BackgroundImageFix"/>
<feGaussianBlur in="BackgroundImageFix" stdDeviation="7.5"/>
<feComposite in2="SourceAlpha" operator="in" result="effect1_backgroundBlur_3_827"/>
<feColorMatrix in="SourceAlpha" type="matrix" values="0 0 0 0 0 0 0 0 0 0 0 0 0 0 0 0 0 0 127 0" result="hardAlpha"/>
<feOffset dx="5" dy="5"/>
<feGaussianBlur stdDeviation="5"/>
<feColorMatrix type="matrix" values="0 0 0 0 0.454902 0 0 0 0 0.870588 0 0 0 0 0.376471 0 0 0 0.5 0"/>
<feBlend mode="normal" in2="effect1_backgroundBlur_3_827" result="effect2_dropShadow_3_827"/>
<feBlend mode="normal" in="SourceGraphic" in2="effect2_dropShadow_3_827" result="shape"/>
</filter>
<linearGradient id="paint0_linear_3_827" x1="37" y1="17.7776" x2="22.7487" y2="26.4149" gradientUnits="userSpaceOnUse">
<stop stop-color="#9BF763"/>
<stop offset="1" stop-color="#26AB5B"/>
</linearGradient>
<linearGradient id="paint1_linear_3_827" x1="15.9413" y1="20.5149" x2="27.8677" y2="35.1422" gradientUnits="userSpaceOnUse">
<stop stop-color="white" stop-opacity="0.25"/>
<stop offset="1" stop-color="white" stop-opacity="0"/>
</linearGradient>
<linearGradient id="paint2_linear_3_827" x1="25.7546" y1="25.7343" x2="16.6345" y2="26.1363" gradientUnits="userSpaceOnUse">
<stop stop-color="white"/>
<stop offset="1" stop-color="white" stop-opacity="0.2"/>
</linearGradient>
<linearGradient id="paint3_linear_3_827" x1="19.0236" y1="26.6729" x2="25.9819" y2="26.7249" gradientUnits="userSpaceOnUse">
<stop stop-color="white"/>
<stop offset="1" stop-color="white" stop-opacity="0"/>
</linearGradient>
</defs>
</svg>
