<svg width="48" height="47" viewBox="0 0 48 47" fill="none" xmlns="http://www.w3.org/2000/svg">
<circle cx="24.5" cy="23.5" r="15.5" stroke="#EEFBFF" stroke-width="4"/>
<mask id="path-2-inside-1_3_82" fill="white">
<path d="M8.50774 23.1043C7.40507 23.0705 6.47193 23.9395 6.56396 25.0389C6.80414 27.9078 7.74964 30.6843 9.32971 33.1154C11.274 36.107 14.0863 38.4329 17.3897 39.7812C20.693 41.1295 24.3296 41.4359 27.812 40.6594C31.2944 39.8828 34.4562 38.0603 36.8737 35.4362C39.2911 32.8121 40.8488 29.5118 41.3378 25.9775C41.8268 22.4433 41.2239 18.844 39.6098 15.662C37.9957 12.4801 35.4475 9.86753 32.3069 8.17452C29.7546 6.79867 26.9101 6.08353 24.0311 6.07891C22.9279 6.07715 22.1382 7.07826 22.262 8.17447C22.3859 9.27068 23.3781 10.0433 24.4806 10.0823C26.546 10.1554 28.5764 10.7021 30.4112 11.6911C32.8349 12.9976 34.8014 15.0138 36.047 17.4693C37.2926 19.9249 37.7579 22.7025 37.3805 25.43C37.0031 28.1574 35.8011 30.7043 33.9355 32.7294C32.0699 34.7544 29.6298 36.1608 26.9424 36.7601C24.255 37.3594 21.4486 37.123 18.8994 36.0825C16.3502 35.0419 14.1799 33.2471 12.6794 30.9384C11.5435 29.1907 10.8326 27.2117 10.5907 25.1593C10.4616 24.0637 9.61041 23.1381 8.50774 23.1043Z"/>
</mask>
<path d="M8.50774 23.1043C7.40507 23.0705 6.47193 23.9395 6.56396 25.0389C6.80414 27.9078 7.74964 30.6843 9.32971 33.1154C11.274 36.107 14.0863 38.4329 17.3897 39.7812C20.693 41.1295 24.3296 41.4359 27.812 40.6594C31.2944 39.8828 34.4562 38.0603 36.8737 35.4362C39.2911 32.8121 40.8488 29.5118 41.3378 25.9775C41.8268 22.4433 41.2239 18.844 39.6098 15.662C37.9957 12.4801 35.4475 9.86753 32.3069 8.17452C29.7546 6.79867 26.9101 6.08353 24.0311 6.07891C22.9279 6.07715 22.1382 7.07826 22.262 8.17447C22.3859 9.27068 23.3781 10.0433 24.4806 10.0823C26.546 10.1554 28.5764 10.7021 30.4112 11.6911C32.8349 12.9976 34.8014 15.0138 36.047 17.4693C37.2926 19.9249 37.7579 22.7025 37.3805 25.43C37.0031 28.1574 35.8011 30.7043 33.9355 32.7294C32.0699 34.7544 29.6298 36.1608 26.9424 36.7601C24.255 37.3594 21.4486 37.123 18.8994 36.0825C16.3502 35.0419 14.1799 33.2471 12.6794 30.9384C11.5435 29.1907 10.8326 27.2117 10.5907 25.1593C10.4616 24.0637 9.61041 23.1381 8.50774 23.1043Z" stroke="#27CCAE" stroke-width="8" mask="url(#path-2-inside-1_3_82)"/>
</svg>
