<svg width="50" height="50" viewBox="0 0 50 50" fill="none" xmlns="http://www.w3.org/2000/svg">
<circle opacity="0.2" cx="25" cy="25" r="25" fill="#3698F2"/>
<path d="M25.391 26.7045C25.0664 26.0289 24.9806 25.4951 25.2011 24.6848L25.2761 24.4092C25.5634 23.3533 25.5039 22.6084 25.1572 21.7877C24.625 20.5148 23.4183 19.5139 22.0674 19.1574L22.01 19.1423C20.6875 18.7933 19.1854 19.0482 18.0757 19.8419C17.3259 20.3879 16.8598 21.0255 16.5645 22.1107L16.4896 22.3862C16.2691 23.1965 15.9379 23.6204 15.2995 24.0418C14.8297 24.3525 14.573 24.8433 14.4195 25.4073C14.2658 25.972 14.3069 26.5561 14.5629 27.0896C14.9097 27.7396 15.5092 28.2544 16.1982 28.4982C17.1872 28.8831 18.1958 29.1959 19.2311 29.4691C20.2657 29.742 21.306 29.9385 22.3506 30.1215C23.0705 30.2495 23.851 30.0988 24.4814 29.7066C24.9734 29.3705 25.3061 28.885 25.4598 28.3204C25.6133 27.7563 25.6402 27.2048 25.391 26.7045Z" fill="url(#paint0_linear_7_171)"/>
<path d="M20.3206 30.6409C20.0144 30.4861 18.0347 29.9636 17.691 29.9468C17.3959 29.9372 17.0552 30.0062 16.9667 30.3315C16.8985 30.6461 17.0068 30.9683 17.2127 31.2088L17.2119 31.2093C17.4704 31.5495 17.8108 31.8123 18.1975 31.9764C18.404 32.0623 18.6227 32.1186 18.8525 32.1493C19.27 32.1974 19.6982 32.1375 20.0947 31.9702L20.0942 31.9694C20.3947 31.8625 20.652 31.6369 20.7525 31.3308C20.841 31.0055 20.581 30.7779 20.3206 30.6409Z" fill="url(#paint1_linear_7_171)"/>
<g opacity="0.5" filter="url(#filter0_f_7_171)">
<path d="M23.1335 25.6757C23.0122 25.2536 22.9978 24.9118 23.1436 24.3759L23.1932 24.1937C23.3832 23.4955 23.392 23.0156 23.2674 22.5005C23.0767 21.7013 22.5503 21.1111 21.9229 20.9455L21.8962 20.9384C21.2819 20.7763 20.5517 21.0143 19.9819 21.5824C19.5965 21.9726 19.342 22.4084 19.1468 23.126L19.0972 23.3082C18.9514 23.844 18.7721 24.1348 18.4461 24.4389C18.2061 24.6629 18.059 24.9935 17.9575 25.3665C17.8559 25.7399 17.8463 26.1164 17.942 26.4497C18.0752 26.8543 18.3358 27.1588 18.6528 27.2835C19.1059 27.485 19.5721 27.6389 20.053 27.7658C20.5336 27.8926 21.0207 27.9695 21.5105 28.0375C21.848 28.0856 22.2283 27.9502 22.5491 27.6654C22.8009 27.4238 22.984 27.093 23.0856 26.7196C23.1871 26.3466 23.2275 25.9879 23.1335 25.6757Z" fill="#0062FF"/>
</g>
<g filter="url(#filter1_b_7_171)">
<mask id="path-5-outside-1_7_171" maskUnits="userSpaceOnUse" x="16.5845" y="12.6935" width="22.3489" height="21.4857" fill="black">
<rect fill="white" x="16.5845" y="12.6935" width="22.3489" height="21.4857"/>
<path d="M35.0475 23.155C34.1883 22.5019 33.7279 21.8767 33.478 20.7034L33.393 20.3044C33.0674 18.7754 32.5021 17.8645 31.5193 17.0406C30.002 15.7593 27.8 15.2556 25.8366 15.6653L25.7531 15.6827C23.8309 16.0837 22.0755 17.3688 21.176 19.0895C20.5749 20.2645 20.3969 21.3748 20.7315 22.9461L20.8165 23.345C21.0663 24.5184 20.9207 25.27 20.3803 26.2152C19.9828 26.9113 19.9766 27.7008 20.1505 28.5175C20.3246 29.3351 20.7607 30.0529 21.4388 30.5689C22.3097 31.1753 23.4151 31.4478 24.4573 31.3179C25.9761 31.1759 27.4727 30.9295 28.9774 30.6156C30.4812 30.3018 31.9419 29.887 33.3993 29.4522C34.4049 29.1549 35.3052 28.464 35.8546 27.5612C36.2637 26.8184 36.3708 25.9873 36.1967 25.1696C36.0228 24.3529 35.6951 23.6331 35.0475 23.155Z"/>
</mask>
<path d="M35.0475 23.155C34.1883 22.5019 33.7279 21.8767 33.478 20.7034L33.393 20.3044C33.0674 18.7754 32.5021 17.8645 31.5193 17.0406C30.002 15.7593 27.8 15.2556 25.8366 15.6653L25.7531 15.6827C23.8309 16.0837 22.0755 17.3688 21.176 19.0895C20.5749 20.2645 20.3969 21.3748 20.7315 22.9461L20.8165 23.345C21.0663 24.5184 20.9207 25.27 20.3803 26.2152C19.9828 26.9113 19.9766 27.7008 20.1505 28.5175C20.3246 29.3351 20.7607 30.0529 21.4388 30.5689C22.3097 31.1753 23.4151 31.4478 24.4573 31.3179C25.9761 31.1759 27.4727 30.9295 28.9774 30.6156C30.4812 30.3018 31.9419 29.887 33.3993 29.4522C34.4049 29.1549 35.3052 28.464 35.8546 27.5612C36.2637 26.8184 36.3708 25.9873 36.1967 25.1696C36.0228 24.3529 35.6951 23.6331 35.0475 23.155Z" fill="#3EA0FE" fill-opacity="0.35"/>
<path d="M34.4432 23.9492C34.8837 24.284 35.5115 24.2 35.8453 23.7614C36.1791 23.3228 36.0925 22.6958 35.6519 22.3609L34.4432 23.9492ZM31.5193 17.0406L30.8746 17.8024L30.8774 17.8048L31.5193 17.0406ZM21.176 19.0895L20.2883 18.6246L20.2844 18.6323L21.176 19.0895ZM20.3803 26.2152L19.5107 25.7173L19.5104 25.7179L20.3803 26.2152ZM21.4388 30.5689L20.8341 31.3627C20.8453 31.3713 20.8567 31.3796 20.8683 31.3877L21.4388 30.5689ZM24.4573 31.3179L24.3603 30.323C24.35 30.324 24.3398 30.3251 24.3296 30.3264L24.4573 31.3179ZM33.3993 29.4522L33.1118 28.4941L33.1094 28.4948L33.3993 29.4522ZM35.8546 27.5612L36.7105 28.0824C36.7179 28.0701 36.7251 28.0577 36.732 28.0452L35.8546 27.5612ZM35.6407 22.3525C35.1954 22.0238 34.569 22.1166 34.2414 22.5598C33.9138 23.0031 34.0092 23.6288 34.4544 23.9576L35.6407 22.3525ZM35.6519 22.3609C35.2764 22.0755 35.0399 21.8352 34.8695 21.5769C34.7007 21.3211 34.5627 20.9956 34.4569 20.4991L32.4991 20.9076C32.6432 21.5844 32.8603 22.1582 33.199 22.6716C33.5361 23.1826 33.9594 23.5814 34.4432 23.9492L35.6519 22.3609ZM34.4569 20.4991L34.372 20.1002L32.4141 20.5086L32.4991 20.9076L34.4569 20.4991ZM34.372 20.1002C34.0037 18.3708 33.3296 17.256 32.1611 16.2764L30.8774 17.8048C31.6745 18.473 32.1312 19.18 32.4141 20.5086L34.372 20.1002ZM32.164 16.2788C30.3944 14.7844 27.8725 14.219 25.6283 14.6872L26.0449 16.6433C27.7275 16.2923 29.6097 16.7341 30.8746 17.8024L32.164 16.2788ZM25.6283 14.6872L25.5448 14.7046L25.9614 16.6607L26.0449 16.6433L25.6283 14.6872ZM25.5448 14.7046C23.3439 15.1638 21.332 16.628 20.2884 18.6246L22.0637 19.5544C22.8189 18.1096 24.318 17.0036 25.9614 16.6607L25.5448 14.7046ZM20.2844 18.6323C19.5749 20.0191 19.3721 21.3638 19.7526 23.1503L21.7104 22.7418C21.4216 21.3857 21.5748 20.5099 22.0677 19.5467L20.2844 18.6323ZM19.7526 23.1503L19.8375 23.5493L21.7954 23.1408L21.7104 22.7418L19.7526 23.1503ZM19.8375 23.5493C19.9449 24.0533 19.9544 24.4056 19.9065 24.7038C19.8586 25.002 19.743 25.3111 19.5107 25.7173L21.25 26.713C21.5581 26.1741 21.7854 25.6348 21.883 25.0275C21.9805 24.4203 21.9379 23.8101 21.7954 23.1408L19.8375 23.5493ZM19.5104 25.7179C18.9425 26.7125 18.972 27.7847 19.1716 28.7217L21.1294 28.3132C20.9811 27.6168 21.0232 27.1102 21.2503 26.7124L19.5104 25.7179ZM19.1716 28.7217C19.3931 29.762 19.9549 30.6938 20.8341 31.3627L22.0436 29.775C21.5664 29.412 21.2561 28.9083 21.1294 28.3132L19.1716 28.7217ZM20.8683 31.3877C21.9424 32.1356 23.2965 32.47 24.5851 32.3093L24.3296 30.3264C23.5337 30.4257 22.677 30.215 22.0093 29.7501L20.8683 31.3877ZM24.5544 32.3127C26.1193 32.1664 27.6539 31.9132 29.1857 31.5936L28.7691 29.6375C27.2915 29.9458 25.833 30.1854 24.3603 30.323L24.5544 32.3127ZM29.1857 31.5936C30.7325 31.2709 32.2263 30.8461 33.6892 30.4096L33.1094 28.4948C31.6575 28.9279 30.2299 29.3327 28.7691 29.6375L29.1857 31.5936ZM33.6868 30.4104C34.9304 30.0427 36.0329 29.1957 36.7105 28.0824L34.9987 27.04C34.5775 27.7322 33.8795 28.2672 33.1118 28.4941L33.6868 30.4104ZM36.732 28.0452C37.2619 27.0831 37.3973 26.0064 37.1756 24.9654L35.2178 25.3739C35.3444 25.9682 35.2655 26.5537 34.9772 27.0772L36.732 28.0452ZM37.1756 24.9654C36.9761 24.0284 36.5658 23.0356 35.6407 22.3525L34.4544 23.9576C34.8243 24.2307 35.0695 24.6774 35.2178 25.3739L37.1756 24.9654Z" fill="url(#paint2_linear_7_171)" mask="url(#path-5-outside-1_7_171)"/>
</g>
<g filter="url(#filter2_b_7_171)">
<mask id="path-7-outside-2_7_171" maskUnits="userSpaceOnUse" x="25.2705" y="29.9279" width="8.87286" height="6.52425" fill="black">
<rect fill="white" x="25.2705" y="29.9279" width="8.87286" height="6.52425"/>
<path d="M31.1323 31.4385C30.6392 31.4372 27.7639 32.0371 27.3133 32.2353C26.9295 32.4117 26.539 32.7172 26.6392 33.1877C26.7582 33.6316 27.1081 33.9723 27.5293 34.1468L27.5286 34.148C28.0824 34.4157 28.6902 34.5326 29.2925 34.4944C29.613 34.4718 29.9296 34.4037 30.2437 34.2959C30.8094 34.0905 31.3179 33.7407 31.7153 33.2745L31.7142 33.2737C32.0284 32.9458 32.2095 32.4943 32.1374 32.0406C32.0372 31.5701 31.5553 31.4466 31.1323 31.4385Z"/>
</mask>
<path d="M31.1323 31.4385C30.6392 31.4372 27.7639 32.0371 27.3133 32.2353C26.9295 32.4117 26.539 32.7172 26.6392 33.1877C26.7582 33.6316 27.1081 33.9723 27.5293 34.1468L27.5286 34.148C28.0824 34.4157 28.6902 34.5326 29.2925 34.4944C29.613 34.4718 29.9296 34.4037 30.2437 34.2959C30.8094 34.0905 31.3179 33.7407 31.7153 33.2745L31.7142 33.2737C32.0284 32.9458 32.2095 32.4943 32.1374 32.0406C32.0372 31.5701 31.5553 31.4466 31.1323 31.4385Z" fill="#3EA0FE" fill-opacity="0.35"/>
<path d="M31.1335 32.4377C31.6862 32.4391 32.1338 31.993 32.1331 31.4411C32.1325 30.8893 31.6839 30.4408 31.1311 30.4394L31.1335 32.4377ZM27.3133 32.2353L26.9069 31.3207C26.9019 31.3229 26.8969 31.3252 26.8919 31.3274L27.3133 32.2353ZM26.6392 33.1877L25.6603 33.3919C25.6639 33.4089 25.668 33.4258 25.6725 33.4426L26.6392 33.1877ZM27.5293 34.1468L28.3698 34.6924C28.5313 34.4437 28.5733 34.1357 28.4844 33.8519C28.3956 33.5682 28.185 33.3382 27.9099 33.2242L27.5293 34.1468ZM27.5286 34.148L26.6881 33.6024C26.5321 33.8427 26.4873 34.1388 26.5652 34.4152C26.6431 34.6916 26.8361 34.9217 27.0952 35.0469L27.5286 34.148ZM29.2925 34.4944L29.3597 35.4916L29.3669 35.4911L29.2925 34.4944ZM30.2437 34.2959L30.5723 35.241C30.5779 35.239 30.5835 35.2371 30.5891 35.235L30.2437 34.2959ZM31.7153 33.2745L32.4785 33.9238C32.6644 33.7057 32.7472 33.418 32.7057 33.134C32.6642 32.8499 32.5025 32.5969 32.2617 32.4394L31.7153 33.2745ZM31.7142 33.2737L30.9897 32.5816C30.7845 32.7958 30.6857 33.0904 30.7201 33.3856C30.7545 33.6807 30.9186 33.9457 31.1678 34.1088L31.7142 33.2737ZM32.1374 32.0406L33.1259 31.8876C33.1231 31.8704 33.12 31.8533 33.1163 31.8363L32.1374 32.0406ZM31.1476 30.4396C30.5949 30.429 30.14 30.8678 30.1316 31.4195C30.1231 31.9712 30.5643 32.427 31.117 32.4375L31.1476 30.4396ZM31.1311 30.4394C30.9043 30.4388 30.541 30.4946 30.2183 30.5498C29.8573 30.6115 29.4252 30.695 28.9986 30.7841C28.5719 30.8731 28.1425 30.9693 27.7871 31.057C27.4694 31.1355 27.1142 31.2295 26.9069 31.3207L27.7197 33.1499C27.7095 33.1544 27.7472 33.1388 27.8675 33.1042C27.9734 33.0736 28.1112 33.0374 28.2745 32.997C28.6003 32.9166 29.0051 32.8258 29.4152 32.7402C29.8253 32.6546 30.2326 32.576 30.5635 32.5195C30.7294 32.4911 30.8702 32.4693 30.9796 32.4549C31.1038 32.4385 31.1447 32.4377 31.1335 32.4377L31.1311 30.4394ZM26.8919 31.3274C26.6366 31.4448 26.2956 31.64 26.0293 31.9547C25.7355 32.3017 25.5345 32.8013 25.6603 33.3919L27.6181 32.9834C27.6267 33.0236 27.628 33.084 27.6091 33.1485C27.5917 33.208 27.5661 33.2409 27.5603 33.2478C27.5559 33.253 27.565 33.2411 27.5993 33.2177C27.6326 33.1949 27.678 33.1693 27.7347 33.1432L26.8919 31.3274ZM25.6725 33.4426C25.8876 34.2449 26.4984 34.8001 27.1487 35.0695L27.9099 33.2242C27.7178 33.1446 27.6289 33.0183 27.6059 32.9327L25.6725 33.4426ZM26.6888 33.6012L26.6881 33.6024L28.3691 34.6936L28.3698 34.6924L26.6888 33.6012ZM27.0952 35.0469C27.8056 35.3904 28.5861 35.5406 29.3597 35.4916L29.2253 33.4972C28.7944 33.5246 28.3591 33.441 27.962 33.249L27.0952 35.0469ZM29.3669 35.4911C29.7828 35.4617 30.1849 35.3739 30.5723 35.241L29.9152 33.3509C29.6744 33.4335 29.4432 33.4818 29.2181 33.4977L29.3669 35.4911ZM30.5891 35.235C31.3159 34.971 31.9686 34.5218 32.4785 33.9238L30.9522 32.6252C30.6671 32.9595 30.3029 33.2099 29.8984 33.3568L30.5891 35.235ZM32.2617 32.4394L32.2606 32.4387L31.1678 34.1088L31.169 34.1095L32.2617 32.4394ZM32.4387 33.9658C32.9238 33.4595 33.2562 32.7076 33.1259 31.8876L31.149 32.1935C31.1629 32.281 31.1331 32.432 30.9897 32.5816L32.4387 33.9658ZM33.1163 31.8363C32.9905 31.2456 32.6029 30.8689 32.1926 30.6688C31.8206 30.4873 31.429 30.4449 31.1476 30.4396L31.117 32.4375C31.1795 32.4387 31.2315 32.4441 31.2713 32.4516C31.3122 32.4593 31.3254 32.4665 31.3192 32.4635C31.311 32.4595 31.2742 32.4397 31.234 32.3922C31.1904 32.3407 31.1671 32.285 31.1585 32.2448L33.1163 31.8363Z" fill="url(#paint3_linear_7_171)" mask="url(#path-7-outside-2_7_171)"/>
</g>
<g filter="url(#filter3_bd_7_171)">
<path d="M28.9856 18.1553C28.6435 18.0793 28.2981 18.2771 28.1913 18.5973C28.1555 18.7755 28.184 18.9643 28.2858 19.1148C28.3876 19.2652 28.5469 19.3719 28.7336 19.4111L28.7583 19.4184C29.3144 19.5838 29.7138 20.0709 29.7515 20.6324C29.7696 20.9984 30.083 21.2805 30.4506 21.2696C30.8206 21.2509 31.104 20.9489 31.0898 20.5927C31.0086 19.4602 30.202 18.4914 29.0803 18.1835L28.9856 18.1553Z" fill="url(#paint4_linear_7_171)"/>
<path d="M28.7547 19.3134L28.7548 19.313L28.7627 19.3154L28.7873 19.3227C29.3816 19.4995 29.8108 20.0206 29.8514 20.6253L29.8514 20.6253L29.8515 20.6271C29.8669 20.9373 30.1329 21.1786 30.447 21.1699C30.7635 21.1533 31.0008 20.8964 30.9898 20.5986C30.911 19.51 30.1349 18.5766 29.0533 18.2797L29.0533 18.2798L29.0512 18.2792L28.9601 18.2521C28.6708 18.1895 28.3805 18.3562 28.2883 18.6226C28.2589 18.7764 28.2851 18.9348 28.3689 19.0587C28.4558 19.1872 28.5926 19.2793 28.7547 19.3134Z" stroke="url(#paint5_linear_7_171)" stroke-opacity="0.5" stroke-width="0.2"/>
</g>
<defs>
<filter id="filter0_f_7_171" x="2.87549" y="5.88867" width="35.4749" height="37.1584" filterUnits="userSpaceOnUse" color-interpolation-filters="sRGB">
<feFlood flood-opacity="0" result="BackgroundImageFix"/>
<feBlend mode="normal" in="SourceGraphic" in2="BackgroundImageFix" result="shape"/>
<feGaussianBlur stdDeviation="7.5" result="effect1_foregroundBlur_7_171"/>
</filter>
<filter id="filter1_b_7_171" x="4.04102" y="-0.473145" width="48.2368" height="47.822" filterUnits="userSpaceOnUse" color-interpolation-filters="sRGB">
<feFlood flood-opacity="0" result="BackgroundImageFix"/>
<feGaussianBlur in="BackgroundImageFix" stdDeviation="7.5"/>
<feComposite in2="SourceAlpha" operator="in" result="effect1_backgroundBlur_7_171"/>
<feBlend mode="normal" in="SourceGraphic" in2="effect1_backgroundBlur_7_171" result="shape"/>
</filter>
<filter id="filter2_b_7_171" x="10.6221" y="15.4395" width="37.5322" height="35.0613" filterUnits="userSpaceOnUse" color-interpolation-filters="sRGB">
<feFlood flood-opacity="0" result="BackgroundImageFix"/>
<feGaussianBlur in="BackgroundImageFix" stdDeviation="7.5"/>
<feComposite in2="SourceAlpha" operator="in" result="effect1_backgroundBlur_7_171"/>
<feBlend mode="normal" in="SourceGraphic" in2="effect1_backgroundBlur_7_171" result="shape"/>
</filter>
<filter id="filter3_bd_7_171" x="13.1765" y="3.13916" width="32.9138" height="33.1309" filterUnits="userSpaceOnUse" color-interpolation-filters="sRGB">
<feFlood flood-opacity="0" result="BackgroundImageFix"/>
<feGaussianBlur in="BackgroundImageFix" stdDeviation="7.5"/>
<feComposite in2="SourceAlpha" operator="in" result="effect1_backgroundBlur_7_171"/>
<feColorMatrix in="SourceAlpha" type="matrix" values="0 0 0 0 0 0 0 0 0 0 0 0 0 0 0 0 0 0 127 0" result="hardAlpha"/>
<feOffset dx="5" dy="5"/>
<feGaussianBlur stdDeviation="5"/>
<feColorMatrix type="matrix" values="0 0 0 0 0.15375 0 0 0 0 0.522433 0 0 0 0 0.9 0 0 0 0.5 0"/>
<feBlend mode="normal" in2="effect1_backgroundBlur_7_171" result="effect2_dropShadow_7_171"/>
<feBlend mode="normal" in="SourceGraphic" in2="effect2_dropShadow_7_171" result="shape"/>
</filter>
<linearGradient id="paint0_linear_7_171" x1="27.6039" y1="20.6183" x2="13.4127" y2="27.5085" gradientUnits="userSpaceOnUse">
<stop stop-color="#39AFFD"/>
<stop offset="1" stop-color="#477FFF"/>
</linearGradient>
<linearGradient id="paint1_linear_7_171" x1="20.9282" y1="30.7458" x2="18.2841" y2="33.3103" gradientUnits="userSpaceOnUse">
<stop stop-color="#39AFFD"/>
<stop offset="1" stop-color="#477FFF"/>
</linearGradient>
<linearGradient id="paint2_linear_7_171" x1="20.6967" y1="18.5557" x2="32.7132" y2="29.0634" gradientUnits="userSpaceOnUse">
<stop stop-color="white" stop-opacity="0.25"/>
<stop offset="1" stop-color="white" stop-opacity="0"/>
</linearGradient>
<linearGradient id="paint3_linear_7_171" x1="27.3991" y1="32.4635" x2="29.2142" y2="35.2372" gradientUnits="userSpaceOnUse">
<stop stop-color="white" stop-opacity="0.25"/>
<stop offset="1" stop-color="white" stop-opacity="0"/>
</linearGradient>
<linearGradient id="paint4_linear_7_171" x1="30.9881" y1="18.9428" x2="30.0915" y2="21.7025" gradientUnits="userSpaceOnUse">
<stop stop-color="white"/>
<stop offset="1" stop-color="white" stop-opacity="0.2"/>
</linearGradient>
<linearGradient id="paint5_linear_7_171" x1="29.864" y1="20.8388" x2="30.4851" y2="18.7178" gradientUnits="userSpaceOnUse">
<stop stop-color="white"/>
<stop offset="1" stop-color="white" stop-opacity="0"/>
</linearGradient>
</defs>
</svg>
