<svg width="51" height="51" viewBox="0 0 51 51" fill="none" xmlns="http://www.w3.org/2000/svg">
<circle opacity="0.2" cx="26" cy="26" r="25" fill="#F23685"/>
<g filter="url(#filter0_b_7_999)">
<path d="M34.0683 24.0341C34.0683 29.576 29.576 34.0683 24.0341 34.0683C18.4923 34.0683 14 29.576 14 24.0341C14 18.4933 18.4923 14 24.0341 14C29.576 14 34.0683 18.4933 34.0683 24.0341Z" fill="url(#paint0_linear_7_999)"/>
</g>
<g opacity="0.5" filter="url(#filter1_f_7_999)">
<path d="M30.4642 24.0246C30.4642 27.5533 27.6038 30.4137 24.0751 30.4137C20.5464 30.4137 17.686 27.5533 17.686 24.0246C17.686 20.4965 20.5464 17.6355 24.0751 17.6355C27.6038 17.6355 30.4642 20.4965 30.4642 24.0246Z" fill="#F41E59"/>
</g>
<g filter="url(#filter2_b_7_999)">
<path d="M38 27.9658C38 33.5076 33.5077 37.9999 27.9659 37.9999C22.424 37.9999 17.9318 33.5076 17.9318 27.9658C17.9318 22.4249 22.424 17.9316 27.9659 17.9316C33.5077 17.9316 38 22.4249 38 27.9658Z" fill="#FF749F" fill-opacity="0.35"/>
<path d="M27.9659 38.4999C33.7839 38.4999 38.5 33.7838 38.5 27.9658C38.5 22.1488 33.7839 17.4316 27.9659 17.4316C22.1479 17.4316 17.4318 22.1488 17.4318 27.9658C17.4318 33.7838 22.1479 38.4999 27.9659 38.4999Z" stroke="url(#paint1_linear_7_999)" stroke-linecap="round" stroke-linejoin="round"/>
</g>
<g filter="url(#filter3_bd_7_999)">
<path d="M31.9797 27.9707C31.9797 28.2243 31.8999 28.4788 31.7403 28.6827C31.7103 28.7227 31.5706 28.8875 31.4609 28.9948L31.401 29.0533C30.563 29.9419 28.4777 31.2782 27.4202 31.7063C27.4202 31.7161 26.7916 31.9707 26.4923 31.9795H26.4524C25.9934 31.9795 25.5644 31.7268 25.3449 31.3172C25.2252 31.0919 25.1154 30.4384 25.1055 30.4296C25.0157 29.8434 24.9558 28.946 24.9558 27.9609C24.9558 26.928 25.0157 25.9907 25.1254 25.4152C25.1254 25.4055 25.2352 24.8788 25.305 24.7032C25.4148 24.4506 25.6143 24.235 25.8637 24.0985C26.0633 24.0019 26.2728 23.9521 26.4923 23.9521C26.7218 23.9629 27.1508 24.1082 27.3204 24.1765C28.4378 24.6056 30.5729 26.0102 31.3911 26.8685C31.5307 27.0051 31.6804 27.1718 31.7203 27.2099C31.8899 27.4245 31.9797 27.6878 31.9797 27.9707Z" fill="url(#paint2_linear_7_999)"/>
<path d="M31.5828 28.5594L31.5827 28.5594L31.5801 28.5629C31.5566 28.5944 31.4237 28.7515 31.3211 28.8518L31.2612 28.9103L31.2611 28.9102L31.2555 28.9161C30.8528 29.3431 30.1377 29.889 29.383 30.3854C28.6292 30.8811 27.8561 31.3141 27.3451 31.521L27.2202 31.5716V31.5752C27.1621 31.598 27.0867 31.6259 27.0042 31.6539C26.8091 31.72 26.6053 31.7753 26.4891 31.7795H26.4524C26.0665 31.7795 25.7057 31.5669 25.5214 31.223C25.4764 31.1382 25.4241 30.9465 25.3791 30.748C25.3578 30.6539 25.3397 30.5661 25.3262 30.5L25.3259 30.4988C25.3193 30.4669 25.3136 30.4387 25.3091 30.4183C25.3069 30.4082 25.3045 30.3975 25.3021 30.3883C25.3017 30.3869 25.3013 30.3852 25.3007 30.3832C25.2143 29.8099 25.1558 28.9308 25.1558 27.9609C25.1558 26.9318 25.2157 26.0094 25.3219 25.4527L25.3254 25.4341V25.4332L25.3264 25.4283C25.3293 25.4136 25.3337 25.3924 25.3393 25.3661C25.3504 25.3138 25.366 25.2428 25.3838 25.1669C25.4202 25.0108 25.4614 24.8525 25.4898 24.7799C25.5808 24.5723 25.7464 24.3919 25.9554 24.2763C26.126 24.1945 26.3027 24.1529 26.4874 24.1522C26.5765 24.1572 26.719 24.1895 26.8724 24.2346C27.0237 24.2791 27.1672 24.3304 27.2457 24.362L27.2457 24.362L27.2487 24.3632C27.7871 24.57 28.586 25.019 29.3578 25.5285C30.1299 26.0382 30.8531 26.594 31.2463 27.0065L31.2462 27.0066L31.2512 27.0115C31.318 27.0768 31.388 27.1501 31.4475 27.2133C31.46 27.2266 31.4725 27.2398 31.4845 27.2527C31.5187 27.289 31.5498 27.3223 31.5706 27.3432C31.7067 27.5195 31.7797 27.7353 31.7797 27.9707C31.7797 28.1834 31.7126 28.3936 31.5828 28.5594Z" stroke="url(#paint3_linear_7_999)" stroke-width="0.4"/>
</g>
<defs>
<filter id="filter0_b_7_999" x="1" y="1" width="46.0682" height="46.0684" filterUnits="userSpaceOnUse" color-interpolation-filters="sRGB">
<feFlood flood-opacity="0" result="BackgroundImageFix"/>
<feGaussianBlur in="BackgroundImageFix" stdDeviation="6.5"/>
<feComposite in2="SourceAlpha" operator="in" result="effect1_backgroundBlur_7_999"/>
<feBlend mode="normal" in="SourceGraphic" in2="effect1_backgroundBlur_7_999" result="shape"/>
</filter>
<filter id="filter1_f_7_999" x="0.686035" y="0.635498" width="46.7782" height="46.7781" filterUnits="userSpaceOnUse" color-interpolation-filters="sRGB">
<feFlood flood-opacity="0" result="BackgroundImageFix"/>
<feBlend mode="normal" in="SourceGraphic" in2="BackgroundImageFix" result="shape"/>
<feGaussianBlur stdDeviation="8.5" result="effect1_foregroundBlur_7_999"/>
</filter>
<filter id="filter2_b_7_999" x="-7.06824" y="-7.06836" width="70.0682" height="70.0684" filterUnits="userSpaceOnUse" color-interpolation-filters="sRGB">
<feFlood flood-opacity="0" result="BackgroundImageFix"/>
<feGaussianBlur in="BackgroundImageFix" stdDeviation="12"/>
<feComposite in2="SourceAlpha" operator="in" result="effect1_backgroundBlur_7_999"/>
<feBlend mode="normal" in="SourceGraphic" in2="effect1_backgroundBlur_7_999" result="shape"/>
</filter>
<filter id="filter3_bd_7_999" x="9.95581" y="8.95215" width="37.0239" height="38.0273" filterUnits="userSpaceOnUse" color-interpolation-filters="sRGB">
<feFlood flood-opacity="0" result="BackgroundImageFix"/>
<feGaussianBlur in="BackgroundImageFix" stdDeviation="7.5"/>
<feComposite in2="SourceAlpha" operator="in" result="effect1_backgroundBlur_7_999"/>
<feColorMatrix in="SourceAlpha" type="matrix" values="0 0 0 0 0 0 0 0 0 0 0 0 0 0 0 0 0 0 127 0" result="hardAlpha"/>
<feOffset dx="5" dy="5"/>
<feGaussianBlur stdDeviation="5"/>
<feColorMatrix type="matrix" values="0 0 0 0 1 0 0 0 0 0.321569 0 0 0 0 0.54902 0 0 0 0.5 0"/>
<feBlend mode="normal" in2="effect1_backgroundBlur_7_999" result="effect2_dropShadow_7_999"/>
<feBlend mode="normal" in="SourceGraphic" in2="effect2_dropShadow_7_999" result="shape"/>
</filter>
<linearGradient id="paint0_linear_7_999" x1="25.5115" y1="25.378" x2="7.87778" y2="33.9519" gradientUnits="userSpaceOnUse">
<stop stop-color="#FF759F"/>
<stop offset="1" stop-color="#FF196E"/>
</linearGradient>
<linearGradient id="paint1_linear_7_999" x1="21.1263" y1="20.2696" x2="33.9277" y2="36.1245" gradientUnits="userSpaceOnUse">
<stop stop-color="white" stop-opacity="0.25"/>
<stop offset="1" stop-color="white" stop-opacity="0"/>
</linearGradient>
<linearGradient id="paint2_linear_7_999" x1="31.4817" y1="25.4017" x2="23.6558" y2="25.625" gradientUnits="userSpaceOnUse">
<stop stop-color="white"/>
<stop offset="1" stop-color="white" stop-opacity="0.2"/>
</linearGradient>
<linearGradient id="paint3_linear_7_999" x1="26.0739" y1="24.8873" x2="31.2952" y2="30.5457" gradientUnits="userSpaceOnUse">
<stop stop-color="white" stop-opacity="0.25"/>
<stop offset="1" stop-color="white" stop-opacity="0"/>
</linearGradient>
</defs>
</svg>
