<svg width="38" height="38" viewBox="0 0 38 38" fill="none" xmlns="http://www.w3.org/2000/svg">
<circle cx="18.8792" cy="18.8791" r="18.4564" fill="#9B51E0"/>
<g clip-path="url(#clip0_2678_88)">
<path d="M26.4296 11.3288L11.3289 11.3288C10.634 11.3288 10.0706 11.8922 10.0706 12.5872L10.0706 22.6543C10.0706 23.3493 10.634 23.9127 11.3289 23.9127H26.4296C27.1246 23.9127 27.688 23.3493 27.688 22.6543L27.688 12.5872C27.688 11.8922 27.1246 11.3288 26.4296 11.3288Z" stroke="white" stroke-width="1.67785" stroke-linejoin="round"/>
<path d="M20.7669 26.4295L20.4523 23.9127H17.3063L16.9917 26.4295H20.7669Z" fill="white" stroke="white" stroke-width="1.67785" stroke-linecap="round" stroke-linejoin="round"/>
<path d="M23.2836 26.4295H14.4749" stroke="white" stroke-width="1.67785" stroke-linecap="round" stroke-linejoin="round"/>
<path d="M10.0706 20.7668V22.6543C10.0715 22.9878 10.2044 23.3073 10.4402 23.5431C10.676 23.7789 10.9955 23.9118 11.3289 23.9127H26.4296C26.7631 23.9118 27.0826 23.7789 27.3184 23.5431C27.5542 23.3073 27.6871 22.9878 27.688 22.6543V20.7668H10.0706ZM18.8793 23.2835C18.7548 23.2835 18.6332 23.2466 18.5297 23.1775C18.4262 23.1084 18.3456 23.0101 18.298 22.8951C18.2503 22.7801 18.2379 22.6536 18.2622 22.5316C18.2864 22.4095 18.3464 22.2974 18.4344 22.2094C18.5224 22.1214 18.6345 22.0615 18.7565 22.0372C18.8786 22.013 19.0051 22.0254 19.1201 22.073C19.235 22.1207 19.3333 22.2013 19.4024 22.3048C19.4716 22.4082 19.5085 22.5299 19.5085 22.6543C19.5085 22.8212 19.4422 22.9812 19.3242 23.0992C19.2062 23.2172 19.0461 23.2835 18.8793 23.2835Z" fill="white"/>
</g>
<defs>
<clipPath id="clip0_2678_88">
<rect width="20.1342" height="20.1342" fill="white" transform="translate(8.81201 8.81207)"/>
</clipPath>
</defs>
</svg>
