<svg width="38" height="38" viewBox="0 0 38 38" fill="none" xmlns="http://www.w3.org/2000/svg">
<circle cx="18.8792" cy="18.8791" r="18.4564" fill="#FD5B71"/>
<g clip-path="url(#clip0_2678_72)">
<path d="M15.1042 24.1093C14.9042 24.1095 14.711 24.0368 14.5607 23.9048L9.52719 19.5005C9.43866 19.423 9.36772 19.3274 9.31911 19.2203C9.27051 19.1131 9.24536 18.9968 9.24536 18.8792C9.24536 18.7615 9.27051 18.6452 9.31911 18.538C9.36772 18.4309 9.43866 18.3353 9.52719 18.2578L14.5607 13.8535C14.7256 13.7092 14.941 13.6364 15.1595 13.6509C15.3781 13.6655 15.5819 13.7663 15.7261 13.9311C15.8704 14.096 15.9432 14.3114 15.9287 14.5299C15.9141 14.7485 15.8133 14.9523 15.6485 15.0965L11.3247 18.8792L15.6481 22.6618C15.7746 22.7724 15.8644 22.919 15.9054 23.082C15.9464 23.245 15.9367 23.4166 15.8776 23.574C15.8185 23.7313 15.7128 23.8668 15.5746 23.9625C15.4364 24.0582 15.2723 24.1094 15.1042 24.1093Z" fill="white"/>
<path d="M22.6544 24.1093C22.4863 24.1095 22.3222 24.0583 22.1839 23.9627C22.0456 23.867 21.9399 23.7315 21.8807 23.5741C21.8215 23.4168 21.8118 23.2451 21.8528 23.0821C21.8938 22.9191 21.9836 22.7724 22.1102 22.6618L26.4339 18.8792L22.1106 15.0965C21.9457 14.9523 21.8449 14.7485 21.8304 14.5299C21.8158 14.3114 21.8886 14.096 22.0329 13.9311C22.1771 13.7663 22.3809 13.6655 22.5995 13.6509C22.818 13.6364 23.0334 13.7092 23.1983 13.8535L28.2318 18.2578C28.3204 18.3353 28.3913 18.4309 28.4399 18.538C28.4885 18.6452 28.5137 18.7615 28.5137 18.8792C28.5137 18.9968 28.4885 19.1131 28.4399 19.2203C28.3913 19.3274 28.3204 19.423 28.2318 19.5005L23.1983 23.9048C23.0479 24.037 22.8546 24.1097 22.6544 24.1093Z" fill="white"/>
<path d="M16.9917 25.9969C16.863 25.9969 16.7362 25.9668 16.6213 25.9091C16.5064 25.8514 16.4065 25.7677 16.3297 25.6646C16.2528 25.5614 16.2011 25.4418 16.1787 25.3152C16.1562 25.1885 16.1637 25.0584 16.2004 24.9352L19.9756 12.3513C20.004 12.2445 20.0536 12.1445 20.1214 12.0572C20.1892 11.97 20.2738 11.8972 20.3702 11.8432C20.4667 11.7892 20.5729 11.7551 20.6828 11.743C20.7926 11.7308 20.9038 11.7408 21.0097 11.7724C21.1156 11.804 21.214 11.8565 21.2993 11.9269C21.3845 11.9972 21.4547 12.0839 21.5058 12.1819C21.5569 12.2799 21.5878 12.3872 21.5967 12.4973C21.6056 12.6075 21.5923 12.7183 21.5576 12.8232L17.7825 25.4071C17.7317 25.5774 17.6273 25.7268 17.4848 25.8331C17.3424 25.9393 17.1694 25.9968 16.9917 25.9969Z" fill="white"/>
</g>
<defs>
<clipPath id="clip0_2678_72">
<rect width="20.1342" height="20.1342" fill="white" transform="translate(8.81201 8.81207)"/>
</clipPath>
</defs>
</svg>
