<svg width="50" height="55" viewBox="0 0 50 55" fill="none" xmlns="http://www.w3.org/2000/svg">
<circle opacity="0.2" cx="25" cy="30" r="25" fill="#36A3F2"/>
<path d="M20.0536 27.9362C17.915 26.0546 17.512 22.848 19.1191 20.5014C20.7263 18.1549 23.8264 17.4238 26.3069 18.8063L29.7997 20.753C32.9063 22.4845 33.86 26.557 31.8472 29.4959C29.8343 32.4347 25.7435 32.9424 23.0651 30.5858L20.0536 27.9362Z" fill="url(#paint0_linear_7_981)"/>
<g opacity="0.5" filter="url(#filter0_f_7_981)">
<path d="M21.8495 26.7643C20.5853 25.6521 20.3471 23.7567 21.2971 22.3697C22.2471 20.9827 24.0795 20.5505 25.5457 21.3677L27.6102 22.5184C29.4465 23.5419 30.0102 25.9491 28.8205 27.6862C27.6307 29.4233 25.2127 29.7234 23.6295 28.3305L21.8495 26.7643Z" fill="#0062FF"/>
</g>
<g filter="url(#filter1_b_7_981)">
<mask id="path-4-outside-1_7_981" maskUnits="userSpaceOnUse" x="12" y="22.0598" width="26" height="24" fill="black">
<rect fill="white" x="12" y="22.0598" width="26" height="24"/>
<path d="M36.1 35.8295C35.1148 35.8295 34.3132 35.0227 34.3132 34.0312C34.3132 33.0384 35.1148 32.2316 36.1 32.2316C36.3388 32.2316 36.568 32.1362 36.736 31.9671C36.9052 31.7968 37 31.5661 37 31.3258L36.9988 28.0624C36.9988 25.3038 34.768 23.0598 32.0272 23.0598H17.9728C15.232 23.0598 13.0012 25.3038 13.0012 28.0624L13 31.4308C13 31.6712 13.0948 31.9019 13.264 32.0722C13.432 32.2413 13.6612 32.3367 13.9 32.3367C14.9188 32.3367 15.6868 33.065 15.6868 34.0312C15.6868 35.0227 14.8852 35.8295 13.9 35.8295C13.4032 35.8295 13 36.2353 13 36.7354V39.9963C13 42.7549 15.2296 45.0001 17.9716 45.0001H32.0284C34.7704 45.0001 37 42.7549 37 39.9963V36.7354C37 36.2353 36.5968 35.8295 36.1 35.8295Z"/>
</mask>
<path d="M36.1 35.8295C35.1148 35.8295 34.3132 35.0227 34.3132 34.0312C34.3132 33.0384 35.1148 32.2316 36.1 32.2316C36.3388 32.2316 36.568 32.1362 36.736 31.9671C36.9052 31.7968 37 31.5661 37 31.3258L36.9988 28.0624C36.9988 25.3038 34.768 23.0598 32.0272 23.0598H17.9728C15.232 23.0598 13.0012 25.3038 13.0012 28.0624L13 31.4308C13 31.6712 13.0948 31.9019 13.264 32.0722C13.432 32.2413 13.6612 32.3367 13.9 32.3367C14.9188 32.3367 15.6868 33.065 15.6868 34.0312C15.6868 35.0227 14.8852 35.8295 13.9 35.8295C13.4032 35.8295 13 36.2353 13 36.7354V39.9963C13 42.7549 15.2296 45.0001 17.9716 45.0001H32.0284C34.7704 45.0001 37 42.7549 37 39.9963V36.7354C37 36.2353 36.5968 35.8295 36.1 35.8295Z" fill="#3EA0FE" fill-opacity="0.35"/>
<path d="M36.1 36.8295C36.6523 36.8295 37.1 36.3818 37.1 35.8295C37.1 35.2773 36.6523 34.8295 36.1 34.8295V36.8295ZM36.736 31.9671L36.0266 31.2623L36.736 31.9671ZM37 31.3258H38L38 31.3254L37 31.3258ZM36.9988 28.0624H35.9988V28.0628L36.9988 28.0624ZM13.0012 28.0624L14.0012 28.0627V28.0624H13.0012ZM13 31.4308L12 31.4305V31.4308H13ZM13.264 32.0722L13.9734 31.3674H13.9734L13.264 32.0722ZM36.1 34.8295C35.5477 34.8295 35.1 35.2773 35.1 35.8295C35.1 36.3818 35.5477 36.8295 36.1 36.8295V34.8295ZM36.1 34.8295C35.6732 34.8295 35.3132 34.4766 35.3132 34.0312H33.3132C33.3132 35.5689 34.5564 36.8295 36.1 36.8295V34.8295ZM35.3132 34.0312C35.3132 33.5841 35.6736 33.2316 36.1 33.2316V31.2316C34.556 31.2316 33.3132 32.4926 33.3132 34.0312H35.3132ZM36.1 33.2316C36.605 33.2316 37.0896 33.03 37.4454 32.6719L36.0266 31.2623C36.0464 31.2423 36.0726 31.2316 36.1 31.2316V33.2316ZM37.4454 32.6719C37.8015 32.3135 38 31.8292 38 31.3258H36C36 31.3031 36.0089 31.2801 36.0266 31.2623L37.4454 32.6719ZM38 31.3254L37.9988 28.062L35.9988 28.0628L36 31.3261L38 31.3254ZM37.9988 28.0624C37.9988 24.7573 35.326 22.0598 32.0272 22.0598V24.0598C34.21 24.0598 35.9988 25.8504 35.9988 28.0624H37.9988ZM32.0272 22.0598H17.9728V24.0598H32.0272V22.0598ZM17.9728 22.0598C14.674 22.0598 12.0012 24.7573 12.0012 28.0624H14.0012C14.0012 25.8504 15.79 24.0598 17.9728 24.0598V22.0598ZM12.0012 28.062L12 31.4305L14 31.4312L14.0012 28.0627L12.0012 28.062ZM12 31.4308C12 31.9342 12.1985 32.4186 12.5546 32.777L13.9734 31.3674C13.9911 31.3852 14 31.4082 14 31.4308H12ZM12.5546 32.777C12.9104 33.1351 13.395 33.3367 13.9 33.3367V31.3367C13.9274 31.3367 13.9536 31.3474 13.9734 31.3674L12.5546 32.777ZM13.9 33.3367C14.4172 33.3367 14.6868 33.6666 14.6868 34.0312H16.6868C16.6868 32.4633 15.4204 31.3367 13.9 31.3367V33.3367ZM14.6868 34.0312C14.6868 34.4766 14.3268 34.8295 13.9 34.8295V36.8295C15.4436 36.8295 16.6868 35.5689 16.6868 34.0312H14.6868ZM13.9 34.8295C12.8448 34.8295 12 35.6892 12 36.7354H14C14 36.7815 13.9616 36.8295 13.9 36.8295V34.8295ZM12 36.7354V39.9963H14V36.7354H12ZM12 39.9963C12 43.3009 14.6711 46.0001 17.9716 46.0001V44.0001C15.7881 44.0001 14 42.2088 14 39.9963H12ZM17.9716 46.0001H32.0284V44.0001H17.9716V46.0001ZM32.0284 46.0001C35.3289 46.0001 38 43.3009 38 39.9963H36C36 42.2088 34.2119 44.0001 32.0284 44.0001V46.0001ZM38 39.9963V36.7354H36V39.9963H38ZM38 36.7354C38 35.6892 37.1552 34.8295 36.1 34.8295V36.8295C36.0384 36.8295 36 36.7815 36 36.7354H38Z" fill="url(#paint1_linear_7_981)" mask="url(#path-4-outside-1_7_981)"/>
</g>
<g filter="url(#filter2_bd_7_981)">
<path d="M29.1166 33.5286L27.7018 34.9279L28.0366 36.9062C28.0942 37.2487 27.9586 37.5863 27.6814 37.7887C27.4066 37.9934 27.0478 38.019 26.7454 37.8557L24.9994 36.9232L23.2498 37.8569C23.1202 37.9264 22.9786 37.963 22.8382 37.963C22.6546 37.963 22.4734 37.9044 22.3174 37.7899C22.0414 37.5863 21.9058 37.2487 21.9634 36.9062L22.297 34.9279L20.8822 33.5286C20.6374 33.2872 20.5522 32.9325 20.6578 32.6022C20.7646 32.2731 21.0406 32.0391 21.3778 31.9903L23.329 31.7014L24.2038 29.9011C24.3562 29.5915 24.661 29.3989 24.9994 29.3989H25.0018C25.3414 29.4001 25.6462 29.5927 25.7962 29.9023L26.671 31.7014L28.6258 31.9915C28.9594 32.0391 29.2354 32.2731 29.341 32.6022C29.4478 32.9325 29.3626 33.2872 29.1166 33.5286Z" fill="url(#paint2_linear_7_981)"/>
<path d="M29.0463 33.4575L29.0466 33.4572C29.2651 33.2428 29.3412 32.9278 29.2458 32.633L29.2458 32.6328C29.1516 32.3394 28.9066 32.1326 28.6117 32.0905L28.6111 32.0905L26.6563 31.8004L26.6041 31.7926L26.5811 31.7452L25.7063 29.9461L25.7062 29.9459C25.5727 29.6704 25.3025 29.5001 25.0016 29.4989H24.9994C24.7002 29.4989 24.4297 29.6688 24.2936 29.945C24.2936 29.9451 24.2936 29.9452 24.2935 29.9453L23.4189 31.7451L23.3959 31.7926L23.3436 31.8004L21.3924 32.0892L21.3921 32.0893C21.0933 32.1325 20.8483 32.3395 20.753 32.6329C20.6588 32.9279 20.735 33.243 20.9524 33.4574L20.9525 33.4575L22.3673 34.8568L22.4042 34.8933L22.3956 34.9445L22.062 36.9227C22.0106 37.2286 22.1315 37.5285 22.3767 37.7094C22.5158 37.8114 22.6762 37.863 22.8382 37.863C22.9613 37.863 23.0867 37.8309 23.2026 37.7688L23.2027 37.7687L24.9523 36.835L24.9994 36.8099L25.0465 36.835L26.7925 37.7675L26.7929 37.7677C27.0613 37.9126 27.3782 37.8899 27.6216 37.7085L27.6224 37.7079C27.8685 37.5283 27.9894 37.2287 27.938 36.9229L29.0463 33.4575ZM29.0463 33.4575L27.6315 34.8568L27.5945 34.8933L27.6032 34.9446L27.938 36.9227L29.0463 33.4575Z" stroke="url(#paint3_linear_7_981)" stroke-opacity="0.5" stroke-width="0.2"/>
</g>
<defs>
<filter id="filter0_f_7_981" x="0.716553" y="0.955811" width="48.7295" height="48.2529" filterUnits="userSpaceOnUse" color-interpolation-filters="sRGB">
<feFlood flood-opacity="0" result="BackgroundImageFix"/>
<feBlend mode="normal" in="SourceGraphic" in2="BackgroundImageFix" result="shape"/>
<feGaussianBlur stdDeviation="10" result="effect1_foregroundBlur_7_981"/>
</filter>
<filter id="filter1_b_7_981" x="-12" y="-1.94019" width="74" height="71.9402" filterUnits="userSpaceOnUse" color-interpolation-filters="sRGB">
<feFlood flood-opacity="0" result="BackgroundImageFix"/>
<feGaussianBlur in="BackgroundImageFix" stdDeviation="12"/>
<feComposite in2="SourceAlpha" operator="in" result="effect1_backgroundBlur_7_981"/>
<feBlend mode="normal" in="SourceGraphic" in2="effect1_backgroundBlur_7_981" result="shape"/>
</filter>
<filter id="filter2_bd_7_981" x="5.61328" y="14.3989" width="38.7729" height="38.564" filterUnits="userSpaceOnUse" color-interpolation-filters="sRGB">
<feFlood flood-opacity="0" result="BackgroundImageFix"/>
<feGaussianBlur in="BackgroundImageFix" stdDeviation="7.5"/>
<feComposite in2="SourceAlpha" operator="in" result="effect1_backgroundBlur_7_981"/>
<feColorMatrix in="SourceAlpha" type="matrix" values="0 0 0 0 0 0 0 0 0 0 0 0 0 0 0 0 0 0 127 0" result="hardAlpha"/>
<feOffset dx="5" dy="5"/>
<feGaussianBlur stdDeviation="5"/>
<feColorMatrix type="matrix" values="0 0 0 0 0.15375 0 0 0 0 0.522433 0 0 0 0 0.9 0 0 0 0.5 0"/>
<feBlend mode="normal" in2="effect1_backgroundBlur_7_981" result="effect2_dropShadow_7_981"/>
<feBlend mode="normal" in="SourceGraphic" in2="effect2_dropShadow_7_981" result="shape"/>
</filter>
<linearGradient id="paint0_linear_7_981" x1="22.3481" y1="15.7869" x2="20.9569" y2="33.6271" gradientUnits="userSpaceOnUse">
<stop stop-color="#39AFFD"/>
<stop offset="1" stop-color="#477FFF"/>
</linearGradient>
<linearGradient id="paint1_linear_7_981" x1="16.8204" y1="25.6159" x2="34.6547" y2="45.4888" gradientUnits="userSpaceOnUse">
<stop stop-color="white" stop-opacity="0.25"/>
<stop offset="1" stop-color="white" stop-opacity="0"/>
</linearGradient>
<linearGradient id="paint2_linear_7_981" x1="28.7643" y1="30.9454" x2="18.9925" y2="31.2718" gradientUnits="userSpaceOnUse">
<stop stop-color="white"/>
<stop offset="1" stop-color="white" stop-opacity="0.2"/>
</linearGradient>
<linearGradient id="paint3_linear_7_981" x1="21.5583" y1="32.2717" x2="29.0078" y2="32.3139" gradientUnits="userSpaceOnUse">
<stop stop-color="white"/>
<stop offset="1" stop-color="white" stop-opacity="0"/>
</linearGradient>
</defs>
</svg>
