<svg width="36" height="36" viewBox="0 0 36 36" fill="none" xmlns="http://www.w3.org/2000/svg">
<circle cx="17.5" cy="17.5" r="15.5" stroke="#FFEDE7" stroke-width="4"/>
<mask id="path-2-inside-1_3_89" fill="white">
<path d="M6.73988 6.58519C5.96537 5.7996 4.69035 5.78425 3.99809 6.6432C2.74158 8.20227 1.75878 9.96943 1.09705 11.8698C0.215766 14.4006 -0.0724923 17.1001 0.254508 19.76C0.581508 22.4198 1.51503 24.9691 2.98309 27.2111C4.45114 29.4532 6.41451 31.3281 8.72179 32.6913C11.0291 34.0545 13.6186 34.8697 16.2907 35.0738C18.9629 35.2779 21.6462 34.8656 24.1338 33.8687C26.6213 32.8718 28.8467 31.3168 30.6383 29.3238C31.9836 27.8273 33.0572 26.1139 33.8166 24.2611C34.2349 23.2403 33.6063 22.1309 32.5445 21.8315C31.4827 21.5321 30.3926 22.1589 29.94 23.165C29.3689 24.4345 28.6033 25.6118 27.6673 26.6531C26.2847 28.1911 24.5673 29.3911 22.6476 30.1604C20.7279 30.9298 18.6572 31.2479 16.595 31.0904C14.5329 30.9329 12.5345 30.3038 10.754 29.2518C8.97342 28.1998 7.45826 26.7529 6.32534 25.0227C5.19242 23.2925 4.472 21.3252 4.21965 19.2725C3.9673 17.2198 4.18975 15.1366 4.86986 13.1835C5.33027 11.8613 5.99208 10.6227 6.82853 9.50992C7.49139 8.62809 7.5144 7.37078 6.73988 6.58519Z"/>
</mask>
<path d="M6.73988 6.58519C5.96537 5.7996 4.69035 5.78425 3.99809 6.6432C2.74158 8.20227 1.75878 9.96943 1.09705 11.8698C0.215766 14.4006 -0.0724923 17.1001 0.254508 19.76C0.581508 22.4198 1.51503 24.9691 2.98309 27.2111C4.45114 29.4532 6.41451 31.3281 8.72179 32.6913C11.0291 34.0545 13.6186 34.8697 16.2907 35.0738C18.9629 35.2779 21.6462 34.8656 24.1338 33.8687C26.6213 32.8718 28.8467 31.3168 30.6383 29.3238C31.9836 27.8273 33.0572 26.1139 33.8166 24.2611C34.2349 23.2403 33.6063 22.1309 32.5445 21.8315C31.4827 21.5321 30.3926 22.1589 29.94 23.165C29.3689 24.4345 28.6033 25.6118 27.6673 26.6531C26.2847 28.1911 24.5673 29.3911 22.6476 30.1604C20.7279 30.9298 18.6572 31.2479 16.595 31.0904C14.5329 30.9329 12.5345 30.3038 10.754 29.2518C8.97342 28.1998 7.45826 26.7529 6.32534 25.0227C5.19242 23.2925 4.472 21.3252 4.21965 19.2725C3.9673 17.2198 4.18975 15.1366 4.86986 13.1835C5.33027 11.8613 5.99208 10.6227 6.82853 9.50992C7.49139 8.62809 7.5144 7.37078 6.73988 6.58519Z" stroke="#FEC961" stroke-width="8" mask="url(#path-2-inside-1_3_89)"/>
</svg>
