<svg width="38" height="38" viewBox="0 0 38 38" fill="none" xmlns="http://www.w3.org/2000/svg">
<circle cx="18.8792" cy="18.8791" r="18.4564" fill="#07E092"/>
<g clip-path="url(#clip0_2678_279)">
<path d="M18.879 15.104C19.5082 12.6203 21.8846 11.3521 27.0586 11.3289C27.1413 11.3285 27.2232 11.3446 27.2997 11.3761C27.3762 11.4076 27.4457 11.454 27.5042 11.5125C27.5626 11.5709 27.609 11.6404 27.6405 11.7169C27.672 11.7934 27.6881 11.8753 27.6877 11.9581L27.6877 23.2835C27.6877 23.4504 27.6215 23.6105 27.5035 23.7285C27.3855 23.8465 27.2254 23.9127 27.0586 23.9127C22.025 23.9127 20.0804 24.9277 18.879 26.4295C17.6847 24.9352 15.7331 23.9127 10.6995 23.9127C10.311 23.9127 10.0703 23.5962 10.0703 23.2077L10.0703 11.9581C10.07 11.8753 10.0861 11.7934 10.1176 11.7169C10.1491 11.6404 10.1954 11.5709 10.2539 11.5125C10.3124 11.454 10.3819 11.4076 10.4584 11.3761C10.5348 11.3446 10.6168 11.3285 10.6995 11.3289C15.8735 11.3521 18.2498 12.6203 18.879 15.104Z" stroke="white" stroke-width="1.67785" stroke-linecap="round" stroke-linejoin="round"/>
<path d="M18.8792 15.104L18.8792 26.4295" stroke="white" stroke-width="1.67785" stroke-linecap="round" stroke-linejoin="round"/>
</g>
<defs>
<clipPath id="clip0_2678_279">
<rect width="20.1342" height="20.1342" fill="white" transform="translate(8.81201 8.81207)"/>
</clipPath>
</defs>
</svg>
