<svg width="48" height="47" viewBox="0 0 48 47" fill="none" xmlns="http://www.w3.org/2000/svg">
<circle cx="24.5" cy="23.5" r="15.5" stroke="#FFFBF6" stroke-width="4"/>
<mask id="path-2-inside-1_3_103" fill="white">
<path d="M37.919 30.4107C38.9092 30.8968 40.118 30.4908 40.4882 29.4516C41.1513 27.5901 41.496 25.625 41.5029 23.6393C41.512 20.986 40.9177 18.3654 39.7649 15.9756C38.6121 13.5857 36.931 11.4894 34.8486 9.84495C33.2903 8.61432 31.5378 7.66093 29.6681 7.02123C28.6243 6.66411 27.5541 7.35737 27.3182 8.43504C27.0823 9.5127 27.7726 10.5638 28.8037 10.956C30.0859 11.4436 31.29 12.1252 32.3727 12.9802C33.9797 14.2492 35.2771 15.867 36.1667 17.7113C37.0563 19.5555 37.515 21.5779 37.5079 23.6255C37.5031 25.0051 37.2871 26.3718 36.8706 27.6788C36.5357 28.73 36.9287 29.9245 37.919 30.4107Z"/>
</mask>
<path d="M37.919 30.4107C38.9092 30.8968 40.118 30.4908 40.4882 29.4516C41.1513 27.5901 41.496 25.625 41.5029 23.6393C41.512 20.986 40.9177 18.3654 39.7649 15.9756C38.6121 13.5857 36.931 11.4894 34.8486 9.84495C33.2903 8.61432 31.5378 7.66093 29.6681 7.02123C28.6243 6.66411 27.5541 7.35737 27.3182 8.43504C27.0823 9.5127 27.7726 10.5638 28.8037 10.956C30.0859 11.4436 31.29 12.1252 32.3727 12.9802C33.9797 14.2492 35.2771 15.867 36.1667 17.7113C37.0563 19.5555 37.515 21.5779 37.5079 23.6255C37.5031 25.0051 37.2871 26.3718 36.8706 27.6788C36.5357 28.73 36.9287 29.9245 37.919 30.4107Z" stroke="#F7C461" stroke-width="8" mask="url(#path-2-inside-1_3_103)"/>
</svg>
