<svg width="50" height="55" viewBox="0 0 50 55" fill="none" xmlns="http://www.w3.org/2000/svg">
<circle opacity="0.2" cx="25" cy="30" r="25" fill="#008EFF"/>
<path d="M20.0536 27.9363C17.915 26.0546 17.512 22.848 19.1191 20.5015C20.7263 18.1549 23.8264 17.4238 26.3069 18.8064L29.7997 20.7531C32.9063 22.4846 33.86 26.5571 31.8472 29.4959C29.8343 32.4348 25.7435 32.9425 23.0651 30.5859L20.0536 27.9363Z" fill="url(#paint0_linear_3_837)"/>
<g opacity="0.5" filter="url(#filter0_f_3_837)">
<path d="M21.8496 26.7644C20.5855 25.6522 20.3472 23.7568 21.2972 22.3698C22.2472 20.9828 24.0796 20.5507 25.5458 21.3678L27.6103 22.5186C29.4466 23.542 30.0104 25.9492 28.8206 27.6863C27.6308 29.4234 25.2128 29.7235 23.6296 28.3306L21.8496 26.7644Z" fill="#0062FF"/>
</g>
<g filter="url(#filter1_b_3_837)">
<mask id="path-4-outside-1_3_837" maskUnits="userSpaceOnUse" x="12" y="22.0597" width="26" height="24" fill="black">
<rect fill="white" x="12" y="22.0597" width="26" height="24"/>
<path d="M36.1 35.8294C35.1148 35.8294 34.3132 35.0226 34.3132 34.0311C34.3132 33.0383 35.1148 32.2315 36.1 32.2315C36.3388 32.2315 36.568 32.1361 36.736 31.967C36.9052 31.7967 37 31.566 37 31.3257L36.9988 28.0623C36.9988 25.3037 34.768 23.0597 32.0272 23.0597H17.9728C15.232 23.0597 13.0012 25.3037 13.0012 28.0623L13 31.4307C13 31.6711 13.0948 31.9018 13.264 32.0721C13.432 32.2412 13.6612 32.3366 13.9 32.3366C14.9188 32.3366 15.6868 33.0649 15.6868 34.0311C15.6868 35.0226 14.8852 35.8294 13.9 35.8294C13.4032 35.8294 13 36.2352 13 36.7353V39.9962C13 42.7548 15.2296 45 17.9716 45H32.0284C34.7704 45 37 42.7548 37 39.9962V36.7353C37 36.2352 36.5968 35.8294 36.1 35.8294Z"/>
</mask>
<path d="M36.1 35.8294C35.1148 35.8294 34.3132 35.0226 34.3132 34.0311C34.3132 33.0383 35.1148 32.2315 36.1 32.2315C36.3388 32.2315 36.568 32.1361 36.736 31.967C36.9052 31.7967 37 31.566 37 31.3257L36.9988 28.0623C36.9988 25.3037 34.768 23.0597 32.0272 23.0597H17.9728C15.232 23.0597 13.0012 25.3037 13.0012 28.0623L13 31.4307C13 31.6711 13.0948 31.9018 13.264 32.0721C13.432 32.2412 13.6612 32.3366 13.9 32.3366C14.9188 32.3366 15.6868 33.0649 15.6868 34.0311C15.6868 35.0226 14.8852 35.8294 13.9 35.8294C13.4032 35.8294 13 36.2352 13 36.7353V39.9962C13 42.7548 15.2296 45 17.9716 45H32.0284C34.7704 45 37 42.7548 37 39.9962V36.7353C37 36.2352 36.5968 35.8294 36.1 35.8294Z" fill="#3EA0FE" fill-opacity="0.35"/>
<path d="M36.1 36.8294C36.6523 36.8294 37.1 36.3817 37.1 35.8294C37.1 35.2771 36.6523 34.8294 36.1 34.8294V36.8294ZM36.736 31.967L36.0266 31.2622L36.736 31.967ZM37 31.3257H38L38 31.3253L37 31.3257ZM36.9988 28.0623H35.9988V28.0626L36.9988 28.0623ZM13.0012 28.0623L14.0012 28.0626V28.0623H13.0012ZM13 31.4307L12 31.4304V31.4307H13ZM13.264 32.0721L13.9734 31.3672H13.9734L13.264 32.0721ZM36.1 34.8294C35.5477 34.8294 35.1 35.2771 35.1 35.8294C35.1 36.3817 35.5477 36.8294 36.1 36.8294V34.8294ZM36.1 34.8294C35.6732 34.8294 35.3132 34.4764 35.3132 34.0311H33.3132C33.3132 35.5688 34.5564 36.8294 36.1 36.8294V34.8294ZM35.3132 34.0311C35.3132 33.584 35.6736 33.2315 36.1 33.2315V31.2315C34.556 31.2315 33.3132 32.4925 33.3132 34.0311H35.3132ZM36.1 33.2315C36.605 33.2315 37.0896 33.0299 37.4454 32.6718L36.0266 31.2622C36.0464 31.2422 36.0726 31.2315 36.1 31.2315V33.2315ZM37.4454 32.6718C37.8015 32.3134 38 31.829 38 31.3257H36C36 31.303 36.0089 31.28 36.0266 31.2622L37.4454 32.6718ZM38 31.3253L37.9988 28.0619L35.9988 28.0626L36 31.326L38 31.3253ZM37.9988 28.0623C37.9988 24.7572 35.326 22.0597 32.0272 22.0597V24.0597C34.21 24.0597 35.9988 25.8502 35.9988 28.0623H37.9988ZM32.0272 22.0597H17.9728V24.0597H32.0272V22.0597ZM17.9728 22.0597C14.674 22.0597 12.0012 24.7572 12.0012 28.0623H14.0012C14.0012 25.8502 15.79 24.0597 17.9728 24.0597V22.0597ZM12.0012 28.0619L12 31.4304L14 31.4311L14.0012 28.0626L12.0012 28.0619ZM12 31.4307C12 31.9341 12.1985 32.4185 12.5546 32.7769L13.9734 31.3672C13.9911 31.385 14 31.4081 14 31.4307H12ZM12.5546 32.7769C12.9104 33.135 13.395 33.3366 13.9 33.3366V31.3366C13.9274 31.3366 13.9536 31.3473 13.9734 31.3672L12.5546 32.7769ZM13.9 33.3366C14.4172 33.3366 14.6868 33.6665 14.6868 34.0311H16.6868C16.6868 32.4632 15.4204 31.3366 13.9 31.3366V33.3366ZM14.6868 34.0311C14.6868 34.4764 14.3268 34.8294 13.9 34.8294V36.8294C15.4436 36.8294 16.6868 35.5688 16.6868 34.0311H14.6868ZM13.9 34.8294C12.8448 34.8294 12 35.689 12 36.7353H14C14 36.7814 13.9616 36.8294 13.9 36.8294V34.8294ZM12 36.7353V39.9962H14V36.7353H12ZM12 39.9962C12 43.3008 14.6711 46 17.9716 46V44C15.7881 44 14 42.2087 14 39.9962H12ZM17.9716 46H32.0284V44H17.9716V46ZM32.0284 46C35.3289 46 38 43.3008 38 39.9962H36C36 42.2087 34.2119 44 32.0284 44V46ZM38 39.9962V36.7353H36V39.9962H38ZM38 36.7353C38 35.689 37.1552 34.8294 36.1 34.8294V36.8294C36.0384 36.8294 36 36.7814 36 36.7353H38Z" fill="url(#paint1_linear_3_837)" mask="url(#path-4-outside-1_3_837)"/>
</g>
<g filter="url(#filter2_bd_3_837)">
<path d="M29.1166 33.5284L27.7018 34.9277L28.0366 36.906C28.0942 37.2485 27.9586 37.5861 27.6814 37.7884C27.4066 37.9932 27.0478 38.0188 26.7454 37.8555L24.9994 36.923L23.2498 37.8567C23.1202 37.9262 22.9786 37.9627 22.8382 37.9627C22.6546 37.9627 22.4734 37.9042 22.3174 37.7897C22.0414 37.5861 21.9058 37.2485 21.9634 36.906L22.297 34.9277L20.8822 33.5284C20.6374 33.287 20.5522 32.9323 20.6578 32.602C20.7646 32.2729 21.0406 32.0389 21.3778 31.9901L23.329 31.7012L24.2038 29.9009C24.3562 29.5913 24.661 29.3987 24.9994 29.3987H25.0018C25.3414 29.3999 25.6462 29.5925 25.7962 29.9021L26.671 31.7012L28.6258 31.9913C28.9594 32.0389 29.2354 32.2729 29.341 32.602C29.4478 32.9323 29.3626 33.287 29.1166 33.5284Z" fill="url(#paint2_linear_3_837)"/>
<path d="M29.0463 33.4573L29.0466 33.457C29.2651 33.2426 29.3412 32.9276 29.2458 32.6328L29.2458 32.6325C29.1516 32.3392 28.9066 32.1324 28.6117 32.0903L28.6111 32.0902L26.6563 31.8001L26.6041 31.7924L26.5811 31.745L25.7063 29.9458L25.7062 29.9457C25.5727 29.6701 25.3025 29.4999 25.0016 29.4987H24.9994C24.7002 29.4987 24.4297 29.6686 24.2936 29.9448C24.2936 29.9449 24.2936 29.945 24.2935 29.9451L23.4189 31.7449L23.3959 31.7924L23.3436 31.8001L21.3924 32.089L21.3921 32.0891C21.0933 32.1323 20.8483 32.3393 20.753 32.6327C20.6588 32.9277 20.735 33.2428 20.9524 33.4572L20.9525 33.4573L22.3673 34.8566L22.4042 34.8931L22.3956 34.9443L22.062 36.9225C22.0106 37.2283 22.1315 37.5283 22.3767 37.7092C22.5158 37.8112 22.6762 37.8627 22.8382 37.8627C22.9613 37.8627 23.0867 37.8307 23.2026 37.7686L23.2027 37.7685L24.9523 36.8348L24.9994 36.8097L25.0465 36.8348L26.7925 37.7673L26.7929 37.7675C27.0613 37.9124 27.3782 37.8897 27.6216 37.7083L27.6224 37.7077C27.8685 37.5281 27.9894 37.2285 27.938 36.9226L29.0463 33.4573ZM29.0463 33.4573L27.6315 34.8566L27.5945 34.8931L27.6032 34.9444L27.938 36.9225L29.0463 33.4573Z" stroke="url(#paint3_linear_3_837)" stroke-opacity="0.5" stroke-width="0.2"/>
</g>
<defs>
<filter id="filter0_f_3_837" x="0.716797" y="0.956009" width="48.7295" height="48.2528" filterUnits="userSpaceOnUse" color-interpolation-filters="sRGB">
<feFlood flood-opacity="0" result="BackgroundImageFix"/>
<feBlend mode="normal" in="SourceGraphic" in2="BackgroundImageFix" result="shape"/>
<feGaussianBlur stdDeviation="10" result="effect1_foregroundBlur_3_837"/>
</filter>
<filter id="filter1_b_3_837" x="-12" y="-1.94029" width="74" height="71.9403" filterUnits="userSpaceOnUse" color-interpolation-filters="sRGB">
<feFlood flood-opacity="0" result="BackgroundImageFix"/>
<feGaussianBlur in="BackgroundImageFix" stdDeviation="12"/>
<feComposite in2="SourceAlpha" operator="in" result="effect1_backgroundBlur_3_837"/>
<feBlend mode="normal" in="SourceGraphic" in2="effect1_backgroundBlur_3_837" result="shape"/>
</filter>
<filter id="filter2_bd_3_837" x="5.61328" y="14.3987" width="38.7729" height="38.564" filterUnits="userSpaceOnUse" color-interpolation-filters="sRGB">
<feFlood flood-opacity="0" result="BackgroundImageFix"/>
<feGaussianBlur in="BackgroundImageFix" stdDeviation="7.5"/>
<feComposite in2="SourceAlpha" operator="in" result="effect1_backgroundBlur_3_837"/>
<feColorMatrix in="SourceAlpha" type="matrix" values="0 0 0 0 0 0 0 0 0 0 0 0 0 0 0 0 0 0 127 0" result="hardAlpha"/>
<feOffset dx="5" dy="5"/>
<feGaussianBlur stdDeviation="5"/>
<feColorMatrix type="matrix" values="0 0 0 0 0.15375 0 0 0 0 0.522433 0 0 0 0 0.9 0 0 0 0.5 0"/>
<feBlend mode="normal" in2="effect1_backgroundBlur_3_837" result="effect2_dropShadow_3_837"/>
<feBlend mode="normal" in="SourceGraphic" in2="effect2_dropShadow_3_837" result="shape"/>
</filter>
<linearGradient id="paint0_linear_3_837" x1="22.3481" y1="15.787" x2="20.9569" y2="33.6272" gradientUnits="userSpaceOnUse">
<stop stop-color="#39AFFD"/>
<stop offset="1" stop-color="#477FFF"/>
</linearGradient>
<linearGradient id="paint1_linear_3_837" x1="16.8204" y1="25.6158" x2="34.6547" y2="45.4886" gradientUnits="userSpaceOnUse">
<stop stop-color="white" stop-opacity="0.25"/>
<stop offset="1" stop-color="white" stop-opacity="0"/>
</linearGradient>
<linearGradient id="paint2_linear_3_837" x1="28.7643" y1="30.9452" x2="18.9925" y2="31.2716" gradientUnits="userSpaceOnUse">
<stop stop-color="white"/>
<stop offset="1" stop-color="white" stop-opacity="0.2"/>
</linearGradient>
<linearGradient id="paint3_linear_3_837" x1="21.5583" y1="32.2715" x2="29.0078" y2="32.3137" gradientUnits="userSpaceOnUse">
<stop stop-color="white"/>
<stop offset="1" stop-color="white" stop-opacity="0"/>
</linearGradient>
</defs>
</svg>
