<svg width="78" height="13" viewBox="0 0 78 13" fill="none" xmlns="http://www.w3.org/2000/svg">
<path d="M13.5333 4.70793C13.4477 4.44465 13.2142 4.25825 12.939 4.23335L9.18566 3.8926L7.70233 0.419814C7.59281 0.164672 7.34362 0 7.06626 0C6.78889 0 6.53961 0.164672 6.43078 0.419814L4.94745 3.8926L1.19353 4.23335C0.918345 4.25875 0.685324 4.44515 0.599219 4.70793C0.513609 4.9712 0.592672 5.25997 0.800793 5.4425L3.63801 7.93034L2.80146 11.6148C2.74025 11.8857 2.8454 12.1659 3.07019 12.3284C3.19101 12.4162 3.33297 12.46 3.47542 12.46C3.59783 12.46 3.72034 12.4275 3.82976 12.362L7.06626 10.4268L10.3022 12.362C10.5395 12.5038 10.838 12.4909 11.0623 12.3284C11.2871 12.1659 11.3923 11.8857 11.3311 11.6148L10.4945 7.93034L13.3317 5.4425C13.5397 5.25997 13.6189 4.9718 13.5333 4.70793Z" fill="#6640FF"/>
<path d="M29.5352 4.70793C29.4496 4.44465 29.2161 4.25825 28.9409 4.23335L25.1876 3.8926L23.7043 0.419814C23.5948 0.164672 23.3456 0 23.0682 0C22.7908 0 22.5416 0.164672 22.4327 0.419814L20.9494 3.8926L17.1955 4.23335C16.9203 4.25875 16.6873 4.44515 16.6012 4.70793C16.5156 4.9712 16.5946 5.25997 16.8027 5.4425L19.64 7.93034L18.8034 11.6148C18.7422 11.8857 18.8474 12.1659 19.0721 12.3284C19.193 12.4162 19.3349 12.46 19.4774 12.46C19.5998 12.46 19.7223 12.4275 19.8317 12.362L23.0682 10.4268L26.3041 12.362C26.5415 12.5038 26.84 12.4909 27.0643 12.3284C27.2891 12.1659 27.3942 11.8857 27.333 11.6148L26.4965 7.93034L29.3337 5.4425C29.5417 5.25997 29.6209 4.9718 29.5352 4.70793Z" fill="#6640FF"/>
<path d="M45.5372 4.70793C45.4516 4.44465 45.2181 4.25825 44.9429 4.23335L41.1896 3.8926L39.7062 0.419814C39.5967 0.164672 39.3475 0 39.0702 0C38.7928 0 38.5435 0.164672 38.4347 0.419814L36.9514 3.8926L33.1974 4.23335C32.9223 4.25875 32.6892 4.44515 32.6031 4.70793C32.5175 4.9712 32.5966 5.25997 32.8047 5.4425L35.6419 7.93034L34.8054 11.6148C34.7442 11.8857 34.8493 12.1659 35.0741 12.3284C35.1949 12.4162 35.3369 12.46 35.4793 12.46C35.6017 12.46 35.7243 12.4275 35.8337 12.362L39.0702 10.4268L42.3061 12.362C42.5434 12.5038 42.8419 12.4909 43.0662 12.3284C43.291 12.1659 43.3962 11.8857 43.335 11.6148L42.4984 7.93034L45.3356 5.4425C45.5436 5.25997 45.6228 4.9718 45.5372 4.70793Z" fill="#6640FF"/>
<path d="M61.5392 4.70793C61.4535 4.44465 61.22 4.25825 60.9448 4.23335L57.1915 3.8926L55.7082 0.419814C55.5987 0.164672 55.3495 0 55.0721 0C54.7948 0 54.5455 0.164672 54.4366 0.419814L52.9533 3.8926L49.1994 4.23335C48.9242 4.25875 48.6912 4.44515 48.6051 4.70793C48.5195 4.9712 48.5985 5.25997 48.8067 5.4425L51.6439 7.93034L50.8073 11.6148C50.7461 11.8857 50.8513 12.1659 51.076 12.3284C51.1969 12.4162 51.3388 12.46 51.4813 12.46C51.6037 12.46 51.7262 12.4275 51.8356 12.362L55.0721 10.4268L58.308 12.362C58.5454 12.5038 58.8439 12.4909 59.0682 12.3284C59.293 12.1659 59.3981 11.8857 59.3369 11.6148L58.5004 7.93034L61.3376 5.4425C61.5456 5.25997 61.6248 4.9718 61.5392 4.70793Z" fill="#6640FF"/>
<path opacity="0.3" d="M77.5411 4.70793C77.4555 4.44465 77.222 4.25825 76.9468 4.23335L73.1935 3.8926L71.7101 0.419814C71.6006 0.164672 71.3514 0 71.0741 0C70.7967 0 70.5474 0.164672 70.4386 0.419814L68.9553 3.8926L65.2013 4.23335C64.9262 4.25875 64.6931 4.44515 64.607 4.70793C64.5214 4.9712 64.6005 5.25997 64.8086 5.4425L67.6458 7.93034L66.8093 11.6148C66.7481 11.8857 66.8532 12.1659 67.078 12.3284C67.1988 12.4162 67.3408 12.46 67.4832 12.46C67.6056 12.46 67.7282 12.4275 67.8376 12.362L71.0741 10.4268L74.31 12.362C74.5474 12.5038 74.8458 12.4909 75.0701 12.3284C75.2949 12.1659 75.4001 11.8857 75.3389 11.6148L74.5023 7.93034L77.3395 5.4425C77.5476 5.25997 77.6267 4.9718 77.5411 4.70793Z" fill="#5B7486"/>
</svg>
