<svg width="83" height="83" viewBox="0 0 83 83" fill="none" xmlns="http://www.w3.org/2000/svg">
<rect width="83" height="83" rx="20" fill="#F563D3"/>
<path d="M21.0699 31.0158C21.0839 31.0944 21.0952 31.173 21.0999 31.2523C21.1592 32.2695 21.9282 40.3854 31.5962 50.2673C31.5962 50.2673 39.9477 58.7782 48.7374 60.5676C48.7754 60.5755 48.8128 60.584 48.8508 60.5945C49.383 60.7392 53.9075 61.8828 56.2398 59.5439L59.5626 56.2807C59.5926 56.2512 59.6239 56.2224 59.6559 56.1949C59.9874 55.91 62.295 53.778 59.9867 51.5111C57.6504 49.2167 54.7052 46.4192 54.3717 46.1022C54.3557 46.0871 54.3404 46.0721 54.3251 46.0563C54.1443 45.8716 52.4276 44.2106 50.4168 45.7282C50.3587 45.7721 50.304 45.8212 50.252 45.8723L46.9987 49.0758C46.2697 49.7668 45.1119 49.7577 44.3936 49.0555L33.2789 38.1821C32.5326 37.4517 32.552 36.259 33.3216 35.5523L35.9227 33.1655C35.9227 33.1655 38.7726 30.5744 35.712 27.7756L31.1687 23.3138C31.1407 23.2863 31.114 23.2581 31.0874 23.2287C30.7939 22.9038 28.6163 20.6794 26.0613 23.1553C25.9832 23.2306 25.8985 23.2987 25.8085 23.359C24.9415 23.9433 20.3849 27.2077 21.0699 31.0158Z" fill="white"/>
<path d="M51.6928 38.9644C52.3964 38.9641 52.9758 38.3905 52.8762 37.6939C52.7531 36.8338 52.5058 35.9938 52.1402 35.2006C51.5962 34.0206 50.8032 32.9724 49.8156 32.128C48.828 31.2836 47.6693 30.663 46.4191 30.309C45.5788 30.071 44.7105 29.9573 43.8417 29.9693C43.1381 29.9791 42.6615 30.6406 42.7705 31.3358C42.8795 32.031 43.5348 32.4929 44.2378 32.5224C44.7397 32.5435 45.2387 32.6232 45.7248 32.7608C46.621 33.0146 47.4516 33.4595 48.1596 34.0648C48.8676 34.6701 49.4361 35.4215 49.826 36.2674C50.0375 36.7262 50.1938 37.2069 50.2926 37.6993C50.431 38.3892 50.9891 38.9648 51.6928 38.9644Z" fill="#F9A1E5"/>
<path d="M56.9542 39.109C57.8018 39.1753 58.552 38.5404 58.5203 37.6908C58.4627 36.1455 58.1367 34.618 57.5531 33.1776C56.7762 31.2602 55.5642 29.5498 54.0128 28.1814C52.4613 26.8129 50.6129 25.824 48.6136 25.2926C47.1116 24.8935 45.5553 24.7608 44.0149 24.8966C43.168 24.9712 42.6318 25.7948 42.8034 26.6275C42.9751 27.4602 43.7906 27.9837 44.6396 27.9384C45.7082 27.8814 46.7824 27.9917 47.8228 28.2682C49.3608 28.6769 50.7827 29.4377 51.9762 30.4903C53.1696 31.543 54.102 32.8588 54.6996 34.3337C55.1038 35.3314 55.3474 36.3835 55.4242 37.4509C55.4853 38.2989 56.1066 39.0426 56.9542 39.109Z" fill="#F9A1E5"/>
</svg>
