<svg width="33" height="988" viewBox="0 0 33 988" fill="none" xmlns="http://www.w3.org/2000/svg">
<path d="M30 877C30 869.271 23.7292 863 16 863C8.27083 863 2 869.271 2 877C2 884.729 8.27083 891 16 891C23.7292 891 30 884.729 30 877Z" stroke="#31C65B" stroke-width="3" stroke-miterlimit="10"/>
<path d="M23 871.166L13.2 882.833L9 878.166" stroke="#31C65B" stroke-width="3" stroke-linecap="round" stroke-linejoin="round"/>
<path d="M30 783C30 775.271 23.7292 769 16 769C8.27083 769 2 775.271 2 783C2 790.729 8.27083 797 16 797C23.7292 797 30 790.729 30 783Z" stroke="#BEBEBE" stroke-width="3" stroke-miterlimit="10"/>
<path d="M11.333 787.666L20.6663 778.333M20.6663 787.666L11.333 778.333L20.6663 787.666Z" stroke="#BEBEBE" stroke-width="3" stroke-linecap="round" stroke-linejoin="round"/>
<path d="M30 972C30 964.271 23.7292 958 16 958C8.27083 958 2 964.271 2 972C2 979.729 8.27083 986 16 986C23.7292 986 30 979.729 30 972Z" stroke="#BEBEBE" stroke-width="3" stroke-miterlimit="10"/>
<path d="M11.333 976.666L20.6663 967.333M20.6663 976.666L11.333 967.333L20.6663 976.666Z" stroke="#BEBEBE" stroke-width="3" stroke-linecap="round" stroke-linejoin="round"/>
<path d="M31 494C31 486.271 24.7292 480 17 480C9.27083 480 3 486.271 3 494C3 501.729 9.27083 508 17 508C24.7292 508 31 501.729 31 494Z" stroke="#31C65B" stroke-width="3" stroke-miterlimit="10"/>
<path d="M24 488.166L14.2 499.833L10 495.166" stroke="#31C65B" stroke-width="3" stroke-linecap="round" stroke-linejoin="round"/>
<path d="M31 401C31 393.271 24.7292 387 17 387C9.27083 387 3 393.271 3 401C3 408.729 9.27083 415 17 415C24.7292 415 31 408.729 31 401Z" stroke="#BEBEBE" stroke-width="3" stroke-miterlimit="10"/>
<path d="M12.333 405.666L21.6663 396.333M21.6663 405.666L12.333 396.333L21.6663 405.666Z" stroke="#BEBEBE" stroke-width="3" stroke-linecap="round" stroke-linejoin="round"/>
<path d="M30 584C30 576.271 23.7292 570 16 570C8.27083 570 2 576.271 2 584C2 591.729 8.27083 598 16 598C23.7292 598 30 591.729 30 584Z" stroke="#BEBEBE" stroke-width="3" stroke-miterlimit="10"/>
<path d="M11.333 588.666L20.6663 579.333M20.6663 588.666L11.333 579.333L20.6663 588.666Z" stroke="#BEBEBE" stroke-width="3" stroke-linecap="round" stroke-linejoin="round"/>
<path d="M30 16C30 8.27083 23.7292 2 16 2C8.27083 2 2 8.27083 2 16C2 23.7292 8.27083 30 16 30C23.7292 30 30 23.7292 30 16Z" stroke="#31C65B" stroke-width="3" stroke-miterlimit="10"/>
<path d="M23 10.166L13.2 21.8327L9 17.166" stroke="#31C65B" stroke-width="3" stroke-linecap="round" stroke-linejoin="round"/>
<path d="M30 111C30 103.271 23.7292 97 16 97C8.27083 97 2 103.271 2 111C2 118.729 8.27083 125 16 125C23.7292 125 30 118.729 30 111Z" stroke="#BEBEBE" stroke-width="3" stroke-miterlimit="10"/>
<path d="M11.333 115.666L20.6663 106.333M20.6663 115.666L11.333 106.333L20.6663 115.666Z" stroke="#BEBEBE" stroke-width="3" stroke-linecap="round" stroke-linejoin="round"/>
<path d="M30 206C30 198.271 23.7292 192 16 192C8.27083 192 2 198.271 2 206C2 213.729 8.27083 220 16 220C23.7292 220 30 213.729 30 206Z" stroke="#BEBEBE" stroke-width="3" stroke-miterlimit="10"/>
<path d="M11.333 210.666L20.6663 201.333M20.6663 210.666L11.333 201.333L20.6663 210.666Z" stroke="#BEBEBE" stroke-width="3" stroke-linecap="round" stroke-linejoin="round"/>
</svg>
