<svg width="32" height="985" viewBox="0 0 32 985" fill="none" xmlns="http://www.w3.org/2000/svg">
<path d="M30 778C30 770.271 23.7292 764 16 764C8.27083 764 2 770.271 2 778C2 785.729 8.27083 792 16 792C23.7292 792 30 785.729 30 778Z" stroke="#31C65B" stroke-width="3" stroke-miterlimit="10"/>
<path d="M23 772.166L13.2 783.833L9 779.166" stroke="#31C65B" stroke-width="3" stroke-linecap="round" stroke-linejoin="round"/>
<path d="M30 874C30 866.271 23.7292 860 16 860C8.27083 860 2 866.271 2 874C2 881.729 8.27083 888 16 888C23.7292 888 30 881.729 30 874Z" stroke="#31C65B" stroke-width="3" stroke-miterlimit="10"/>
<path d="M23 868.166L13.2 879.833L9 875.166" stroke="#31C65B" stroke-width="3" stroke-linecap="round" stroke-linejoin="round"/>
<path d="M30 969C30 961.271 23.7292 955 16 955C8.27083 955 2 961.271 2 969C2 976.729 8.27083 983 16 983C23.7292 983 30 976.729 30 969Z" stroke="#31C65B" stroke-width="3" stroke-miterlimit="10"/>
<path d="M23 963.166L13.2 974.833L9 970.166" stroke="#31C65B" stroke-width="3" stroke-linecap="round" stroke-linejoin="round"/>
<path d="M30 394C30 386.271 23.7292 380 16 380C8.27083 380 2 386.271 2 394C2 401.729 8.27083 408 16 408C23.7292 408 30 401.729 30 394Z" stroke="#31C65B" stroke-width="3" stroke-miterlimit="10"/>
<path d="M23 388.166L13.2 399.833L9 395.166" stroke="#31C65B" stroke-width="3" stroke-linecap="round" stroke-linejoin="round"/>
<path d="M30 490C30 482.271 23.7292 476 16 476C8.27083 476 2 482.271 2 490C2 497.729 8.27083 504 16 504C23.7292 504 30 497.729 30 490Z" stroke="#31C65B" stroke-width="3" stroke-miterlimit="10"/>
<path d="M23 484.166L13.2 495.833L9 491.166" stroke="#31C65B" stroke-width="3" stroke-linecap="round" stroke-linejoin="round"/>
<path d="M30 585C30 577.271 23.7292 571 16 571C8.27083 571 2 577.271 2 585C2 592.729 8.27083 599 16 599C23.7292 599 30 592.729 30 585Z" stroke="#31C65B" stroke-width="3" stroke-miterlimit="10"/>
<path d="M23 579.166L13.2 590.833L9 586.166" stroke="#31C65B" stroke-width="3" stroke-linecap="round" stroke-linejoin="round"/>
<path d="M30 16C30 8.27083 23.7292 2 16 2C8.27083 2 2 8.27083 2 16C2 23.7292 8.27083 30 16 30C23.7292 30 30 23.7292 30 16Z" stroke="#31C65B" stroke-width="3" stroke-miterlimit="10"/>
<path d="M23 10.166L13.2 21.8327L9 17.166" stroke="#31C65B" stroke-width="3" stroke-linecap="round" stroke-linejoin="round"/>
<path d="M30 112C30 104.271 23.7292 98 16 98C8.27083 98 2 104.271 2 112C2 119.729 8.27083 126 16 126C23.7292 126 30 119.729 30 112Z" stroke="#31C65B" stroke-width="3" stroke-miterlimit="10"/>
<path d="M23 106.166L13.2 117.833L9 113.166" stroke="#31C65B" stroke-width="3" stroke-linecap="round" stroke-linejoin="round"/>
<path d="M30 207C30 199.271 23.7292 193 16 193C8.27083 193 2 199.271 2 207C2 214.729 8.27083 221 16 221C23.7292 221 30 214.729 30 207Z" stroke="#31C65B" stroke-width="3" stroke-miterlimit="10"/>
<path d="M23 201.166L13.2 212.833L9 208.166" stroke="#31C65B" stroke-width="3" stroke-linecap="round" stroke-linejoin="round"/>
</svg>
