<svg width="131" height="30" viewBox="0 0 131 30" fill="none" xmlns="http://www.w3.org/2000/svg">
<g clip-path="url(#clip0_3_627)">
<path fill-rule="evenodd" clip-rule="evenodd" d="M44.6899 19.3771L44.6648 19.0494H44.3298H42.2498H41.8735L41.889 19.418C42.0606 23.5243 44.8842 26.2441 49.9053 26.2441C54.6944 26.2441 57.9509 23.8044 57.9509 20.1116C57.9509 18.1148 57.2445 16.7017 55.8981 15.7367C54.8625 14.9944 53.6241 14.5759 51.5706 14.1394C51.4333 14.1102 51.2906 14.0804 51.119 14.045C51.0176 14.024 50.6523 13.9491 50.6716 13.9531C46.9425 13.1865 45.7598 12.5206 45.7598 10.5376C45.7598 8.48688 47.4701 7.18097 50.3387 7.18097C53.1295 7.18097 54.8935 8.85225 54.9753 11.4831L54.9863 11.8264H55.3364H57.3876H57.7569L57.7487 11.4641C57.652 7.36323 54.8457 4.60334 50.3098 4.60334C45.864 4.60334 42.9287 7.22626 42.9287 10.6225C42.9287 12.6137 43.6344 14.0003 44.9829 14.9268C46.0101 15.6325 47.2001 16.0067 49.2994 16.4223C49.3977 16.4417 49.5002 16.4618 49.6223 16.4856C49.698 16.5003 49.7832 16.5168 49.9435 16.5479C51.93 16.9332 52.8063 17.171 53.6059 17.6269C54.5984 18.1928 55.0909 19.0011 55.0909 20.2532C55.0909 22.4271 53.2269 23.6665 49.9631 23.6665C46.8386 23.6665 44.8996 22.1301 44.6899 19.3771ZM63.8009 4.24927V3.8952H63.4398H61.3887H61.0276V4.24927V25.4935V25.8475H61.3887H63.4398H63.8009V25.4935V21.7056L66.72 18.9179L71.9335 25.7064L72.0418 25.8475H72.222H74.7642H75.4916L75.0517 25.2794L68.6848 17.0567L74.5568 11.3267L75.1766 10.7217H74.302H71.5576H71.4073L71.3013 10.8263L63.8009 18.2328V4.24927ZM89.7142 19.2193H90.0533L90.0746 18.8874C90.0784 18.829 90.0839 18.7324 90.0894 18.6162C90.0936 18.5241 90.0973 18.4344 90.0997 18.3496C90.1028 18.2577 90.1042 18.1741 90.1042 18.1005C90.1042 13.6563 87.1022 10.3818 82.6653 10.3818C78.2367 10.3818 75.082 13.8674 75.082 18.2704C75.082 22.8012 78.094 26.1874 82.6942 26.1874C86.1726 26.1874 88.8599 24.1638 89.8281 21.0943L89.9728 20.6356H89.4831H87.3453H87.0901L87.0049 20.8713C86.3968 22.5513 84.7508 23.6665 82.7231 23.6665C80.0722 23.6665 78.224 21.8814 77.8911 19.2193H89.7142ZM77.975 16.8683C78.4431 14.4848 80.2311 12.9027 82.6653 12.9027C85.1742 12.9027 86.9058 14.4329 87.2845 16.8683H77.975ZM99.2042 13.1293H99.5653V12.7753V11.0757V10.7217H99.2042H96.1853V6.96853V6.61446H95.8242H93.7731H93.412V6.96853V10.7217H90.9709H90.6098V11.0757V12.7753V13.1293H90.9709H93.412V21.6129C93.412 24.3958 94.8843 25.9042 97.5864 25.9042C98.0579 25.9042 98.4648 25.8765 98.806 25.83C99.0171 25.8013 99.1626 25.7715 99.2431 25.7496L99.5076 25.6776V25.4085V23.5956V23.1563L99.0697 23.2497C99.0522 23.2534 99.0168 23.2605 98.9662 23.2698C98.8802 23.2855 98.7846 23.3014 98.6822 23.3162C98.4198 23.354 98.1591 23.3783 97.9193 23.3825C97.8946 23.383 97.8705 23.3832 97.8464 23.3832C96.6627 23.3832 96.1853 22.838 96.1853 21.4712V13.1293H99.2042ZM107.828 26.1874C111.666 26.1874 114.377 23.8057 115.057 20.4353L115.143 20.0125H114.703H112.623H112.346L112.274 20.2756C111.691 22.4264 110.108 23.6665 107.828 23.6665C104.981 23.6665 103.018 21.4649 103.018 18.2988C103.018 15.1081 104.978 12.9027 107.828 12.9027C110.108 12.9027 111.691 14.1428 112.274 16.2936L112.346 16.5567H112.623H114.703H115.143L115.057 16.1339C114.377 12.7635 111.666 10.3818 107.828 10.3818C103.368 10.3818 100.215 13.892 100.215 18.2988C100.215 22.6812 103.373 26.1874 107.828 26.1874ZM120.25 4.24927V3.8952H119.889H117.838H117.476V4.24927V25.4935V25.8475H117.838H119.889H120.25V25.4935V16.9675C120.25 14.3697 121.862 12.8461 124.309 12.8461C126.645 12.8461 127.819 14.1723 127.819 16.6842V25.4935V25.8475H128.18H130.231H130.592V25.4935V16.2876C130.592 12.7394 128.351 10.3818 124.655 10.3818C122.754 10.3818 121.225 11.0648 120.25 12.0451V4.24927Z" fill="black"/>
<path fill-rule="evenodd" clip-rule="evenodd" d="M7.79257 1.1575L17.0783 0.202698L26.364 1.1575L33.5529 10.5437L17.0783 29.2027L0.603638 10.5437L7.79257 1.1575Z" fill="#FDB300"/>
<path fill-rule="evenodd" clip-rule="evenodd" d="M7.27663 10.5435L17.0782 29.2027L0.603638 10.5435H7.27663Z" fill="#EA6C00"/>
<path fill-rule="evenodd" clip-rule="evenodd" d="M26.88 10.5435L17.0784 29.2027L33.5529 10.5435H26.88Z" fill="#EA6C00"/>
<path fill-rule="evenodd" clip-rule="evenodd" d="M7.27673 10.5435H26.8799L17.0783 29.2027L7.27673 10.5435Z" fill="#FDAD00"/>
<path fill-rule="evenodd" clip-rule="evenodd" d="M17.0783 0.202698L7.79261 1.15734L7.27673 10.5436L17.0783 0.202698Z" fill="#FDD231"/>
<path fill-rule="evenodd" clip-rule="evenodd" d="M17.0784 0.202698L26.3641 1.15734L26.88 10.5436L17.0784 0.202698Z" fill="#FDD231"/>
<path fill-rule="evenodd" clip-rule="evenodd" d="M33.553 10.5436L26.3641 1.15741L26.88 10.5436H33.553Z" fill="#FDAD00"/>
<path fill-rule="evenodd" clip-rule="evenodd" d="M0.603638 10.5436L7.7925 1.15741L7.27663 10.5436H0.603638Z" fill="#FDAD00"/>
<path fill-rule="evenodd" clip-rule="evenodd" d="M17.0783 0.202698L7.27673 10.5436H26.8799L17.0783 0.202698Z" fill="#FEEEB7"/>
</g>
<defs>
<clipPath id="clip0_3_627">
<rect width="130" height="29" fill="white" transform="translate(0.603638 0.202698)"/>
</clipPath>
</defs>
</svg>
