<svg width="701" height="355" viewBox="0 0 701 355" fill="none" xmlns="http://www.w3.org/2000/svg">
<g filter="url(#filter0_d_7_1184)">
<path d="M65 51C65 45.3995 65 42.5992 66.0899 40.4601C67.0487 38.5785 68.5785 37.0487 70.4601 36.0899C72.5992 35 75.3995 35 81 35H310.855C312.947 35 313.993 35 314.993 34.7936C315.88 34.6105 316.738 34.3078 317.544 33.8936C318.452 33.4267 319.266 32.7703 320.895 31.4575L340.443 15.7025C343.865 12.9449 345.575 11.566 347.484 11.0055C349.168 10.5108 350.952 10.468 352.658 10.8814C354.59 11.3498 356.365 12.645 359.915 15.2354L382.786 31.9247C384.35 33.0662 385.132 33.637 385.99 34.0421C386.751 34.4015 387.554 34.6635 388.381 34.8217C389.312 35 390.281 35 392.217 35H620C625.601 35 628.401 35 630.54 36.0899C632.422 37.0487 633.951 38.5785 634.91 40.4601C636 42.5992 636 45.3995 636 51V220C636 225.601 636 228.401 634.91 230.54C633.951 232.422 632.422 233.951 630.54 234.91C628.401 236 625.601 236 620 236H81C75.3995 236 72.5992 236 70.4601 234.91C68.5785 233.951 67.0487 232.422 66.0899 230.54C65 228.401 65 225.601 65 220V51Z" fill="white"/>
</g>
<defs>
<filter id="filter0_d_7_1184" x="0.906738" y="0.986111" width="699.187" height="353.586" filterUnits="userSpaceOnUse" color-interpolation-filters="sRGB">
<feFlood flood-opacity="0" result="BackgroundImageFix"/>
<feColorMatrix in="SourceAlpha" type="matrix" values="0 0 0 0 0 0 0 0 0 0 0 0 0 0 0 0 0 0 127 0" result="hardAlpha"/>
<feOffset dy="54.4793"/>
<feGaussianBlur stdDeviation="32.0466"/>
<feComposite in2="hardAlpha" operator="out"/>
<feColorMatrix type="matrix" values="0 0 0 0 0.804167 0 0 0 0 0.804167 0 0 0 0 0.804167 0 0 0 0.16 0"/>
<feBlend mode="normal" in2="BackgroundImageFix" result="effect1_dropShadow_7_1184"/>
<feBlend mode="normal" in="SourceGraphic" in2="effect1_dropShadow_7_1184" result="shape"/>
</filter>
</defs>
</svg>
