<svg width="21" height="21" viewBox="0 0 21 21" fill="none" xmlns="http://www.w3.org/2000/svg">
<path d="M1.20664 10.1865C1.20664 9.87225 1.22195 9.5617 1.25184 9.25553L0.828587 9.2142C0.892681 8.55771 1.02099 7.91998 1.20714 7.30735L1.61404 7.43099C1.79626 6.83129 2.03644 6.25665 2.32809 5.71354L1.95343 5.51234C2.26183 4.93804 2.62525 4.39759 3.0366 3.89801L3.3649 4.16834C3.7601 3.68839 4.20153 3.24782 4.68234 2.85346L4.41264 2.52464C4.91293 2.1143 5.45404 1.75185 6.02888 1.44431L6.22949 1.81929C6.7731 1.52847 7.34814 1.28901 7.94811 1.10734L7.82486 0.70032C8.43773 0.514742 9.07556 0.386846 9.73198 0.322955L9.77318 0.746223C10.0794 0.716414 10.39 0.701148 10.7043 0.701148C11.0185 0.701148 11.3291 0.716414 11.6354 0.746223L11.6766 0.322955C12.333 0.386846 12.9708 0.514742 13.5837 0.70032L13.4604 1.10734C14.0604 1.28901 14.6354 1.52847 15.179 1.81929L15.3797 1.44431C15.9545 1.75185 16.4956 2.1143 16.9959 2.52464L16.7262 2.85346C17.207 3.24782 17.6484 3.68839 18.0436 4.16834L18.3719 3.89801C18.7833 4.39759 19.1467 4.93804 19.4551 5.51234L19.0804 5.71354C19.3721 6.25665 19.6123 6.83129 19.7945 7.43099L20.2014 7.30735C20.3875 7.91998 20.5159 8.55771 20.5799 9.2142L20.1567 9.25553C20.1866 9.5617 20.2019 9.87225 20.2019 10.1865C20.2019 10.5007 20.1866 10.8113 20.1567 11.1174L20.5799 11.1588C20.5159 11.8153 20.3875 12.453 20.2014 13.0656L19.7945 12.942C19.6123 13.5417 19.3721 14.1163 19.0804 14.6594L19.4551 14.8606C19.1467 15.4349 18.7833 15.9754 18.3719 16.475L18.0436 16.2046C17.6484 16.6846 17.207 17.1252 16.7262 17.5195L16.9959 17.8483C16.4956 18.2587 15.9545 18.6211 15.3797 18.9287L15.179 18.5537C14.6354 18.8445 14.0604 19.084 13.4604 19.2656L13.5837 19.6727C12.9708 19.8582 12.333 19.9861 11.6766 20.05L11.6354 19.6268C11.3291 19.6566 11.0185 19.6718 10.7043 19.6718C10.39 19.6718 10.0794 19.6566 9.77318 19.6268L9.73198 20.05C9.07556 19.9861 8.43773 19.8582 7.82486 19.6727L7.94811 19.2656C7.34814 19.084 6.7731 18.8445 6.22949 18.5537L6.02888 18.9287C5.45404 18.6211 4.91293 18.2587 4.41264 17.8483L4.68233 17.5195C4.20153 17.1252 3.7601 16.6846 3.3649 16.2046L3.0366 16.475C2.62524 15.9754 2.26183 15.4349 1.95343 14.8606L2.32809 14.6594C2.03644 14.1163 1.79626 13.5417 1.61404 12.942L1.20714 13.0656C1.02099 12.453 0.892681 11.8153 0.828587 11.1588L1.25184 11.1174C1.22195 10.8113 1.20664 10.5007 1.20664 10.1865Z" fill="white" stroke="#D0D0D0" stroke-width="0.850538" stroke-dasharray="2.13 2.13"/>
</svg>
